<?xml version="1.0" encoding="UTF-8" standalone="no"?>
<!DOCTYPE svg PUBLIC "-//W3C//DTD SVG 1.1//EN"
 "http://www.w3.org/Graphics/SVG/1.1/DTD/svg11.dtd">
<!-- Generated by graphviz version 9.0.0 (20230911.1827)
 -->
<!-- Title: ProbabilityDist::ContinuousInversion Pages: 1 -->
<svg width="173pt" height="516pt"
 viewBox="0.00 0.00 173.00 516.25" xmlns="http://www.w3.org/2000/svg" xmlns:xlink="http://www.w3.org/1999/xlink">
<g id="graph0" class="graph" transform="scale(1 1) rotate(0) translate(4 512.25)">
<title>ProbabilityDist::ContinuousInversion</title>
<!-- Node1 -->
<g id="Node000001" class="node">
<title>Node1</title>
<g id="a_Node000001"><a xlink:title="Class which uses PENELOPE&#39;s RITA inversion sampling algorithm to sample from a continuous distributio...">
<polygon fill="#999999" stroke="none" points="165,-352 0,-352 0,0 165,0 165,-352"/>
<text text-anchor="start" x="24.75" y="-338.5" font-family="Helvetica,sans-Serif" font-size="10.00">ProbabilityDist::Continuous</text>
<text text-anchor="start" x="62.62" y="-327.25" font-family="Helvetica,sans-Serif" font-size="10.00">Inversion</text>
<text text-anchor="start" x="5.5" y="-312.5" font-family="Helvetica,sans-Serif" font-size="10.00">&#45;</text>
<text text-anchor="start" x="14" y="-312.5" font-family="Helvetica,sans-Serif" font-size="10.00">PDF_</text>
<text text-anchor="start" x="5.5" y="-297.5" font-family="Helvetica,sans-Serif" font-size="10.00">&#45;</text>
<text text-anchor="start" x="14" y="-297.5" font-family="Helvetica,sans-Serif" font-size="10.00">normalized_PDF_</text>
<text text-anchor="start" x="5.5" y="-282.5" font-family="Helvetica,sans-Serif" font-size="10.00">&#45;</text>
<text text-anchor="start" x="14" y="-282.5" font-family="Helvetica,sans-Serif" font-size="10.00">CDF_</text>
<text text-anchor="start" x="5.5" y="-267.5" font-family="Helvetica,sans-Serif" font-size="10.00">&#45;</text>
<text text-anchor="start" x="14" y="-267.5" font-family="Helvetica,sans-Serif" font-size="10.00">energies_</text>
<text text-anchor="start" x="5.5" y="-252.5" font-family="Helvetica,sans-Serif" font-size="10.00">&#45;</text>
<text text-anchor="start" x="14" y="-252.5" font-family="Helvetica,sans-Serif" font-size="10.00">interp_parameters_</text>
<text text-anchor="start" x="5.5" y="-237.5" font-family="Helvetica,sans-Serif" font-size="10.00">&#45;</text>
<text text-anchor="start" x="14" y="-237.5" font-family="Helvetica,sans-Serif" font-size="10.00">x_min_</text>
<text text-anchor="start" x="5.5" y="-222.5" font-family="Helvetica,sans-Serif" font-size="10.00">&#45;</text>
<text text-anchor="start" x="14" y="-222.5" font-family="Helvetica,sans-Serif" font-size="10.00">x_max_</text>
<text text-anchor="start" x="5.5" y="-207.5" font-family="Helvetica,sans-Serif" font-size="10.00">&#45;</text>
<text text-anchor="start" x="14" y="-207.5" font-family="Helvetica,sans-Serif" font-size="10.00">err_thresh_</text>
<text text-anchor="start" x="4" y="-192.5" font-family="Helvetica,sans-Serif" font-size="10.00">+</text>
<text text-anchor="start" x="14" y="-192.5" font-family="Helvetica,sans-Serif" font-size="10.00">ContinuousInversion()</text>
<text text-anchor="start" x="4" y="-177.5" font-family="Helvetica,sans-Serif" font-size="10.00">+</text>
<text text-anchor="start" x="14" y="-177.5" font-family="Helvetica,sans-Serif" font-size="10.00">ContinuousInversion()</text>
<text text-anchor="start" x="4" y="-162.5" font-family="Helvetica,sans-Serif" font-size="10.00">+</text>
<text text-anchor="start" x="14" y="-162.5" font-family="Helvetica,sans-Serif" font-size="10.00">sample()</text>
<text text-anchor="start" x="5.5" y="-147.5" font-family="Helvetica,sans-Serif" font-size="10.00">&#45;</text>
<text text-anchor="start" x="14" y="-147.5" font-family="Helvetica,sans-Serif" font-size="10.00">normalizePDF()</text>
<text text-anchor="start" x="5.5" y="-132.5" font-family="Helvetica,sans-Serif" font-size="10.00">&#45;</text>
<text text-anchor="start" x="14" y="-132.5" font-family="Helvetica,sans-Serif" font-size="10.00">getXFromY()</text>
<text text-anchor="start" x="5.5" y="-117.5" font-family="Helvetica,sans-Serif" font-size="10.00">&#45;</text>
<text text-anchor="start" x="14" y="-117.5" font-family="Helvetica,sans-Serif" font-size="10.00">initializeCDFAndInterpolation</text>
<text text-anchor="start" x="14" y="-106.25" font-family="Helvetica,sans-Serif" font-size="10.00">Parameters()</text>
<text text-anchor="start" x="5.5" y="-91.5" font-family="Helvetica,sans-Serif" font-size="10.00">&#45;</text>
<text text-anchor="start" x="14" y="-91.5" font-family="Helvetica,sans-Serif" font-size="10.00">calculateInterpolationParameters</text>
<text text-anchor="start" x="14" y="-80.25" font-family="Helvetica,sans-Serif" font-size="10.00">PerEnergy()</text>
<text text-anchor="start" x="5.5" y="-65.5" font-family="Helvetica,sans-Serif" font-size="10.00">&#45;</text>
<text text-anchor="start" x="14" y="-65.5" font-family="Helvetica,sans-Serif" font-size="10.00">getMinimizedErrorCDFPerEnergy()</text>
<text text-anchor="start" x="5.5" y="-50.5" font-family="Helvetica,sans-Serif" font-size="10.00">&#45;</text>
<text text-anchor="start" x="14" y="-50.5" font-family="Helvetica,sans-Serif" font-size="10.00">generateCDFPerEnergy()</text>
<text text-anchor="start" x="5.5" y="-35.5" font-family="Helvetica,sans-Serif" font-size="10.00">&#45;</text>
<text text-anchor="start" x="14" y="-35.5" font-family="Helvetica,sans-Serif" font-size="10.00">getInterpErrorOverInterval()</text>
<text text-anchor="start" x="5.5" y="-20.5" font-family="Helvetica,sans-Serif" font-size="10.00">&#45;</text>
<text text-anchor="start" x="14" y="-20.5" font-family="Helvetica,sans-Serif" font-size="10.00">getPDFFromCDFOverInterval()</text>
<text text-anchor="start" x="5.5" y="-5.5" font-family="Helvetica,sans-Serif" font-size="10.00">&#45;</text>
<text text-anchor="start" x="14" y="-5.5" font-family="Helvetica,sans-Serif" font-size="10.00">getEta()</text>
<polygon fill="#666666" stroke="#666666" points="0,-324 0,-324 165,-324 165,-324 0,-324"/>
<polygon fill="#666666" stroke="#666666" points="0,-204 0,-204 12,-204 12,-204 0,-204"/>
<polygon fill="#666666" stroke="#666666" points="12,-204 12,-204 165,-204 165,-204 12,-204"/>
<polygon fill="none" stroke="#666666" points="0,0 0,-352 165,-352 165,0 0,0"/>
</a>
</g>
</g>
<!-- Node2 -->
<g id="Node000002" class="node">
<title>Node2</title>
<g id="a_Node000002"><a xlink:href="class_probability_dist_1_1_uniform.html" target="_top" xlink:title="Class which represents a uniform distribution.">
<polygon fill="white" stroke="none" points="138,-508.25 27,-508.25 27,-399.25 138,-399.25 138,-508.25"/>
<text text-anchor="start" x="31.88" y="-494.75" font-family="Helvetica,sans-Serif" font-size="10.00">ProbabilityDist::Uniform</text>
<text text-anchor="start" x="44" y="-479.75" font-family="Helvetica,sans-Serif" font-size="10.00">&#45;</text>
<text text-anchor="start" x="64" y="-479.75" font-family="Helvetica,sans-Serif" font-size="10.00">dist_</text>
<text text-anchor="start" x="44" y="-464.75" font-family="Helvetica,sans-Serif" font-size="10.00">&#45;</text>
<text text-anchor="start" x="64" y="-464.75" font-family="Helvetica,sans-Serif" font-size="10.00">generator_</text>
<text text-anchor="start" x="42.5" y="-449.75" font-family="Helvetica,sans-Serif" font-size="10.00">+</text>
<text text-anchor="start" x="64" y="-449.75" font-family="Helvetica,sans-Serif" font-size="10.00">Uniform()</text>
<text text-anchor="start" x="42.5" y="-434.75" font-family="Helvetica,sans-Serif" font-size="10.00">+</text>
<text text-anchor="start" x="64" y="-434.75" font-family="Helvetica,sans-Serif" font-size="10.00">Uniform()</text>
<text text-anchor="start" x="42.5" y="-419.75" font-family="Helvetica,sans-Serif" font-size="10.00">+</text>
<text text-anchor="start" x="64" y="-419.75" font-family="Helvetica,sans-Serif" font-size="10.00">sample()</text>
<text text-anchor="start" x="42.5" y="-404.75" font-family="Helvetica,sans-Serif" font-size="10.00">+</text>
<text text-anchor="start" x="64" y="-404.75" font-family="Helvetica,sans-Serif" font-size="10.00">setRange()</text>
<polygon fill="#666666" stroke="#666666" points="27,-491.25 27,-491.25 138,-491.25 138,-491.25 27,-491.25"/>
<polygon fill="#666666" stroke="#666666" points="27,-461.25 27,-461.25 62,-461.25 62,-461.25 27,-461.25"/>
<polygon fill="#666666" stroke="#666666" points="62,-461.25 62,-461.25 138,-461.25 138,-461.25 62,-461.25"/>
<polygon fill="none" stroke="#666666" points="27,-399.25 27,-508.25 138,-508.25 138,-399.25 27,-399.25"/>
</a>
</g>
</g>
<!-- Node2&#45;&gt;Node1 -->
<g id="edge1_Node000001_Node000002" class="edge">
<title>Node2&#45;&gt;Node1</title>
<g id="a_edge1_Node000001_Node000002"><a xlink:title=" ">
<path fill="none" stroke="#63b8ff" d="M82.5,-399.26C82.5,-388.68 82.5,-377.02 82.5,-364.76"/>
<polygon fill="none" stroke="#63b8ff" points="82.5,-364.68 78.5,-358.68 82.5,-352.68 86.5,-358.68 82.5,-364.68"/>
</a>
</g>
<text text-anchor="middle" x="114.38" y="-371.75" font-family="Helvetica,sans-Serif" font-size="10.00" fill="grey"> &#45;uniform_dist_</text>
</g>
</g>
</svg>
