<?xml version="1.0" encoding="UTF-8" standalone="no"?>
<!DOCTYPE svg PUBLIC "-//W3C//DTD SVG 1.1//EN"
 "http://www.w3.org/Graphics/SVG/1.1/DTD/svg11.dtd">
<!-- Generated by graphviz version 9.0.0 (20230911.1827)
 -->
<!-- Title: RectangularIsotropicDirectionality Pages: 1 -->
<svg width="230pt" height="303pt"
 viewBox="0.00 0.00 230.00 303.25" xmlns="http://www.w3.org/2000/svg" xmlns:xlink="http://www.w3.org/1999/xlink">
<g id="graph0" class="graph" transform="scale(1 1) rotate(0) translate(4 299.25)">
<title>RectangularIsotropicDirectionality</title>
<!-- Node1 -->
<g id="Node000001" class="node">
<title>Node1</title>
<g id="a_Node000001"><a xlink:title="Class which represents a rectangular isotropic directionality.">
<polygon fill="#999999" stroke="none" points="190.5,-139 22.5,-139 22.5,0 190.5,0 190.5,-139"/>
<text text-anchor="start" x="34.12" y="-125.5" font-family="Helvetica,sans-Serif" font-size="10.00">RectangularIsotropicDirectionality</text>
<text text-anchor="start" x="28" y="-110.5" font-family="Helvetica,sans-Serif" font-size="10.00">&#45;</text>
<text text-anchor="start" x="36.5" y="-110.5" font-family="Helvetica,sans-Serif" font-size="10.00">corner_</text>
<text text-anchor="start" x="28" y="-95.5" font-family="Helvetica,sans-Serif" font-size="10.00">&#45;</text>
<text text-anchor="start" x="36.5" y="-95.5" font-family="Helvetica,sans-Serif" font-size="10.00">edge1_</text>
<text text-anchor="start" x="28" y="-80.5" font-family="Helvetica,sans-Serif" font-size="10.00">&#45;</text>
<text text-anchor="start" x="36.5" y="-80.5" font-family="Helvetica,sans-Serif" font-size="10.00">edge2_</text>
<text text-anchor="start" x="28" y="-65.5" font-family="Helvetica,sans-Serif" font-size="10.00">&#45;</text>
<text text-anchor="start" x="36.5" y="-65.5" font-family="Helvetica,sans-Serif" font-size="10.00">normal_</text>
<text text-anchor="start" x="26.5" y="-50.5" font-family="Helvetica,sans-Serif" font-size="10.00">+</text>
<text text-anchor="start" x="36.5" y="-50.5" font-family="Helvetica,sans-Serif" font-size="10.00">RectangularIsotropicDirectionality()</text>
<text text-anchor="start" x="26.5" y="-35.5" font-family="Helvetica,sans-Serif" font-size="10.00">+</text>
<text text-anchor="start" x="36.5" y="-35.5" font-family="Helvetica,sans-Serif" font-size="10.00">sampleDirection()</text>
<text text-anchor="start" x="28" y="-20.5" font-family="Helvetica,sans-Serif" font-size="10.00">&#45;</text>
<text text-anchor="start" x="36.5" y="-20.5" font-family="Helvetica,sans-Serif" font-size="10.00">handleOrthogonalEdges()</text>
<text text-anchor="start" x="28" y="-5.5" font-family="Helvetica,sans-Serif" font-size="10.00">&#45;</text>
<text text-anchor="start" x="36.5" y="-5.5" font-family="Helvetica,sans-Serif" font-size="10.00">areEdgesOrthogonal()</text>
<polygon fill="#666666" stroke="#666666" points="22.5,-122 22.5,-122 190.5,-122 190.5,-122 22.5,-122"/>
<polygon fill="#666666" stroke="#666666" points="22.5,-62 22.5,-62 34.5,-62 34.5,-62 22.5,-62"/>
<polygon fill="#666666" stroke="#666666" points="34.5,-62 34.5,-62 190.5,-62 190.5,-62 34.5,-62"/>
<polygon fill="none" stroke="#666666" points="22.5,0 22.5,-139 190.5,-139 190.5,0 22.5,0"/>
</a>
</g>
</g>
<!-- Node2 -->
<g id="Node000002" class="node">
<title>Node2</title>
<g id="a_Node000002"><a xlink:href="class_directionality.html" target="_top" xlink:title="Virtual class which represents a directionality for a photon source.">
<polygon fill="white" stroke="none" points="93,-272.75 0,-272.75 0,-208.75 93,-208.75 93,-272.75"/>
<text text-anchor="start" x="18.75" y="-259.25" font-family="Helvetica,sans-Serif" font-size="10.00">Directionality</text>
<text text-anchor="start" x="45" y="-244.25" font-family="Helvetica,sans-Serif" font-size="10.00"> </text>
<text text-anchor="start" x="4" y="-229.25" font-family="Helvetica,sans-Serif" font-size="10.00">+</text>
<text text-anchor="start" x="14" y="-229.25" font-family="Helvetica,sans-Serif" font-size="10.00">sampleDirection()</text>
<text text-anchor="start" x="4" y="-214.25" font-family="Helvetica,sans-Serif" font-size="10.00">+</text>
<text text-anchor="start" x="14" y="-214.25" font-family="Helvetica,sans-Serif" font-size="10.00">~Directionality()</text>
<polygon fill="#666666" stroke="#666666" points="0,-255.75 0,-255.75 93,-255.75 93,-255.75 0,-255.75"/>
<polygon fill="#666666" stroke="#666666" points="0,-240.75 0,-240.75 93,-240.75 93,-240.75 0,-240.75"/>
<polygon fill="none" stroke="#666666" points="0,-208.75 0,-272.75 93,-272.75 93,-208.75 0,-208.75"/>
</a>
</g>
</g>
<!-- Node2&#45;&gt;Node1 -->
<g id="edge1_Node000001_Node000002" class="edge">
<title>Node2&#45;&gt;Node1</title>
<g id="a_edge1_Node000001_Node000002"><a xlink:title=" ">
<path fill="none" stroke="#63b8ff" d="M61.15,-198.44C67.5,-180.5 75.12,-159.01 82.28,-138.82"/>
<polygon fill="none" stroke="#63b8ff" points="57.91,-197.08 57.87,-207.67 64.51,-199.42 57.91,-197.08"/>
</a>
</g>
</g>
<!-- Node3 -->
<g id="Node000003" class="node">
<title>Node3</title>
<g id="a_Node000003"><a xlink:href="class_probability_dist_1_1_uniform.html" target="_top" xlink:title="Class which represents a uniform distribution.">
<polygon fill="white" stroke="none" points="222,-295.25 111,-295.25 111,-186.25 222,-186.25 222,-295.25"/>
<text text-anchor="start" x="115.88" y="-281.75" font-family="Helvetica,sans-Serif" font-size="10.00">ProbabilityDist::Uniform</text>
<text text-anchor="start" x="128" y="-266.75" font-family="Helvetica,sans-Serif" font-size="10.00">&#45;</text>
<text text-anchor="start" x="148" y="-266.75" font-family="Helvetica,sans-Serif" font-size="10.00">dist_</text>
<text text-anchor="start" x="128" y="-251.75" font-family="Helvetica,sans-Serif" font-size="10.00">&#45;</text>
<text text-anchor="start" x="148" y="-251.75" font-family="Helvetica,sans-Serif" font-size="10.00">generator_</text>
<text text-anchor="start" x="126.5" y="-236.75" font-family="Helvetica,sans-Serif" font-size="10.00">+</text>
<text text-anchor="start" x="148" y="-236.75" font-family="Helvetica,sans-Serif" font-size="10.00">Uniform()</text>
<text text-anchor="start" x="126.5" y="-221.75" font-family="Helvetica,sans-Serif" font-size="10.00">+</text>
<text text-anchor="start" x="148" y="-221.75" font-family="Helvetica,sans-Serif" font-size="10.00">Uniform()</text>
<text text-anchor="start" x="126.5" y="-206.75" font-family="Helvetica,sans-Serif" font-size="10.00">+</text>
<text text-anchor="start" x="148" y="-206.75" font-family="Helvetica,sans-Serif" font-size="10.00">sample()</text>
<text text-anchor="start" x="126.5" y="-191.75" font-family="Helvetica,sans-Serif" font-size="10.00">+</text>
<text text-anchor="start" x="148" y="-191.75" font-family="Helvetica,sans-Serif" font-size="10.00">setRange()</text>
<polygon fill="#666666" stroke="#666666" points="111,-278.25 111,-278.25 222,-278.25 222,-278.25 111,-278.25"/>
<polygon fill="#666666" stroke="#666666" points="111,-248.25 111,-248.25 146,-248.25 146,-248.25 111,-248.25"/>
<polygon fill="#666666" stroke="#666666" points="146,-248.25 146,-248.25 222,-248.25 222,-248.25 146,-248.25"/>
<polygon fill="none" stroke="#666666" points="111,-186.25 111,-295.25 222,-295.25 222,-186.25 111,-186.25"/>
</a>
</g>
</g>
<!-- Node3&#45;&gt;Node1 -->
<g id="edge2_Node000001_Node000003" class="edge">
<title>Node3&#45;&gt;Node1</title>
<g id="a_edge2_Node000001_Node000003"><a xlink:title=" ">
<path fill="none" stroke="#63b8ff" d="M147.68,-186.66C143.66,-175.32 139.33,-163.1 135.03,-150.98"/>
<polygon fill="none" stroke="#63b8ff" points="135.08,-151.11 129.3,-146.79 131.07,-139.8 136.84,-144.12 135.08,-151.11"/>
</a>
</g>
<text text-anchor="middle" x="171.38" y="-158.75" font-family="Helvetica,sans-Serif" font-size="10.00" fill="grey"> &#45;uniform_dist_</text>
</g>
</g>
</svg>
