<?xml version="1.0" encoding="UTF-8" standalone="no"?>
<!DOCTYPE svg PUBLIC "-//W3C//DTD SVG 1.1//EN"
 "http://www.w3.org/Graphics/SVG/1.1/DTD/svg11.dtd">
<!-- Generated by graphviz version 9.0.0 (20230911.1827)
 -->
<!-- Title: CountVolumeQuantity Pages: 1 -->
<!--zoomable 464 -->

<svg id="main" version="1.1" xmlns="http://www.w3.org/2000/svg" xmlns:xlink="http://www.w3.org/1999/xlink" xml:space="preserve" onload="init(evt)">
<style type="text/css"><![CDATA[
.node, .edge {opacity: 0.7;}
.node.selected, .edge.selected {opacity: 1;}
.edge:hover path { stroke: red; }
.edge:hover polygon { stroke: red; fill: red; }
]]></style>

<defs>
  <circle id="rim" cx="0" cy="0" r="7"/>
  <circle id="rim2" cx="0" cy="0" r="3.5"/>
  <g id="zoomPlus">
    <use xlink:href="#rim" fill="#404040"><set attributeName="fill" to="#808080" begin="zoomplus.mouseover" end="zoomplus.mouseout"/></use>
    <path d="M-4,0h8M0,-4v8" fill="none" stroke="white" stroke-width="1.5" pointer-events="none"/>
  </g>
  <g id="zoomMin">
    <use xlink:href="#rim" fill="#404040"><set attributeName="fill" to="#808080" begin="zoomminus.mouseover" end="zoomminus.mouseout"/></use>
    <path d="M-4,0h8" fill="none" stroke="white" stroke-width="1.5" pointer-events="none"/>
  </g>
  <g id="arrowUp" transform="translate(30 24)">
    <use xlink:href="#rim"/>
    <path pointer-events="none" fill="none" stroke="white" stroke-width="1.5" d="M0,-3.0v7 M-2.5,-0.5L0,-3.0L2.5,-0.5"/>
  </g>
  <g id="arrowRight" transform="rotate(90) translate(36 -43)">
    <use xlink:href="#rim"/>
    <path pointer-events="none" fill="none" stroke="white" stroke-width="1.5" d="M0,-3.0v7 M-2.5,-0.5L0,-3.0L2.5,-0.5"/>
  </g>
  <g id="arrowDown" transform="rotate(180) translate(-30 -48)">
    <use xlink:href="#rim"/>
    <path pointer-events="none" fill="none" stroke="white" stroke-width="1.5" d="M0,-3.0v7 M-2.5,-0.5L0,-3.0L2.5,-0.5"/>
  </g>
  <g id="arrowLeft" transform="rotate(270) translate(-36 17)">
    <use xlink:href="#rim"/>
    <path pointer-events="none" fill="none" stroke="white" stroke-width="1.5" d="M0,-3.0v7 M-2.5,-0.5L0,-3.0L2.5,-0.5"/>
  </g>
  <g id="resetDef">
    <use xlink:href="#rim2" fill="#404040"><set attributeName="fill" to="#808080" begin="reset.mouseover" end="reset.mouseout"/></use>
  </g>
</defs>
<script type="application/ecmascript">
var viewWidth = 184;
var viewHeight = 464;
var sectionId = 'dynsection-0';
</script>
<script type="application/ecmascript" xlink:href="svg.min.js"/>
<svg id="graph" class="graph">
<g id="viewport">
<title>CountVolumeQuantity</title>
<!-- Node1 -->
<g id="Node000001" class="node">
<title>Node1</title>
<g id="a_Node000001"><a xlink:title=" ">
<polygon fill="#999999" stroke="none" points="135,-221 0,-221 0,0 135,0 135,-221"/>
<text text-anchor="start" x="20.25" y="-207.5" font-family="Helvetica,sans-Serif" font-size="10.00">CountVolumeQuantity</text>
<text text-anchor="start" x="5.5" y="-192.5" font-family="Helvetica,sans-Serif" font-size="10.00">&#45;</text>
<text text-anchor="start" x="14" y="-192.5" font-family="Helvetica,sans-Serif" font-size="10.00">type_</text>
<text text-anchor="start" x="5.5" y="-177.5" font-family="Helvetica,sans-Serif" font-size="10.00">&#45;</text>
<text text-anchor="start" x="14" y="-177.5" font-family="Helvetica,sans-Serif" font-size="10.00">totaled_</text>
<text text-anchor="start" x="5.5" y="-162.5" font-family="Helvetica,sans-Serif" font-size="10.00">&#45;</text>
<text text-anchor="start" x="14" y="-162.5" font-family="Helvetica,sans-Serif" font-size="10.00">valueExtractor_</text>
<text text-anchor="start" x="4" y="-147.5" font-family="Helvetica,sans-Serif" font-size="10.00">+</text>
<text text-anchor="start" x="14" y="-147.5" font-family="Helvetica,sans-Serif" font-size="10.00">CountVolumeQuantity()</text>
<text text-anchor="start" x="4" y="-132.5" font-family="Helvetica,sans-Serif" font-size="10.00">+</text>
<text text-anchor="start" x="14" y="-132.5" font-family="Helvetica,sans-Serif" font-size="10.00">operator+()</text>
<text text-anchor="start" x="4" y="-117.5" font-family="Helvetica,sans-Serif" font-size="10.00">+</text>
<text text-anchor="start" x="14" y="-117.5" font-family="Helvetica,sans-Serif" font-size="10.00">measure()</text>
<text text-anchor="start" x="4" y="-102.5" font-family="Helvetica,sans-Serif" font-size="10.00">+</text>
<text text-anchor="start" x="14" y="-102.5" font-family="Helvetica,sans-Serif" font-size="10.00">getType()</text>
<text text-anchor="start" x="4" y="-87.5" font-family="Helvetica,sans-Serif" font-size="10.00">+</text>
<text text-anchor="start" x="14" y="-87.5" font-family="Helvetica,sans-Serif" font-size="10.00">getTotalValues()</text>
<text text-anchor="start" x="4" y="-72.5" font-family="Helvetica,sans-Serif" font-size="10.00">+</text>
<text text-anchor="start" x="14" y="-72.5" font-family="Helvetica,sans-Serif" font-size="10.00">getPrimaryValues()</text>
<text text-anchor="start" x="4" y="-57.5" font-family="Helvetica,sans-Serif" font-size="10.00">+</text>
<text text-anchor="start" x="14" y="-57.5" font-family="Helvetica,sans-Serif" font-size="10.00">getSingleIncoherentScatter</text>
<text text-anchor="start" x="14" y="-46.25" font-family="Helvetica,sans-Serif" font-size="10.00">Values()</text>
<text text-anchor="start" x="4" y="-31.5" font-family="Helvetica,sans-Serif" font-size="10.00">+</text>
<text text-anchor="start" x="14" y="-31.5" font-family="Helvetica,sans-Serif" font-size="10.00">getSingleCoherentScatter</text>
<text text-anchor="start" x="14" y="-20.25" font-family="Helvetica,sans-Serif" font-size="10.00">Values()</text>
<text text-anchor="start" x="4" y="-5.5" font-family="Helvetica,sans-Serif" font-size="10.00">+</text>
<text text-anchor="start" x="14" y="-5.5" font-family="Helvetica,sans-Serif" font-size="10.00">getMultipleScatterValues()</text>
<polygon fill="#666666" stroke="#666666" points="0,-204 0,-204 135,-204 135,-204 0,-204"/>
<polygon fill="#666666" stroke="#666666" points="0,-159 0,-159 12,-159 12,-159 0,-159"/>
<polygon fill="#666666" stroke="#666666" points="12,-159 12,-159 135,-159 135,-159 12,-159"/>
<polygon fill="none" stroke="#666666" points="0,0 0,-221 135,-221 135,0 0,0"/>
</a>
</g>
</g>
<!-- Node2 -->
<g id="Node000002" class="node">
<title>Node2</title>
<g id="a_Node000002"><a xlink:href="class_count_value.html" target="_top" xlink:title="Class which represents a count quantity. Used by the Tally classes to store simulation data.">
<polygon fill="white" stroke="none" points="108.5,-456 26.5,-456 26.5,-347 108.5,-347 108.5,-456"/>
<text text-anchor="start" x="42.38" y="-442.5" font-family="Helvetica,sans-Serif" font-size="10.00">CountValue</text>
<text text-anchor="start" x="30.5" y="-427.5" font-family="Helvetica,sans-Serif" font-size="10.00">+</text>
<text text-anchor="start" x="40.5" y="-427.5" font-family="Helvetica,sans-Serif" font-size="10.00">count_</text>
<text text-anchor="start" x="30.5" y="-412.5" font-family="Helvetica,sans-Serif" font-size="10.00">+</text>
<text text-anchor="start" x="40.5" y="-412.5" font-family="Helvetica,sans-Serif" font-size="10.00">operator+()</text>
<text text-anchor="start" x="30.5" y="-397.5" font-family="Helvetica,sans-Serif" font-size="10.00">+</text>
<text text-anchor="start" x="40.5" y="-397.5" font-family="Helvetica,sans-Serif" font-size="10.00">addCount()</text>
<text text-anchor="start" x="30.5" y="-382.5" font-family="Helvetica,sans-Serif" font-size="10.00">+</text>
<text text-anchor="start" x="40.5" y="-382.5" font-family="Helvetica,sans-Serif" font-size="10.00">addCounts()</text>
<text text-anchor="start" x="30.5" y="-367.5" font-family="Helvetica,sans-Serif" font-size="10.00">+</text>
<text text-anchor="start" x="40.5" y="-367.5" font-family="Helvetica,sans-Serif" font-size="10.00">getCount()</text>
<text text-anchor="start" x="30.5" y="-352.5" font-family="Helvetica,sans-Serif" font-size="10.00">+</text>
<text text-anchor="start" x="40.5" y="-352.5" font-family="Helvetica,sans-Serif" font-size="10.00">getCountSTD()</text>
<polygon fill="#666666" stroke="#666666" points="26.5,-439 26.5,-439 108.5,-439 108.5,-439 26.5,-439"/>
<polygon fill="#666666" stroke="#666666" points="26.5,-424 26.5,-424 38.5,-424 38.5,-424 26.5,-424"/>
<polygon fill="#666666" stroke="#666666" points="38.5,-424 38.5,-424 108.5,-424 108.5,-424 38.5,-424"/>
<polygon fill="none" stroke="#666666" points="26.5,-347 26.5,-456 108.5,-456 108.5,-347 26.5,-347"/>
</a>
</g>
</g>
<!-- Node2&#45;&gt;Node1 -->
<g id="edge1_Node000001_Node000002" class="edge">
<title>Node2&#45;&gt;Node1</title>
<g id="a_edge1_Node000001_Node000002"><a xlink:title=" ">
<path fill="none" stroke="#63b8ff" d="M67.5,-347.16C67.5,-315.29 67.5,-273.43 67.5,-233.84"/>
<polygon fill="none" stroke="#63b8ff" points="67.5,-233.7 63.5,-227.7 67.5,-221.7 71.5,-227.7 67.5,-233.7"/>
</a>
</g>
<text text-anchor="start" x="67.5" y="-319.5" font-family="Helvetica,sans-Serif" font-size="10.00" fill="grey"> &#45;multiple_scatter_values</text>
<text text-anchor="middle" x="121.5" y="-308.25" font-family="Helvetica,sans-Serif" font-size="10.00" fill="grey">_</text>
<text text-anchor="middle" x="121.5" y="-297" font-family="Helvetica,sans-Serif" font-size="10.00" fill="grey">&#45;primary_values_</text>
<text text-anchor="start" x="67.5" y="-285.75" font-family="Helvetica,sans-Serif" font-size="10.00" fill="grey">&#45;single_coherent</text>
<text text-anchor="middle" x="121.5" y="-274.5" font-family="Helvetica,sans-Serif" font-size="10.00" fill="grey">_scatter_values_</text>
<text text-anchor="start" x="67.5" y="-263.25" font-family="Helvetica,sans-Serif" font-size="10.00" fill="grey">&#45;single_incoherent</text>
<text text-anchor="middle" x="121.5" y="-252" font-family="Helvetica,sans-Serif" font-size="10.00" fill="grey">_scatter_values_</text>
<text text-anchor="middle" x="121.5" y="-240.75" font-family="Helvetica,sans-Serif" font-size="10.00" fill="grey">&#45;total_values_</text>
</g>
</g>
</svg>

<g id="navigator" transform="translate(0 0)" fill="#404254">
  <rect fill="#f2f5e9" fill-opacity="0.5" stroke="#606060" stroke-width=".5" x="0" y="0" width="60" height="60"/>
  <use id="zoomplus" xlink:href="#zoomPlus" x="17" y="9" onmousedown="handleZoom(evt,'in')"/>
  <use id="zoomminus" xlink:href="#zoomMin" x="42" y="9" onmousedown="handleZoom(evt,'out')"/>
  <use id="reset" xlink:href="#resetDef" x="30" y="36" onmousedown="handleReset()"/>
   <use id="arrowup" xlink:href="#arrowUp" x="0" y="0" onmousedown="handlePan(0,-1)"/>
  <use id="arrowright" xlink:href="#arrowRight" x="0" y="0" onmousedown="handlePan(1,0)"/>
  <use id="arrowdown" xlink:href="#arrowDown" x="0" y="0" onmousedown="handlePan(0,1)"/>
  <use id="arrowleft" xlink:href="#arrowLeft" x="0" y="0" onmousedown="handlePan(-1,0)"/>
</g>
<svg viewBox="0 0 15 15" width="100%" height="30px" preserveAspectRatio="xMaxYMin meet">
 <g id="arrow_out" transform="scale(0.3 0.3)">
  <a xlink:href="class_count_volume_quantity__coll__graph_org.svg" target="_base">
   <rect id="button" ry="5" rx="5" y="6" x="6" height="38" width="38"
        fill="#f2f5e9" fill-opacity="0.5" stroke="#606060" stroke-width="1.0"/>
   <path id="arrow"
     d="M 11.500037,31.436501 C 11.940474,20.09759 22.043105,11.32322 32.158766,21.979434 L 37.068811,17.246167 C 37.068811,17.246167 37.088388,32 37.088388,32 L 22.160133,31.978069 C 22.160133,31.978069 26.997745,27.140456 26.997745,27.140456 C 18.528582,18.264221 13.291696,25.230495 11.500037,31.436501 z"
     style="fill:#404040;"/>
  </a>
 </g>
</svg>

<style type='text/css'>
<![CDATA[
[data-mouse-over-selected='false'] { opacity: 0.7; }
[data-mouse-over-selected='true']  { opacity: 1.0; }
]]>
</style>
<script type="application/ecmascript"><![CDATA[
document.addEventListener('DOMContentLoaded', (event) => {
  highlightEdges();
  highlightAdjacentNodes();
});
]]></script>
</svg>
