<?xml version="1.0" encoding="UTF-8" standalone="no"?>
<!DOCTYPE svg PUBLIC "-//W3C//DTD SVG 1.1//EN"
 "http://www.w3.org/Graphics/SVG/1.1/DTD/svg11.dtd">
<!-- Generated by graphviz version 9.0.0 (20230911.1827)
 -->
<!-- Title: Interpolator::LogLogLinear Pages: 1 -->
<svg width="158pt" height="377pt"
 viewBox="0.00 0.00 158.00 377.00" xmlns="http://www.w3.org/2000/svg" xmlns:xlink="http://www.w3.org/1999/xlink">

<svg id="main" version="1.1" xmlns="http://www.w3.org/2000/svg" xmlns:xlink="http://www.w3.org/1999/xlink" xml:space="preserve" onload="init(evt)">
<style type="text/css"><![CDATA[
.node, .edge {opacity: 0.7;}
.node.selected, .edge.selected {opacity: 1;}
.edge:hover path { stroke: red; }
.edge:hover polygon { stroke: red; fill: red; }
]]></style>
<script type="application/ecmascript" xlink:href="svg.min.js"/>
<svg id="graph" class="graph">
<g id="graph0" class="graph" transform="scale(1 1) rotate(0) translate(4 373)">
<title>Interpolator::LogLogLinear</title>
<!-- Node1 -->
<g id="Node000001" class="node">
<title>Node1</title>
<g id="a_Node000001"><a xlink:title="Class which performs linear interpolation on a log&#45;log scale.">
<polygon fill="#999999" stroke="none" points="136.5,-79 13.5,-79 13.5,0 136.5,0 136.5,-79"/>
<text text-anchor="start" x="18.38" y="-65.5" font-family="Helvetica,sans-Serif" font-size="10.00">Interpolator::LogLogLinear</text>
<text text-anchor="start" x="73.5" y="-50.5" font-family="Helvetica,sans-Serif" font-size="10.00"> </text>
<text text-anchor="start" x="27" y="-35.5" font-family="Helvetica,sans-Serif" font-size="10.00">+</text>
<text text-anchor="start" x="46.5" y="-35.5" font-family="Helvetica,sans-Serif" font-size="10.00">LogLogLinear()</text>
<text text-anchor="start" x="27" y="-20.5" font-family="Helvetica,sans-Serif" font-size="10.00">+</text>
<text text-anchor="start" x="46.5" y="-20.5" font-family="Helvetica,sans-Serif" font-size="10.00">LogLogLinear()</text>
<text text-anchor="start" x="27" y="-5.5" font-family="Helvetica,sans-Serif" font-size="10.00">+</text>
<text text-anchor="start" x="46.5" y="-5.5" font-family="Helvetica,sans-Serif" font-size="10.00">operator()()</text>
<polygon fill="#666666" stroke="#666666" points="13.5,-62 13.5,-62 136.5,-62 136.5,-62 13.5,-62"/>
<polygon fill="#666666" stroke="#666666" points="13.5,-47 13.5,-47 136.5,-47 136.5,-47 13.5,-47"/>
<polygon fill="none" stroke="#666666" points="13.5,0 13.5,-79 136.5,-79 136.5,0 13.5,0"/>
</a>
</g>
</g>
<!-- Node2 -->
<g id="Node000002" class="node">
<title>Node2</title>
<g id="a_Node000002"><a xlink:href="class_interpolator_1_1_linear.html" target="_top" xlink:title="Class which performs linear interpolation.">
<polygon fill="white" stroke="none" points="150,-269 0,-269 0,-115 150,-115 150,-269"/>
<text text-anchor="start" x="34.88" y="-255.5" font-family="Helvetica,sans-Serif" font-size="10.00">Interpolator::Linear</text>
<text text-anchor="start" x="5.5" y="-240.5" font-family="Helvetica,sans-Serif" font-size="10.00">&#45;</text>
<text text-anchor="start" x="14" y="-240.5" font-family="Helvetica,sans-Serif" font-size="10.00">x_vec_</text>
<text text-anchor="start" x="5.5" y="-225.5" font-family="Helvetica,sans-Serif" font-size="10.00">&#45;</text>
<text text-anchor="start" x="14" y="-225.5" font-family="Helvetica,sans-Serif" font-size="10.00">y_vec_</text>
<text text-anchor="start" x="4" y="-210.5" font-family="Helvetica,sans-Serif" font-size="10.00">+</text>
<text text-anchor="start" x="14" y="-210.5" font-family="Helvetica,sans-Serif" font-size="10.00">Linear()</text>
<text text-anchor="start" x="4" y="-195.5" font-family="Helvetica,sans-Serif" font-size="10.00">+</text>
<text text-anchor="start" x="14" y="-195.5" font-family="Helvetica,sans-Serif" font-size="10.00">Linear()</text>
<text text-anchor="start" x="4" y="-180.5" font-family="Helvetica,sans-Serif" font-size="10.00">+</text>
<text text-anchor="start" x="14" y="-180.5" font-family="Helvetica,sans-Serif" font-size="10.00">operator()()</text>
<text text-anchor="start" x="5.5" y="-165.5" font-family="Helvetica,sans-Serif" font-size="10.00">&#45;</text>
<text text-anchor="start" x="14" y="-165.5" font-family="Helvetica,sans-Serif" font-size="10.00">isXSmallerThanMin()</text>
<text text-anchor="start" x="5.5" y="-150.5" font-family="Helvetica,sans-Serif" font-size="10.00">&#45;</text>
<text text-anchor="start" x="14" y="-150.5" font-family="Helvetica,sans-Serif" font-size="10.00">isXBiggerThanMax()</text>
<text text-anchor="start" x="5.5" y="-135.5" font-family="Helvetica,sans-Serif" font-size="10.00">&#45;</text>
<text text-anchor="start" x="14" y="-135.5" font-family="Helvetica,sans-Serif" font-size="10.00">findIndexOfNextLargestValue()</text>
<text text-anchor="start" x="5.5" y="-120.5" font-family="Helvetica,sans-Serif" font-size="10.00">&#45;</text>
<text text-anchor="start" x="14" y="-120.5" font-family="Helvetica,sans-Serif" font-size="10.00">calculateInterpolatedY()</text>
<polygon fill="#666666" stroke="#666666" points="0,-252 0,-252 150,-252 150,-252 0,-252"/>
<polygon fill="#666666" stroke="#666666" points="0,-222 0,-222 12,-222 12,-222 0,-222"/>
<polygon fill="#666666" stroke="#666666" points="12,-222 12,-222 150,-222 150,-222 12,-222"/>
<polygon fill="none" stroke="#666666" points="0,-115 0,-269 150,-269 150,-115 0,-115"/>
</a>
</g>
</g>
<!-- Node2&#45;&gt;Node1 -->
<g id="edge1_Node000001_Node000002" class="edge">
<title>Node2&#45;&gt;Node1</title>
<g id="a_edge1_Node000001_Node000002"><a xlink:title=" ">
<path fill="none" stroke="#63b8ff" d="M75,-103.85C75,-95.19 75,-86.75 75,-79"/>
<polygon fill="none" stroke="#63b8ff" points="71.5,-103.8 75,-113.8 78.5,-103.8 71.5,-103.8"/>
</a>
</g>
</g>
<!-- Node3 -->
<g id="Node000003" class="node">
<title>Node3</title>
<g id="a_Node000003"><a xlink:href="class_interpolator_1_1_interpolator.html" target="_top" xlink:title="Abstract base class for interpolators.">
<polygon fill="white" stroke="none" points="131,-369 19,-369 19,-305 131,-305 131,-369"/>
<text text-anchor="start" x="24" y="-355.5" font-family="Helvetica,sans-Serif" font-size="10.00">Interpolator::Interpolator</text>
<text text-anchor="start" x="73.5" y="-340.5" font-family="Helvetica,sans-Serif" font-size="10.00"> </text>
<text text-anchor="start" x="31.5" y="-325.5" font-family="Helvetica,sans-Serif" font-size="10.00">+</text>
<text text-anchor="start" x="50" y="-325.5" font-family="Helvetica,sans-Serif" font-size="10.00">~Interpolator()</text>
<text text-anchor="start" x="31.5" y="-310.5" font-family="Helvetica,sans-Serif" font-size="10.00">+</text>
<text text-anchor="start" x="50" y="-310.5" font-family="Helvetica,sans-Serif" font-size="10.00">operator()()</text>
<polygon fill="#666666" stroke="#666666" points="19,-352 19,-352 131,-352 131,-352 19,-352"/>
<polygon fill="#666666" stroke="#666666" points="19,-337 19,-337 131,-337 131,-337 19,-337"/>
<polygon fill="none" stroke="#666666" points="19,-305 19,-369 131,-369 131,-305 19,-305"/>
</a>
</g>
</g>
<!-- Node3&#45;&gt;Node2 -->
<g id="edge2_Node000002_Node000003" class="edge">
<title>Node3&#45;&gt;Node2</title>
<g id="a_edge2_Node000002_Node000003"><a xlink:title=" ">
<path fill="none" stroke="#63b8ff" d="M75,-293.83C75,-285.93 75,-277.44 75,-268.87"/>
<polygon fill="none" stroke="#63b8ff" points="71.5,-293.81 75,-303.81 78.5,-293.81 71.5,-293.81"/>
</a>
</g>
</g>
</g>
</svg>
</svg>

<style type='text/css'>
<![CDATA[
[data-mouse-over-selected='false'] { opacity: 0.7; }
[data-mouse-over-selected='true']  { opacity: 1.0; }
]]>
</style>
<script type="application/ecmascript"><![CDATA[
document.addEventListener('DOMContentLoaded', (event) => {
  highlightEdges();
  highlightAdjacentNodes();
});
]]></script>
</svg>
