<?xml version="1.0" encoding="UTF-8" standalone="no"?>
<!DOCTYPE svg PUBLIC "-//W3C//DTD SVG 1.1//EN"
 "http://www.w3.org/Graphics/SVG/1.1/DTD/svg11.dtd">
<!-- Generated by graphviz version 9.0.0 (20230911.1827)
 -->
<!-- Title: VolumeTally Pages: 1 -->
<svg width="298pt" height="923pt"
 viewBox="0.00 0.00 298.00 923.25" xmlns="http://www.w3.org/2000/svg" xmlns:xlink="http://www.w3.org/1999/xlink">
<g id="graph0" class="graph" transform="scale(1 1) rotate(0) translate(4 919.25)">
<title>VolumeTally</title>
<!-- Node1 -->
<g id="Node000001" class="node">
<title>Node1</title>
<g id="a_Node000001"><a xlink:title="Virtual class which represents a volume tally.">
<polygon fill="#999999" stroke="none" points="237.5,-94 90.5,-94 90.5,0 237.5,0 237.5,-94"/>
<text text-anchor="start" x="137.38" y="-80.5" font-family="Helvetica,sans-Serif" font-size="10.00">VolumeTally</text>
<text text-anchor="start" x="162.5" y="-65.5" font-family="Helvetica,sans-Serif" font-size="10.00"> </text>
<text text-anchor="start" x="94.5" y="-50.5" font-family="Helvetica,sans-Serif" font-size="10.00">+</text>
<text text-anchor="start" x="104.5" y="-50.5" font-family="Helvetica,sans-Serif" font-size="10.00">~VolumeTally()</text>
<text text-anchor="start" x="94.5" y="-35.5" font-family="Helvetica,sans-Serif" font-size="10.00">+</text>
<text text-anchor="start" x="104.5" y="-35.5" font-family="Helvetica,sans-Serif" font-size="10.00">processMeasurements()</text>
<text text-anchor="start" x="94.5" y="-20.5" font-family="Helvetica,sans-Serif" font-size="10.00">+</text>
<text text-anchor="start" x="104.5" y="-20.5" font-family="Helvetica,sans-Serif" font-size="10.00">getVolumeQuantityContainer()</text>
<text text-anchor="start" x="94.88" y="-5.5" font-family="Helvetica,sans-Serif" font-size="10.00">#</text>
<text text-anchor="start" x="104.5" y="-5.5" font-family="Helvetica,sans-Serif" font-size="10.00">determineVolumeTraversal()</text>
<polygon fill="#666666" stroke="#666666" points="90.5,-77 90.5,-77 237.5,-77 237.5,-77 90.5,-77"/>
<polygon fill="#666666" stroke="#666666" points="90.5,-62 90.5,-62 237.5,-62 237.5,-62 90.5,-62"/>
<polygon fill="none" stroke="#666666" points="90.5,0 90.5,-94 237.5,-94 237.5,0 90.5,0"/>
</a>
</g>
</g>
<!-- Node2 -->
<g id="Node000002" class="node">
<title>Node2</title>
<g id="a_Node000002"><a xlink:href="struct_temp_volume_tally_data.html" target="_top" xlink:title="Struct which represents the temporary data for a volume tally.">
<polygon fill="white" stroke="none" points="152,-299 44,-299 44,-205 152,-205 152,-299"/>
<text text-anchor="start" x="48.88" y="-285.5" font-family="Helvetica,sans-Serif" font-size="10.00">TempVolumeTallyData</text>
<text text-anchor="start" x="51.5" y="-270.5" font-family="Helvetica,sans-Serif" font-size="10.00">+</text>
<text text-anchor="start" x="65" y="-270.5" font-family="Helvetica,sans-Serif" font-size="10.00">energy_deposited</text>
<text text-anchor="start" x="51.5" y="-255.5" font-family="Helvetica,sans-Serif" font-size="10.00">+</text>
<text text-anchor="start" x="65" y="-255.5" font-family="Helvetica,sans-Serif" font-size="10.00">free_path</text>
<text text-anchor="start" x="51.5" y="-240.5" font-family="Helvetica,sans-Serif" font-size="10.00">+</text>
<text text-anchor="start" x="65" y="-240.5" font-family="Helvetica,sans-Serif" font-size="10.00">isInteract</text>
<text text-anchor="start" x="51.5" y="-225.5" font-family="Helvetica,sans-Serif" font-size="10.00">+</text>
<text text-anchor="start" x="65" y="-225.5" font-family="Helvetica,sans-Serif" font-size="10.00">already_counted</text>
<text text-anchor="start" x="96.5" y="-210.5" font-family="Helvetica,sans-Serif" font-size="10.00"> </text>
<polygon fill="#666666" stroke="#666666" points="44,-282 44,-282 152,-282 152,-282 44,-282"/>
<polygon fill="#666666" stroke="#666666" points="44,-222 44,-222 63,-222 63,-222 44,-222"/>
<polygon fill="#666666" stroke="#666666" points="63,-222 63,-222 152,-222 152,-222 63,-222"/>
<polygon fill="none" stroke="#666666" points="44,-205 44,-299 152,-299 152,-205 44,-205"/>
</a>
</g>
</g>
<!-- Node2&#45;&gt;Node1 -->
<g id="edge1_Node000001_Node000002" class="edge">
<title>Node2&#45;&gt;Node1</title>
<g id="a_edge1_Node000001_Node000002"><a xlink:title=" ">
<path fill="none" stroke="#63b8ff" d="M99.87,-205.19C102.27,-177.4 107.62,-141.7 119.5,-112 120.42,-109.69 121.44,-107.38 122.54,-105.09"/>
<polygon fill="none" stroke="#63b8ff" points="122.51,-105.16 121.81,-97.98 128.17,-94.58 128.86,-101.76 122.51,-105.16"/>
</a>
</g>
<text text-anchor="start" x="119" y="-125" font-family="Helvetica,sans-Serif" font-size="10.00" fill="grey"> #temp_volume_tally</text>
<text text-anchor="middle" x="163.25" y="-113.75" font-family="Helvetica,sans-Serif" font-size="10.00" fill="grey">_data_</text>
</g>
<!-- Node3 -->
<g id="Node000003" class="node">
<title>Node3</title>
<g id="a_Node000003"><a xlink:href="class_photon.html" target="_top" xlink:title="Class which represents a photon. Inherits from Particle.">
<polygon fill="white" stroke="none" points="168,-579 28,-579 28,-410 168,-410 168,-579"/>
<text text-anchor="start" x="82.62" y="-565.5" font-family="Helvetica,sans-Serif" font-size="10.00">Photon</text>
<text text-anchor="start" x="33.5" y="-550.5" font-family="Helvetica,sans-Serif" font-size="10.00">&#45;</text>
<text text-anchor="start" x="42" y="-550.5" font-family="Helvetica,sans-Serif" font-size="10.00">interaction_behavior_</text>
<text text-anchor="start" x="32" y="-535.5" font-family="Helvetica,sans-Serif" font-size="10.00">+</text>
<text text-anchor="start" x="42" y="-535.5" font-family="Helvetica,sans-Serif" font-size="10.00">Photon()</text>
<text text-anchor="start" x="32" y="-520.5" font-family="Helvetica,sans-Serif" font-size="10.00">+</text>
<text text-anchor="start" x="42" y="-520.5" font-family="Helvetica,sans-Serif" font-size="10.00">Photon()</text>
<text text-anchor="start" x="32" y="-505.5" font-family="Helvetica,sans-Serif" font-size="10.00">+</text>
<text text-anchor="start" x="42" y="-505.5" font-family="Helvetica,sans-Serif" font-size="10.00">interact()</text>
<text text-anchor="start" x="32" y="-490.5" font-family="Helvetica,sans-Serif" font-size="10.00">+</text>
<text text-anchor="start" x="42" y="-490.5" font-family="Helvetica,sans-Serif" font-size="10.00">setInteractionBehavior()</text>
<text text-anchor="start" x="32" y="-475.5" font-family="Helvetica,sans-Serif" font-size="10.00">+</text>
<text text-anchor="start" x="42" y="-475.5" font-family="Helvetica,sans-Serif" font-size="10.00">addCoherentScatter()</text>
<text text-anchor="start" x="32" y="-460.5" font-family="Helvetica,sans-Serif" font-size="10.00">+</text>
<text text-anchor="start" x="42" y="-460.5" font-family="Helvetica,sans-Serif" font-size="10.00">addIncoherentScatter()</text>
<text text-anchor="start" x="32" y="-445.5" font-family="Helvetica,sans-Serif" font-size="10.00">+</text>
<text text-anchor="start" x="42" y="-445.5" font-family="Helvetica,sans-Serif" font-size="10.00">getTotalScatterCount()</text>
<text text-anchor="start" x="32" y="-430.5" font-family="Helvetica,sans-Serif" font-size="10.00">+</text>
<text text-anchor="start" x="42" y="-430.5" font-family="Helvetica,sans-Serif" font-size="10.00">getCoherentScatterCount()</text>
<text text-anchor="start" x="32" y="-415.5" font-family="Helvetica,sans-Serif" font-size="10.00">+</text>
<text text-anchor="start" x="42" y="-415.5" font-family="Helvetica,sans-Serif" font-size="10.00">getIncoherentScatterCount()</text>
<polygon fill="#666666" stroke="#666666" points="28,-562 28,-562 168,-562 168,-562 28,-562"/>
<polygon fill="#666666" stroke="#666666" points="28,-547 28,-547 40,-547 40,-547 28,-547"/>
<polygon fill="#666666" stroke="#666666" points="40,-547 40,-547 168,-547 168,-547 40,-547"/>
<polygon fill="none" stroke="#666666" points="28,-410 28,-579 168,-579 168,-410 28,-410"/>
</a>
</g>
</g>
<!-- Node3&#45;&gt;Node2 -->
<g id="edge2_Node000002_Node000003" class="edge">
<title>Node3&#45;&gt;Node2</title>
<g id="a_edge2_Node000002_Node000003"><a xlink:title=" ">
<path fill="none" stroke="#63b8ff" d="M98,-410.06C98,-377.56 98,-341.09 98,-311.48"/>
<polygon fill="none" stroke="#63b8ff" points="98,-311.72 94,-305.72 98,-299.72 102,-305.72 98,-311.72"/>
</a>
</g>
<text text-anchor="middle" x="129.5" y="-382.5" font-family="Helvetica,sans-Serif" font-size="10.00" fill="grey"> +final_photon</text>
<text text-anchor="middle" x="129.5" y="-371.25" font-family="Helvetica,sans-Serif" font-size="10.00" fill="grey">+initial_photon</text>
</g>
<!-- Node4 -->
<g id="Node000004" class="node">
<title>Node4</title>
<g id="a_Node000004"><a xlink:href="class_particle.html" target="_top" xlink:title="Class which represents a particle.">
<polygon fill="white" stroke="none" points="80,-915.25 0,-915.25 0,-626.25 80,-626.25 80,-915.25"/>
<text text-anchor="start" x="23.5" y="-901.75" font-family="Helvetica,sans-Serif" font-size="10.00">Particle</text>
<text text-anchor="start" x="5.5" y="-886.75" font-family="Helvetica,sans-Serif" font-size="10.00">&#45;</text>
<text text-anchor="start" x="14" y="-886.75" font-family="Helvetica,sans-Serif" font-size="10.00">position_</text>
<text text-anchor="start" x="5.5" y="-871.75" font-family="Helvetica,sans-Serif" font-size="10.00">&#45;</text>
<text text-anchor="start" x="14" y="-871.75" font-family="Helvetica,sans-Serif" font-size="10.00">direction_</text>
<text text-anchor="start" x="5.5" y="-856.75" font-family="Helvetica,sans-Serif" font-size="10.00">&#45;</text>
<text text-anchor="start" x="14" y="-856.75" font-family="Helvetica,sans-Serif" font-size="10.00">energy_</text>
<text text-anchor="start" x="5.5" y="-841.75" font-family="Helvetica,sans-Serif" font-size="10.00">&#45;</text>
<text text-anchor="start" x="14" y="-841.75" font-family="Helvetica,sans-Serif" font-size="10.00">terminated_</text>
<text text-anchor="start" x="5.5" y="-826.75" font-family="Helvetica,sans-Serif" font-size="10.00">&#45;</text>
<text text-anchor="start" x="14" y="-826.75" font-family="Helvetica,sans-Serif" font-size="10.00">isPrimary_</text>
<text text-anchor="start" x="4" y="-811.75" font-family="Helvetica,sans-Serif" font-size="10.00">+</text>
<text text-anchor="start" x="14" y="-811.75" font-family="Helvetica,sans-Serif" font-size="10.00">Particle()</text>
<text text-anchor="start" x="4" y="-796.75" font-family="Helvetica,sans-Serif" font-size="10.00">+</text>
<text text-anchor="start" x="14" y="-796.75" font-family="Helvetica,sans-Serif" font-size="10.00">Particle()</text>
<text text-anchor="start" x="4" y="-781.75" font-family="Helvetica,sans-Serif" font-size="10.00">+</text>
<text text-anchor="start" x="14" y="-781.75" font-family="Helvetica,sans-Serif" font-size="10.00">getPosition()</text>
<text text-anchor="start" x="4" y="-766.75" font-family="Helvetica,sans-Serif" font-size="10.00">+</text>
<text text-anchor="start" x="14" y="-766.75" font-family="Helvetica,sans-Serif" font-size="10.00">getDirection()</text>
<text text-anchor="start" x="4" y="-751.75" font-family="Helvetica,sans-Serif" font-size="10.00">+</text>
<text text-anchor="start" x="14" y="-751.75" font-family="Helvetica,sans-Serif" font-size="10.00">getEnergy()</text>
<text text-anchor="start" x="4" y="-736.75" font-family="Helvetica,sans-Serif" font-size="10.00">+</text>
<text text-anchor="start" x="14" y="-736.75" font-family="Helvetica,sans-Serif" font-size="10.00">move()</text>
<text text-anchor="start" x="4" y="-721.75" font-family="Helvetica,sans-Serif" font-size="10.00">+</text>
<text text-anchor="start" x="14" y="-721.75" font-family="Helvetica,sans-Serif" font-size="10.00">setDirection()</text>
<text text-anchor="start" x="4" y="-706.75" font-family="Helvetica,sans-Serif" font-size="10.00">+</text>
<text text-anchor="start" x="14" y="-706.75" font-family="Helvetica,sans-Serif" font-size="10.00">rotate()</text>
<text text-anchor="start" x="4" y="-691.75" font-family="Helvetica,sans-Serif" font-size="10.00">+</text>
<text text-anchor="start" x="14" y="-691.75" font-family="Helvetica,sans-Serif" font-size="10.00">setEnergy()</text>
<text text-anchor="start" x="4" y="-676.75" font-family="Helvetica,sans-Serif" font-size="10.00">+</text>
<text text-anchor="start" x="14" y="-676.75" font-family="Helvetica,sans-Serif" font-size="10.00">isTerminated()</text>
<text text-anchor="start" x="4" y="-661.75" font-family="Helvetica,sans-Serif" font-size="10.00">+</text>
<text text-anchor="start" x="14" y="-661.75" font-family="Helvetica,sans-Serif" font-size="10.00">terminate()</text>
<text text-anchor="start" x="4" y="-646.75" font-family="Helvetica,sans-Serif" font-size="10.00">+</text>
<text text-anchor="start" x="14" y="-646.75" font-family="Helvetica,sans-Serif" font-size="10.00">isPrimary()</text>
<text text-anchor="start" x="4" y="-631.75" font-family="Helvetica,sans-Serif" font-size="10.00">+</text>
<text text-anchor="start" x="14" y="-631.75" font-family="Helvetica,sans-Serif" font-size="10.00">setPrimary()</text>
<polygon fill="#666666" stroke="#666666" points="0,-898.25 0,-898.25 80,-898.25 80,-898.25 0,-898.25"/>
<polygon fill="#666666" stroke="#666666" points="0,-823.25 0,-823.25 12,-823.25 12,-823.25 0,-823.25"/>
<polygon fill="#666666" stroke="#666666" points="12,-823.25 12,-823.25 80,-823.25 80,-823.25 12,-823.25"/>
<polygon fill="none" stroke="#666666" points="0,-626.25 0,-915.25 80,-915.25 80,-626.25 0,-626.25"/>
</a>
</g>
</g>
<!-- Node4&#45;&gt;Node3 -->
<g id="edge3_Node000003_Node000004" class="edge">
<title>Node4&#45;&gt;Node3</title>
<g id="a_edge3_Node000003_Node000004"><a xlink:title=" ">
<path fill="none" stroke="#63b8ff" d="M72.62,-615.51C75.28,-602.93 77.9,-590.54 80.39,-578.79"/>
<polygon fill="none" stroke="#63b8ff" points="69.23,-614.61 70.59,-625.12 76.08,-616.06 69.23,-614.61"/>
</a>
</g>
</g>
<!-- Node5 -->
<g id="Node000005" class="node">
<title>Node5</title>
<g id="a_Node000005"><a xlink:href="struct_photon_scattering_history.html" target="_top" xlink:title="Struct which contains the scattering history of a photon.">
<polygon fill="white" stroke="none" points="213.5,-810.25 98.5,-810.25 98.5,-731.25 213.5,-731.25 213.5,-810.25"/>
<text text-anchor="start" x="103.12" y="-796.75" font-family="Helvetica,sans-Serif" font-size="10.00">PhotonScatteringHistory</text>
<text text-anchor="start" x="115.5" y="-781.75" font-family="Helvetica,sans-Serif" font-size="10.00">+</text>
<text text-anchor="start" x="138.5" y="-781.75" font-family="Helvetica,sans-Serif" font-size="10.00">coherent</text>
<text text-anchor="start" x="115.5" y="-766.75" font-family="Helvetica,sans-Serif" font-size="10.00">+</text>
<text text-anchor="start" x="138.5" y="-766.75" font-family="Helvetica,sans-Serif" font-size="10.00">incoherent</text>
<text text-anchor="start" x="115.5" y="-751.75" font-family="Helvetica,sans-Serif" font-size="10.00">+</text>
<text text-anchor="start" x="138.5" y="-751.75" font-family="Helvetica,sans-Serif" font-size="10.00">total</text>
<text text-anchor="start" x="154.5" y="-736.75" font-family="Helvetica,sans-Serif" font-size="10.00"> </text>
<polygon fill="#666666" stroke="#666666" points="98.5,-793.25 98.5,-793.25 213.5,-793.25 213.5,-793.25 98.5,-793.25"/>
<polygon fill="#666666" stroke="#666666" points="98.5,-748.25 98.5,-748.25 136.5,-748.25 136.5,-748.25 98.5,-748.25"/>
<polygon fill="#666666" stroke="#666666" points="136.5,-748.25 136.5,-748.25 213.5,-748.25 213.5,-748.25 136.5,-748.25"/>
<polygon fill="none" stroke="#666666" points="98.5,-731.25 98.5,-810.25 213.5,-810.25 213.5,-731.25 98.5,-731.25"/>
</a>
</g>
</g>
<!-- Node5&#45;&gt;Node3 -->
<g id="edge4_Node000003_Node000005" class="edge">
<title>Node5&#45;&gt;Node3</title>
<g id="a_edge4_Node000003_Node000005"><a xlink:title=" ">
<path fill="none" stroke="#63b8ff" d="M147.87,-731.33C140.23,-695.2 128.48,-639.62 118.3,-591.49"/>
<polygon fill="none" stroke="#63b8ff" points="118.28,-591.4 113.13,-586.36 115.8,-579.66 120.95,-584.71 118.28,-591.4"/>
</a>
</g>
<text text-anchor="middle" x="164.5" y="-598.75" font-family="Helvetica,sans-Serif" font-size="10.00" fill="grey"> &#45;scattering_history_</text>
</g>
<!-- Node6 -->
<g id="Node000006" class="node">
<title>Node6</title>
<g id="a_Node000006"><a xlink:href="class_volume_quantity_container.html" target="_top" xlink:title="Class which represents a container for volume quantities.">
<polygon fill="white" stroke="none" points="290,-351.5 170,-351.5 170,-152.5 290,-152.5 290,-351.5"/>
<text text-anchor="start" x="174.88" y="-338" font-family="Helvetica,sans-Serif" font-size="10.00">VolumeQuantityContainer</text>
<text text-anchor="start" x="178" y="-323" font-family="Helvetica,sans-Serif" font-size="10.00">&#45;</text>
<text text-anchor="start" x="189" y="-323" font-family="Helvetica,sans-Serif" font-size="10.00">vector_quantities_</text>
<text text-anchor="start" x="178" y="-308" font-family="Helvetica,sans-Serif" font-size="10.00">&#45;</text>
<text text-anchor="start" x="189" y="-308" font-family="Helvetica,sans-Serif" font-size="10.00">count_quantities_</text>
<text text-anchor="start" x="178" y="-293" font-family="Helvetica,sans-Serif" font-size="10.00">&#45;</text>
<text text-anchor="start" x="189" y="-293" font-family="Helvetica,sans-Serif" font-size="10.00">volume_</text>
<text text-anchor="start" x="176.5" y="-278" font-family="Helvetica,sans-Serif" font-size="10.00">+</text>
<text text-anchor="start" x="189" y="-278" font-family="Helvetica,sans-Serif" font-size="10.00">addVectorQuantity()</text>
<text text-anchor="start" x="176.5" y="-263" font-family="Helvetica,sans-Serif" font-size="10.00">+</text>
<text text-anchor="start" x="189" y="-263" font-family="Helvetica,sans-Serif" font-size="10.00">addCountQuantity()</text>
<text text-anchor="start" x="176.5" y="-248" font-family="Helvetica,sans-Serif" font-size="10.00">+</text>
<text text-anchor="start" x="189" y="-248" font-family="Helvetica,sans-Serif" font-size="10.00">measureAll()</text>
<text text-anchor="start" x="176.5" y="-233" font-family="Helvetica,sans-Serif" font-size="10.00">+</text>
<text text-anchor="start" x="189" y="-233" font-family="Helvetica,sans-Serif" font-size="10.00">operator+()</text>
<text text-anchor="start" x="176.5" y="-218" font-family="Helvetica,sans-Serif" font-size="10.00">+</text>
<text text-anchor="start" x="189" y="-218" font-family="Helvetica,sans-Serif" font-size="10.00">clear()</text>
<text text-anchor="start" x="176.5" y="-203" font-family="Helvetica,sans-Serif" font-size="10.00">+</text>
<text text-anchor="start" x="189" y="-203" font-family="Helvetica,sans-Serif" font-size="10.00">getVectorQuantities()</text>
<text text-anchor="start" x="176.5" y="-188" font-family="Helvetica,sans-Serif" font-size="10.00">+</text>
<text text-anchor="start" x="189" y="-188" font-family="Helvetica,sans-Serif" font-size="10.00">getCountQuantities()</text>
<text text-anchor="start" x="176.5" y="-173" font-family="Helvetica,sans-Serif" font-size="10.00">+</text>
<text text-anchor="start" x="189" y="-173" font-family="Helvetica,sans-Serif" font-size="10.00">setVolume()</text>
<text text-anchor="start" x="176.5" y="-158" font-family="Helvetica,sans-Serif" font-size="10.00">+</text>
<text text-anchor="start" x="189" y="-158" font-family="Helvetica,sans-Serif" font-size="10.00">getVolume()</text>
<polygon fill="#666666" stroke="#666666" points="170,-334.5 170,-334.5 290,-334.5 290,-334.5 170,-334.5"/>
<polygon fill="#666666" stroke="#666666" points="170,-289.5 170,-289.5 187,-289.5 187,-289.5 170,-289.5"/>
<polygon fill="#666666" stroke="#666666" points="187,-289.5 187,-289.5 290,-289.5 290,-289.5 187,-289.5"/>
<polygon fill="none" stroke="#666666" points="170,-152.5 170,-351.5 290,-351.5 290,-152.5 170,-152.5"/>
</a>
</g>
</g>
<!-- Node6&#45;&gt;Node1 -->
<g id="edge5_Node000001_Node000006" class="edge">
<title>Node6&#45;&gt;Node1</title>
<g id="a_edge5_Node000001_Node000006"><a xlink:title=" ">
<path fill="none" stroke="#63b8ff" d="M220.06,-152.68C217.04,-138.75 213.12,-124.82 208,-112 207.08,-109.7 206.07,-107.4 204.98,-105.11"/>
<polygon fill="none" stroke="#63b8ff" points="205.04,-105.22 198.69,-101.8 199.4,-94.62 205.75,-98.04 205.04,-105.22"/>
</a>
</g>
<text text-anchor="middle" x="242.38" y="-119.38" font-family="Helvetica,sans-Serif" font-size="10.00" fill="grey"> #quantities_</text>
</g>
</g>
</svg>
