<?xml version="1.0" encoding="UTF-8" standalone="no"?>
<!DOCTYPE svg PUBLIC "-//W3C//DTD SVG 1.1//EN"
 "http://www.w3.org/Graphics/SVG/1.1/DTD/svg11.dtd">
<!-- Generated by graphviz version 9.0.0 (20230911.1827)
 -->
<!-- Title: AACuboidVolumeTally Pages: 1 -->
<!--zoomable 1069 -->

<svg id="main" version="1.1" xmlns="http://www.w3.org/2000/svg" xmlns:xlink="http://www.w3.org/1999/xlink" xml:space="preserve" onload="init(evt)">
<style type="text/css"><![CDATA[
.node, .edge {opacity: 0.7;}
.node.selected, .edge.selected {opacity: 1;}
.edge:hover path { stroke: red; }
.edge:hover polygon { stroke: red; fill: red; }
]]></style>

<defs>
  <circle id="rim" cx="0" cy="0" r="7"/>
  <circle id="rim2" cx="0" cy="0" r="3.5"/>
  <g id="zoomPlus">
    <use xlink:href="#rim" fill="#404040"><set attributeName="fill" to="#808080" begin="zoomplus.mouseover" end="zoomplus.mouseout"/></use>
    <path d="M-4,0h8M0,-4v8" fill="none" stroke="white" stroke-width="1.5" pointer-events="none"/>
  </g>
  <g id="zoomMin">
    <use xlink:href="#rim" fill="#404040"><set attributeName="fill" to="#808080" begin="zoomminus.mouseover" end="zoomminus.mouseout"/></use>
    <path d="M-4,0h8" fill="none" stroke="white" stroke-width="1.5" pointer-events="none"/>
  </g>
  <g id="arrowUp" transform="translate(30 24)">
    <use xlink:href="#rim"/>
    <path pointer-events="none" fill="none" stroke="white" stroke-width="1.5" d="M0,-3.0v7 M-2.5,-0.5L0,-3.0L2.5,-0.5"/>
  </g>
  <g id="arrowRight" transform="rotate(90) translate(36 -43)">
    <use xlink:href="#rim"/>
    <path pointer-events="none" fill="none" stroke="white" stroke-width="1.5" d="M0,-3.0v7 M-2.5,-0.5L0,-3.0L2.5,-0.5"/>
  </g>
  <g id="arrowDown" transform="rotate(180) translate(-30 -48)">
    <use xlink:href="#rim"/>
    <path pointer-events="none" fill="none" stroke="white" stroke-width="1.5" d="M0,-3.0v7 M-2.5,-0.5L0,-3.0L2.5,-0.5"/>
  </g>
  <g id="arrowLeft" transform="rotate(270) translate(-36 17)">
    <use xlink:href="#rim"/>
    <path pointer-events="none" fill="none" stroke="white" stroke-width="1.5" d="M0,-3.0v7 M-2.5,-0.5L0,-3.0L2.5,-0.5"/>
  </g>
  <g id="resetDef">
    <use xlink:href="#rim2" fill="#404040"><set attributeName="fill" to="#808080" begin="reset.mouseover" end="reset.mouseout"/></use>
  </g>
</defs>
<script type="application/ecmascript">
var viewWidth = 298;
var viewHeight = 1069;
var sectionId = 'dynsection-0';
</script>
<script type="application/ecmascript" xlink:href="svg.min.js"/>
<svg id="graph" class="graph">
<g id="viewport">
<title>AACuboidVolumeTally</title>
<!-- Node1 -->
<g id="Node000001" class="node">
<title>Node1</title>
<g id="a_Node000001"><a xlink:title="Class which represents an axis&#45;aligned cuboid volume tally.">
<polygon fill="#999999" stroke="none" points="240.5,-109 87.5,-109 87.5,0 240.5,0 240.5,-109"/>
<text text-anchor="start" x="115.62" y="-95.5" font-family="Helvetica,sans-Serif" font-size="10.00">AACuboidVolumeTally</text>
<text text-anchor="start" x="93" y="-80.5" font-family="Helvetica,sans-Serif" font-size="10.00">&#45;</text>
<text text-anchor="start" x="101.5" y="-80.5" font-family="Helvetica,sans-Serif" font-size="10.00">min_corner_</text>
<text text-anchor="start" x="93" y="-65.5" font-family="Helvetica,sans-Serif" font-size="10.00">&#45;</text>
<text text-anchor="start" x="101.5" y="-65.5" font-family="Helvetica,sans-Serif" font-size="10.00">max_corner_</text>
<text text-anchor="start" x="91.5" y="-50.5" font-family="Helvetica,sans-Serif" font-size="10.00">+</text>
<text text-anchor="start" x="101.5" y="-50.5" font-family="Helvetica,sans-Serif" font-size="10.00">AACuboidVolumeTally()</text>
<text text-anchor="start" x="93" y="-35.5" font-family="Helvetica,sans-Serif" font-size="10.00">&#45;</text>
<text text-anchor="start" x="101.5" y="-35.5" font-family="Helvetica,sans-Serif" font-size="10.00">determineVolumeTraversal()</text>
<text text-anchor="start" x="93" y="-20.5" font-family="Helvetica,sans-Serif" font-size="10.00">&#45;</text>
<text text-anchor="start" x="101.5" y="-20.5" font-family="Helvetica,sans-Serif" font-size="10.00">getEnteringAndExitingLengths()</text>
<text text-anchor="start" x="93" y="-5.5" font-family="Helvetica,sans-Serif" font-size="10.00">&#45;</text>
<text text-anchor="start" x="101.5" y="-5.5" font-family="Helvetica,sans-Serif" font-size="10.00">getLengthsToSurfacePlanes()</text>
<polygon fill="#666666" stroke="#666666" points="87.5,-92 87.5,-92 240.5,-92 240.5,-92 87.5,-92"/>
<polygon fill="#666666" stroke="#666666" points="87.5,-62 87.5,-62 99.5,-62 99.5,-62 87.5,-62"/>
<polygon fill="#666666" stroke="#666666" points="99.5,-62 99.5,-62 240.5,-62 240.5,-62 99.5,-62"/>
<polygon fill="none" stroke="#666666" points="87.5,0 87.5,-109 240.5,-109 240.5,0 87.5,0"/>
</a>
</g>
</g>
<!-- Node2 -->
<g id="Node000002" class="node">
<title>Node2</title>
<g id="a_Node000002"><a xlink:href="class_volume_tally.html" target="_top" xlink:title="Virtual class which represents a volume tally.">
<polygon fill="white" stroke="none" points="237.5,-240 90.5,-240 90.5,-146 237.5,-146 237.5,-240"/>
<text text-anchor="start" x="137.38" y="-226.5" font-family="Helvetica,sans-Serif" font-size="10.00">VolumeTally</text>
<text text-anchor="start" x="162.5" y="-211.5" font-family="Helvetica,sans-Serif" font-size="10.00"> </text>
<text text-anchor="start" x="94.5" y="-196.5" font-family="Helvetica,sans-Serif" font-size="10.00">+</text>
<text text-anchor="start" x="104.5" y="-196.5" font-family="Helvetica,sans-Serif" font-size="10.00">~VolumeTally()</text>
<text text-anchor="start" x="94.5" y="-181.5" font-family="Helvetica,sans-Serif" font-size="10.00">+</text>
<text text-anchor="start" x="104.5" y="-181.5" font-family="Helvetica,sans-Serif" font-size="10.00">processMeasurements()</text>
<text text-anchor="start" x="94.5" y="-166.5" font-family="Helvetica,sans-Serif" font-size="10.00">+</text>
<text text-anchor="start" x="104.5" y="-166.5" font-family="Helvetica,sans-Serif" font-size="10.00">getVolumeQuantityContainer()</text>
<text text-anchor="start" x="94.88" y="-151.5" font-family="Helvetica,sans-Serif" font-size="10.00">#</text>
<text text-anchor="start" x="104.5" y="-151.5" font-family="Helvetica,sans-Serif" font-size="10.00">determineVolumeTraversal()</text>
<polygon fill="#666666" stroke="#666666" points="90.5,-223 90.5,-223 237.5,-223 237.5,-223 90.5,-223"/>
<polygon fill="#666666" stroke="#666666" points="90.5,-208 90.5,-208 237.5,-208 237.5,-208 90.5,-208"/>
<polygon fill="none" stroke="#666666" points="90.5,-146 90.5,-240 237.5,-240 237.5,-146 90.5,-146"/>
</a>
</g>
</g>
<!-- Node2&#45;&gt;Node1 -->
<g id="edge1_Node000001_Node000002" class="edge">
<title>Node2&#45;&gt;Node1</title>
<g id="a_edge1_Node000001_Node000002"><a xlink:title=" ">
<path fill="none" stroke="#63b8ff" d="M164,-134.88C164,-126.15 164,-117.16 164,-108.52"/>
<polygon fill="none" stroke="#63b8ff" points="160.5,-134.65 164,-144.65 167.5,-134.65 160.5,-134.65"/>
</a>
</g>
</g>
<!-- Node3 -->
<g id="Node000003" class="node">
<title>Node3</title>
<g id="a_Node000003"><a xlink:href="struct_temp_volume_tally_data.html" target="_top" xlink:title="Struct which represents the temporary data for a volume tally.">
<polygon fill="white" stroke="none" points="152,-445 44,-445 44,-351 152,-351 152,-445"/>
<text text-anchor="start" x="48.88" y="-431.5" font-family="Helvetica,sans-Serif" font-size="10.00">TempVolumeTallyData</text>
<text text-anchor="start" x="51.5" y="-416.5" font-family="Helvetica,sans-Serif" font-size="10.00">+</text>
<text text-anchor="start" x="65" y="-416.5" font-family="Helvetica,sans-Serif" font-size="10.00">energy_deposited</text>
<text text-anchor="start" x="51.5" y="-401.5" font-family="Helvetica,sans-Serif" font-size="10.00">+</text>
<text text-anchor="start" x="65" y="-401.5" font-family="Helvetica,sans-Serif" font-size="10.00">free_path</text>
<text text-anchor="start" x="51.5" y="-386.5" font-family="Helvetica,sans-Serif" font-size="10.00">+</text>
<text text-anchor="start" x="65" y="-386.5" font-family="Helvetica,sans-Serif" font-size="10.00">isInteract</text>
<text text-anchor="start" x="51.5" y="-371.5" font-family="Helvetica,sans-Serif" font-size="10.00">+</text>
<text text-anchor="start" x="65" y="-371.5" font-family="Helvetica,sans-Serif" font-size="10.00">already_counted</text>
<text text-anchor="start" x="96.5" y="-356.5" font-family="Helvetica,sans-Serif" font-size="10.00"> </text>
<polygon fill="#666666" stroke="#666666" points="44,-428 44,-428 152,-428 152,-428 44,-428"/>
<polygon fill="#666666" stroke="#666666" points="44,-368 44,-368 63,-368 63,-368 44,-368"/>
<polygon fill="#666666" stroke="#666666" points="63,-368 63,-368 152,-368 152,-368 63,-368"/>
<polygon fill="none" stroke="#666666" points="44,-351 44,-445 152,-445 152,-351 44,-351"/>
</a>
</g>
</g>
<!-- Node3&#45;&gt;Node2 -->
<g id="edge2_Node000002_Node000003" class="edge">
<title>Node3&#45;&gt;Node2</title>
<g id="a_edge2_Node000002_Node000003"><a xlink:title=" ">
<path fill="none" stroke="#63b8ff" d="M99.87,-351.19C102.27,-323.4 107.62,-287.7 119.5,-258 120.42,-255.69 121.44,-253.38 122.54,-251.09"/>
<polygon fill="none" stroke="#63b8ff" points="122.51,-251.16 121.81,-243.98 128.17,-240.58 128.86,-247.76 122.51,-251.16"/>
</a>
</g>
<text text-anchor="start" x="119" y="-271" font-family="Helvetica,sans-Serif" font-size="10.00" fill="grey"> #temp_volume_tally</text>
<text text-anchor="middle" x="163.25" y="-259.75" font-family="Helvetica,sans-Serif" font-size="10.00" fill="grey">_data_</text>
</g>
<!-- Node4 -->
<g id="Node000004" class="node">
<title>Node4</title>
<g id="a_Node000004"><a xlink:href="class_photon.html" target="_top" xlink:title="Class which represents a photon. Inherits from Particle.">
<polygon fill="white" stroke="none" points="168,-725 28,-725 28,-556 168,-556 168,-725"/>
<text text-anchor="start" x="82.62" y="-711.5" font-family="Helvetica,sans-Serif" font-size="10.00">Photon</text>
<text text-anchor="start" x="33.5" y="-696.5" font-family="Helvetica,sans-Serif" font-size="10.00">&#45;</text>
<text text-anchor="start" x="42" y="-696.5" font-family="Helvetica,sans-Serif" font-size="10.00">interaction_behavior_</text>
<text text-anchor="start" x="32" y="-681.5" font-family="Helvetica,sans-Serif" font-size="10.00">+</text>
<text text-anchor="start" x="42" y="-681.5" font-family="Helvetica,sans-Serif" font-size="10.00">Photon()</text>
<text text-anchor="start" x="32" y="-666.5" font-family="Helvetica,sans-Serif" font-size="10.00">+</text>
<text text-anchor="start" x="42" y="-666.5" font-family="Helvetica,sans-Serif" font-size="10.00">Photon()</text>
<text text-anchor="start" x="32" y="-651.5" font-family="Helvetica,sans-Serif" font-size="10.00">+</text>
<text text-anchor="start" x="42" y="-651.5" font-family="Helvetica,sans-Serif" font-size="10.00">interact()</text>
<text text-anchor="start" x="32" y="-636.5" font-family="Helvetica,sans-Serif" font-size="10.00">+</text>
<text text-anchor="start" x="42" y="-636.5" font-family="Helvetica,sans-Serif" font-size="10.00">setInteractionBehavior()</text>
<text text-anchor="start" x="32" y="-621.5" font-family="Helvetica,sans-Serif" font-size="10.00">+</text>
<text text-anchor="start" x="42" y="-621.5" font-family="Helvetica,sans-Serif" font-size="10.00">addCoherentScatter()</text>
<text text-anchor="start" x="32" y="-606.5" font-family="Helvetica,sans-Serif" font-size="10.00">+</text>
<text text-anchor="start" x="42" y="-606.5" font-family="Helvetica,sans-Serif" font-size="10.00">addIncoherentScatter()</text>
<text text-anchor="start" x="32" y="-591.5" font-family="Helvetica,sans-Serif" font-size="10.00">+</text>
<text text-anchor="start" x="42" y="-591.5" font-family="Helvetica,sans-Serif" font-size="10.00">getTotalScatterCount()</text>
<text text-anchor="start" x="32" y="-576.5" font-family="Helvetica,sans-Serif" font-size="10.00">+</text>
<text text-anchor="start" x="42" y="-576.5" font-family="Helvetica,sans-Serif" font-size="10.00">getCoherentScatterCount()</text>
<text text-anchor="start" x="32" y="-561.5" font-family="Helvetica,sans-Serif" font-size="10.00">+</text>
<text text-anchor="start" x="42" y="-561.5" font-family="Helvetica,sans-Serif" font-size="10.00">getIncoherentScatterCount()</text>
<polygon fill="#666666" stroke="#666666" points="28,-708 28,-708 168,-708 168,-708 28,-708"/>
<polygon fill="#666666" stroke="#666666" points="28,-693 28,-693 40,-693 40,-693 28,-693"/>
<polygon fill="#666666" stroke="#666666" points="40,-693 40,-693 168,-693 168,-693 40,-693"/>
<polygon fill="none" stroke="#666666" points="28,-556 28,-725 168,-725 168,-556 28,-556"/>
</a>
</g>
</g>
<!-- Node4&#45;&gt;Node3 -->
<g id="edge3_Node000003_Node000004" class="edge">
<title>Node4&#45;&gt;Node3</title>
<g id="a_edge3_Node000003_Node000004"><a xlink:title=" ">
<path fill="none" stroke="#63b8ff" d="M98,-556.06C98,-523.56 98,-487.09 98,-457.48"/>
<polygon fill="none" stroke="#63b8ff" points="98,-457.72 94,-451.72 98,-445.72 102,-451.72 98,-457.72"/>
</a>
</g>
<text text-anchor="middle" x="129.5" y="-528.5" font-family="Helvetica,sans-Serif" font-size="10.00" fill="grey"> +final_photon</text>
<text text-anchor="middle" x="129.5" y="-517.25" font-family="Helvetica,sans-Serif" font-size="10.00" fill="grey">+initial_photon</text>
</g>
<!-- Node5 -->
<g id="Node000005" class="node">
<title>Node5</title>
<g id="a_Node000005"><a xlink:href="class_particle.html" target="_top" xlink:title="Class which represents a particle.">
<polygon fill="white" stroke="none" points="80,-1061.25 0,-1061.25 0,-772.25 80,-772.25 80,-1061.25"/>
<text text-anchor="start" x="23.5" y="-1047.75" font-family="Helvetica,sans-Serif" font-size="10.00">Particle</text>
<text text-anchor="start" x="5.5" y="-1032.75" font-family="Helvetica,sans-Serif" font-size="10.00">&#45;</text>
<text text-anchor="start" x="14" y="-1032.75" font-family="Helvetica,sans-Serif" font-size="10.00">position_</text>
<text text-anchor="start" x="5.5" y="-1017.75" font-family="Helvetica,sans-Serif" font-size="10.00">&#45;</text>
<text text-anchor="start" x="14" y="-1017.75" font-family="Helvetica,sans-Serif" font-size="10.00">direction_</text>
<text text-anchor="start" x="5.5" y="-1002.75" font-family="Helvetica,sans-Serif" font-size="10.00">&#45;</text>
<text text-anchor="start" x="14" y="-1002.75" font-family="Helvetica,sans-Serif" font-size="10.00">energy_</text>
<text text-anchor="start" x="5.5" y="-987.75" font-family="Helvetica,sans-Serif" font-size="10.00">&#45;</text>
<text text-anchor="start" x="14" y="-987.75" font-family="Helvetica,sans-Serif" font-size="10.00">terminated_</text>
<text text-anchor="start" x="5.5" y="-972.75" font-family="Helvetica,sans-Serif" font-size="10.00">&#45;</text>
<text text-anchor="start" x="14" y="-972.75" font-family="Helvetica,sans-Serif" font-size="10.00">isPrimary_</text>
<text text-anchor="start" x="4" y="-957.75" font-family="Helvetica,sans-Serif" font-size="10.00">+</text>
<text text-anchor="start" x="14" y="-957.75" font-family="Helvetica,sans-Serif" font-size="10.00">Particle()</text>
<text text-anchor="start" x="4" y="-942.75" font-family="Helvetica,sans-Serif" font-size="10.00">+</text>
<text text-anchor="start" x="14" y="-942.75" font-family="Helvetica,sans-Serif" font-size="10.00">Particle()</text>
<text text-anchor="start" x="4" y="-927.75" font-family="Helvetica,sans-Serif" font-size="10.00">+</text>
<text text-anchor="start" x="14" y="-927.75" font-family="Helvetica,sans-Serif" font-size="10.00">getPosition()</text>
<text text-anchor="start" x="4" y="-912.75" font-family="Helvetica,sans-Serif" font-size="10.00">+</text>
<text text-anchor="start" x="14" y="-912.75" font-family="Helvetica,sans-Serif" font-size="10.00">getDirection()</text>
<text text-anchor="start" x="4" y="-897.75" font-family="Helvetica,sans-Serif" font-size="10.00">+</text>
<text text-anchor="start" x="14" y="-897.75" font-family="Helvetica,sans-Serif" font-size="10.00">getEnergy()</text>
<text text-anchor="start" x="4" y="-882.75" font-family="Helvetica,sans-Serif" font-size="10.00">+</text>
<text text-anchor="start" x="14" y="-882.75" font-family="Helvetica,sans-Serif" font-size="10.00">move()</text>
<text text-anchor="start" x="4" y="-867.75" font-family="Helvetica,sans-Serif" font-size="10.00">+</text>
<text text-anchor="start" x="14" y="-867.75" font-family="Helvetica,sans-Serif" font-size="10.00">setDirection()</text>
<text text-anchor="start" x="4" y="-852.75" font-family="Helvetica,sans-Serif" font-size="10.00">+</text>
<text text-anchor="start" x="14" y="-852.75" font-family="Helvetica,sans-Serif" font-size="10.00">rotate()</text>
<text text-anchor="start" x="4" y="-837.75" font-family="Helvetica,sans-Serif" font-size="10.00">+</text>
<text text-anchor="start" x="14" y="-837.75" font-family="Helvetica,sans-Serif" font-size="10.00">setEnergy()</text>
<text text-anchor="start" x="4" y="-822.75" font-family="Helvetica,sans-Serif" font-size="10.00">+</text>
<text text-anchor="start" x="14" y="-822.75" font-family="Helvetica,sans-Serif" font-size="10.00">isTerminated()</text>
<text text-anchor="start" x="4" y="-807.75" font-family="Helvetica,sans-Serif" font-size="10.00">+</text>
<text text-anchor="start" x="14" y="-807.75" font-family="Helvetica,sans-Serif" font-size="10.00">terminate()</text>
<text text-anchor="start" x="4" y="-792.75" font-family="Helvetica,sans-Serif" font-size="10.00">+</text>
<text text-anchor="start" x="14" y="-792.75" font-family="Helvetica,sans-Serif" font-size="10.00">isPrimary()</text>
<text text-anchor="start" x="4" y="-777.75" font-family="Helvetica,sans-Serif" font-size="10.00">+</text>
<text text-anchor="start" x="14" y="-777.75" font-family="Helvetica,sans-Serif" font-size="10.00">setPrimary()</text>
<polygon fill="#666666" stroke="#666666" points="0,-1044.25 0,-1044.25 80,-1044.25 80,-1044.25 0,-1044.25"/>
<polygon fill="#666666" stroke="#666666" points="0,-969.25 0,-969.25 12,-969.25 12,-969.25 0,-969.25"/>
<polygon fill="#666666" stroke="#666666" points="12,-969.25 12,-969.25 80,-969.25 80,-969.25 12,-969.25"/>
<polygon fill="none" stroke="#666666" points="0,-772.25 0,-1061.25 80,-1061.25 80,-772.25 0,-772.25"/>
</a>
</g>
</g>
<!-- Node5&#45;&gt;Node4 -->
<g id="edge4_Node000004_Node000005" class="edge">
<title>Node5&#45;&gt;Node4</title>
<g id="a_edge4_Node000004_Node000005"><a xlink:title=" ">
<path fill="none" stroke="#63b8ff" d="M72.62,-761.51C75.28,-748.93 77.9,-736.54 80.39,-724.79"/>
<polygon fill="none" stroke="#63b8ff" points="69.23,-760.61 70.59,-771.12 76.08,-762.06 69.23,-760.61"/>
</a>
</g>
</g>
<!-- Node6 -->
<g id="Node000006" class="node">
<title>Node6</title>
<g id="a_Node000006"><a xlink:href="struct_photon_scattering_history.html" target="_top" xlink:title="Struct which contains the scattering history of a photon.">
<polygon fill="white" stroke="none" points="213.5,-956.25 98.5,-956.25 98.5,-877.25 213.5,-877.25 213.5,-956.25"/>
<text text-anchor="start" x="103.12" y="-942.75" font-family="Helvetica,sans-Serif" font-size="10.00">PhotonScatteringHistory</text>
<text text-anchor="start" x="115.5" y="-927.75" font-family="Helvetica,sans-Serif" font-size="10.00">+</text>
<text text-anchor="start" x="138.5" y="-927.75" font-family="Helvetica,sans-Serif" font-size="10.00">coherent</text>
<text text-anchor="start" x="115.5" y="-912.75" font-family="Helvetica,sans-Serif" font-size="10.00">+</text>
<text text-anchor="start" x="138.5" y="-912.75" font-family="Helvetica,sans-Serif" font-size="10.00">incoherent</text>
<text text-anchor="start" x="115.5" y="-897.75" font-family="Helvetica,sans-Serif" font-size="10.00">+</text>
<text text-anchor="start" x="138.5" y="-897.75" font-family="Helvetica,sans-Serif" font-size="10.00">total</text>
<text text-anchor="start" x="154.5" y="-882.75" font-family="Helvetica,sans-Serif" font-size="10.00"> </text>
<polygon fill="#666666" stroke="#666666" points="98.5,-939.25 98.5,-939.25 213.5,-939.25 213.5,-939.25 98.5,-939.25"/>
<polygon fill="#666666" stroke="#666666" points="98.5,-894.25 98.5,-894.25 136.5,-894.25 136.5,-894.25 98.5,-894.25"/>
<polygon fill="#666666" stroke="#666666" points="136.5,-894.25 136.5,-894.25 213.5,-894.25 213.5,-894.25 136.5,-894.25"/>
<polygon fill="none" stroke="#666666" points="98.5,-877.25 98.5,-956.25 213.5,-956.25 213.5,-877.25 98.5,-877.25"/>
</a>
</g>
</g>
<!-- Node6&#45;&gt;Node4 -->
<g id="edge5_Node000004_Node000006" class="edge">
<title>Node6&#45;&gt;Node4</title>
<g id="a_edge5_Node000004_Node000006"><a xlink:title=" ">
<path fill="none" stroke="#63b8ff" d="M147.87,-877.33C140.23,-841.2 128.48,-785.62 118.3,-737.49"/>
<polygon fill="none" stroke="#63b8ff" points="118.28,-737.4 113.13,-732.36 115.8,-725.66 120.95,-730.71 118.28,-737.4"/>
</a>
</g>
<text text-anchor="middle" x="164.5" y="-744.75" font-family="Helvetica,sans-Serif" font-size="10.00" fill="grey"> &#45;scattering_history_</text>
</g>
<!-- Node7 -->
<g id="Node000007" class="node">
<title>Node7</title>
<g id="a_Node000007"><a xlink:href="class_volume_quantity_container.html" target="_top" xlink:title="Class which represents a container for volume quantities.">
<polygon fill="white" stroke="none" points="290,-497.5 170,-497.5 170,-298.5 290,-298.5 290,-497.5"/>
<text text-anchor="start" x="174.88" y="-484" font-family="Helvetica,sans-Serif" font-size="10.00">VolumeQuantityContainer</text>
<text text-anchor="start" x="178" y="-469" font-family="Helvetica,sans-Serif" font-size="10.00">&#45;</text>
<text text-anchor="start" x="189" y="-469" font-family="Helvetica,sans-Serif" font-size="10.00">vector_quantities_</text>
<text text-anchor="start" x="178" y="-454" font-family="Helvetica,sans-Serif" font-size="10.00">&#45;</text>
<text text-anchor="start" x="189" y="-454" font-family="Helvetica,sans-Serif" font-size="10.00">count_quantities_</text>
<text text-anchor="start" x="178" y="-439" font-family="Helvetica,sans-Serif" font-size="10.00">&#45;</text>
<text text-anchor="start" x="189" y="-439" font-family="Helvetica,sans-Serif" font-size="10.00">volume_</text>
<text text-anchor="start" x="176.5" y="-424" font-family="Helvetica,sans-Serif" font-size="10.00">+</text>
<text text-anchor="start" x="189" y="-424" font-family="Helvetica,sans-Serif" font-size="10.00">addVectorQuantity()</text>
<text text-anchor="start" x="176.5" y="-409" font-family="Helvetica,sans-Serif" font-size="10.00">+</text>
<text text-anchor="start" x="189" y="-409" font-family="Helvetica,sans-Serif" font-size="10.00">addCountQuantity()</text>
<text text-anchor="start" x="176.5" y="-394" font-family="Helvetica,sans-Serif" font-size="10.00">+</text>
<text text-anchor="start" x="189" y="-394" font-family="Helvetica,sans-Serif" font-size="10.00">measureAll()</text>
<text text-anchor="start" x="176.5" y="-379" font-family="Helvetica,sans-Serif" font-size="10.00">+</text>
<text text-anchor="start" x="189" y="-379" font-family="Helvetica,sans-Serif" font-size="10.00">operator+()</text>
<text text-anchor="start" x="176.5" y="-364" font-family="Helvetica,sans-Serif" font-size="10.00">+</text>
<text text-anchor="start" x="189" y="-364" font-family="Helvetica,sans-Serif" font-size="10.00">clear()</text>
<text text-anchor="start" x="176.5" y="-349" font-family="Helvetica,sans-Serif" font-size="10.00">+</text>
<text text-anchor="start" x="189" y="-349" font-family="Helvetica,sans-Serif" font-size="10.00">getVectorQuantities()</text>
<text text-anchor="start" x="176.5" y="-334" font-family="Helvetica,sans-Serif" font-size="10.00">+</text>
<text text-anchor="start" x="189" y="-334" font-family="Helvetica,sans-Serif" font-size="10.00">getCountQuantities()</text>
<text text-anchor="start" x="176.5" y="-319" font-family="Helvetica,sans-Serif" font-size="10.00">+</text>
<text text-anchor="start" x="189" y="-319" font-family="Helvetica,sans-Serif" font-size="10.00">setVolume()</text>
<text text-anchor="start" x="176.5" y="-304" font-family="Helvetica,sans-Serif" font-size="10.00">+</text>
<text text-anchor="start" x="189" y="-304" font-family="Helvetica,sans-Serif" font-size="10.00">getVolume()</text>
<polygon fill="#666666" stroke="#666666" points="170,-480.5 170,-480.5 290,-480.5 290,-480.5 170,-480.5"/>
<polygon fill="#666666" stroke="#666666" points="170,-435.5 170,-435.5 187,-435.5 187,-435.5 170,-435.5"/>
<polygon fill="#666666" stroke="#666666" points="187,-435.5 187,-435.5 290,-435.5 290,-435.5 187,-435.5"/>
<polygon fill="none" stroke="#666666" points="170,-298.5 170,-497.5 290,-497.5 290,-298.5 170,-298.5"/>
</a>
</g>
</g>
<!-- Node7&#45;&gt;Node2 -->
<g id="edge6_Node000002_Node000007" class="edge">
<title>Node7&#45;&gt;Node2</title>
<g id="a_edge6_Node000002_Node000007"><a xlink:title=" ">
<path fill="none" stroke="#63b8ff" d="M220.06,-298.68C217.04,-284.75 213.12,-270.82 208,-258 207.08,-255.7 206.07,-253.4 204.98,-251.11"/>
<polygon fill="none" stroke="#63b8ff" points="205.04,-251.22 198.69,-247.8 199.4,-240.62 205.75,-244.04 205.04,-251.22"/>
</a>
</g>
<text text-anchor="middle" x="242.38" y="-265.38" font-family="Helvetica,sans-Serif" font-size="10.00" fill="grey"> #quantities_</text>
</g>
</g>
</svg>

<g id="navigator" transform="translate(0 0)" fill="#404254">
  <rect fill="#f2f5e9" fill-opacity="0.5" stroke="#606060" stroke-width=".5" x="0" y="0" width="60" height="60"/>
  <use id="zoomplus" xlink:href="#zoomPlus" x="17" y="9" onmousedown="handleZoom(evt,'in')"/>
  <use id="zoomminus" xlink:href="#zoomMin" x="42" y="9" onmousedown="handleZoom(evt,'out')"/>
  <use id="reset" xlink:href="#resetDef" x="30" y="36" onmousedown="handleReset()"/>
   <use id="arrowup" xlink:href="#arrowUp" x="0" y="0" onmousedown="handlePan(0,-1)"/>
  <use id="arrowright" xlink:href="#arrowRight" x="0" y="0" onmousedown="handlePan(1,0)"/>
  <use id="arrowdown" xlink:href="#arrowDown" x="0" y="0" onmousedown="handlePan(0,1)"/>
  <use id="arrowleft" xlink:href="#arrowLeft" x="0" y="0" onmousedown="handlePan(-1,0)"/>
</g>
<svg viewBox="0 0 15 15" width="100%" height="30px" preserveAspectRatio="xMaxYMin meet">
 <g id="arrow_out" transform="scale(0.3 0.3)">
  <a xlink:href="class_a_a_cuboid_volume_tally__coll__graph_org.svg" target="_base">
   <rect id="button" ry="5" rx="5" y="6" x="6" height="38" width="38"
        fill="#f2f5e9" fill-opacity="0.5" stroke="#606060" stroke-width="1.0"/>
   <path id="arrow"
     d="M 11.500037,31.436501 C 11.940474,20.09759 22.043105,11.32322 32.158766,21.979434 L 37.068811,17.246167 C 37.068811,17.246167 37.088388,32 37.088388,32 L 22.160133,31.978069 C 22.160133,31.978069 26.997745,27.140456 26.997745,27.140456 C 18.528582,18.264221 13.291696,25.230495 11.500037,31.436501 z"
     style="fill:#404040;"/>
  </a>
 </g>
</svg>

<style type='text/css'>
<![CDATA[
[data-mouse-over-selected='false'] { opacity: 0.7; }
[data-mouse-over-selected='true']  { opacity: 1.0; }
]]>
</style>
<script type="application/ecmascript"><![CDATA[
document.addEventListener('DOMContentLoaded', (event) => {
  highlightEdges();
  highlightAdjacentNodes();
});
]]></script>
</svg>
