<?xml version="1.0" encoding="UTF-8" standalone="no"?>
<!DOCTYPE svg PUBLIC "-//W3C//DTD SVG 1.1//EN"
 "http://www.w3.org/Graphics/SVG/1.1/DTD/svg11.dtd">
<!-- Generated by graphviz version 9.0.0 (20230911.1827)
 -->
<!-- Title: PointGeometry Pages: 1 -->
<svg width="110pt" height="187pt"
 viewBox="0.00 0.00 110.00 187.00" xmlns="http://www.w3.org/2000/svg" xmlns:xlink="http://www.w3.org/1999/xlink">
<g id="graph0" class="graph" transform="scale(1 1) rotate(0) translate(4 183)">
<title>PointGeometry</title>
<!-- Node1 -->
<g id="Node000001" class="node">
<title>Node1</title>
<g id="a_Node000001"><a xlink:title="Class which represents a point geometry.">
<polygon fill="#999999" stroke="none" points="96,-64 6,-64 6,0 96,0 96,-64"/>
<text text-anchor="start" x="18.75" y="-50.5" font-family="Helvetica,sans-Serif" font-size="10.00">PointGeometry</text>
<text text-anchor="start" x="49.5" y="-35.5" font-family="Helvetica,sans-Serif" font-size="10.00"> </text>
<text text-anchor="start" x="10" y="-20.5" font-family="Helvetica,sans-Serif" font-size="10.00">+</text>
<text text-anchor="start" x="20" y="-20.5" font-family="Helvetica,sans-Serif" font-size="10.00">PointGeometry()</text>
<text text-anchor="start" x="10" y="-5.5" font-family="Helvetica,sans-Serif" font-size="10.00">+</text>
<text text-anchor="start" x="20" y="-5.5" font-family="Helvetica,sans-Serif" font-size="10.00">samplePosition()</text>
<polygon fill="#666666" stroke="#666666" points="6,-47 6,-47 96,-47 96,-47 6,-47"/>
<polygon fill="#666666" stroke="#666666" points="6,-32 6,-32 96,-32 96,-32 6,-32"/>
<polygon fill="none" stroke="#666666" points="6,0 6,-64 96,-64 96,0 6,0"/>
</a>
</g>
</g>
<!-- Node2 -->
<g id="Node000002" class="node">
<title>Node2</title>
<g id="a_Node000002"><a xlink:href="class_source_geometry.html" target="_top" xlink:title="Virtual class which represents a geometry for a photon source.">
<polygon fill="white" stroke="none" points="102,-179 0,-179 0,-100 102,-100 102,-179"/>
<text text-anchor="start" x="14.62" y="-165.5" font-family="Helvetica,sans-Serif" font-size="10.00">SourceGeometry</text>
<text text-anchor="start" x="4.38" y="-150.5" font-family="Helvetica,sans-Serif" font-size="10.00">#</text>
<text text-anchor="start" x="14" y="-150.5" font-family="Helvetica,sans-Serif" font-size="10.00">position_</text>
<text text-anchor="start" x="4" y="-135.5" font-family="Helvetica,sans-Serif" font-size="10.00">+</text>
<text text-anchor="start" x="14" y="-135.5" font-family="Helvetica,sans-Serif" font-size="10.00">samplePosition()</text>
<text text-anchor="start" x="4" y="-120.5" font-family="Helvetica,sans-Serif" font-size="10.00">+</text>
<text text-anchor="start" x="14" y="-120.5" font-family="Helvetica,sans-Serif" font-size="10.00">~SourceGeometry()</text>
<text text-anchor="start" x="4.38" y="-105.5" font-family="Helvetica,sans-Serif" font-size="10.00">#</text>
<text text-anchor="start" x="14" y="-105.5" font-family="Helvetica,sans-Serif" font-size="10.00">SourceGeometry()</text>
<polygon fill="#666666" stroke="#666666" points="0,-162 0,-162 102,-162 102,-162 0,-162"/>
<polygon fill="#666666" stroke="#666666" points="0,-147 0,-147 12,-147 12,-147 0,-147"/>
<polygon fill="#666666" stroke="#666666" points="12,-147 12,-147 102,-147 102,-147 12,-147"/>
<polygon fill="none" stroke="#666666" points="0,-100 0,-179 102,-179 102,-100 0,-100"/>
</a>
</g>
</g>
<!-- Node2&#45;&gt;Node1 -->
<g id="edge1_Node000001_Node000002" class="edge">
<title>Node2&#45;&gt;Node1</title>
<g id="a_edge1_Node000001_Node000002"><a xlink:title=" ">
<path fill="none" stroke="#63b8ff" d="M51,-88.73C51,-80.27 51,-71.72 51,-63.93"/>
<polygon fill="none" stroke="#63b8ff" points="47.5,-88.6 51,-98.6 54.5,-88.6 47.5,-88.6"/>
</a>
</g>
</g>
</g>
</svg>
