<?xml version="1.0" encoding="UTF-8" standalone="no"?>
<!DOCTYPE svg PUBLIC "-//W3C//DTD SVG 1.1//EN"
 "http://www.w3.org/Graphics/SVG/1.1/DTD/svg11.dtd">
<!-- Generated by graphviz version 9.0.0 (20230911.1827)
 -->
<!-- Title: MaterialProperties Pages: 1 -->
<svg width="155pt" height="711pt"
 viewBox="0.00 0.00 155.00 710.50" xmlns="http://www.w3.org/2000/svg" xmlns:xlink="http://www.w3.org/1999/xlink">
<g id="graph0" class="graph" transform="scale(1 1) rotate(0) translate(4 706.5)">
<title>MaterialProperties</title>
<!-- Node1 -->
<g id="Node000001" class="node">
<title>Node1</title>
<g id="a_Node000001"><a xlink:title="Class which represents the properties of a material.">
<polygon fill="#999999" stroke="none" points="147,-465 0,-465 0,0 147,0 147,-465"/>
<text text-anchor="start" x="34.12" y="-451.5" font-family="Helvetica,sans-Serif" font-size="10.00">MaterialProperties</text>
<text text-anchor="start" x="5.5" y="-436.5" font-family="Helvetica,sans-Serif" font-size="10.00">&#45;</text>
<text text-anchor="start" x="14" y="-436.5" font-family="Helvetica,sans-Serif" font-size="10.00">name_</text>
<text text-anchor="start" x="5.5" y="-421.5" font-family="Helvetica,sans-Serif" font-size="10.00">&#45;</text>
<text text-anchor="start" x="14" y="-421.5" font-family="Helvetica,sans-Serif" font-size="10.00">material_id_</text>
<text text-anchor="start" x="5.5" y="-406.5" font-family="Helvetica,sans-Serif" font-size="10.00">&#45;</text>
<text text-anchor="start" x="14" y="-406.5" font-family="Helvetica,sans-Serif" font-size="10.00">mass_density_</text>
<text text-anchor="start" x="5.5" y="-391.5" font-family="Helvetica,sans-Serif" font-size="10.00">&#45;</text>
<text text-anchor="start" x="14" y="-391.5" font-family="Helvetica,sans-Serif" font-size="10.00">number_density_</text>
<text text-anchor="start" x="5.5" y="-376.5" font-family="Helvetica,sans-Serif" font-size="10.00">&#45;</text>
<text text-anchor="start" x="14" y="-376.5" font-family="Helvetica,sans-Serif" font-size="10.00">atomic_weight_</text>
<text text-anchor="start" x="5.5" y="-361.5" font-family="Helvetica,sans-Serif" font-size="10.00">&#45;</text>
<text text-anchor="start" x="14" y="-361.5" font-family="Helvetica,sans-Serif" font-size="10.00">elemental_composition_</text>
<text text-anchor="start" x="5.5" y="-346.5" font-family="Helvetica,sans-Serif" font-size="10.00">&#45;</text>
<text text-anchor="start" x="14" y="-346.5" font-family="Helvetica,sans-Serif" font-size="10.00">elemental_mass_density_</text>
<text text-anchor="start" x="5.5" y="-331.5" font-family="Helvetica,sans-Serif" font-size="10.00">&#45;</text>
<text text-anchor="start" x="14" y="-331.5" font-family="Helvetica,sans-Serif" font-size="10.00">elemental_number_density_</text>
<text text-anchor="start" x="5.5" y="-316.5" font-family="Helvetica,sans-Serif" font-size="10.00">&#45;</text>
<text text-anchor="start" x="14" y="-316.5" font-family="Helvetica,sans-Serif" font-size="10.00">elemental_atomic_weight_</text>
<text text-anchor="start" x="5.5" y="-301.5" font-family="Helvetica,sans-Serif" font-size="10.00">&#45;</text>
<text text-anchor="start" x="14" y="-301.5" font-family="Helvetica,sans-Serif" font-size="10.00">elemental_mass_number_</text>
<text text-anchor="start" x="4" y="-286.5" font-family="Helvetica,sans-Serif" font-size="10.00">+</text>
<text text-anchor="start" x="14" y="-286.5" font-family="Helvetica,sans-Serif" font-size="10.00">MaterialProperties()</text>
<text text-anchor="start" x="4" y="-271.5" font-family="Helvetica,sans-Serif" font-size="10.00">+</text>
<text text-anchor="start" x="14" y="-271.5" font-family="Helvetica,sans-Serif" font-size="10.00">getName()</text>
<text text-anchor="start" x="4" y="-256.5" font-family="Helvetica,sans-Serif" font-size="10.00">+</text>
<text text-anchor="start" x="14" y="-256.5" font-family="Helvetica,sans-Serif" font-size="10.00">getMaterialId()</text>
<text text-anchor="start" x="4" y="-241.5" font-family="Helvetica,sans-Serif" font-size="10.00">+</text>
<text text-anchor="start" x="14" y="-241.5" font-family="Helvetica,sans-Serif" font-size="10.00">getMassDensity()</text>
<text text-anchor="start" x="4" y="-226.5" font-family="Helvetica,sans-Serif" font-size="10.00">+</text>
<text text-anchor="start" x="14" y="-226.5" font-family="Helvetica,sans-Serif" font-size="10.00">getNumberDensity()</text>
<text text-anchor="start" x="4" y="-211.5" font-family="Helvetica,sans-Serif" font-size="10.00">+</text>
<text text-anchor="start" x="14" y="-211.5" font-family="Helvetica,sans-Serif" font-size="10.00">getAtomicWeight()</text>
<text text-anchor="start" x="4" y="-196.5" font-family="Helvetica,sans-Serif" font-size="10.00">+</text>
<text text-anchor="start" x="14" y="-196.5" font-family="Helvetica,sans-Serif" font-size="10.00">getElementalComposition()</text>
<text text-anchor="start" x="4" y="-181.5" font-family="Helvetica,sans-Serif" font-size="10.00">+</text>
<text text-anchor="start" x="14" y="-181.5" font-family="Helvetica,sans-Serif" font-size="10.00">getElementalMassDensity()</text>
<text text-anchor="start" x="4" y="-166.5" font-family="Helvetica,sans-Serif" font-size="10.00">+</text>
<text text-anchor="start" x="14" y="-166.5" font-family="Helvetica,sans-Serif" font-size="10.00">getElementalNumberDensity()</text>
<text text-anchor="start" x="4" y="-151.5" font-family="Helvetica,sans-Serif" font-size="10.00">+</text>
<text text-anchor="start" x="14" y="-151.5" font-family="Helvetica,sans-Serif" font-size="10.00">getElementalAtomicWeight()</text>
<text text-anchor="start" x="4" y="-136.5" font-family="Helvetica,sans-Serif" font-size="10.00">+</text>
<text text-anchor="start" x="14" y="-136.5" font-family="Helvetica,sans-Serif" font-size="10.00">getElementalMassNumber()</text>
<text text-anchor="start" x="5.5" y="-121.5" font-family="Helvetica,sans-Serif" font-size="10.00">&#45;</text>
<text text-anchor="start" x="14" y="-121.5" font-family="Helvetica,sans-Serif" font-size="10.00">initializeProperties()</text>
<text text-anchor="start" x="5.5" y="-106.5" font-family="Helvetica,sans-Serif" font-size="10.00">&#45;</text>
<text text-anchor="start" x="14" y="-106.5" font-family="Helvetica,sans-Serif" font-size="10.00">setMaterialId()</text>
<text text-anchor="start" x="5.5" y="-91.5" font-family="Helvetica,sans-Serif" font-size="10.00">&#45;</text>
<text text-anchor="start" x="14" y="-91.5" font-family="Helvetica,sans-Serif" font-size="10.00">setElementalComposition()</text>
<text text-anchor="start" x="5.5" y="-76.5" font-family="Helvetica,sans-Serif" font-size="10.00">&#45;</text>
<text text-anchor="start" x="14" y="-76.5" font-family="Helvetica,sans-Serif" font-size="10.00">initializeMaterialProperties()</text>
<text text-anchor="start" x="5.5" y="-61.5" font-family="Helvetica,sans-Serif" font-size="10.00">&#45;</text>
<text text-anchor="start" x="14" y="-61.5" font-family="Helvetica,sans-Serif" font-size="10.00">setElementalDataForTable</text>
<text text-anchor="start" x="14" y="-50.25" font-family="Helvetica,sans-Serif" font-size="10.00">AndColumn()</text>
<text text-anchor="start" x="5.5" y="-35.5" font-family="Helvetica,sans-Serif" font-size="10.00">&#45;</text>
<text text-anchor="start" x="14" y="-35.5" font-family="Helvetica,sans-Serif" font-size="10.00">setMassDensity()</text>
<text text-anchor="start" x="5.5" y="-20.5" font-family="Helvetica,sans-Serif" font-size="10.00">&#45;</text>
<text text-anchor="start" x="14" y="-20.5" font-family="Helvetica,sans-Serif" font-size="10.00">setNumberDensity()</text>
<text text-anchor="start" x="5.5" y="-5.5" font-family="Helvetica,sans-Serif" font-size="10.00">&#45;</text>
<text text-anchor="start" x="14" y="-5.5" font-family="Helvetica,sans-Serif" font-size="10.00">setAtomicWeight()</text>
<polygon fill="#666666" stroke="#666666" points="0,-448 0,-448 147,-448 147,-448 0,-448"/>
<polygon fill="#666666" stroke="#666666" points="0,-298 0,-298 12,-298 12,-298 0,-298"/>
<polygon fill="#666666" stroke="#666666" points="12,-298 12,-298 147,-298 147,-298 12,-298"/>
<polygon fill="none" stroke="#666666" points="0,0 0,-465 147,-465 147,0 0,0"/>
</a>
</g>
</g>
<!-- Node2 -->
<g id="Node000002" class="node">
<title>Node2</title>
<g id="a_Node000002"><a xlink:href="class_data_access_object.html" target="_top" xlink:title="Class which provides an interface to a SQLite database.">
<polygon fill="white" stroke="none" points="129,-606.25 18,-606.25 18,-512.25 129,-512.25 129,-606.25"/>
<text text-anchor="start" x="32.62" y="-592.75" font-family="Helvetica,sans-Serif" font-size="10.00">DataAccessObject</text>
<text text-anchor="start" x="72" y="-577.75" font-family="Helvetica,sans-Serif" font-size="10.00"> </text>
<text text-anchor="start" x="22" y="-562.75" font-family="Helvetica,sans-Serif" font-size="10.00">+</text>
<text text-anchor="start" x="32" y="-562.75" font-family="Helvetica,sans-Serif" font-size="10.00">DataAccessObject()</text>
<text text-anchor="start" x="22" y="-547.75" font-family="Helvetica,sans-Serif" font-size="10.00">+</text>
<text text-anchor="start" x="32" y="-547.75" font-family="Helvetica,sans-Serif" font-size="10.00">~DataAccessObject()</text>
<text text-anchor="start" x="22" y="-532.75" font-family="Helvetica,sans-Serif" font-size="10.00">+</text>
<text text-anchor="start" x="32" y="-532.75" font-family="Helvetica,sans-Serif" font-size="10.00">executeQuery()</text>
<text text-anchor="start" x="23.5" y="-517.75" font-family="Helvetica,sans-Serif" font-size="10.00">&#45;</text>
<text text-anchor="start" x="32" y="-517.75" font-family="Helvetica,sans-Serif" font-size="10.00">callback()</text>
<polygon fill="#666666" stroke="#666666" points="18,-589.25 18,-589.25 129,-589.25 129,-589.25 18,-589.25"/>
<polygon fill="#666666" stroke="#666666" points="18,-574.25 18,-574.25 129,-574.25 129,-574.25 18,-574.25"/>
<polygon fill="none" stroke="#666666" points="18,-512.25 18,-606.25 129,-606.25 129,-512.25 18,-512.25"/>
</a>
</g>
</g>
<!-- Node2&#45;&gt;Node1 -->
<g id="edge1_Node000001_Node000002" class="edge">
<title>Node2&#45;&gt;Node1</title>
<g id="a_edge1_Node000001_Node000002"><a xlink:title=" ">
<path fill="none" stroke="#63b8ff" d="M73.5,-512.41C73.5,-502.05 73.5,-490.35 73.5,-477.77"/>
<polygon fill="none" stroke="#63b8ff" points="73.5,-477.8 69.5,-471.8 73.5,-465.8 77.5,-471.8 73.5,-477.8"/>
</a>
</g>
<text text-anchor="middle" x="86.62" y="-484.75" font-family="Helvetica,sans-Serif" font-size="10.00" fill="grey"> &#45;dao_</text>
</g>
<!-- Node3 -->
<g id="Node000003" class="node">
<title>Node3</title>
<g id="a_Node000003"><a xlink:title=" ">
<polygon fill="white" stroke="none" points="92.5,-702.5 54.5,-702.5 54.5,-653.5 92.5,-653.5 92.5,-702.5"/>
<text text-anchor="start" x="59.25" y="-689" font-family="Helvetica,sans-Serif" font-size="10.00">sqlite3</text>
<text text-anchor="start" x="72" y="-674" font-family="Helvetica,sans-Serif" font-size="10.00"> </text>
<text text-anchor="start" x="72" y="-659" font-family="Helvetica,sans-Serif" font-size="10.00"> </text>
<polygon fill="#bfbfbf" stroke="#bfbfbf" points="54.5,-685.5 54.5,-685.5 92.5,-685.5 92.5,-685.5 54.5,-685.5"/>
<polygon fill="#bfbfbf" stroke="#bfbfbf" points="54.5,-670.5 54.5,-670.5 92.5,-670.5 92.5,-670.5 54.5,-670.5"/>
<polygon fill="none" stroke="#bfbfbf" points="54.5,-653.5 54.5,-702.5 92.5,-702.5 92.5,-653.5 54.5,-653.5"/>
</a>
</g>
</g>
<!-- Node3&#45;&gt;Node2 -->
<g id="edge2_Node000002_Node000003" class="edge">
<title>Node3&#45;&gt;Node2</title>
<g id="a_edge2_Node000002_Node000003"><a xlink:title=" ">
<path fill="none" stroke="#63b8ff" d="M73.5,-653.65C73.5,-643.58 73.5,-631.29 73.5,-618.99"/>
<polygon fill="none" stroke="#63b8ff" points="73.5,-619.15 69.5,-613.15 73.5,-607.15 77.5,-613.15 73.5,-619.15"/>
</a>
</g>
<text text-anchor="middle" x="81.38" y="-626" font-family="Helvetica,sans-Serif" font-size="10.00" fill="grey"> &#45;db</text>
</g>
</g>
</svg>
