<?xml version="1.0" encoding="UTF-8" standalone="no"?>
<!DOCTYPE svg PUBLIC "-//W3C//DTD SVG 1.1//EN"
 "http://www.w3.org/Graphics/SVG/1.1/DTD/svg11.dtd">
<!-- Generated by graphviz version 9.0.0 (20230911.1827)
 -->
<!-- Title: CountSurfaceQuantity Pages: 1 -->
<svg width="184pt" height="464pt"
 viewBox="0.00 0.00 183.50 464.00" xmlns="http://www.w3.org/2000/svg" xmlns:xlink="http://www.w3.org/1999/xlink">
<g id="graph0" class="graph" transform="scale(1 1) rotate(0) translate(4 460)">
<title>CountSurfaceQuantity</title>
<!-- Node1 -->
<g id="Node000001" class="node">
<title>Node1</title>
<g id="a_Node000001"><a xlink:title="Class which represents a count quantity for a surface tally.">
<polygon fill="#999999" stroke="none" points="135,-221 0,-221 0,0 135,0 135,-221"/>
<text text-anchor="start" x="19.88" y="-207.5" font-family="Helvetica,sans-Serif" font-size="10.00">CountSurfaceQuantity</text>
<text text-anchor="start" x="5.5" y="-192.5" font-family="Helvetica,sans-Serif" font-size="10.00">&#45;</text>
<text text-anchor="start" x="14" y="-192.5" font-family="Helvetica,sans-Serif" font-size="10.00">type_</text>
<text text-anchor="start" x="5.5" y="-177.5" font-family="Helvetica,sans-Serif" font-size="10.00">&#45;</text>
<text text-anchor="start" x="14" y="-177.5" font-family="Helvetica,sans-Serif" font-size="10.00">totaled_</text>
<text text-anchor="start" x="5.5" y="-162.5" font-family="Helvetica,sans-Serif" font-size="10.00">&#45;</text>
<text text-anchor="start" x="14" y="-162.5" font-family="Helvetica,sans-Serif" font-size="10.00">valueExtractor_</text>
<text text-anchor="start" x="4" y="-147.5" font-family="Helvetica,sans-Serif" font-size="10.00">+</text>
<text text-anchor="start" x="14" y="-147.5" font-family="Helvetica,sans-Serif" font-size="10.00">CountSurfaceQuantity()</text>
<text text-anchor="start" x="4" y="-132.5" font-family="Helvetica,sans-Serif" font-size="10.00">+</text>
<text text-anchor="start" x="14" y="-132.5" font-family="Helvetica,sans-Serif" font-size="10.00">operator+()</text>
<text text-anchor="start" x="4" y="-117.5" font-family="Helvetica,sans-Serif" font-size="10.00">+</text>
<text text-anchor="start" x="14" y="-117.5" font-family="Helvetica,sans-Serif" font-size="10.00">measure()</text>
<text text-anchor="start" x="4" y="-102.5" font-family="Helvetica,sans-Serif" font-size="10.00">+</text>
<text text-anchor="start" x="14" y="-102.5" font-family="Helvetica,sans-Serif" font-size="10.00">getType()</text>
<text text-anchor="start" x="4" y="-87.5" font-family="Helvetica,sans-Serif" font-size="10.00">+</text>
<text text-anchor="start" x="14" y="-87.5" font-family="Helvetica,sans-Serif" font-size="10.00">getTotalValues()</text>
<text text-anchor="start" x="4" y="-72.5" font-family="Helvetica,sans-Serif" font-size="10.00">+</text>
<text text-anchor="start" x="14" y="-72.5" font-family="Helvetica,sans-Serif" font-size="10.00">getPrimaryValues()</text>
<text text-anchor="start" x="4" y="-57.5" font-family="Helvetica,sans-Serif" font-size="10.00">+</text>
<text text-anchor="start" x="14" y="-57.5" font-family="Helvetica,sans-Serif" font-size="10.00">getSingleIncoherentScatter</text>
<text text-anchor="start" x="14" y="-46.25" font-family="Helvetica,sans-Serif" font-size="10.00">Values()</text>
<text text-anchor="start" x="4" y="-31.5" font-family="Helvetica,sans-Serif" font-size="10.00">+</text>
<text text-anchor="start" x="14" y="-31.5" font-family="Helvetica,sans-Serif" font-size="10.00">getSingleCoherentScatter</text>
<text text-anchor="start" x="14" y="-20.25" font-family="Helvetica,sans-Serif" font-size="10.00">Values()</text>
<text text-anchor="start" x="4" y="-5.5" font-family="Helvetica,sans-Serif" font-size="10.00">+</text>
<text text-anchor="start" x="14" y="-5.5" font-family="Helvetica,sans-Serif" font-size="10.00">getMultipleScatterValues()</text>
<polygon fill="#666666" stroke="#666666" points="0,-204 0,-204 135,-204 135,-204 0,-204"/>
<polygon fill="#666666" stroke="#666666" points="0,-159 0,-159 12,-159 12,-159 0,-159"/>
<polygon fill="#666666" stroke="#666666" points="12,-159 12,-159 135,-159 135,-159 12,-159"/>
<polygon fill="none" stroke="#666666" points="0,0 0,-221 135,-221 135,0 0,0"/>
</a>
</g>
</g>
<!-- Node2 -->
<g id="Node000002" class="node">
<title>Node2</title>
<g id="a_Node000002"><a xlink:href="class_count_value.html" target="_top" xlink:title="Class which represents a count quantity. Used by the Tally classes to store simulation data.">
<polygon fill="white" stroke="none" points="108.5,-456 26.5,-456 26.5,-347 108.5,-347 108.5,-456"/>
<text text-anchor="start" x="42.38" y="-442.5" font-family="Helvetica,sans-Serif" font-size="10.00">CountValue</text>
<text text-anchor="start" x="30.5" y="-427.5" font-family="Helvetica,sans-Serif" font-size="10.00">+</text>
<text text-anchor="start" x="40.5" y="-427.5" font-family="Helvetica,sans-Serif" font-size="10.00">count_</text>
<text text-anchor="start" x="30.5" y="-412.5" font-family="Helvetica,sans-Serif" font-size="10.00">+</text>
<text text-anchor="start" x="40.5" y="-412.5" font-family="Helvetica,sans-Serif" font-size="10.00">operator+()</text>
<text text-anchor="start" x="30.5" y="-397.5" font-family="Helvetica,sans-Serif" font-size="10.00">+</text>
<text text-anchor="start" x="40.5" y="-397.5" font-family="Helvetica,sans-Serif" font-size="10.00">addCount()</text>
<text text-anchor="start" x="30.5" y="-382.5" font-family="Helvetica,sans-Serif" font-size="10.00">+</text>
<text text-anchor="start" x="40.5" y="-382.5" font-family="Helvetica,sans-Serif" font-size="10.00">addCounts()</text>
<text text-anchor="start" x="30.5" y="-367.5" font-family="Helvetica,sans-Serif" font-size="10.00">+</text>
<text text-anchor="start" x="40.5" y="-367.5" font-family="Helvetica,sans-Serif" font-size="10.00">getCount()</text>
<text text-anchor="start" x="30.5" y="-352.5" font-family="Helvetica,sans-Serif" font-size="10.00">+</text>
<text text-anchor="start" x="40.5" y="-352.5" font-family="Helvetica,sans-Serif" font-size="10.00">getCountSTD()</text>
<polygon fill="#666666" stroke="#666666" points="26.5,-439 26.5,-439 108.5,-439 108.5,-439 26.5,-439"/>
<polygon fill="#666666" stroke="#666666" points="26.5,-424 26.5,-424 38.5,-424 38.5,-424 26.5,-424"/>
<polygon fill="#666666" stroke="#666666" points="38.5,-424 38.5,-424 108.5,-424 108.5,-424 38.5,-424"/>
<polygon fill="none" stroke="#666666" points="26.5,-347 26.5,-456 108.5,-456 108.5,-347 26.5,-347"/>
</a>
</g>
</g>
<!-- Node2&#45;&gt;Node1 -->
<g id="edge1_Node000001_Node000002" class="edge">
<title>Node2&#45;&gt;Node1</title>
<g id="a_edge1_Node000001_Node000002"><a xlink:title=" ">
<path fill="none" stroke="#63b8ff" d="M67.5,-347.16C67.5,-315.29 67.5,-273.43 67.5,-233.84"/>
<polygon fill="none" stroke="#63b8ff" points="67.5,-233.7 63.5,-227.7 67.5,-221.7 71.5,-227.7 67.5,-233.7"/>
</a>
</g>
<text text-anchor="start" x="67.5" y="-319.5" font-family="Helvetica,sans-Serif" font-size="10.00" fill="grey"> &#45;multiple_scatter_values</text>
<text text-anchor="middle" x="121.5" y="-308.25" font-family="Helvetica,sans-Serif" font-size="10.00" fill="grey">_</text>
<text text-anchor="middle" x="121.5" y="-297" font-family="Helvetica,sans-Serif" font-size="10.00" fill="grey">&#45;primary_values_</text>
<text text-anchor="start" x="67.5" y="-285.75" font-family="Helvetica,sans-Serif" font-size="10.00" fill="grey">&#45;single_coherent</text>
<text text-anchor="middle" x="121.5" y="-274.5" font-family="Helvetica,sans-Serif" font-size="10.00" fill="grey">_scatter_values_</text>
<text text-anchor="start" x="67.5" y="-263.25" font-family="Helvetica,sans-Serif" font-size="10.00" fill="grey">&#45;single_incoherent</text>
<text text-anchor="middle" x="121.5" y="-252" font-family="Helvetica,sans-Serif" font-size="10.00" fill="grey">_scatter_values_</text>
<text text-anchor="middle" x="121.5" y="-240.75" font-family="Helvetica,sans-Serif" font-size="10.00" fill="grey">&#45;total_values_</text>
</g>
</g>
</svg>
