<?xml version="1.0" encoding="UTF-8" standalone="no"?>
<!DOCTYPE svg PUBLIC "-//W3C//DTD SVG 1.1//EN"
 "http://www.w3.org/Graphics/SVG/1.1/DTD/svg11.dtd">
<!-- Generated by graphviz version 9.0.0 (20230911.1827)
 -->
<!-- Title: IsotropicDirectionality Pages: 1 -->
<svg width="230pt" height="228pt"
 viewBox="0.00 0.00 230.00 228.25" xmlns="http://www.w3.org/2000/svg" xmlns:xlink="http://www.w3.org/1999/xlink">

<svg id="main" version="1.1" xmlns="http://www.w3.org/2000/svg" xmlns:xlink="http://www.w3.org/1999/xlink" xml:space="preserve" onload="init(evt)">
<style type="text/css"><![CDATA[
.node, .edge {opacity: 0.7;}
.node.selected, .edge.selected {opacity: 1;}
.edge:hover path { stroke: red; }
.edge:hover polygon { stroke: red; fill: red; }
]]></style>
<script type="application/ecmascript" xlink:href="svg.min.js"/>
<svg id="graph" class="graph">
<g id="graph0" class="graph" transform="scale(1 1) rotate(0) translate(4 224.25)">
<title>IsotropicDirectionality</title>
<!-- Node1 -->
<g id="Node000001" class="node">
<title>Node1</title>
<g id="a_Node000001"><a xlink:title="Class which represents an isotropic directionality.">
<polygon fill="#999999" stroke="none" points="165,-64 48,-64 48,0 165,0 165,-64"/>
<text text-anchor="start" x="60" y="-50.5" font-family="Helvetica,sans-Serif" font-size="10.00">IsotropicDirectionality</text>
<text text-anchor="start" x="105" y="-35.5" font-family="Helvetica,sans-Serif" font-size="10.00"> </text>
<text text-anchor="start" x="52" y="-20.5" font-family="Helvetica,sans-Serif" font-size="10.00">+</text>
<text text-anchor="start" x="62" y="-20.5" font-family="Helvetica,sans-Serif" font-size="10.00">IsotropicDirectionality()</text>
<text text-anchor="start" x="52" y="-5.5" font-family="Helvetica,sans-Serif" font-size="10.00">+</text>
<text text-anchor="start" x="62" y="-5.5" font-family="Helvetica,sans-Serif" font-size="10.00">sampleDirection()</text>
<polygon fill="#666666" stroke="#666666" points="48,-47 48,-47 165,-47 165,-47 48,-47"/>
<polygon fill="#666666" stroke="#666666" points="48,-32 48,-32 165,-32 165,-32 48,-32"/>
<polygon fill="none" stroke="#666666" points="48,0 48,-64 165,-64 165,0 48,0"/>
</a>
</g>
</g>
<!-- Node2 -->
<g id="Node000002" class="node">
<title>Node2</title>
<g id="a_Node000002"><a xlink:href="class_directionality.html" target="_top" xlink:title="Virtual class which represents a directionality for a photon source.">
<polygon fill="white" stroke="none" points="93,-197.75 0,-197.75 0,-133.75 93,-133.75 93,-197.75"/>
<text text-anchor="start" x="18.75" y="-184.25" font-family="Helvetica,sans-Serif" font-size="10.00">Directionality</text>
<text text-anchor="start" x="45" y="-169.25" font-family="Helvetica,sans-Serif" font-size="10.00"> </text>
<text text-anchor="start" x="4" y="-154.25" font-family="Helvetica,sans-Serif" font-size="10.00">+</text>
<text text-anchor="start" x="14" y="-154.25" font-family="Helvetica,sans-Serif" font-size="10.00">sampleDirection()</text>
<text text-anchor="start" x="4" y="-139.25" font-family="Helvetica,sans-Serif" font-size="10.00">+</text>
<text text-anchor="start" x="14" y="-139.25" font-family="Helvetica,sans-Serif" font-size="10.00">~Directionality()</text>
<polygon fill="#666666" stroke="#666666" points="0,-180.75 0,-180.75 93,-180.75 93,-180.75 0,-180.75"/>
<polygon fill="#666666" stroke="#666666" points="0,-165.75 0,-165.75 93,-165.75 93,-165.75 0,-165.75"/>
<polygon fill="none" stroke="#666666" points="0,-133.75 0,-197.75 93,-197.75 93,-133.75 0,-133.75"/>
</a>
</g>
</g>
<!-- Node2&#45;&gt;Node1 -->
<g id="edge1_Node000001_Node000002" class="edge">
<title>Node2&#45;&gt;Node1</title>
<g id="a_edge1_Node000001_Node000002"><a xlink:title=" ">
<path fill="none" stroke="#63b8ff" d="M65.28,-123.5C74.09,-104.16 84.41,-81.5 92.52,-63.7"/>
<polygon fill="none" stroke="#63b8ff" points="62.15,-121.93 61.19,-132.48 68.52,-124.83 62.15,-121.93"/>
</a>
</g>
</g>
<!-- Node3 -->
<g id="Node000003" class="node">
<title>Node3</title>
<g id="a_Node000003"><a xlink:href="class_probability_dist_1_1_uniform.html" target="_top" xlink:title="Class which represents a uniform distribution.">
<polygon fill="white" stroke="none" points="222,-220.25 111,-220.25 111,-111.25 222,-111.25 222,-220.25"/>
<text text-anchor="start" x="115.88" y="-206.75" font-family="Helvetica,sans-Serif" font-size="10.00">ProbabilityDist::Uniform</text>
<text text-anchor="start" x="128" y="-191.75" font-family="Helvetica,sans-Serif" font-size="10.00">&#45;</text>
<text text-anchor="start" x="148" y="-191.75" font-family="Helvetica,sans-Serif" font-size="10.00">dist_</text>
<text text-anchor="start" x="128" y="-176.75" font-family="Helvetica,sans-Serif" font-size="10.00">&#45;</text>
<text text-anchor="start" x="148" y="-176.75" font-family="Helvetica,sans-Serif" font-size="10.00">generator_</text>
<text text-anchor="start" x="126.5" y="-161.75" font-family="Helvetica,sans-Serif" font-size="10.00">+</text>
<text text-anchor="start" x="148" y="-161.75" font-family="Helvetica,sans-Serif" font-size="10.00">Uniform()</text>
<text text-anchor="start" x="126.5" y="-146.75" font-family="Helvetica,sans-Serif" font-size="10.00">+</text>
<text text-anchor="start" x="148" y="-146.75" font-family="Helvetica,sans-Serif" font-size="10.00">Uniform()</text>
<text text-anchor="start" x="126.5" y="-131.75" font-family="Helvetica,sans-Serif" font-size="10.00">+</text>
<text text-anchor="start" x="148" y="-131.75" font-family="Helvetica,sans-Serif" font-size="10.00">sample()</text>
<text text-anchor="start" x="126.5" y="-116.75" font-family="Helvetica,sans-Serif" font-size="10.00">+</text>
<text text-anchor="start" x="148" y="-116.75" font-family="Helvetica,sans-Serif" font-size="10.00">setRange()</text>
<polygon fill="#666666" stroke="#666666" points="111,-203.25 111,-203.25 222,-203.25 222,-203.25 111,-203.25"/>
<polygon fill="#666666" stroke="#666666" points="111,-173.25 111,-173.25 146,-173.25 146,-173.25 111,-173.25"/>
<polygon fill="#666666" stroke="#666666" points="146,-173.25 146,-173.25 222,-173.25 222,-173.25 146,-173.25"/>
<polygon fill="none" stroke="#666666" points="111,-111.25 111,-220.25 222,-220.25 222,-111.25 111,-111.25"/>
</a>
</g>
</g>
<!-- Node3&#45;&gt;Node1 -->
<g id="edge2_Node000001_Node000003" class="edge">
<title>Node3&#45;&gt;Node1</title>
<g id="a_edge2_Node000001_Node000003"><a xlink:title=" ">
<path fill="none" stroke="#63b8ff" d="M142.27,-111.54C136.77,-99.46 130.99,-86.78 125.73,-75.22"/>
<polygon fill="none" stroke="#63b8ff" points="125.81,-75.4 119.68,-71.6 120.84,-64.48 126.96,-68.28 125.81,-75.4"/>
</a>
</g>
<text text-anchor="middle" x="165.38" y="-83.75" font-family="Helvetica,sans-Serif" font-size="10.00" fill="grey"> &#45;uniform_dist_</text>
</g>
</g>
</svg>
</svg>

<style type='text/css'>
<![CDATA[
[data-mouse-over-selected='false'] { opacity: 0.7; }
[data-mouse-over-selected='true']  { opacity: 1.0; }
]]>
</style>
<script type="application/ecmascript"><![CDATA[
document.addEventListener('DOMContentLoaded', (event) => {
  highlightEdges();
  highlightAdjacentNodes();
});
]]></script>
</svg>
