<?xml version="1.0" encoding="UTF-8" standalone="no"?>
<!DOCTYPE svg PUBLIC "-//W3C//DTD SVG 1.1//EN"
 "http://www.w3.org/Graphics/SVG/1.1/DTD/svg11.dtd">
<!-- Generated by graphviz version 9.0.0 (20230911.1827)
 -->
<!-- Title: ComputationalDomain Pages: 1 -->
<!--zoomable 745 -->

<svg id="main" version="1.1" xmlns="http://www.w3.org/2000/svg" xmlns:xlink="http://www.w3.org/1999/xlink" xml:space="preserve" onload="init(evt)">
<style type="text/css"><![CDATA[
.node, .edge {opacity: 0.7;}
.node.selected, .edge.selected {opacity: 1;}
.edge:hover path { stroke: red; }
.edge:hover polygon { stroke: red; fill: red; }
]]></style>

<defs>
  <circle id="rim" cx="0" cy="0" r="7"/>
  <circle id="rim2" cx="0" cy="0" r="3.5"/>
  <g id="zoomPlus">
    <use xlink:href="#rim" fill="#404040"><set attributeName="fill" to="#808080" begin="zoomplus.mouseover" end="zoomplus.mouseout"/></use>
    <path d="M-4,0h8M0,-4v8" fill="none" stroke="white" stroke-width="1.5" pointer-events="none"/>
  </g>
  <g id="zoomMin">
    <use xlink:href="#rim" fill="#404040"><set attributeName="fill" to="#808080" begin="zoomminus.mouseover" end="zoomminus.mouseout"/></use>
    <path d="M-4,0h8" fill="none" stroke="white" stroke-width="1.5" pointer-events="none"/>
  </g>
  <g id="arrowUp" transform="translate(30 24)">
    <use xlink:href="#rim"/>
    <path pointer-events="none" fill="none" stroke="white" stroke-width="1.5" d="M0,-3.0v7 M-2.5,-0.5L0,-3.0L2.5,-0.5"/>
  </g>
  <g id="arrowRight" transform="rotate(90) translate(36 -43)">
    <use xlink:href="#rim"/>
    <path pointer-events="none" fill="none" stroke="white" stroke-width="1.5" d="M0,-3.0v7 M-2.5,-0.5L0,-3.0L2.5,-0.5"/>
  </g>
  <g id="arrowDown" transform="rotate(180) translate(-30 -48)">
    <use xlink:href="#rim"/>
    <path pointer-events="none" fill="none" stroke="white" stroke-width="1.5" d="M0,-3.0v7 M-2.5,-0.5L0,-3.0L2.5,-0.5"/>
  </g>
  <g id="arrowLeft" transform="rotate(270) translate(-36 17)">
    <use xlink:href="#rim"/>
    <path pointer-events="none" fill="none" stroke="white" stroke-width="1.5" d="M0,-3.0v7 M-2.5,-0.5L0,-3.0L2.5,-0.5"/>
  </g>
  <g id="resetDef">
    <use xlink:href="#rim2" fill="#404040"><set attributeName="fill" to="#808080" begin="reset.mouseover" end="reset.mouseout"/></use>
  </g>
</defs>
<script type="application/ecmascript">
var viewWidth = 169;
var viewHeight = 745;
var sectionId = 'dynsection-0';
</script>
<script type="application/ecmascript" xlink:href="svg.min.js"/>
<svg id="graph" class="graph">
<g id="viewport">
<title>ComputationalDomain</title>
<!-- Node1 -->
<g id="Node000001" class="node">
<title>Node1</title>
<g id="a_Node000001"><a xlink:title="Class which represents the computational domain.">
<polygon fill="#999999" stroke="none" points="150,-334 0,-334 0,0 150,0 150,-334"/>
<text text-anchor="start" x="27.38" y="-320.5" font-family="Helvetica,sans-Serif" font-size="10.00">ComputationalDomain</text>
<text text-anchor="start" x="5.5" y="-305.5" font-family="Helvetica,sans-Serif" font-size="10.00">&#45;</text>
<text text-anchor="start" x="14" y="-305.5" font-family="Helvetica,sans-Serif" font-size="10.00">voxel_grids_</text>
<text text-anchor="start" x="5.5" y="-290.5" font-family="Helvetica,sans-Serif" font-size="10.00">&#45;</text>
<text text-anchor="start" x="14" y="-290.5" font-family="Helvetica,sans-Serif" font-size="10.00">dim_space_</text>
<text text-anchor="start" x="5.5" y="-275.5" font-family="Helvetica,sans-Serif" font-size="10.00">&#45;</text>
<text text-anchor="start" x="14" y="-275.5" font-family="Helvetica,sans-Serif" font-size="10.00">is_python_environment_</text>
<text text-anchor="start" x="4" y="-260.5" font-family="Helvetica,sans-Serif" font-size="10.00">+</text>
<text text-anchor="start" x="14" y="-260.5" font-family="Helvetica,sans-Serif" font-size="10.00">ComputationalDomain()</text>
<text text-anchor="start" x="4" y="-245.5" font-family="Helvetica,sans-Serif" font-size="10.00">+</text>
<text text-anchor="start" x="14" y="-245.5" font-family="Helvetica,sans-Serif" font-size="10.00">ComputationalDomain()</text>
<text text-anchor="start" x="4" y="-230.5" font-family="Helvetica,sans-Serif" font-size="10.00">+</text>
<text text-anchor="start" x="14" y="-230.5" font-family="Helvetica,sans-Serif" font-size="10.00">getInteractionData()</text>
<text text-anchor="start" x="4" y="-215.5" font-family="Helvetica,sans-Serif" font-size="10.00">+</text>
<text text-anchor="start" x="14" y="-215.5" font-family="Helvetica,sans-Serif" font-size="10.00">isInComputationalDomain()</text>
<text text-anchor="start" x="4" y="-200.5" font-family="Helvetica,sans-Serif" font-size="10.00">+</text>
<text text-anchor="start" x="14" y="-200.5" font-family="Helvetica,sans-Serif" font-size="10.00">getVoxel()</text>
<text text-anchor="start" x="4" y="-185.5" font-family="Helvetica,sans-Serif" font-size="10.00">+</text>
<text text-anchor="start" x="14" y="-185.5" font-family="Helvetica,sans-Serif" font-size="10.00">getVoxelGridN()</text>
<text text-anchor="start" x="4" y="-170.5" font-family="Helvetica,sans-Serif" font-size="10.00">+</text>
<text text-anchor="start" x="14" y="-170.5" font-family="Helvetica,sans-Serif" font-size="10.00">getVoxelGridOriginN()</text>
<text text-anchor="start" x="4" y="-155.5" font-family="Helvetica,sans-Serif" font-size="10.00">+</text>
<text text-anchor="start" x="14" y="-155.5" font-family="Helvetica,sans-Serif" font-size="10.00">getVoxelGridDimSpaceN()</text>
<text text-anchor="start" x="4" y="-140.5" font-family="Helvetica,sans-Serif" font-size="10.00">+</text>
<text text-anchor="start" x="14" y="-140.5" font-family="Helvetica,sans-Serif" font-size="10.00">getNumVoxelGrids()</text>
<text text-anchor="start" x="5.5" y="-125.5" font-family="Helvetica,sans-Serif" font-size="10.00">&#45;</text>
<text text-anchor="start" x="14" y="-125.5" font-family="Helvetica,sans-Serif" font-size="10.00">initializeCompDomain()</text>
<text text-anchor="start" x="5.5" y="-110.5" font-family="Helvetica,sans-Serif" font-size="10.00">&#45;</text>
<text text-anchor="start" x="14" y="-110.5" font-family="Helvetica,sans-Serif" font-size="10.00">setCompProperties()</text>
<text text-anchor="start" x="5.5" y="-95.5" font-family="Helvetica,sans-Serif" font-size="10.00">&#45;</text>
<text text-anchor="start" x="14" y="-95.5" font-family="Helvetica,sans-Serif" font-size="10.00">setVoxelGrids()</text>
<text text-anchor="start" x="5.5" y="-80.5" font-family="Helvetica,sans-Serif" font-size="10.00">&#45;</text>
<text text-anchor="start" x="14" y="-80.5" font-family="Helvetica,sans-Serif" font-size="10.00">getMaterialNames()</text>
<text text-anchor="start" x="5.5" y="-65.5" font-family="Helvetica,sans-Serif" font-size="10.00">&#45;</text>
<text text-anchor="start" x="14" y="-65.5" font-family="Helvetica,sans-Serif" font-size="10.00">getBackgroundMaterialName()</text>
<text text-anchor="start" x="5.5" y="-50.5" font-family="Helvetica,sans-Serif" font-size="10.00">&#45;</text>
<text text-anchor="start" x="14" y="-50.5" font-family="Helvetica,sans-Serif" font-size="10.00">isJSON()</text>
<text text-anchor="start" x="5.5" y="-35.5" font-family="Helvetica,sans-Serif" font-size="10.00">&#45;</text>
<text text-anchor="start" x="14" y="-35.5" font-family="Helvetica,sans-Serif" font-size="10.00">getNIFTIFilePaths()</text>
<text text-anchor="start" x="5.5" y="-20.5" font-family="Helvetica,sans-Serif" font-size="10.00">&#45;</text>
<text text-anchor="start" x="14" y="-20.5" font-family="Helvetica,sans-Serif" font-size="10.00">getOrigins()</text>
<text text-anchor="start" x="5.5" y="-5.5" font-family="Helvetica,sans-Serif" font-size="10.00">&#45;</text>
<text text-anchor="start" x="14" y="-5.5" font-family="Helvetica,sans-Serif" font-size="10.00">isNIFTI()</text>
<polygon fill="#666666" stroke="#666666" points="0,-317 0,-317 150,-317 150,-317 0,-317"/>
<polygon fill="#666666" stroke="#666666" points="0,-272 0,-272 12,-272 12,-272 0,-272"/>
<polygon fill="#666666" stroke="#666666" points="12,-272 12,-272 150,-272 150,-272 12,-272"/>
<polygon fill="none" stroke="#666666" points="0,0 0,-334 150,-334 150,0 0,0"/>
</a>
</g>
</g>
<!-- Node2 -->
<g id="Node000002" class="node">
<title>Node2</title>
<g id="a_Node000002"><a xlink:href="struct_voxel.html" target="_top" xlink:title="Struct which represents a voxel.">
<polygon fill="white" stroke="none" points="106,-430.25 44,-430.25 44,-381.25 106,-381.25 106,-430.25"/>
<text text-anchor="start" x="63" y="-416.75" font-family="Helvetica,sans-Serif" font-size="10.00">Voxel</text>
<text text-anchor="start" x="48" y="-401.75" font-family="Helvetica,sans-Serif" font-size="10.00">+</text>
<text text-anchor="start" x="58" y="-401.75" font-family="Helvetica,sans-Serif" font-size="10.00">materialID</text>
<text text-anchor="start" x="73.5" y="-386.75" font-family="Helvetica,sans-Serif" font-size="10.00"> </text>
<polygon fill="#666666" stroke="#666666" points="44,-413.25 44,-413.25 106,-413.25 106,-413.25 44,-413.25"/>
<polygon fill="#666666" stroke="#666666" points="44,-398.25 44,-398.25 56,-398.25 56,-398.25 44,-398.25"/>
<polygon fill="#666666" stroke="#666666" points="56,-398.25 56,-398.25 106,-398.25 106,-398.25 56,-398.25"/>
<polygon fill="none" stroke="#666666" points="44,-381.25 44,-430.25 106,-430.25 106,-381.25 44,-381.25"/>
</a>
</g>
</g>
<!-- Node2&#45;&gt;Node1 -->
<g id="edge1_Node000001_Node000002" class="edge">
<title>Node2&#45;&gt;Node1</title>
<g id="a_edge1_Node000001_Node000002"><a xlink:title=" ">
<path fill="none" stroke="#63b8ff" d="M75,-381.62C75,-372.04 75,-360.02 75,-346.6"/>
<polygon fill="none" stroke="#63b8ff" points="75,-346.8 71,-340.8 75,-334.8 79,-340.8 75,-346.8"/>
</a>
</g>
<text text-anchor="middle" x="118.12" y="-353.75" font-family="Helvetica,sans-Serif" font-size="10.00" fill="grey"> +background_voxel</text>
</g>
<!-- Node3 -->
<g id="Node000003" class="node">
<title>Node3</title>
<g id="a_Node000003"><a xlink:href="class_vector_value.html" target="_top" xlink:title="Class which represents a vector quantity. Used by the Tally classes to store simulation data.">
<polygon fill="white" stroke="none" points="118,-736.5 32,-736.5 32,-477.5 118,-477.5 118,-736.5"/>
<text text-anchor="start" x="48.38" y="-723" font-family="Helvetica,sans-Serif" font-size="10.00">VectorValue</text>
<text text-anchor="start" x="37.5" y="-708" font-family="Helvetica,sans-Serif" font-size="10.00">&#45;</text>
<text text-anchor="start" x="46" y="-708" font-family="Helvetica,sans-Serif" font-size="10.00">values_</text>
<text text-anchor="start" x="37.5" y="-693" font-family="Helvetica,sans-Serif" font-size="10.00">&#45;</text>
<text text-anchor="start" x="46" y="-693" font-family="Helvetica,sans-Serif" font-size="10.00">sum_</text>
<text text-anchor="start" x="37.5" y="-678" font-family="Helvetica,sans-Serif" font-size="10.00">&#45;</text>
<text text-anchor="start" x="46" y="-678" font-family="Helvetica,sans-Serif" font-size="10.00">summed_</text>
<text text-anchor="start" x="37.5" y="-663" font-family="Helvetica,sans-Serif" font-size="10.00">&#45;</text>
<text text-anchor="start" x="46" y="-663" font-family="Helvetica,sans-Serif" font-size="10.00">var_</text>
<text text-anchor="start" x="37.5" y="-648" font-family="Helvetica,sans-Serif" font-size="10.00">&#45;</text>
<text text-anchor="start" x="46" y="-648" font-family="Helvetica,sans-Serif" font-size="10.00">var_calculated_</text>
<text text-anchor="start" x="36" y="-633" font-family="Helvetica,sans-Serif" font-size="10.00">+</text>
<text text-anchor="start" x="46" y="-633" font-family="Helvetica,sans-Serif" font-size="10.00">operator+()</text>
<text text-anchor="start" x="36" y="-618" font-family="Helvetica,sans-Serif" font-size="10.00">+</text>
<text text-anchor="start" x="46" y="-618" font-family="Helvetica,sans-Serif" font-size="10.00">addValue()</text>
<text text-anchor="start" x="36" y="-603" font-family="Helvetica,sans-Serif" font-size="10.00">+</text>
<text text-anchor="start" x="46" y="-603" font-family="Helvetica,sans-Serif" font-size="10.00">addValues()</text>
<text text-anchor="start" x="36" y="-588" font-family="Helvetica,sans-Serif" font-size="10.00">+</text>
<text text-anchor="start" x="46" y="-588" font-family="Helvetica,sans-Serif" font-size="10.00">getVector()</text>
<text text-anchor="start" x="36" y="-573" font-family="Helvetica,sans-Serif" font-size="10.00">+</text>
<text text-anchor="start" x="46" y="-573" font-family="Helvetica,sans-Serif" font-size="10.00">getSum()</text>
<text text-anchor="start" x="36" y="-558" font-family="Helvetica,sans-Serif" font-size="10.00">+</text>
<text text-anchor="start" x="46" y="-558" font-family="Helvetica,sans-Serif" font-size="10.00">getSumSTD()</text>
<text text-anchor="start" x="36" y="-543" font-family="Helvetica,sans-Serif" font-size="10.00">+</text>
<text text-anchor="start" x="46" y="-543" font-family="Helvetica,sans-Serif" font-size="10.00">getMean()</text>
<text text-anchor="start" x="36" y="-528" font-family="Helvetica,sans-Serif" font-size="10.00">+</text>
<text text-anchor="start" x="46" y="-528" font-family="Helvetica,sans-Serif" font-size="10.00">getMeanSTD()</text>
<text text-anchor="start" x="36" y="-513" font-family="Helvetica,sans-Serif" font-size="10.00">+</text>
<text text-anchor="start" x="46" y="-513" font-family="Helvetica,sans-Serif" font-size="10.00">getCount()</text>
<text text-anchor="start" x="36" y="-498" font-family="Helvetica,sans-Serif" font-size="10.00">+</text>
<text text-anchor="start" x="46" y="-498" font-family="Helvetica,sans-Serif" font-size="10.00">getCountSTD()</text>
<text text-anchor="start" x="36" y="-483" font-family="Helvetica,sans-Serif" font-size="10.00">+</text>
<text text-anchor="start" x="46" y="-483" font-family="Helvetica,sans-Serif" font-size="10.00">getVariance()</text>
<polygon fill="#666666" stroke="#666666" points="32,-719.5 32,-719.5 118,-719.5 118,-719.5 32,-719.5"/>
<polygon fill="#666666" stroke="#666666" points="32,-644.5 32,-644.5 44,-644.5 44,-644.5 32,-644.5"/>
<polygon fill="#666666" stroke="#666666" points="44,-644.5 44,-644.5 118,-644.5 118,-644.5 44,-644.5"/>
<polygon fill="none" stroke="#666666" points="32,-477.5 32,-736.5 118,-736.5 118,-477.5 32,-477.5"/>
</a>
</g>
</g>
<!-- Node3&#45;&gt;Node2 -->
<g id="edge2_Node000002_Node000003" class="edge">
<title>Node3&#45;&gt;Node2</title>
<g id="a_edge2_Node000002_Node000003"><a xlink:title=" ">
<path fill="none" stroke="#63b8ff" d="M75,-477.56C75,-465.13 75,-453.36 75,-443.12"/>
<polygon fill="none" stroke="#63b8ff" points="75,-443.07 71,-437.07 75,-431.07 79,-437.07 75,-443.07"/>
</a>
</g>
<text text-anchor="middle" x="89.62" y="-450" font-family="Helvetica,sans-Serif" font-size="10.00" fill="grey"> +dose</text>
</g>
</g>
</svg>

<g id="navigator" transform="translate(0 0)" fill="#404254">
  <rect fill="#f2f5e9" fill-opacity="0.5" stroke="#606060" stroke-width=".5" x="0" y="0" width="60" height="60"/>
  <use id="zoomplus" xlink:href="#zoomPlus" x="17" y="9" onmousedown="handleZoom(evt,'in')"/>
  <use id="zoomminus" xlink:href="#zoomMin" x="42" y="9" onmousedown="handleZoom(evt,'out')"/>
  <use id="reset" xlink:href="#resetDef" x="30" y="36" onmousedown="handleReset()"/>
   <use id="arrowup" xlink:href="#arrowUp" x="0" y="0" onmousedown="handlePan(0,-1)"/>
  <use id="arrowright" xlink:href="#arrowRight" x="0" y="0" onmousedown="handlePan(1,0)"/>
  <use id="arrowdown" xlink:href="#arrowDown" x="0" y="0" onmousedown="handlePan(0,1)"/>
  <use id="arrowleft" xlink:href="#arrowLeft" x="0" y="0" onmousedown="handlePan(-1,0)"/>
</g>
<svg viewBox="0 0 15 15" width="100%" height="30px" preserveAspectRatio="xMaxYMin meet">
 <g id="arrow_out" transform="scale(0.3 0.3)">
  <a xlink:href="class_computational_domain__coll__graph_org.svg" target="_base">
   <rect id="button" ry="5" rx="5" y="6" x="6" height="38" width="38"
        fill="#f2f5e9" fill-opacity="0.5" stroke="#606060" stroke-width="1.0"/>
   <path id="arrow"
     d="M 11.500037,31.436501 C 11.940474,20.09759 22.043105,11.32322 32.158766,21.979434 L 37.068811,17.246167 C 37.068811,17.246167 37.088388,32 37.088388,32 L 22.160133,31.978069 C 22.160133,31.978069 26.997745,27.140456 26.997745,27.140456 C 18.528582,18.264221 13.291696,25.230495 11.500037,31.436501 z"
     style="fill:#404040;"/>
  </a>
 </g>
</svg>

<style type='text/css'>
<![CDATA[
[data-mouse-over-selected='false'] { opacity: 0.7; }
[data-mouse-over-selected='true']  { opacity: 1.0; }
]]>
</style>
<script type="application/ecmascript"><![CDATA[
document.addEventListener('DOMContentLoaded', (event) => {
  highlightEdges();
  highlightAdjacentNodes();
});
]]></script>
</svg>
