<?xml version="1.0" encoding="UTF-8" standalone="no"?>
<!DOCTYPE svg PUBLIC "-//W3C//DTD SVG 1.1//EN"
 "http://www.w3.org/Graphics/SVG/1.1/DTD/svg11.dtd">
<!-- Generated by graphviz version 9.0.0 (20230911.1827)
 -->
<!-- Title: Interpolator::Linear Pages: 1 -->
<svg width="158pt" height="262pt"
 viewBox="0.00 0.00 158.00 262.00" xmlns="http://www.w3.org/2000/svg" xmlns:xlink="http://www.w3.org/1999/xlink">

<svg id="main" version="1.1" xmlns="http://www.w3.org/2000/svg" xmlns:xlink="http://www.w3.org/1999/xlink" xml:space="preserve" onload="init(evt)">
<style type="text/css"><![CDATA[
.node, .edge {opacity: 0.7;}
.node.selected, .edge.selected {opacity: 1;}
.edge:hover path { stroke: red; }
.edge:hover polygon { stroke: red; fill: red; }
]]></style>
<script type="application/ecmascript" xlink:href="svg.min.js"/>
<svg id="graph" class="graph">
<g id="graph0" class="graph" transform="scale(1 1) rotate(0) translate(4 258)">
<title>Interpolator::Linear</title>
<!-- Node1 -->
<g id="Node000001" class="node">
<title>Node1</title>
<g id="a_Node000001"><a xlink:title="Class which performs linear interpolation.">
<polygon fill="#999999" stroke="none" points="150,-154 0,-154 0,0 150,0 150,-154"/>
<text text-anchor="start" x="34.88" y="-140.5" font-family="Helvetica,sans-Serif" font-size="10.00">Interpolator::Linear</text>
<text text-anchor="start" x="5.5" y="-125.5" font-family="Helvetica,sans-Serif" font-size="10.00">&#45;</text>
<text text-anchor="start" x="14" y="-125.5" font-family="Helvetica,sans-Serif" font-size="10.00">x_vec_</text>
<text text-anchor="start" x="5.5" y="-110.5" font-family="Helvetica,sans-Serif" font-size="10.00">&#45;</text>
<text text-anchor="start" x="14" y="-110.5" font-family="Helvetica,sans-Serif" font-size="10.00">y_vec_</text>
<text text-anchor="start" x="4" y="-95.5" font-family="Helvetica,sans-Serif" font-size="10.00">+</text>
<text text-anchor="start" x="14" y="-95.5" font-family="Helvetica,sans-Serif" font-size="10.00">Linear()</text>
<text text-anchor="start" x="4" y="-80.5" font-family="Helvetica,sans-Serif" font-size="10.00">+</text>
<text text-anchor="start" x="14" y="-80.5" font-family="Helvetica,sans-Serif" font-size="10.00">Linear()</text>
<text text-anchor="start" x="4" y="-65.5" font-family="Helvetica,sans-Serif" font-size="10.00">+</text>
<text text-anchor="start" x="14" y="-65.5" font-family="Helvetica,sans-Serif" font-size="10.00">operator()()</text>
<text text-anchor="start" x="5.5" y="-50.5" font-family="Helvetica,sans-Serif" font-size="10.00">&#45;</text>
<text text-anchor="start" x="14" y="-50.5" font-family="Helvetica,sans-Serif" font-size="10.00">isXSmallerThanMin()</text>
<text text-anchor="start" x="5.5" y="-35.5" font-family="Helvetica,sans-Serif" font-size="10.00">&#45;</text>
<text text-anchor="start" x="14" y="-35.5" font-family="Helvetica,sans-Serif" font-size="10.00">isXBiggerThanMax()</text>
<text text-anchor="start" x="5.5" y="-20.5" font-family="Helvetica,sans-Serif" font-size="10.00">&#45;</text>
<text text-anchor="start" x="14" y="-20.5" font-family="Helvetica,sans-Serif" font-size="10.00">findIndexOfNextLargestValue()</text>
<text text-anchor="start" x="5.5" y="-5.5" font-family="Helvetica,sans-Serif" font-size="10.00">&#45;</text>
<text text-anchor="start" x="14" y="-5.5" font-family="Helvetica,sans-Serif" font-size="10.00">calculateInterpolatedY()</text>
<polygon fill="#666666" stroke="#666666" points="0,-137 0,-137 150,-137 150,-137 0,-137"/>
<polygon fill="#666666" stroke="#666666" points="0,-107 0,-107 12,-107 12,-107 0,-107"/>
<polygon fill="#666666" stroke="#666666" points="12,-107 12,-107 150,-107 150,-107 12,-107"/>
<polygon fill="none" stroke="#666666" points="0,0 0,-154 150,-154 150,0 0,0"/>
</a>
</g>
</g>
<!-- Node2 -->
<g id="Node000002" class="node">
<title>Node2</title>
<g id="a_Node000002"><a xlink:href="class_interpolator_1_1_interpolator.html" target="_top" xlink:title="Abstract base class for interpolators.">
<polygon fill="white" stroke="none" points="131,-254 19,-254 19,-190 131,-190 131,-254"/>
<text text-anchor="start" x="24" y="-240.5" font-family="Helvetica,sans-Serif" font-size="10.00">Interpolator::Interpolator</text>
<text text-anchor="start" x="73.5" y="-225.5" font-family="Helvetica,sans-Serif" font-size="10.00"> </text>
<text text-anchor="start" x="31.5" y="-210.5" font-family="Helvetica,sans-Serif" font-size="10.00">+</text>
<text text-anchor="start" x="50" y="-210.5" font-family="Helvetica,sans-Serif" font-size="10.00">~Interpolator()</text>
<text text-anchor="start" x="31.5" y="-195.5" font-family="Helvetica,sans-Serif" font-size="10.00">+</text>
<text text-anchor="start" x="50" y="-195.5" font-family="Helvetica,sans-Serif" font-size="10.00">operator()()</text>
<polygon fill="#666666" stroke="#666666" points="19,-237 19,-237 131,-237 131,-237 19,-237"/>
<polygon fill="#666666" stroke="#666666" points="19,-222 19,-222 131,-222 131,-222 19,-222"/>
<polygon fill="none" stroke="#666666" points="19,-190 19,-254 131,-254 131,-190 19,-190"/>
</a>
</g>
</g>
<!-- Node2&#45;&gt;Node1 -->
<g id="edge1_Node000001_Node000002" class="edge">
<title>Node2&#45;&gt;Node1</title>
<g id="a_edge1_Node000001_Node000002"><a xlink:title=" ">
<path fill="none" stroke="#63b8ff" d="M75,-178.83C75,-170.93 75,-162.44 75,-153.87"/>
<polygon fill="none" stroke="#63b8ff" points="71.5,-178.81 75,-188.81 78.5,-178.81 71.5,-178.81"/>
</a>
</g>
</g>
</g>
</svg>
</svg>

<style type='text/css'>
<![CDATA[
[data-mouse-over-selected='false'] { opacity: 0.7; }
[data-mouse-over-selected='true']  { opacity: 1.0; }
]]>
</style>
<script type="application/ecmascript"><![CDATA[
document.addEventListener('DOMContentLoaded', (event) => {
  highlightEdges();
  highlightAdjacentNodes();
});
]]></script>
</svg>
