<?xml version="1.0" encoding="UTF-8" standalone="no"?>
<!DOCTYPE svg PUBLIC "-//W3C//DTD SVG 1.1//EN"
 "http://www.w3.org/Graphics/SVG/1.1/DTD/svg11.dtd">
<!-- Generated by graphviz version 9.0.0 (20230911.1827)
 -->
<!-- Title: SourceGeometry Pages: 1 -->
<svg width="110pt" height="87pt"
 viewBox="0.00 0.00 110.00 87.00" xmlns="http://www.w3.org/2000/svg" xmlns:xlink="http://www.w3.org/1999/xlink">
<g id="graph0" class="graph" transform="scale(1 1) rotate(0) translate(4 83)">
<title>SourceGeometry</title>
<!-- Node1 -->
<g id="Node000001" class="node">
<title>Node1</title>
<g id="a_Node000001"><a xlink:title="Virtual class which represents a geometry for a photon source.">
<polygon fill="#999999" stroke="none" points="102,-79 0,-79 0,0 102,0 102,-79"/>
<text text-anchor="start" x="14.62" y="-65.5" font-family="Helvetica,sans-Serif" font-size="10.00">SourceGeometry</text>
<text text-anchor="start" x="4.38" y="-50.5" font-family="Helvetica,sans-Serif" font-size="10.00">#</text>
<text text-anchor="start" x="14" y="-50.5" font-family="Helvetica,sans-Serif" font-size="10.00">position_</text>
<text text-anchor="start" x="4" y="-35.5" font-family="Helvetica,sans-Serif" font-size="10.00">+</text>
<text text-anchor="start" x="14" y="-35.5" font-family="Helvetica,sans-Serif" font-size="10.00">samplePosition()</text>
<text text-anchor="start" x="4" y="-20.5" font-family="Helvetica,sans-Serif" font-size="10.00">+</text>
<text text-anchor="start" x="14" y="-20.5" font-family="Helvetica,sans-Serif" font-size="10.00">~SourceGeometry()</text>
<text text-anchor="start" x="4.38" y="-5.5" font-family="Helvetica,sans-Serif" font-size="10.00">#</text>
<text text-anchor="start" x="14" y="-5.5" font-family="Helvetica,sans-Serif" font-size="10.00">SourceGeometry()</text>
<polygon fill="#666666" stroke="#666666" points="0,-62 0,-62 102,-62 102,-62 0,-62"/>
<polygon fill="#666666" stroke="#666666" points="0,-47 0,-47 12,-47 12,-47 0,-47"/>
<polygon fill="#666666" stroke="#666666" points="12,-47 12,-47 102,-47 102,-47 12,-47"/>
<polygon fill="none" stroke="#666666" points="0,0 0,-79 102,-79 102,0 0,0"/>
</a>
</g>
</g>
</g>
</svg>
