<?xml version="1.0" encoding="UTF-8" standalone="no"?>
<!DOCTYPE svg PUBLIC "-//W3C//DTD SVG 1.1//EN"
 "http://www.w3.org/Graphics/SVG/1.1/DTD/svg11.dtd">
<!-- Generated by graphviz version 9.0.0 (20230911.1827)
 -->
<!-- Title: PhysicsEngine Pages: 1 -->
<svg width="557pt" height="1327pt"
 viewBox="0.00 0.00 556.50 1326.75" xmlns="http://www.w3.org/2000/svg" xmlns:xlink="http://www.w3.org/1999/xlink">
<g id="graph0" class="graph" transform="scale(1 1) rotate(0) translate(4 1322.75)">
<title>PhysicsEngine</title>
<!-- Node1 -->
<g id="Node000001" class="node">
<title>Node1</title>
<g id="a_Node000001"><a xlink:title=" ">
<polygon fill="#999999" stroke="none" points="300.5,-389 147.5,-389 147.5,0 300.5,0 300.5,-389"/>
<text text-anchor="start" x="192.12" y="-375.5" font-family="Helvetica,sans-Serif" font-size="10.00">PhysicsEngine</text>
<text text-anchor="start" x="153" y="-360.5" font-family="Helvetica,sans-Serif" font-size="10.00">&#45;</text>
<text text-anchor="start" x="161.5" y="-360.5" font-family="Helvetica,sans-Serif" font-size="10.00">thread_local_volume</text>
<text text-anchor="start" x="161.5" y="-349.25" font-family="Helvetica,sans-Serif" font-size="10.00">_tallies_</text>
<text text-anchor="start" x="153" y="-334.5" font-family="Helvetica,sans-Serif" font-size="10.00">&#45;</text>
<text text-anchor="start" x="161.5" y="-334.5" font-family="Helvetica,sans-Serif" font-size="10.00">thread_local_surface</text>
<text text-anchor="start" x="161.5" y="-323.25" font-family="Helvetica,sans-Serif" font-size="10.00">_tallies_</text>
<text text-anchor="start" x="153" y="-308.5" font-family="Helvetica,sans-Serif" font-size="10.00">&#45;</text>
<text text-anchor="start" x="161.5" y="-308.5" font-family="Helvetica,sans-Serif" font-size="10.00">thread_local_voxel</text>
<text text-anchor="start" x="161.5" y="-297.25" font-family="Helvetica,sans-Serif" font-size="10.00">_data_</text>
<text text-anchor="start" x="153" y="-282.5" font-family="Helvetica,sans-Serif" font-size="10.00">&#45;</text>
<text text-anchor="start" x="161.5" y="-282.5" font-family="Helvetica,sans-Serif" font-size="10.00">photoelectric_effect_</text>
<text text-anchor="start" x="153" y="-267.5" font-family="Helvetica,sans-Serif" font-size="10.00">&#45;</text>
<text text-anchor="start" x="161.5" y="-267.5" font-family="Helvetica,sans-Serif" font-size="10.00">incoherent_scattering_</text>
<text text-anchor="start" x="153" y="-252.5" font-family="Helvetica,sans-Serif" font-size="10.00">&#45;</text>
<text text-anchor="start" x="161.5" y="-252.5" font-family="Helvetica,sans-Serif" font-size="10.00">coherent_scattering_</text>
<text text-anchor="start" x="151.5" y="-237.5" font-family="Helvetica,sans-Serif" font-size="10.00">+</text>
<text text-anchor="start" x="161.5" y="-237.5" font-family="Helvetica,sans-Serif" font-size="10.00">PhysicsEngine()</text>
<text text-anchor="start" x="151.5" y="-222.5" font-family="Helvetica,sans-Serif" font-size="10.00">+</text>
<text text-anchor="start" x="161.5" y="-222.5" font-family="Helvetica,sans-Serif" font-size="10.00">transportPhoton()</text>
<text text-anchor="start" x="151.5" y="-207.5" font-family="Helvetica,sans-Serif" font-size="10.00">+</text>
<text text-anchor="start" x="161.5" y="-207.5" font-family="Helvetica,sans-Serif" font-size="10.00">transportPhotonOneStep()</text>
<text text-anchor="start" x="151.5" y="-192.5" font-family="Helvetica,sans-Serif" font-size="10.00">+</text>
<text text-anchor="start" x="161.5" y="-192.5" font-family="Helvetica,sans-Serif" font-size="10.00">setInteractionType()</text>
<text text-anchor="start" x="151.5" y="-177.5" font-family="Helvetica,sans-Serif" font-size="10.00">+</text>
<text text-anchor="start" x="161.5" y="-177.5" font-family="Helvetica,sans-Serif" font-size="10.00">addVolumeTallies()</text>
<text text-anchor="start" x="151.5" y="-162.5" font-family="Helvetica,sans-Serif" font-size="10.00">+</text>
<text text-anchor="start" x="161.5" y="-162.5" font-family="Helvetica,sans-Serif" font-size="10.00">addSurfaceTallies()</text>
<text text-anchor="start" x="151.5" y="-147.5" font-family="Helvetica,sans-Serif" font-size="10.00">+</text>
<text text-anchor="start" x="161.5" y="-147.5" font-family="Helvetica,sans-Serif" font-size="10.00">initializeVoxelData()</text>
<text text-anchor="start" x="151.5" y="-132.5" font-family="Helvetica,sans-Serif" font-size="10.00">+</text>
<text text-anchor="start" x="161.5" y="-132.5" font-family="Helvetica,sans-Serif" font-size="10.00">getVolumeQuantityContainers()</text>
<text text-anchor="start" x="151.5" y="-117.5" font-family="Helvetica,sans-Serif" font-size="10.00">+</text>
<text text-anchor="start" x="161.5" y="-117.5" font-family="Helvetica,sans-Serif" font-size="10.00">getSurfaceQuantityContainers()</text>
<text text-anchor="start" x="151.5" y="-102.5" font-family="Helvetica,sans-Serif" font-size="10.00">+</text>
<text text-anchor="start" x="161.5" y="-102.5" font-family="Helvetica,sans-Serif" font-size="10.00">addVoxelDataToComputational</text>
<text text-anchor="start" x="161.5" y="-91.25" font-family="Helvetica,sans-Serif" font-size="10.00">Domain()</text>
<text text-anchor="start" x="151.5" y="-76.5" font-family="Helvetica,sans-Serif" font-size="10.00">+</text>
<text text-anchor="start" x="161.5" y="-76.5" font-family="Helvetica,sans-Serif" font-size="10.00">processPhotonOutsideVoxel</text>
<text text-anchor="start" x="161.5" y="-65.25" font-family="Helvetica,sans-Serif" font-size="10.00">Grid()</text>
<text text-anchor="start" x="153" y="-50.5" font-family="Helvetica,sans-Serif" font-size="10.00">&#45;</text>
<text text-anchor="start" x="161.5" y="-50.5" font-family="Helvetica,sans-Serif" font-size="10.00">getFreePath()</text>
<text text-anchor="start" x="153" y="-35.5" font-family="Helvetica,sans-Serif" font-size="10.00">&#45;</text>
<text text-anchor="start" x="161.5" y="-35.5" font-family="Helvetica,sans-Serif" font-size="10.00">isDeltaScatter()</text>
<text text-anchor="start" x="153" y="-20.5" font-family="Helvetica,sans-Serif" font-size="10.00">&#45;</text>
<text text-anchor="start" x="161.5" y="-20.5" font-family="Helvetica,sans-Serif" font-size="10.00">updateTempTallyPerPhoton()</text>
<text text-anchor="start" x="153" y="-5.5" font-family="Helvetica,sans-Serif" font-size="10.00">&#45;</text>
<text text-anchor="start" x="161.5" y="-5.5" font-family="Helvetica,sans-Serif" font-size="10.00">processTallies()</text>
<polygon fill="#666666" stroke="#666666" points="147.5,-372 147.5,-372 300.5,-372 300.5,-372 147.5,-372"/>
<polygon fill="#666666" stroke="#666666" points="147.5,-249 147.5,-249 159.5,-249 159.5,-249 147.5,-249"/>
<polygon fill="#666666" stroke="#666666" points="159.5,-249 159.5,-249 300.5,-249 300.5,-249 159.5,-249"/>
<polygon fill="none" stroke="#666666" points="147.5,0 147.5,-389 300.5,-389 300.5,0 147.5,0"/>
</a>
</g>
</g>
<!-- Node2 -->
<g id="Node000002" class="node">
<title>Node2</title>
<g id="a_Node000002"><a xlink:href="class_computational_domain.html" target="_top" xlink:title="Class which represents the computational domain.">
<polygon fill="white" stroke="none" points="150,-770.25 0,-770.25 0,-436.25 150,-436.25 150,-770.25"/>
<text text-anchor="start" x="27.38" y="-756.75" font-family="Helvetica,sans-Serif" font-size="10.00">ComputationalDomain</text>
<text text-anchor="start" x="5.5" y="-741.75" font-family="Helvetica,sans-Serif" font-size="10.00">&#45;</text>
<text text-anchor="start" x="14" y="-741.75" font-family="Helvetica,sans-Serif" font-size="10.00">voxel_grids_</text>
<text text-anchor="start" x="5.5" y="-726.75" font-family="Helvetica,sans-Serif" font-size="10.00">&#45;</text>
<text text-anchor="start" x="14" y="-726.75" font-family="Helvetica,sans-Serif" font-size="10.00">dim_space_</text>
<text text-anchor="start" x="5.5" y="-711.75" font-family="Helvetica,sans-Serif" font-size="10.00">&#45;</text>
<text text-anchor="start" x="14" y="-711.75" font-family="Helvetica,sans-Serif" font-size="10.00">is_python_environment_</text>
<text text-anchor="start" x="4" y="-696.75" font-family="Helvetica,sans-Serif" font-size="10.00">+</text>
<text text-anchor="start" x="14" y="-696.75" font-family="Helvetica,sans-Serif" font-size="10.00">ComputationalDomain()</text>
<text text-anchor="start" x="4" y="-681.75" font-family="Helvetica,sans-Serif" font-size="10.00">+</text>
<text text-anchor="start" x="14" y="-681.75" font-family="Helvetica,sans-Serif" font-size="10.00">ComputationalDomain()</text>
<text text-anchor="start" x="4" y="-666.75" font-family="Helvetica,sans-Serif" font-size="10.00">+</text>
<text text-anchor="start" x="14" y="-666.75" font-family="Helvetica,sans-Serif" font-size="10.00">getInteractionData()</text>
<text text-anchor="start" x="4" y="-651.75" font-family="Helvetica,sans-Serif" font-size="10.00">+</text>
<text text-anchor="start" x="14" y="-651.75" font-family="Helvetica,sans-Serif" font-size="10.00">isInComputationalDomain()</text>
<text text-anchor="start" x="4" y="-636.75" font-family="Helvetica,sans-Serif" font-size="10.00">+</text>
<text text-anchor="start" x="14" y="-636.75" font-family="Helvetica,sans-Serif" font-size="10.00">getVoxel()</text>
<text text-anchor="start" x="4" y="-621.75" font-family="Helvetica,sans-Serif" font-size="10.00">+</text>
<text text-anchor="start" x="14" y="-621.75" font-family="Helvetica,sans-Serif" font-size="10.00">getVoxelGridN()</text>
<text text-anchor="start" x="4" y="-606.75" font-family="Helvetica,sans-Serif" font-size="10.00">+</text>
<text text-anchor="start" x="14" y="-606.75" font-family="Helvetica,sans-Serif" font-size="10.00">getVoxelGridOriginN()</text>
<text text-anchor="start" x="4" y="-591.75" font-family="Helvetica,sans-Serif" font-size="10.00">+</text>
<text text-anchor="start" x="14" y="-591.75" font-family="Helvetica,sans-Serif" font-size="10.00">getVoxelGridDimSpaceN()</text>
<text text-anchor="start" x="4" y="-576.75" font-family="Helvetica,sans-Serif" font-size="10.00">+</text>
<text text-anchor="start" x="14" y="-576.75" font-family="Helvetica,sans-Serif" font-size="10.00">getNumVoxelGrids()</text>
<text text-anchor="start" x="5.5" y="-561.75" font-family="Helvetica,sans-Serif" font-size="10.00">&#45;</text>
<text text-anchor="start" x="14" y="-561.75" font-family="Helvetica,sans-Serif" font-size="10.00">initializeCompDomain()</text>
<text text-anchor="start" x="5.5" y="-546.75" font-family="Helvetica,sans-Serif" font-size="10.00">&#45;</text>
<text text-anchor="start" x="14" y="-546.75" font-family="Helvetica,sans-Serif" font-size="10.00">setCompProperties()</text>
<text text-anchor="start" x="5.5" y="-531.75" font-family="Helvetica,sans-Serif" font-size="10.00">&#45;</text>
<text text-anchor="start" x="14" y="-531.75" font-family="Helvetica,sans-Serif" font-size="10.00">setVoxelGrids()</text>
<text text-anchor="start" x="5.5" y="-516.75" font-family="Helvetica,sans-Serif" font-size="10.00">&#45;</text>
<text text-anchor="start" x="14" y="-516.75" font-family="Helvetica,sans-Serif" font-size="10.00">getMaterialNames()</text>
<text text-anchor="start" x="5.5" y="-501.75" font-family="Helvetica,sans-Serif" font-size="10.00">&#45;</text>
<text text-anchor="start" x="14" y="-501.75" font-family="Helvetica,sans-Serif" font-size="10.00">getBackgroundMaterialName()</text>
<text text-anchor="start" x="5.5" y="-486.75" font-family="Helvetica,sans-Serif" font-size="10.00">&#45;</text>
<text text-anchor="start" x="14" y="-486.75" font-family="Helvetica,sans-Serif" font-size="10.00">isJSON()</text>
<text text-anchor="start" x="5.5" y="-471.75" font-family="Helvetica,sans-Serif" font-size="10.00">&#45;</text>
<text text-anchor="start" x="14" y="-471.75" font-family="Helvetica,sans-Serif" font-size="10.00">getNIFTIFilePaths()</text>
<text text-anchor="start" x="5.5" y="-456.75" font-family="Helvetica,sans-Serif" font-size="10.00">&#45;</text>
<text text-anchor="start" x="14" y="-456.75" font-family="Helvetica,sans-Serif" font-size="10.00">getOrigins()</text>
<text text-anchor="start" x="5.5" y="-441.75" font-family="Helvetica,sans-Serif" font-size="10.00">&#45;</text>
<text text-anchor="start" x="14" y="-441.75" font-family="Helvetica,sans-Serif" font-size="10.00">isNIFTI()</text>
<polygon fill="#666666" stroke="#666666" points="0,-753.25 0,-753.25 150,-753.25 150,-753.25 0,-753.25"/>
<polygon fill="#666666" stroke="#666666" points="0,-708.25 0,-708.25 12,-708.25 12,-708.25 0,-708.25"/>
<polygon fill="#666666" stroke="#666666" points="12,-708.25 12,-708.25 150,-708.25 150,-708.25 12,-708.25"/>
<polygon fill="none" stroke="#666666" points="0,-436.25 0,-770.25 150,-770.25 150,-436.25 0,-436.25"/>
</a>
</g>
</g>
<!-- Node2&#45;&gt;Node1 -->
<g id="edge1_Node000001_Node000002" class="edge">
<title>Node2&#45;&gt;Node1</title>
<g id="a_edge1_Node000001_Node000002"><a xlink:title=" ">
<path fill="none" stroke="#63b8ff" d="M135.71,-436.52C140.03,-424.73 144.41,-412.77 148.8,-400.8"/>
<polygon fill="none" stroke="#63b8ff" points="148.74,-400.94 147.05,-393.93 152.87,-389.67 154.56,-396.68 148.74,-400.94"/>
</a>
</g>
<text text-anchor="middle" x="181.62" y="-408.75" font-family="Helvetica,sans-Serif" font-size="10.00" fill="grey"> &#45;comp_domain_</text>
</g>
<!-- Node3 -->
<g id="Node000003" class="node">
<title>Node3</title>
<g id="a_Node000003"><a xlink:href="struct_voxel.html" target="_top" xlink:title="Struct which represents a voxel.">
<polygon fill="white" stroke="none" points="106,-889 44,-889 44,-840 106,-840 106,-889"/>
<text text-anchor="start" x="63" y="-875.5" font-family="Helvetica,sans-Serif" font-size="10.00">Voxel</text>
<text text-anchor="start" x="48" y="-860.5" font-family="Helvetica,sans-Serif" font-size="10.00">+</text>
<text text-anchor="start" x="58" y="-860.5" font-family="Helvetica,sans-Serif" font-size="10.00">materialID</text>
<text text-anchor="start" x="73.5" y="-845.5" font-family="Helvetica,sans-Serif" font-size="10.00"> </text>
<polygon fill="#666666" stroke="#666666" points="44,-872 44,-872 106,-872 106,-872 44,-872"/>
<polygon fill="#666666" stroke="#666666" points="44,-857 44,-857 56,-857 56,-857 44,-857"/>
<polygon fill="#666666" stroke="#666666" points="56,-857 56,-857 106,-857 106,-857 56,-857"/>
<polygon fill="none" stroke="#666666" points="44,-840 44,-889 106,-889 106,-840 44,-840"/>
</a>
</g>
</g>
<!-- Node3&#45;&gt;Node2 -->
<g id="edge2_Node000002_Node000003" class="edge">
<title>Node3&#45;&gt;Node2</title>
<g id="a_edge2_Node000002_Node000003"><a xlink:title=" ">
<path fill="none" stroke="#63b8ff" d="M75,-840.04C75,-825.54 75,-805.46 75,-783.08"/>
<polygon fill="none" stroke="#63b8ff" points="75,-782.95 71,-776.95 75,-770.95 79,-776.95 75,-782.95"/>
</a>
</g>
<text text-anchor="middle" x="118.12" y="-790" font-family="Helvetica,sans-Serif" font-size="10.00" fill="grey"> +background_voxel</text>
</g>
<!-- Node4 -->
<g id="Node000004" class="node">
<title>Node4</title>
<g id="a_Node000004"><a xlink:href="class_vector_value.html" target="_top" xlink:title="Class which represents a vector quantity. Used by the Tally classes to store simulation data.">
<polygon fill="white" stroke="none" points="118,-1217.75 32,-1217.75 32,-958.75 118,-958.75 118,-1217.75"/>
<text text-anchor="start" x="48.38" y="-1204.25" font-family="Helvetica,sans-Serif" font-size="10.00">VectorValue</text>
<text text-anchor="start" x="37.5" y="-1189.25" font-family="Helvetica,sans-Serif" font-size="10.00">&#45;</text>
<text text-anchor="start" x="46" y="-1189.25" font-family="Helvetica,sans-Serif" font-size="10.00">values_</text>
<text text-anchor="start" x="37.5" y="-1174.25" font-family="Helvetica,sans-Serif" font-size="10.00">&#45;</text>
<text text-anchor="start" x="46" y="-1174.25" font-family="Helvetica,sans-Serif" font-size="10.00">sum_</text>
<text text-anchor="start" x="37.5" y="-1159.25" font-family="Helvetica,sans-Serif" font-size="10.00">&#45;</text>
<text text-anchor="start" x="46" y="-1159.25" font-family="Helvetica,sans-Serif" font-size="10.00">summed_</text>
<text text-anchor="start" x="37.5" y="-1144.25" font-family="Helvetica,sans-Serif" font-size="10.00">&#45;</text>
<text text-anchor="start" x="46" y="-1144.25" font-family="Helvetica,sans-Serif" font-size="10.00">var_</text>
<text text-anchor="start" x="37.5" y="-1129.25" font-family="Helvetica,sans-Serif" font-size="10.00">&#45;</text>
<text text-anchor="start" x="46" y="-1129.25" font-family="Helvetica,sans-Serif" font-size="10.00">var_calculated_</text>
<text text-anchor="start" x="36" y="-1114.25" font-family="Helvetica,sans-Serif" font-size="10.00">+</text>
<text text-anchor="start" x="46" y="-1114.25" font-family="Helvetica,sans-Serif" font-size="10.00">operator+()</text>
<text text-anchor="start" x="36" y="-1099.25" font-family="Helvetica,sans-Serif" font-size="10.00">+</text>
<text text-anchor="start" x="46" y="-1099.25" font-family="Helvetica,sans-Serif" font-size="10.00">addValue()</text>
<text text-anchor="start" x="36" y="-1084.25" font-family="Helvetica,sans-Serif" font-size="10.00">+</text>
<text text-anchor="start" x="46" y="-1084.25" font-family="Helvetica,sans-Serif" font-size="10.00">addValues()</text>
<text text-anchor="start" x="36" y="-1069.25" font-family="Helvetica,sans-Serif" font-size="10.00">+</text>
<text text-anchor="start" x="46" y="-1069.25" font-family="Helvetica,sans-Serif" font-size="10.00">getVector()</text>
<text text-anchor="start" x="36" y="-1054.25" font-family="Helvetica,sans-Serif" font-size="10.00">+</text>
<text text-anchor="start" x="46" y="-1054.25" font-family="Helvetica,sans-Serif" font-size="10.00">getSum()</text>
<text text-anchor="start" x="36" y="-1039.25" font-family="Helvetica,sans-Serif" font-size="10.00">+</text>
<text text-anchor="start" x="46" y="-1039.25" font-family="Helvetica,sans-Serif" font-size="10.00">getSumSTD()</text>
<text text-anchor="start" x="36" y="-1024.25" font-family="Helvetica,sans-Serif" font-size="10.00">+</text>
<text text-anchor="start" x="46" y="-1024.25" font-family="Helvetica,sans-Serif" font-size="10.00">getMean()</text>
<text text-anchor="start" x="36" y="-1009.25" font-family="Helvetica,sans-Serif" font-size="10.00">+</text>
<text text-anchor="start" x="46" y="-1009.25" font-family="Helvetica,sans-Serif" font-size="10.00">getMeanSTD()</text>
<text text-anchor="start" x="36" y="-994.25" font-family="Helvetica,sans-Serif" font-size="10.00">+</text>
<text text-anchor="start" x="46" y="-994.25" font-family="Helvetica,sans-Serif" font-size="10.00">getCount()</text>
<text text-anchor="start" x="36" y="-979.25" font-family="Helvetica,sans-Serif" font-size="10.00">+</text>
<text text-anchor="start" x="46" y="-979.25" font-family="Helvetica,sans-Serif" font-size="10.00">getCountSTD()</text>
<text text-anchor="start" x="36" y="-964.25" font-family="Helvetica,sans-Serif" font-size="10.00">+</text>
<text text-anchor="start" x="46" y="-964.25" font-family="Helvetica,sans-Serif" font-size="10.00">getVariance()</text>
<polygon fill="#666666" stroke="#666666" points="32,-1200.75 32,-1200.75 118,-1200.75 118,-1200.75 32,-1200.75"/>
<polygon fill="#666666" stroke="#666666" points="32,-1125.75 32,-1125.75 44,-1125.75 44,-1125.75 32,-1125.75"/>
<polygon fill="#666666" stroke="#666666" points="44,-1125.75 44,-1125.75 118,-1125.75 118,-1125.75 44,-1125.75"/>
<polygon fill="none" stroke="#666666" points="32,-958.75 32,-1217.75 118,-1217.75 118,-958.75 32,-958.75"/>
</a>
</g>
</g>
<!-- Node4&#45;&gt;Node3 -->
<g id="edge3_Node000003_Node000004" class="edge">
<title>Node4&#45;&gt;Node3</title>
<g id="a_edge3_Node000003_Node000004"><a xlink:title=" ">
<path fill="none" stroke="#63b8ff" d="M75,-958.9C75,-937.8 75,-917.56 75,-901.36"/>
<polygon fill="none" stroke="#63b8ff" points="75,-901.66 71,-895.66 75,-889.66 79,-895.66 75,-901.66"/>
</a>
</g>
<text text-anchor="middle" x="89.62" y="-931.25" font-family="Helvetica,sans-Serif" font-size="10.00" fill="grey"> +dose</text>
</g>
<!-- Node5 -->
<g id="Node000005" class="node">
<title>Node5</title>
<g id="a_Node000005"><a xlink:href="class_probability_dist_1_1_uniform.html" target="_top" xlink:title="Class which represents a uniform distribution.">
<polygon fill="white" stroke="none" points="279.5,-657.75 168.5,-657.75 168.5,-548.75 279.5,-548.75 279.5,-657.75"/>
<text text-anchor="start" x="173.38" y="-644.25" font-family="Helvetica,sans-Serif" font-size="10.00">ProbabilityDist::Uniform</text>
<text text-anchor="start" x="185.5" y="-629.25" font-family="Helvetica,sans-Serif" font-size="10.00">&#45;</text>
<text text-anchor="start" x="205.5" y="-629.25" font-family="Helvetica,sans-Serif" font-size="10.00">dist_</text>
<text text-anchor="start" x="185.5" y="-614.25" font-family="Helvetica,sans-Serif" font-size="10.00">&#45;</text>
<text text-anchor="start" x="205.5" y="-614.25" font-family="Helvetica,sans-Serif" font-size="10.00">generator_</text>
<text text-anchor="start" x="184" y="-599.25" font-family="Helvetica,sans-Serif" font-size="10.00">+</text>
<text text-anchor="start" x="205.5" y="-599.25" font-family="Helvetica,sans-Serif" font-size="10.00">Uniform()</text>
<text text-anchor="start" x="184" y="-584.25" font-family="Helvetica,sans-Serif" font-size="10.00">+</text>
<text text-anchor="start" x="205.5" y="-584.25" font-family="Helvetica,sans-Serif" font-size="10.00">Uniform()</text>
<text text-anchor="start" x="184" y="-569.25" font-family="Helvetica,sans-Serif" font-size="10.00">+</text>
<text text-anchor="start" x="205.5" y="-569.25" font-family="Helvetica,sans-Serif" font-size="10.00">sample()</text>
<text text-anchor="start" x="184" y="-554.25" font-family="Helvetica,sans-Serif" font-size="10.00">+</text>
<text text-anchor="start" x="205.5" y="-554.25" font-family="Helvetica,sans-Serif" font-size="10.00">setRange()</text>
<polygon fill="#666666" stroke="#666666" points="168.5,-640.75 168.5,-640.75 279.5,-640.75 279.5,-640.75 168.5,-640.75"/>
<polygon fill="#666666" stroke="#666666" points="168.5,-610.75 168.5,-610.75 203.5,-610.75 203.5,-610.75 168.5,-610.75"/>
<polygon fill="#666666" stroke="#666666" points="203.5,-610.75 203.5,-610.75 279.5,-610.75 279.5,-610.75 203.5,-610.75"/>
<polygon fill="none" stroke="#666666" points="168.5,-548.75 168.5,-657.75 279.5,-657.75 279.5,-548.75 168.5,-548.75"/>
</a>
</g>
</g>
<!-- Node5&#45;&gt;Node1 -->
<g id="edge4_Node000001_Node000005" class="edge">
<title>Node5&#45;&gt;Node1</title>
<g id="a_edge4_Node000001_Node000005"><a xlink:title=" ">
<path fill="none" stroke="#63b8ff" d="M224,-549.07C224,-510.72 224,-456.25 224,-401.53"/>
<polygon fill="none" stroke="#63b8ff" points="224,-401.65 220,-395.65 224,-389.65 228,-395.65 224,-401.65"/>
</a>
</g>
<text text-anchor="middle" x="255.88" y="-408.75" font-family="Helvetica,sans-Serif" font-size="10.00" fill="grey"> &#45;uniform_dist_</text>
</g>
<!-- Node6 -->
<g id="Node000006" class="node">
<title>Node6</title>
<g id="a_Node000006"><a xlink:href="class_interaction_data.html" target="_top" xlink:title="Class which provides access to various simulation significant data.">
<polygon fill="white" stroke="none" points="442.5,-745.25 297.5,-745.25 297.5,-461.25 442.5,-461.25 442.5,-745.25"/>
<text text-anchor="start" x="337" y="-731.75" font-family="Helvetica,sans-Serif" font-size="10.00">InteractionData</text>
<text text-anchor="start" x="303" y="-716.75" font-family="Helvetica,sans-Serif" font-size="10.00">&#45;</text>
<text text-anchor="start" x="311.5" y="-716.75" font-family="Helvetica,sans-Serif" font-size="10.00">material_names_</text>
<text text-anchor="start" x="303" y="-701.75" font-family="Helvetica,sans-Serif" font-size="10.00">&#45;</text>
<text text-anchor="start" x="311.5" y="-701.75" font-family="Helvetica,sans-Serif" font-size="10.00">material_map_</text>
<text text-anchor="start" x="303" y="-686.75" font-family="Helvetica,sans-Serif" font-size="10.00">&#45;</text>
<text text-anchor="start" x="311.5" y="-686.75" font-family="Helvetica,sans-Serif" font-size="10.00">max_total_cs_matrix_</text>
<text text-anchor="start" x="301.5" y="-671.75" font-family="Helvetica,sans-Serif" font-size="10.00">+</text>
<text text-anchor="start" x="311.5" y="-671.75" font-family="Helvetica,sans-Serif" font-size="10.00">InteractionData()</text>
<text text-anchor="start" x="301.5" y="-656.75" font-family="Helvetica,sans-Serif" font-size="10.00">+</text>
<text text-anchor="start" x="311.5" y="-656.75" font-family="Helvetica,sans-Serif" font-size="10.00">getMaterialFromId()</text>
<text text-anchor="start" x="301.5" y="-641.75" font-family="Helvetica,sans-Serif" font-size="10.00">+</text>
<text text-anchor="start" x="311.5" y="-641.75" font-family="Helvetica,sans-Serif" font-size="10.00">getMaxTotalCrossSections</text>
<text text-anchor="start" x="311.5" y="-630.5" font-family="Helvetica,sans-Serif" font-size="10.00">Matrix()</text>
<text text-anchor="start" x="301.5" y="-615.75" font-family="Helvetica,sans-Serif" font-size="10.00">+</text>
<text text-anchor="start" x="311.5" y="-615.75" font-family="Helvetica,sans-Serif" font-size="10.00">interpolateMaxTotalCross</text>
<text text-anchor="start" x="311.5" y="-604.5" font-family="Helvetica,sans-Serif" font-size="10.00">Section()</text>
<text text-anchor="start" x="301.5" y="-589.75" font-family="Helvetica,sans-Serif" font-size="10.00">+</text>
<text text-anchor="start" x="311.5" y="-589.75" font-family="Helvetica,sans-Serif" font-size="10.00">getAnyMaterialNameFromId()</text>
<text text-anchor="start" x="301.5" y="-574.75" font-family="Helvetica,sans-Serif" font-size="10.00">+</text>
<text text-anchor="start" x="311.5" y="-574.75" font-family="Helvetica,sans-Serif" font-size="10.00">getAnyMaterialIdFromName()</text>
<text text-anchor="start" x="303" y="-559.75" font-family="Helvetica,sans-Serif" font-size="10.00">&#45;</text>
<text text-anchor="start" x="311.5" y="-559.75" font-family="Helvetica,sans-Serif" font-size="10.00">initializeData()</text>
<text text-anchor="start" x="303" y="-544.75" font-family="Helvetica,sans-Serif" font-size="10.00">&#45;</text>
<text text-anchor="start" x="311.5" y="-544.75" font-family="Helvetica,sans-Serif" font-size="10.00">setMaterialMap()</text>
<text text-anchor="start" x="303" y="-529.75" font-family="Helvetica,sans-Serif" font-size="10.00">&#45;</text>
<text text-anchor="start" x="311.5" y="-529.75" font-family="Helvetica,sans-Serif" font-size="10.00">setMaxTotalCrossSections</text>
<text text-anchor="start" x="311.5" y="-518.5" font-family="Helvetica,sans-Serif" font-size="10.00">AndInterpolator()</text>
<text text-anchor="start" x="303" y="-503.75" font-family="Helvetica,sans-Serif" font-size="10.00">&#45;</text>
<text text-anchor="start" x="311.5" y="-503.75" font-family="Helvetica,sans-Serif" font-size="10.00">getTotalMaxCrossSections</text>
<text text-anchor="start" x="311.5" y="-492.5" font-family="Helvetica,sans-Serif" font-size="10.00">MatrixFromInteractionData()</text>
<text text-anchor="start" x="303" y="-477.75" font-family="Helvetica,sans-Serif" font-size="10.00">&#45;</text>
<text text-anchor="start" x="311.5" y="-477.75" font-family="Helvetica,sans-Serif" font-size="10.00">fillTotalMaxCrossSections</text>
<text text-anchor="start" x="311.5" y="-466.5" font-family="Helvetica,sans-Serif" font-size="10.00">Matrix()</text>
<polygon fill="#666666" stroke="#666666" points="297.5,-728.25 297.5,-728.25 442.5,-728.25 442.5,-728.25 297.5,-728.25"/>
<polygon fill="#666666" stroke="#666666" points="297.5,-683.25 297.5,-683.25 309.5,-683.25 309.5,-683.25 297.5,-683.25"/>
<polygon fill="#666666" stroke="#666666" points="309.5,-683.25 309.5,-683.25 442.5,-683.25 442.5,-683.25 309.5,-683.25"/>
<polygon fill="none" stroke="#666666" points="297.5,-461.25 297.5,-745.25 442.5,-745.25 442.5,-461.25 297.5,-461.25"/>
</a>
</g>
</g>
<!-- Node6&#45;&gt;Node1 -->
<g id="edge5_Node000001_Node000006" class="edge">
<title>Node6&#45;&gt;Node1</title>
<g id="a_edge5_Node000001_Node000006"><a xlink:title=" ">
<path fill="none" stroke="#63b8ff" d="M319.45,-461.42C312.42,-441.84 305.09,-421.42 297.75,-400.96"/>
<polygon fill="none" stroke="#63b8ff" points="297.78,-401.06 291.99,-396.77 293.73,-389.77 299.52,-394.06 297.78,-401.06"/>
</a>
</g>
<text text-anchor="middle" x="341.75" y="-408.75" font-family="Helvetica,sans-Serif" font-size="10.00" fill="grey"> &#45;interaction_data_</text>
</g>
<!-- Node7 -->
<g id="Node000007" class="node">
<title>Node7</title>
<g id="a_Node000007"><a xlink:href="class_data_access_object.html" target="_top" xlink:title="Class which provides an interface to a SQLite database.">
<polygon fill="white" stroke="none" points="368.5,-911.5 257.5,-911.5 257.5,-817.5 368.5,-817.5 368.5,-911.5"/>
<text text-anchor="start" x="272.12" y="-898" font-family="Helvetica,sans-Serif" font-size="10.00">DataAccessObject</text>
<text text-anchor="start" x="311.5" y="-883" font-family="Helvetica,sans-Serif" font-size="10.00"> </text>
<text text-anchor="start" x="261.5" y="-868" font-family="Helvetica,sans-Serif" font-size="10.00">+</text>
<text text-anchor="start" x="271.5" y="-868" font-family="Helvetica,sans-Serif" font-size="10.00">DataAccessObject()</text>
<text text-anchor="start" x="261.5" y="-853" font-family="Helvetica,sans-Serif" font-size="10.00">+</text>
<text text-anchor="start" x="271.5" y="-853" font-family="Helvetica,sans-Serif" font-size="10.00">~DataAccessObject()</text>
<text text-anchor="start" x="261.5" y="-838" font-family="Helvetica,sans-Serif" font-size="10.00">+</text>
<text text-anchor="start" x="271.5" y="-838" font-family="Helvetica,sans-Serif" font-size="10.00">executeQuery()</text>
<text text-anchor="start" x="263" y="-823" font-family="Helvetica,sans-Serif" font-size="10.00">&#45;</text>
<text text-anchor="start" x="271.5" y="-823" font-family="Helvetica,sans-Serif" font-size="10.00">callback()</text>
<polygon fill="#666666" stroke="#666666" points="257.5,-894.5 257.5,-894.5 368.5,-894.5 368.5,-894.5 257.5,-894.5"/>
<polygon fill="#666666" stroke="#666666" points="257.5,-879.5 257.5,-879.5 368.5,-879.5 368.5,-879.5 257.5,-879.5"/>
<polygon fill="none" stroke="#666666" points="257.5,-817.5 257.5,-911.5 368.5,-911.5 368.5,-817.5 257.5,-817.5"/>
</a>
</g>
</g>
<!-- Node7&#45;&gt;Node6 -->
<g id="edge6_Node000006_Node000007" class="edge">
<title>Node7&#45;&gt;Node6</title>
<g id="a_edge6_Node000006_Node000007"><a xlink:title=" ">
<path fill="none" stroke="#63b8ff" d="M323.06,-817.75C326.88,-800.35 331.49,-779.42 336.29,-757.56"/>
<polygon fill="none" stroke="#63b8ff" points="336.29,-757.58 333.67,-750.86 338.87,-745.85 341.48,-752.57 336.29,-757.58"/>
</a>
</g>
<text text-anchor="middle" x="342.12" y="-790" font-family="Helvetica,sans-Serif" font-size="10.00" fill="grey"> &#45;dao_</text>
</g>
<!-- Node8 -->
<g id="Node000008" class="node">
<title>Node8</title>
<g id="a_Node000008"><a xlink:title=" ">
<polygon fill="white" stroke="none" points="332,-1112.75 294,-1112.75 294,-1063.75 332,-1063.75 332,-1112.75"/>
<text text-anchor="start" x="298.75" y="-1099.25" font-family="Helvetica,sans-Serif" font-size="10.00">sqlite3</text>
<text text-anchor="start" x="311.5" y="-1084.25" font-family="Helvetica,sans-Serif" font-size="10.00"> </text>
<text text-anchor="start" x="311.5" y="-1069.25" font-family="Helvetica,sans-Serif" font-size="10.00"> </text>
<polygon fill="#bfbfbf" stroke="#bfbfbf" points="294,-1095.75 294,-1095.75 332,-1095.75 332,-1095.75 294,-1095.75"/>
<polygon fill="#bfbfbf" stroke="#bfbfbf" points="294,-1080.75 294,-1080.75 332,-1080.75 332,-1080.75 294,-1080.75"/>
<polygon fill="none" stroke="#bfbfbf" points="294,-1063.75 294,-1112.75 332,-1112.75 332,-1063.75 294,-1063.75"/>
</a>
</g>
</g>
<!-- Node8&#45;&gt;Node7 -->
<g id="edge7_Node000007_Node000008" class="edge">
<title>Node8&#45;&gt;Node7</title>
<g id="a_edge7_Node000007_Node000008"><a xlink:title=" ">
<path fill="none" stroke="#63b8ff" d="M313,-1063.94C313,-1030.97 313,-969.66 313,-923.88"/>
<polygon fill="none" stroke="#63b8ff" points="313,-924.02 309,-918.02 313,-912.02 317,-918.02 313,-924.02"/>
</a>
</g>
<text text-anchor="middle" x="320.88" y="-931.25" font-family="Helvetica,sans-Serif" font-size="10.00" fill="grey"> &#45;db</text>
</g>
<!-- Node9 -->
<g id="Node000009" class="node">
<title>Node9</title>
<g id="a_Node000009"><a xlink:href="class_interpolator_1_1_log_log_linear.html" target="_top" xlink:title="Class which performs linear interpolation on a log&#45;log scale.">
<polygon fill="white" stroke="none" points="509.5,-904 386.5,-904 386.5,-825 509.5,-825 509.5,-904"/>
<text text-anchor="start" x="391.38" y="-890.5" font-family="Helvetica,sans-Serif" font-size="10.00">Interpolator::LogLogLinear</text>
<text text-anchor="start" x="446.5" y="-875.5" font-family="Helvetica,sans-Serif" font-size="10.00"> </text>
<text text-anchor="start" x="400" y="-860.5" font-family="Helvetica,sans-Serif" font-size="10.00">+</text>
<text text-anchor="start" x="419.5" y="-860.5" font-family="Helvetica,sans-Serif" font-size="10.00">LogLogLinear()</text>
<text text-anchor="start" x="400" y="-845.5" font-family="Helvetica,sans-Serif" font-size="10.00">+</text>
<text text-anchor="start" x="419.5" y="-845.5" font-family="Helvetica,sans-Serif" font-size="10.00">LogLogLinear()</text>
<text text-anchor="start" x="400" y="-830.5" font-family="Helvetica,sans-Serif" font-size="10.00">+</text>
<text text-anchor="start" x="419.5" y="-830.5" font-family="Helvetica,sans-Serif" font-size="10.00">operator()()</text>
<polygon fill="#666666" stroke="#666666" points="386.5,-887 386.5,-887 509.5,-887 509.5,-887 386.5,-887"/>
<polygon fill="#666666" stroke="#666666" points="386.5,-872 386.5,-872 509.5,-872 509.5,-872 386.5,-872"/>
<polygon fill="none" stroke="#666666" points="386.5,-825 386.5,-904 509.5,-904 509.5,-825 386.5,-825"/>
</a>
</g>
</g>
<!-- Node9&#45;&gt;Node6 -->
<g id="edge8_Node000006_Node000009" class="edge">
<title>Node9&#45;&gt;Node6</title>
<g id="a_edge8_Node000006_Node000009"><a xlink:title=" ">
<path fill="none" stroke="#63b8ff" d="M436.49,-825.25C430.86,-806.55 423.68,-782.68 416.14,-757.59"/>
<polygon fill="none" stroke="#63b8ff" points="416.12,-757.55 410.56,-752.95 412.66,-746.06 418.22,-750.65 416.12,-757.55"/>
</a>
</g>
<text text-anchor="middle" x="487.75" y="-790" font-family="Helvetica,sans-Serif" font-size="10.00" fill="grey"> &#45;max_total_cs_interpolator_</text>
</g>
<!-- Node10 -->
<g id="Node000010" class="node">
<title>Node10</title>
<g id="a_Node000010"><a xlink:href="class_interpolator_1_1_linear.html" target="_top" xlink:title="Class which performs linear interpolation.">
<polygon fill="white" stroke="none" points="523,-1165.25 373,-1165.25 373,-1011.25 523,-1011.25 523,-1165.25"/>
<text text-anchor="start" x="407.88" y="-1151.75" font-family="Helvetica,sans-Serif" font-size="10.00">Interpolator::Linear</text>
<text text-anchor="start" x="378.5" y="-1136.75" font-family="Helvetica,sans-Serif" font-size="10.00">&#45;</text>
<text text-anchor="start" x="387" y="-1136.75" font-family="Helvetica,sans-Serif" font-size="10.00">x_vec_</text>
<text text-anchor="start" x="378.5" y="-1121.75" font-family="Helvetica,sans-Serif" font-size="10.00">&#45;</text>
<text text-anchor="start" x="387" y="-1121.75" font-family="Helvetica,sans-Serif" font-size="10.00">y_vec_</text>
<text text-anchor="start" x="377" y="-1106.75" font-family="Helvetica,sans-Serif" font-size="10.00">+</text>
<text text-anchor="start" x="387" y="-1106.75" font-family="Helvetica,sans-Serif" font-size="10.00">Linear()</text>
<text text-anchor="start" x="377" y="-1091.75" font-family="Helvetica,sans-Serif" font-size="10.00">+</text>
<text text-anchor="start" x="387" y="-1091.75" font-family="Helvetica,sans-Serif" font-size="10.00">Linear()</text>
<text text-anchor="start" x="377" y="-1076.75" font-family="Helvetica,sans-Serif" font-size="10.00">+</text>
<text text-anchor="start" x="387" y="-1076.75" font-family="Helvetica,sans-Serif" font-size="10.00">operator()()</text>
<text text-anchor="start" x="378.5" y="-1061.75" font-family="Helvetica,sans-Serif" font-size="10.00">&#45;</text>
<text text-anchor="start" x="387" y="-1061.75" font-family="Helvetica,sans-Serif" font-size="10.00">isXSmallerThanMin()</text>
<text text-anchor="start" x="378.5" y="-1046.75" font-family="Helvetica,sans-Serif" font-size="10.00">&#45;</text>
<text text-anchor="start" x="387" y="-1046.75" font-family="Helvetica,sans-Serif" font-size="10.00">isXBiggerThanMax()</text>
<text text-anchor="start" x="378.5" y="-1031.75" font-family="Helvetica,sans-Serif" font-size="10.00">&#45;</text>
<text text-anchor="start" x="387" y="-1031.75" font-family="Helvetica,sans-Serif" font-size="10.00">findIndexOfNextLargestValue()</text>
<text text-anchor="start" x="378.5" y="-1016.75" font-family="Helvetica,sans-Serif" font-size="10.00">&#45;</text>
<text text-anchor="start" x="387" y="-1016.75" font-family="Helvetica,sans-Serif" font-size="10.00">calculateInterpolatedY()</text>
<polygon fill="#666666" stroke="#666666" points="373,-1148.25 373,-1148.25 523,-1148.25 523,-1148.25 373,-1148.25"/>
<polygon fill="#666666" stroke="#666666" points="373,-1118.25 373,-1118.25 385,-1118.25 385,-1118.25 373,-1118.25"/>
<polygon fill="#666666" stroke="#666666" points="385,-1118.25 385,-1118.25 523,-1118.25 523,-1118.25 385,-1118.25"/>
<polygon fill="none" stroke="#666666" points="373,-1011.25 373,-1165.25 523,-1165.25 523,-1011.25 373,-1011.25"/>
</a>
</g>
</g>
<!-- Node10&#45;&gt;Node9 -->
<g id="edge9_Node000009_Node000010" class="edge">
<title>Node10&#45;&gt;Node9</title>
<g id="a_edge9_Node000009_Node000010"><a xlink:title=" ">
<path fill="none" stroke="#63b8ff" d="M448,-1000.35C448,-966.92 448,-930.43 448,-903.85"/>
<polygon fill="none" stroke="#63b8ff" points="444.5,-1000.04 448,-1010.04 451.5,-1000.04 444.5,-1000.04"/>
</a>
</g>
</g>
<!-- Node11 -->
<g id="Node000011" class="node">
<title>Node11</title>
<g id="a_Node000011"><a xlink:href="class_interpolator_1_1_interpolator.html" target="_top" xlink:title="Abstract base class for interpolators.">
<polygon fill="white" stroke="none" points="504,-1318.75 392,-1318.75 392,-1254.75 504,-1254.75 504,-1318.75"/>
<text text-anchor="start" x="397" y="-1305.25" font-family="Helvetica,sans-Serif" font-size="10.00">Interpolator::Interpolator</text>
<text text-anchor="start" x="446.5" y="-1290.25" font-family="Helvetica,sans-Serif" font-size="10.00"> </text>
<text text-anchor="start" x="404.5" y="-1275.25" font-family="Helvetica,sans-Serif" font-size="10.00">+</text>
<text text-anchor="start" x="423" y="-1275.25" font-family="Helvetica,sans-Serif" font-size="10.00">~Interpolator()</text>
<text text-anchor="start" x="404.5" y="-1260.25" font-family="Helvetica,sans-Serif" font-size="10.00">+</text>
<text text-anchor="start" x="423" y="-1260.25" font-family="Helvetica,sans-Serif" font-size="10.00">operator()()</text>
<polygon fill="#666666" stroke="#666666" points="392,-1301.75 392,-1301.75 504,-1301.75 504,-1301.75 392,-1301.75"/>
<polygon fill="#666666" stroke="#666666" points="392,-1286.75 392,-1286.75 504,-1286.75 504,-1286.75 392,-1286.75"/>
<polygon fill="none" stroke="#666666" points="392,-1254.75 392,-1318.75 504,-1318.75 504,-1254.75 392,-1254.75"/>
</a>
</g>
</g>
<!-- Node11&#45;&gt;Node10 -->
<g id="edge10_Node000010_Node000011" class="edge">
<title>Node11&#45;&gt;Node10</title>
<g id="a_edge10_Node000010_Node000011"><a xlink:title=" ">
<path fill="none" stroke="#63b8ff" d="M448,-1243.68C448,-1220.79 448,-1191.77 448,-1165.08"/>
<polygon fill="none" stroke="#63b8ff" points="444.5,-1243.53 448,-1253.53 451.5,-1243.53 444.5,-1243.53"/>
</a>
</g>
</g>
</g>
</svg>
