<?xml version="1.0" encoding="UTF-8" standalone="no"?>
<!DOCTYPE svg PUBLIC "-//W3C//DTD SVG 1.1//EN"
 "http://www.w3.org/Graphics/SVG/1.1/DTD/svg11.dtd">
<!-- Generated by graphviz version 9.0.0 (20230911.1827)
 -->
<!-- Title: DataAccessObject Pages: 1 -->
<svg width="119pt" height="198pt"
 viewBox="0.00 0.00 119.00 198.25" xmlns="http://www.w3.org/2000/svg" xmlns:xlink="http://www.w3.org/1999/xlink">
<g id="graph0" class="graph" transform="scale(1 1) rotate(0) translate(4 194.25)">
<title>DataAccessObject</title>
<!-- Node1 -->
<g id="Node000001" class="node">
<title>Node1</title>
<g id="a_Node000001"><a xlink:title="Class which provides an interface to a SQLite database.">
<polygon fill="#999999" stroke="none" points="111,-94 0,-94 0,0 111,0 111,-94"/>
<text text-anchor="start" x="14.62" y="-80.5" font-family="Helvetica,sans-Serif" font-size="10.00">DataAccessObject</text>
<text text-anchor="start" x="54" y="-65.5" font-family="Helvetica,sans-Serif" font-size="10.00"> </text>
<text text-anchor="start" x="4" y="-50.5" font-family="Helvetica,sans-Serif" font-size="10.00">+</text>
<text text-anchor="start" x="14" y="-50.5" font-family="Helvetica,sans-Serif" font-size="10.00">DataAccessObject()</text>
<text text-anchor="start" x="4" y="-35.5" font-family="Helvetica,sans-Serif" font-size="10.00">+</text>
<text text-anchor="start" x="14" y="-35.5" font-family="Helvetica,sans-Serif" font-size="10.00">~DataAccessObject()</text>
<text text-anchor="start" x="4" y="-20.5" font-family="Helvetica,sans-Serif" font-size="10.00">+</text>
<text text-anchor="start" x="14" y="-20.5" font-family="Helvetica,sans-Serif" font-size="10.00">executeQuery()</text>
<text text-anchor="start" x="5.5" y="-5.5" font-family="Helvetica,sans-Serif" font-size="10.00">&#45;</text>
<text text-anchor="start" x="14" y="-5.5" font-family="Helvetica,sans-Serif" font-size="10.00">callback()</text>
<polygon fill="#666666" stroke="#666666" points="0,-77 0,-77 111,-77 111,-77 0,-77"/>
<polygon fill="#666666" stroke="#666666" points="0,-62 0,-62 111,-62 111,-62 0,-62"/>
<polygon fill="none" stroke="#666666" points="0,0 0,-94 111,-94 111,0 0,0"/>
</a>
</g>
</g>
<!-- Node2 -->
<g id="Node000002" class="node">
<title>Node2</title>
<g id="a_Node000002"><a xlink:title=" ">
<polygon fill="white" stroke="none" points="74.5,-190.25 36.5,-190.25 36.5,-141.25 74.5,-141.25 74.5,-190.25"/>
<text text-anchor="start" x="41.25" y="-176.75" font-family="Helvetica,sans-Serif" font-size="10.00">sqlite3</text>
<text text-anchor="start" x="54" y="-161.75" font-family="Helvetica,sans-Serif" font-size="10.00"> </text>
<text text-anchor="start" x="54" y="-146.75" font-family="Helvetica,sans-Serif" font-size="10.00"> </text>
<polygon fill="#bfbfbf" stroke="#bfbfbf" points="36.5,-173.25 36.5,-173.25 74.5,-173.25 74.5,-173.25 36.5,-173.25"/>
<polygon fill="#bfbfbf" stroke="#bfbfbf" points="36.5,-158.25 36.5,-158.25 74.5,-158.25 74.5,-158.25 36.5,-158.25"/>
<polygon fill="none" stroke="#bfbfbf" points="36.5,-141.25 36.5,-190.25 74.5,-190.25 74.5,-141.25 36.5,-141.25"/>
</a>
</g>
</g>
<!-- Node2&#45;&gt;Node1 -->
<g id="edge1_Node000001_Node000002" class="edge">
<title>Node2&#45;&gt;Node1</title>
<g id="a_edge1_Node000001_Node000002"><a xlink:title=" ">
<path fill="none" stroke="#63b8ff" d="M55.5,-141.4C55.5,-131.33 55.5,-119.04 55.5,-106.74"/>
<polygon fill="none" stroke="#63b8ff" points="55.5,-106.9 51.5,-100.9 55.5,-94.9 59.5,-100.9 55.5,-106.9"/>
</a>
</g>
<text text-anchor="middle" x="63.38" y="-113.75" font-family="Helvetica,sans-Serif" font-size="10.00" fill="grey"> &#45;db</text>
</g>
</g>
</svg>
