<?xml version="1.0" encoding="UTF-8" standalone="no"?>
<!DOCTYPE svg PUBLIC "-//W3C//DTD SVG 1.1//EN"
 "http://www.w3.org/Graphics/SVG/1.1/DTD/svg11.dtd">
<!-- Generated by graphviz version 9.0.0 (20230911.1827)
 -->
<!-- Title: MonoenergeticSpectrum Pages: 1 -->
<svg width="137pt" height="172pt"
 viewBox="0.00 0.00 137.00 172.00" xmlns="http://www.w3.org/2000/svg" xmlns:xlink="http://www.w3.org/1999/xlink">

<svg id="main" version="1.1" xmlns="http://www.w3.org/2000/svg" xmlns:xlink="http://www.w3.org/1999/xlink" xml:space="preserve" onload="init(evt)">
<style type="text/css"><![CDATA[
.node, .edge {opacity: 0.7;}
.node.selected, .edge.selected {opacity: 1;}
.edge:hover path { stroke: red; }
.edge:hover polygon { stroke: red; fill: red; }
]]></style>
<script type="application/ecmascript" xlink:href="svg.min.js"/>
<svg id="graph" class="graph">
<g id="graph0" class="graph" transform="scale(1 1) rotate(0) translate(4 168)">
<title>MonoenergeticSpectrum</title>
<!-- Node1 -->
<g id="Node000001" class="node">
<title>Node1</title>
<g id="a_Node000001"><a xlink:title="Class which represents a monoenergetic energy spectrum.">
<polygon fill="#999999" stroke="none" points="129,-64 0,-64 0,0 129,0 129,-64"/>
<text text-anchor="start" x="11.62" y="-50.5" font-family="Helvetica,sans-Serif" font-size="10.00">MonoenergeticSpectrum</text>
<text text-anchor="start" x="5.5" y="-35.5" font-family="Helvetica,sans-Serif" font-size="10.00">&#45;</text>
<text text-anchor="start" x="14" y="-35.5" font-family="Helvetica,sans-Serif" font-size="10.00">energy_</text>
<text text-anchor="start" x="4" y="-20.5" font-family="Helvetica,sans-Serif" font-size="10.00">+</text>
<text text-anchor="start" x="14" y="-20.5" font-family="Helvetica,sans-Serif" font-size="10.00">MonoenergeticSpectrum()</text>
<text text-anchor="start" x="4" y="-5.5" font-family="Helvetica,sans-Serif" font-size="10.00">+</text>
<text text-anchor="start" x="14" y="-5.5" font-family="Helvetica,sans-Serif" font-size="10.00">sampleEnergy()</text>
<polygon fill="#666666" stroke="#666666" points="0,-47 0,-47 129,-47 129,-47 0,-47"/>
<polygon fill="#666666" stroke="#666666" points="0,-32 0,-32 12,-32 12,-32 0,-32"/>
<polygon fill="#666666" stroke="#666666" points="12,-32 12,-32 129,-32 129,-32 12,-32"/>
<polygon fill="none" stroke="#666666" points="0,0 0,-64 129,-64 129,0 0,0"/>
</a>
</g>
</g>
<!-- Node2 -->
<g id="Node000002" class="node">
<title>Node2</title>
<g id="a_Node000002"><a xlink:href="class_energy_spectrum.html" target="_top" xlink:title="Virtual class which represents an energy spectrum for a photon source.">
<polygon fill="white" stroke="none" points="114.5,-164 14.5,-164 14.5,-100 114.5,-100 114.5,-164"/>
<text text-anchor="start" x="28.88" y="-150.5" font-family="Helvetica,sans-Serif" font-size="10.00">EnergySpectrum</text>
<text text-anchor="start" x="63" y="-135.5" font-family="Helvetica,sans-Serif" font-size="10.00"> </text>
<text text-anchor="start" x="18.5" y="-120.5" font-family="Helvetica,sans-Serif" font-size="10.00">+</text>
<text text-anchor="start" x="28.5" y="-120.5" font-family="Helvetica,sans-Serif" font-size="10.00">sampleEnergy()</text>
<text text-anchor="start" x="18.5" y="-105.5" font-family="Helvetica,sans-Serif" font-size="10.00">+</text>
<text text-anchor="start" x="28.5" y="-105.5" font-family="Helvetica,sans-Serif" font-size="10.00">~EnergySpectrum()</text>
<polygon fill="#666666" stroke="#666666" points="14.5,-147 14.5,-147 114.5,-147 114.5,-147 14.5,-147"/>
<polygon fill="#666666" stroke="#666666" points="14.5,-132 14.5,-132 114.5,-132 114.5,-132 14.5,-132"/>
<polygon fill="none" stroke="#666666" points="14.5,-100 14.5,-164 114.5,-164 114.5,-100 14.5,-100"/>
</a>
</g>
</g>
<!-- Node2&#45;&gt;Node1 -->
<g id="edge1_Node000001_Node000002" class="edge">
<title>Node2&#45;&gt;Node1</title>
<g id="a_edge1_Node000001_Node000002"><a xlink:title=" ">
<path fill="none" stroke="#63b8ff" d="M64.5,-88.77C64.5,-80.44 64.5,-71.84 64.5,-63.97"/>
<polygon fill="none" stroke="#63b8ff" points="61,-88.75 64.5,-98.75 68,-88.75 61,-88.75"/>
</a>
</g>
</g>
</g>
</svg>
</svg>

<style type='text/css'>
<![CDATA[
[data-mouse-over-selected='false'] { opacity: 0.7; }
[data-mouse-over-selected='true']  { opacity: 1.0; }
]]>
</style>
<script type="application/ecmascript"><![CDATA[
document.addEventListener('DOMContentLoaded', (event) => {
  highlightEdges();
  highlightAdjacentNodes();
});
]]></script>
</svg>
