<?xml version="1.0" encoding="UTF-8" standalone="no"?>
<!DOCTYPE svg PUBLIC "-//W3C//DTD SVG 1.1//EN"
 "http://www.w3.org/Graphics/SVG/1.1/DTD/svg11.dtd">
<!-- Generated by graphviz version 9.0.0 (20230911.1827)
 -->
<!-- Title: IncoherentScattering Pages: 1 -->
<svg width="173pt" height="460pt"
 viewBox="0.00 0.00 173.00 460.25" xmlns="http://www.w3.org/2000/svg" xmlns:xlink="http://www.w3.org/1999/xlink">
<g id="graph0" class="graph" transform="scale(1 1) rotate(0) translate(4 456.25)">
<title>IncoherentScattering</title>
<!-- Node1 -->
<g id="Node000001" class="node">
<title>Node1</title>
<g id="a_Node000001"><a xlink:title="Class which represents the incoherent scattering interaction.">
<polygon fill="#999999" stroke="none" points="165,-195 0,-195 0,0 165,0 165,-195"/>
<text text-anchor="start" x="37.5" y="-181.5" font-family="Helvetica,sans-Serif" font-size="10.00">IncoherentScattering</text>
<text text-anchor="start" x="81" y="-166.5" font-family="Helvetica,sans-Serif" font-size="10.00"> </text>
<text text-anchor="start" x="4" y="-151.5" font-family="Helvetica,sans-Serif" font-size="10.00">+</text>
<text text-anchor="start" x="14" y="-151.5" font-family="Helvetica,sans-Serif" font-size="10.00">interact()</text>
<text text-anchor="start" x="5.5" y="-136.5" font-family="Helvetica,sans-Serif" font-size="10.00">&#45;</text>
<text text-anchor="start" x="14" y="-136.5" font-family="Helvetica,sans-Serif" font-size="10.00">isAcceptedByScatteringFunction()</text>
<text text-anchor="start" x="5.5" y="-121.5" font-family="Helvetica,sans-Serif" font-size="10.00">&#45;</text>
<text text-anchor="start" x="14" y="-121.5" font-family="Helvetica,sans-Serif" font-size="10.00">changeTrajectoryAndReturn</text>
<text text-anchor="start" x="14" y="-110.25" font-family="Helvetica,sans-Serif" font-size="10.00">EnergyForCoherentScattering()</text>
<text text-anchor="start" x="5.5" y="-95.5" font-family="Helvetica,sans-Serif" font-size="10.00">&#45;</text>
<text text-anchor="start" x="14" y="-95.5" font-family="Helvetica,sans-Serif" font-size="10.00">isR1Accepted()</text>
<text text-anchor="start" x="5.5" y="-80.5" font-family="Helvetica,sans-Serif" font-size="10.00">&#45;</text>
<text text-anchor="start" x="14" y="-80.5" font-family="Helvetica,sans-Serif" font-size="10.00">getChiIfR1Accepted()</text>
<text text-anchor="start" x="5.5" y="-65.5" font-family="Helvetica,sans-Serif" font-size="10.00">&#45;</text>
<text text-anchor="start" x="14" y="-65.5" font-family="Helvetica,sans-Serif" font-size="10.00">isR3AcceptedIfR1Accepted()</text>
<text text-anchor="start" x="5.5" y="-50.5" font-family="Helvetica,sans-Serif" font-size="10.00">&#45;</text>
<text text-anchor="start" x="14" y="-50.5" font-family="Helvetica,sans-Serif" font-size="10.00">getKPrime()</text>
<text text-anchor="start" x="5.5" y="-35.5" font-family="Helvetica,sans-Serif" font-size="10.00">&#45;</text>
<text text-anchor="start" x="14" y="-35.5" font-family="Helvetica,sans-Serif" font-size="10.00">getMu()</text>
<text text-anchor="start" x="5.5" y="-20.5" font-family="Helvetica,sans-Serif" font-size="10.00">&#45;</text>
<text text-anchor="start" x="14" y="-20.5" font-family="Helvetica,sans-Serif" font-size="10.00">getChiIfR1Rejected()</text>
<text text-anchor="start" x="5.5" y="-5.5" font-family="Helvetica,sans-Serif" font-size="10.00">&#45;</text>
<text text-anchor="start" x="14" y="-5.5" font-family="Helvetica,sans-Serif" font-size="10.00">isR3AcceptedIfR1Rejected()</text>
<polygon fill="#666666" stroke="#666666" points="0,-178 0,-178 165,-178 165,-178 0,-178"/>
<polygon fill="#666666" stroke="#666666" points="0,-163 0,-163 165,-163 165,-163 0,-163"/>
<polygon fill="none" stroke="#666666" points="0,0 0,-195 165,-195 165,0 0,0"/>
</a>
</g>
</g>
<!-- Node2 -->
<g id="Node000002" class="node">
<title>Node2</title>
<g id="a_Node000002"><a xlink:href="class_particle_interaction_behavior.html" target="_top" xlink:title="Virtual class which represents the behavior of a particle when it interacts with a material.">
<polygon fill="white" stroke="none" points="155.5,-296 9.5,-296 9.5,-232 155.5,-232 155.5,-296"/>
<text text-anchor="start" x="24" y="-282.5" font-family="Helvetica,sans-Serif" font-size="10.00">ParticleInteractionBehavior</text>
<text text-anchor="start" x="81" y="-267.5" font-family="Helvetica,sans-Serif" font-size="10.00"> </text>
<text text-anchor="start" x="13.5" y="-252.5" font-family="Helvetica,sans-Serif" font-size="10.00">+</text>
<text text-anchor="start" x="23.5" y="-252.5" font-family="Helvetica,sans-Serif" font-size="10.00">~ParticleInteractionBehavior()</text>
<text text-anchor="start" x="13.5" y="-237.5" font-family="Helvetica,sans-Serif" font-size="10.00">+</text>
<text text-anchor="start" x="23.5" y="-237.5" font-family="Helvetica,sans-Serif" font-size="10.00">interact()</text>
<polygon fill="#666666" stroke="#666666" points="9.5,-279 9.5,-279 155.5,-279 155.5,-279 9.5,-279"/>
<polygon fill="#666666" stroke="#666666" points="9.5,-264 9.5,-264 155.5,-264 155.5,-264 9.5,-264"/>
<polygon fill="none" stroke="#666666" points="9.5,-232 9.5,-296 155.5,-296 155.5,-232 9.5,-232"/>
</a>
</g>
</g>
<!-- Node2&#45;&gt;Node1 -->
<g id="edge1_Node000001_Node000002" class="edge">
<title>Node2&#45;&gt;Node1</title>
<g id="a_edge1_Node000001_Node000002"><a xlink:title=" ">
<path fill="none" stroke="#63b8ff" d="M82.5,-220.75C82.5,-212.66 82.5,-203.89 82.5,-194.88"/>
<polygon fill="none" stroke="#63b8ff" points="79,-220.55 82.5,-230.55 86,-220.55 79,-220.55"/>
</a>
</g>
</g>
<!-- Node3 -->
<g id="Node000003" class="node">
<title>Node3</title>
<g id="a_Node000003"><a xlink:href="class_probability_dist_1_1_uniform.html" target="_top" xlink:title="Class which represents a uniform distribution.">
<polygon fill="white" stroke="none" points="138,-452.25 27,-452.25 27,-343.25 138,-343.25 138,-452.25"/>
<text text-anchor="start" x="31.88" y="-438.75" font-family="Helvetica,sans-Serif" font-size="10.00">ProbabilityDist::Uniform</text>
<text text-anchor="start" x="44" y="-423.75" font-family="Helvetica,sans-Serif" font-size="10.00">&#45;</text>
<text text-anchor="start" x="64" y="-423.75" font-family="Helvetica,sans-Serif" font-size="10.00">dist_</text>
<text text-anchor="start" x="44" y="-408.75" font-family="Helvetica,sans-Serif" font-size="10.00">&#45;</text>
<text text-anchor="start" x="64" y="-408.75" font-family="Helvetica,sans-Serif" font-size="10.00">generator_</text>
<text text-anchor="start" x="42.5" y="-393.75" font-family="Helvetica,sans-Serif" font-size="10.00">+</text>
<text text-anchor="start" x="64" y="-393.75" font-family="Helvetica,sans-Serif" font-size="10.00">Uniform()</text>
<text text-anchor="start" x="42.5" y="-378.75" font-family="Helvetica,sans-Serif" font-size="10.00">+</text>
<text text-anchor="start" x="64" y="-378.75" font-family="Helvetica,sans-Serif" font-size="10.00">Uniform()</text>
<text text-anchor="start" x="42.5" y="-363.75" font-family="Helvetica,sans-Serif" font-size="10.00">+</text>
<text text-anchor="start" x="64" y="-363.75" font-family="Helvetica,sans-Serif" font-size="10.00">sample()</text>
<text text-anchor="start" x="42.5" y="-348.75" font-family="Helvetica,sans-Serif" font-size="10.00">+</text>
<text text-anchor="start" x="64" y="-348.75" font-family="Helvetica,sans-Serif" font-size="10.00">setRange()</text>
<polygon fill="#666666" stroke="#666666" points="27,-435.25 27,-435.25 138,-435.25 138,-435.25 27,-435.25"/>
<polygon fill="#666666" stroke="#666666" points="27,-405.25 27,-405.25 62,-405.25 62,-405.25 27,-405.25"/>
<polygon fill="#666666" stroke="#666666" points="62,-405.25 62,-405.25 138,-405.25 138,-405.25 62,-405.25"/>
<polygon fill="none" stroke="#666666" points="27,-343.25 27,-452.25 138,-452.25 138,-343.25 27,-343.25"/>
</a>
</g>
</g>
<!-- Node3&#45;&gt;Node2 -->
<g id="edge2_Node000002_Node000003" class="edge">
<title>Node3&#45;&gt;Node2</title>
<g id="a_edge2_Node000002_Node000003"><a xlink:title=" ">
<path fill="none" stroke="#63b8ff" d="M82.5,-343.54C82.5,-331.97 82.5,-319.85 82.5,-308.69"/>
<polygon fill="none" stroke="#63b8ff" points="82.5,-308.56 78.5,-302.56 82.5,-296.56 86.5,-302.56 82.5,-308.56"/>
</a>
</g>
<text text-anchor="middle" x="115.5" y="-315.75" font-family="Helvetica,sans-Serif" font-size="10.00" fill="grey"> #uniform_dist_</text>
</g>
</g>
</svg>
