<?xml version="1.0" encoding="UTF-8" standalone="no"?>
<!DOCTYPE svg PUBLIC "-//W3C//DTD SVG 1.1//EN"
 "http://www.w3.org/Graphics/SVG/1.1/DTD/svg11.dtd">
<!-- Generated by graphviz version 9.0.0 (20230911.1827)
 -->
<!-- Title: InteractionData Pages: 1 -->
<svg width="299pt" height="736pt"
 viewBox="0.00 0.00 299.00 735.50" xmlns="http://www.w3.org/2000/svg" xmlns:xlink="http://www.w3.org/1999/xlink">
<g id="graph0" class="graph" transform="scale(1 1) rotate(0) translate(4 731.5)">
<title>InteractionData</title>
<!-- Node1 -->
<g id="Node000001" class="node">
<title>Node1</title>
<g id="a_Node000001"><a xlink:title="Class which provides access to various simulation significant data.">
<polygon fill="#999999" stroke="none" points="195,-284 50,-284 50,0 195,0 195,-284"/>
<text text-anchor="start" x="89.5" y="-270.5" font-family="Helvetica,sans-Serif" font-size="10.00">InteractionData</text>
<text text-anchor="start" x="55.5" y="-255.5" font-family="Helvetica,sans-Serif" font-size="10.00">&#45;</text>
<text text-anchor="start" x="64" y="-255.5" font-family="Helvetica,sans-Serif" font-size="10.00">material_names_</text>
<text text-anchor="start" x="55.5" y="-240.5" font-family="Helvetica,sans-Serif" font-size="10.00">&#45;</text>
<text text-anchor="start" x="64" y="-240.5" font-family="Helvetica,sans-Serif" font-size="10.00">material_map_</text>
<text text-anchor="start" x="55.5" y="-225.5" font-family="Helvetica,sans-Serif" font-size="10.00">&#45;</text>
<text text-anchor="start" x="64" y="-225.5" font-family="Helvetica,sans-Serif" font-size="10.00">max_total_cs_matrix_</text>
<text text-anchor="start" x="54" y="-210.5" font-family="Helvetica,sans-Serif" font-size="10.00">+</text>
<text text-anchor="start" x="64" y="-210.5" font-family="Helvetica,sans-Serif" font-size="10.00">InteractionData()</text>
<text text-anchor="start" x="54" y="-195.5" font-family="Helvetica,sans-Serif" font-size="10.00">+</text>
<text text-anchor="start" x="64" y="-195.5" font-family="Helvetica,sans-Serif" font-size="10.00">getMaterialFromId()</text>
<text text-anchor="start" x="54" y="-180.5" font-family="Helvetica,sans-Serif" font-size="10.00">+</text>
<text text-anchor="start" x="64" y="-180.5" font-family="Helvetica,sans-Serif" font-size="10.00">getMaxTotalCrossSections</text>
<text text-anchor="start" x="64" y="-169.25" font-family="Helvetica,sans-Serif" font-size="10.00">Matrix()</text>
<text text-anchor="start" x="54" y="-154.5" font-family="Helvetica,sans-Serif" font-size="10.00">+</text>
<text text-anchor="start" x="64" y="-154.5" font-family="Helvetica,sans-Serif" font-size="10.00">interpolateMaxTotalCross</text>
<text text-anchor="start" x="64" y="-143.25" font-family="Helvetica,sans-Serif" font-size="10.00">Section()</text>
<text text-anchor="start" x="54" y="-128.5" font-family="Helvetica,sans-Serif" font-size="10.00">+</text>
<text text-anchor="start" x="64" y="-128.5" font-family="Helvetica,sans-Serif" font-size="10.00">getAnyMaterialNameFromId()</text>
<text text-anchor="start" x="54" y="-113.5" font-family="Helvetica,sans-Serif" font-size="10.00">+</text>
<text text-anchor="start" x="64" y="-113.5" font-family="Helvetica,sans-Serif" font-size="10.00">getAnyMaterialIdFromName()</text>
<text text-anchor="start" x="55.5" y="-98.5" font-family="Helvetica,sans-Serif" font-size="10.00">&#45;</text>
<text text-anchor="start" x="64" y="-98.5" font-family="Helvetica,sans-Serif" font-size="10.00">initializeData()</text>
<text text-anchor="start" x="55.5" y="-83.5" font-family="Helvetica,sans-Serif" font-size="10.00">&#45;</text>
<text text-anchor="start" x="64" y="-83.5" font-family="Helvetica,sans-Serif" font-size="10.00">setMaterialMap()</text>
<text text-anchor="start" x="55.5" y="-68.5" font-family="Helvetica,sans-Serif" font-size="10.00">&#45;</text>
<text text-anchor="start" x="64" y="-68.5" font-family="Helvetica,sans-Serif" font-size="10.00">setMaxTotalCrossSections</text>
<text text-anchor="start" x="64" y="-57.25" font-family="Helvetica,sans-Serif" font-size="10.00">AndInterpolator()</text>
<text text-anchor="start" x="55.5" y="-42.5" font-family="Helvetica,sans-Serif" font-size="10.00">&#45;</text>
<text text-anchor="start" x="64" y="-42.5" font-family="Helvetica,sans-Serif" font-size="10.00">getTotalMaxCrossSections</text>
<text text-anchor="start" x="64" y="-31.25" font-family="Helvetica,sans-Serif" font-size="10.00">MatrixFromInteractionData()</text>
<text text-anchor="start" x="55.5" y="-16.5" font-family="Helvetica,sans-Serif" font-size="10.00">&#45;</text>
<text text-anchor="start" x="64" y="-16.5" font-family="Helvetica,sans-Serif" font-size="10.00">fillTotalMaxCrossSections</text>
<text text-anchor="start" x="64" y="-5.25" font-family="Helvetica,sans-Serif" font-size="10.00">Matrix()</text>
<polygon fill="#666666" stroke="#666666" points="50,-267 50,-267 195,-267 195,-267 50,-267"/>
<polygon fill="#666666" stroke="#666666" points="50,-222 50,-222 62,-222 62,-222 50,-222"/>
<polygon fill="#666666" stroke="#666666" points="62,-222 62,-222 195,-222 195,-222 62,-222"/>
<polygon fill="none" stroke="#666666" points="50,0 50,-284 195,-284 195,0 50,0"/>
</a>
</g>
</g>
<!-- Node2 -->
<g id="Node000002" class="node">
<title>Node2</title>
<g id="a_Node000002"><a xlink:href="class_data_access_object.html" target="_top" xlink:title="Class which provides an interface to a SQLite database.">
<polygon fill="white" stroke="none" points="111,-425.25 0,-425.25 0,-331.25 111,-331.25 111,-425.25"/>
<text text-anchor="start" x="14.62" y="-411.75" font-family="Helvetica,sans-Serif" font-size="10.00">DataAccessObject</text>
<text text-anchor="start" x="54" y="-396.75" font-family="Helvetica,sans-Serif" font-size="10.00"> </text>
<text text-anchor="start" x="4" y="-381.75" font-family="Helvetica,sans-Serif" font-size="10.00">+</text>
<text text-anchor="start" x="14" y="-381.75" font-family="Helvetica,sans-Serif" font-size="10.00">DataAccessObject()</text>
<text text-anchor="start" x="4" y="-366.75" font-family="Helvetica,sans-Serif" font-size="10.00">+</text>
<text text-anchor="start" x="14" y="-366.75" font-family="Helvetica,sans-Serif" font-size="10.00">~DataAccessObject()</text>
<text text-anchor="start" x="4" y="-351.75" font-family="Helvetica,sans-Serif" font-size="10.00">+</text>
<text text-anchor="start" x="14" y="-351.75" font-family="Helvetica,sans-Serif" font-size="10.00">executeQuery()</text>
<text text-anchor="start" x="5.5" y="-336.75" font-family="Helvetica,sans-Serif" font-size="10.00">&#45;</text>
<text text-anchor="start" x="14" y="-336.75" font-family="Helvetica,sans-Serif" font-size="10.00">callback()</text>
<polygon fill="#666666" stroke="#666666" points="0,-408.25 0,-408.25 111,-408.25 111,-408.25 0,-408.25"/>
<polygon fill="#666666" stroke="#666666" points="0,-393.25 0,-393.25 111,-393.25 111,-393.25 0,-393.25"/>
<polygon fill="none" stroke="#666666" points="0,-331.25 0,-425.25 111,-425.25 111,-331.25 0,-331.25"/>
</a>
</g>
</g>
<!-- Node2&#45;&gt;Node1 -->
<g id="edge1_Node000001_Node000002" class="edge">
<title>Node2&#45;&gt;Node1</title>
<g id="a_edge1_Node000001_Node000002"><a xlink:title=" ">
<path fill="none" stroke="#63b8ff" d="M68.58,-331.53C71.67,-320.73 75.13,-308.63 78.77,-295.9"/>
<polygon fill="none" stroke="#63b8ff" points="78.76,-295.93 76.56,-289.06 82.06,-284.39 84.25,-291.26 78.76,-295.93"/>
</a>
</g>
<text text-anchor="middle" x="88.62" y="-303.75" font-family="Helvetica,sans-Serif" font-size="10.00" fill="grey"> &#45;dao_</text>
</g>
<!-- Node3 -->
<g id="Node000003" class="node">
<title>Node3</title>
<g id="a_Node000003"><a xlink:title=" ">
<polygon fill="white" stroke="none" points="74.5,-574 36.5,-574 36.5,-525 74.5,-525 74.5,-574"/>
<text text-anchor="start" x="41.25" y="-560.5" font-family="Helvetica,sans-Serif" font-size="10.00">sqlite3</text>
<text text-anchor="start" x="54" y="-545.5" font-family="Helvetica,sans-Serif" font-size="10.00"> </text>
<text text-anchor="start" x="54" y="-530.5" font-family="Helvetica,sans-Serif" font-size="10.00"> </text>
<polygon fill="#bfbfbf" stroke="#bfbfbf" points="36.5,-557 36.5,-557 74.5,-557 74.5,-557 36.5,-557"/>
<polygon fill="#bfbfbf" stroke="#bfbfbf" points="36.5,-542 36.5,-542 74.5,-542 74.5,-542 36.5,-542"/>
<polygon fill="none" stroke="#bfbfbf" points="36.5,-525 36.5,-574 74.5,-574 74.5,-525 36.5,-525"/>
</a>
</g>
</g>
<!-- Node3&#45;&gt;Node2 -->
<g id="edge2_Node000002_Node000003" class="edge">
<title>Node3&#45;&gt;Node2</title>
<g id="a_edge2_Node000002_Node000003"><a xlink:title=" ">
<path fill="none" stroke="#63b8ff" d="M55.5,-525.32C55.5,-502.92 55.5,-468.07 55.5,-438.02"/>
<polygon fill="none" stroke="#63b8ff" points="55.5,-437.96 51.5,-431.96 55.5,-425.96 59.5,-431.96 55.5,-437.96"/>
</a>
</g>
<text text-anchor="middle" x="63.38" y="-445" font-family="Helvetica,sans-Serif" font-size="10.00" fill="grey"> &#45;db</text>
</g>
<!-- Node4 -->
<g id="Node000004" class="node">
<title>Node4</title>
<g id="a_Node000004"><a xlink:href="class_interpolator_1_1_log_log_linear.html" target="_top" xlink:title="Class which performs linear interpolation on a log&#45;log scale.">
<polygon fill="white" stroke="none" points="252,-417.75 129,-417.75 129,-338.75 252,-338.75 252,-417.75"/>
<text text-anchor="start" x="133.88" y="-404.25" font-family="Helvetica,sans-Serif" font-size="10.00">Interpolator::LogLogLinear</text>
<text text-anchor="start" x="189" y="-389.25" font-family="Helvetica,sans-Serif" font-size="10.00"> </text>
<text text-anchor="start" x="142.5" y="-374.25" font-family="Helvetica,sans-Serif" font-size="10.00">+</text>
<text text-anchor="start" x="162" y="-374.25" font-family="Helvetica,sans-Serif" font-size="10.00">LogLogLinear()</text>
<text text-anchor="start" x="142.5" y="-359.25" font-family="Helvetica,sans-Serif" font-size="10.00">+</text>
<text text-anchor="start" x="162" y="-359.25" font-family="Helvetica,sans-Serif" font-size="10.00">LogLogLinear()</text>
<text text-anchor="start" x="142.5" y="-344.25" font-family="Helvetica,sans-Serif" font-size="10.00">+</text>
<text text-anchor="start" x="162" y="-344.25" font-family="Helvetica,sans-Serif" font-size="10.00">operator()()</text>
<polygon fill="#666666" stroke="#666666" points="129,-400.75 129,-400.75 252,-400.75 252,-400.75 129,-400.75"/>
<polygon fill="#666666" stroke="#666666" points="129,-385.75 129,-385.75 252,-385.75 252,-385.75 129,-385.75"/>
<polygon fill="none" stroke="#666666" points="129,-338.75 129,-417.75 252,-417.75 252,-338.75 129,-338.75"/>
</a>
</g>
</g>
<!-- Node4&#45;&gt;Node1 -->
<g id="edge3_Node000001_Node000004" class="edge">
<title>Node4&#45;&gt;Node1</title>
<g id="a_edge3_Node000001_Node000004"><a xlink:title=" ">
<path fill="none" stroke="#63b8ff" d="M179.35,-338.83C175.73,-326.37 171.47,-311.69 166.93,-296.07"/>
<polygon fill="none" stroke="#63b8ff" points="167.02,-296.35 161.5,-291.7 163.67,-284.83 169.18,-289.47 167.02,-296.35"/>
</a>
</g>
<text text-anchor="middle" x="230.25" y="-303.75" font-family="Helvetica,sans-Serif" font-size="10.00" fill="grey"> &#45;max_total_cs_interpolator_</text>
</g>
<!-- Node5 -->
<g id="Node000005" class="node">
<title>Node5</title>
<g id="a_Node000005"><a xlink:href="class_interpolator_1_1_linear.html" target="_top" xlink:title="Class which performs linear interpolation.">
<polygon fill="white" stroke="none" points="265.5,-626.5 115.5,-626.5 115.5,-472.5 265.5,-472.5 265.5,-626.5"/>
<text text-anchor="start" x="150.38" y="-613" font-family="Helvetica,sans-Serif" font-size="10.00">Interpolator::Linear</text>
<text text-anchor="start" x="121" y="-598" font-family="Helvetica,sans-Serif" font-size="10.00">&#45;</text>
<text text-anchor="start" x="129.5" y="-598" font-family="Helvetica,sans-Serif" font-size="10.00">x_vec_</text>
<text text-anchor="start" x="121" y="-583" font-family="Helvetica,sans-Serif" font-size="10.00">&#45;</text>
<text text-anchor="start" x="129.5" y="-583" font-family="Helvetica,sans-Serif" font-size="10.00">y_vec_</text>
<text text-anchor="start" x="119.5" y="-568" font-family="Helvetica,sans-Serif" font-size="10.00">+</text>
<text text-anchor="start" x="129.5" y="-568" font-family="Helvetica,sans-Serif" font-size="10.00">Linear()</text>
<text text-anchor="start" x="119.5" y="-553" font-family="Helvetica,sans-Serif" font-size="10.00">+</text>
<text text-anchor="start" x="129.5" y="-553" font-family="Helvetica,sans-Serif" font-size="10.00">Linear()</text>
<text text-anchor="start" x="119.5" y="-538" font-family="Helvetica,sans-Serif" font-size="10.00">+</text>
<text text-anchor="start" x="129.5" y="-538" font-family="Helvetica,sans-Serif" font-size="10.00">operator()()</text>
<text text-anchor="start" x="121" y="-523" font-family="Helvetica,sans-Serif" font-size="10.00">&#45;</text>
<text text-anchor="start" x="129.5" y="-523" font-family="Helvetica,sans-Serif" font-size="10.00">isXSmallerThanMin()</text>
<text text-anchor="start" x="121" y="-508" font-family="Helvetica,sans-Serif" font-size="10.00">&#45;</text>
<text text-anchor="start" x="129.5" y="-508" font-family="Helvetica,sans-Serif" font-size="10.00">isXBiggerThanMax()</text>
<text text-anchor="start" x="121" y="-493" font-family="Helvetica,sans-Serif" font-size="10.00">&#45;</text>
<text text-anchor="start" x="129.5" y="-493" font-family="Helvetica,sans-Serif" font-size="10.00">findIndexOfNextLargestValue()</text>
<text text-anchor="start" x="121" y="-478" font-family="Helvetica,sans-Serif" font-size="10.00">&#45;</text>
<text text-anchor="start" x="129.5" y="-478" font-family="Helvetica,sans-Serif" font-size="10.00">calculateInterpolatedY()</text>
<polygon fill="#666666" stroke="#666666" points="115.5,-609.5 115.5,-609.5 265.5,-609.5 265.5,-609.5 115.5,-609.5"/>
<polygon fill="#666666" stroke="#666666" points="115.5,-579.5 115.5,-579.5 127.5,-579.5 127.5,-579.5 115.5,-579.5"/>
<polygon fill="#666666" stroke="#666666" points="127.5,-579.5 127.5,-579.5 265.5,-579.5 265.5,-579.5 127.5,-579.5"/>
<polygon fill="none" stroke="#666666" points="115.5,-472.5 115.5,-626.5 265.5,-626.5 265.5,-472.5 115.5,-472.5"/>
</a>
</g>
</g>
<!-- Node5&#45;&gt;Node4 -->
<g id="edge4_Node000004_Node000005" class="edge">
<title>Node5&#45;&gt;Node4</title>
<g id="a_edge4_Node000004_Node000005"><a xlink:title=" ">
<path fill="none" stroke="#63b8ff" d="M190.5,-461.5C190.5,-445.99 190.5,-430.59 190.5,-417.37"/>
<polygon fill="none" stroke="#63b8ff" points="187,-461.27 190.5,-471.27 194,-461.27 187,-461.27"/>
</a>
</g>
</g>
<!-- Node6 -->
<g id="Node000006" class="node">
<title>Node6</title>
<g id="a_Node000006"><a xlink:href="class_interpolator_1_1_interpolator.html" target="_top" xlink:title="Abstract base class for interpolators.">
<polygon fill="white" stroke="none" points="246.5,-727.5 134.5,-727.5 134.5,-663.5 246.5,-663.5 246.5,-727.5"/>
<text text-anchor="start" x="139.5" y="-714" font-family="Helvetica,sans-Serif" font-size="10.00">Interpolator::Interpolator</text>
<text text-anchor="start" x="189" y="-699" font-family="Helvetica,sans-Serif" font-size="10.00"> </text>
<text text-anchor="start" x="147" y="-684" font-family="Helvetica,sans-Serif" font-size="10.00">+</text>
<text text-anchor="start" x="165.5" y="-684" font-family="Helvetica,sans-Serif" font-size="10.00">~Interpolator()</text>
<text text-anchor="start" x="147" y="-669" font-family="Helvetica,sans-Serif" font-size="10.00">+</text>
<text text-anchor="start" x="165.5" y="-669" font-family="Helvetica,sans-Serif" font-size="10.00">operator()()</text>
<polygon fill="#666666" stroke="#666666" points="134.5,-710.5 134.5,-710.5 246.5,-710.5 246.5,-710.5 134.5,-710.5"/>
<polygon fill="#666666" stroke="#666666" points="134.5,-695.5 134.5,-695.5 246.5,-695.5 246.5,-695.5 134.5,-695.5"/>
<polygon fill="none" stroke="#666666" points="134.5,-663.5 134.5,-727.5 246.5,-727.5 246.5,-663.5 134.5,-663.5"/>
</a>
</g>
</g>
<!-- Node6&#45;&gt;Node5 -->
<g id="edge5_Node000005_Node000006" class="edge">
<title>Node6&#45;&gt;Node5</title>
<g id="a_edge5_Node000005_Node000006"><a xlink:title=" ">
<path fill="none" stroke="#63b8ff" d="M190.5,-652.14C190.5,-643.97 190.5,-635.18 190.5,-626.31"/>
<polygon fill="none" stroke="#63b8ff" points="187,-652.09 190.5,-662.09 194,-652.09 187,-652.09"/>
</a>
</g>
</g>
</g>
</svg>
