<?xml version="1.0" encoding="UTF-8" standalone="no"?>
<!DOCTYPE svg PUBLIC "-//W3C//DTD SVG 1.1//EN"
 "http://www.w3.org/Graphics/SVG/1.1/DTD/svg11.dtd">
<!-- Generated by graphviz version 9.0.0 (20230911.1827)
 -->
<!-- Title: SurfaceTally Pages: 1 -->
<svg width="307pt" height="1002pt"
 viewBox="0.00 0.00 307.25 1002.00" xmlns="http://www.w3.org/2000/svg" xmlns:xlink="http://www.w3.org/1999/xlink">
<g id="graph0" class="graph" transform="scale(1 1) rotate(0) translate(4 998)">
<title>SurfaceTally</title>
<!-- Node1 -->
<g id="Node000001" class="node">
<title>Node1</title>
<g id="a_Node000001"><a xlink:title="Virtual class which represents a surface tally.">
<polygon fill="#999999" stroke="none" points="244.5,-184 85.5,-184 85.5,0 244.5,0 244.5,-184"/>
<text text-anchor="start" x="138" y="-170.5" font-family="Helvetica,sans-Serif" font-size="10.00">SurfaceTally</text>
<text text-anchor="start" x="89.88" y="-155.5" font-family="Helvetica,sans-Serif" font-size="10.00">#</text>
<text text-anchor="start" x="99.5" y="-155.5" font-family="Helvetica,sans-Serif" font-size="10.00">norm_</text>
<text text-anchor="start" x="89.5" y="-140.5" font-family="Helvetica,sans-Serif" font-size="10.00">+</text>
<text text-anchor="start" x="99.5" y="-140.5" font-family="Helvetica,sans-Serif" font-size="10.00">~SurfaceTally()</text>
<text text-anchor="start" x="89.5" y="-125.5" font-family="Helvetica,sans-Serif" font-size="10.00">+</text>
<text text-anchor="start" x="99.5" y="-125.5" font-family="Helvetica,sans-Serif" font-size="10.00">processMeasurements()</text>
<text text-anchor="start" x="89.5" y="-110.5" font-family="Helvetica,sans-Serif" font-size="10.00">+</text>
<text text-anchor="start" x="99.5" y="-110.5" font-family="Helvetica,sans-Serif" font-size="10.00">getSurfaceQuantityContainer()</text>
<text text-anchor="start" x="89.88" y="-95.5" font-family="Helvetica,sans-Serif" font-size="10.00">#</text>
<text text-anchor="start" x="99.5" y="-95.5" font-family="Helvetica,sans-Serif" font-size="10.00">willPassThrough()</text>
<text text-anchor="start" x="89.88" y="-80.5" font-family="Helvetica,sans-Serif" font-size="10.00">#</text>
<text text-anchor="start" x="99.5" y="-80.5" font-family="Helvetica,sans-Serif" font-size="10.00">calculateEntranceCosine()</text>
<text text-anchor="start" x="89.88" y="-65.5" font-family="Helvetica,sans-Serif" font-size="10.00">#</text>
<text text-anchor="start" x="99.5" y="-65.5" font-family="Helvetica,sans-Serif" font-size="10.00">calculateIntersectionParameter()</text>
<text text-anchor="start" x="89.88" y="-50.5" font-family="Helvetica,sans-Serif" font-size="10.00">#</text>
<text text-anchor="start" x="99.5" y="-50.5" font-family="Helvetica,sans-Serif" font-size="10.00">calculateIntersectionPoint()</text>
<text text-anchor="start" x="89.88" y="-35.5" font-family="Helvetica,sans-Serif" font-size="10.00">#</text>
<text text-anchor="start" x="99.5" y="-35.5" font-family="Helvetica,sans-Serif" font-size="10.00">isOutOfRange()</text>
<text text-anchor="start" x="89.88" y="-20.5" font-family="Helvetica,sans-Serif" font-size="10.00">#</text>
<text text-anchor="start" x="99.5" y="-20.5" font-family="Helvetica,sans-Serif" font-size="10.00">isOutsideOfSurface()</text>
<text text-anchor="start" x="89.88" y="-5.5" font-family="Helvetica,sans-Serif" font-size="10.00">#</text>
<text text-anchor="start" x="99.5" y="-5.5" font-family="Helvetica,sans-Serif" font-size="10.00">isPhotonParallelToPlane()</text>
<polygon fill="#666666" stroke="#666666" points="85.5,-167 85.5,-167 244.5,-167 244.5,-167 85.5,-167"/>
<polygon fill="#666666" stroke="#666666" points="85.5,-152 85.5,-152 97.5,-152 97.5,-152 85.5,-152"/>
<polygon fill="#666666" stroke="#666666" points="97.5,-152 97.5,-152 244.5,-152 244.5,-152 97.5,-152"/>
<polygon fill="none" stroke="#666666" points="85.5,0 85.5,-184 244.5,-184 244.5,0 85.5,0"/>
</a>
</g>
</g>
<!-- Node2 -->
<g id="Node000002" class="node">
<title>Node2</title>
<g id="a_Node000002"><a xlink:href="struct_temp_surface_tally_data.html" target="_top" xlink:title="Struct which represents the temporary data for a surface tally.">
<polygon fill="white" stroke="none" points="152.5,-389 43.5,-389 43.5,-295 152.5,-295 152.5,-389"/>
<text text-anchor="start" x="48.5" y="-375.5" font-family="Helvetica,sans-Serif" font-size="10.00">TempSurfaceTallyData</text>
<text text-anchor="start" x="52.5" y="-360.5" font-family="Helvetica,sans-Serif" font-size="10.00">+</text>
<text text-anchor="start" x="67.5" y="-360.5" font-family="Helvetica,sans-Serif" font-size="10.00">free_path</text>
<text text-anchor="start" x="52.5" y="-345.5" font-family="Helvetica,sans-Serif" font-size="10.00">+</text>
<text text-anchor="start" x="67.5" y="-345.5" font-family="Helvetica,sans-Serif" font-size="10.00">isInteract</text>
<text text-anchor="start" x="52.5" y="-330.5" font-family="Helvetica,sans-Serif" font-size="10.00">+</text>
<text text-anchor="start" x="67.5" y="-330.5" font-family="Helvetica,sans-Serif" font-size="10.00">entrance_cosine</text>
<text text-anchor="start" x="52.5" y="-315.5" font-family="Helvetica,sans-Serif" font-size="10.00">+</text>
<text text-anchor="start" x="67.5" y="-315.5" font-family="Helvetica,sans-Serif" font-size="10.00">already_counted</text>
<text text-anchor="start" x="96.5" y="-300.5" font-family="Helvetica,sans-Serif" font-size="10.00"> </text>
<polygon fill="#666666" stroke="#666666" points="43.5,-372 43.5,-372 152.5,-372 152.5,-372 43.5,-372"/>
<polygon fill="#666666" stroke="#666666" points="43.5,-312 43.5,-312 65.5,-312 65.5,-312 43.5,-312"/>
<polygon fill="#666666" stroke="#666666" points="65.5,-312 65.5,-312 152.5,-312 152.5,-312 65.5,-312"/>
<polygon fill="none" stroke="#666666" points="43.5,-295 43.5,-389 152.5,-389 152.5,-295 43.5,-295"/>
</a>
</g>
</g>
<!-- Node2&#45;&gt;Node1 -->
<g id="edge1_Node000001_Node000002" class="edge">
<title>Node2&#45;&gt;Node1</title>
<g id="a_edge1_Node000001_Node000002"><a xlink:title=" ">
<path fill="none" stroke="#63b8ff" d="M97,-295.13C97.51,-267.64 100.15,-232.27 108.75,-202 109.31,-200.02 109.91,-198.03 110.55,-196.04"/>
<polygon fill="none" stroke="#63b8ff" points="110.57,-195.97 108.79,-188.98 114.55,-184.65 116.34,-191.64 110.57,-195.97"/>
</a>
</g>
<text text-anchor="start" x="109" y="-215" font-family="Helvetica,sans-Serif" font-size="10.00" fill="grey"> #temp_surface_tally</text>
<text text-anchor="middle" x="153.62" y="-203.75" font-family="Helvetica,sans-Serif" font-size="10.00" fill="grey">_data_</text>
</g>
<!-- Node3 -->
<g id="Node000003" class="node">
<title>Node3</title>
<g id="a_Node000003"><a xlink:href="class_photon.html" target="_top" xlink:title="Class which represents a photon. Inherits from Particle.">
<polygon fill="white" stroke="none" points="168,-657.75 28,-657.75 28,-488.75 168,-488.75 168,-657.75"/>
<text text-anchor="start" x="82.62" y="-644.25" font-family="Helvetica,sans-Serif" font-size="10.00">Photon</text>
<text text-anchor="start" x="33.5" y="-629.25" font-family="Helvetica,sans-Serif" font-size="10.00">&#45;</text>
<text text-anchor="start" x="42" y="-629.25" font-family="Helvetica,sans-Serif" font-size="10.00">interaction_behavior_</text>
<text text-anchor="start" x="32" y="-614.25" font-family="Helvetica,sans-Serif" font-size="10.00">+</text>
<text text-anchor="start" x="42" y="-614.25" font-family="Helvetica,sans-Serif" font-size="10.00">Photon()</text>
<text text-anchor="start" x="32" y="-599.25" font-family="Helvetica,sans-Serif" font-size="10.00">+</text>
<text text-anchor="start" x="42" y="-599.25" font-family="Helvetica,sans-Serif" font-size="10.00">Photon()</text>
<text text-anchor="start" x="32" y="-584.25" font-family="Helvetica,sans-Serif" font-size="10.00">+</text>
<text text-anchor="start" x="42" y="-584.25" font-family="Helvetica,sans-Serif" font-size="10.00">interact()</text>
<text text-anchor="start" x="32" y="-569.25" font-family="Helvetica,sans-Serif" font-size="10.00">+</text>
<text text-anchor="start" x="42" y="-569.25" font-family="Helvetica,sans-Serif" font-size="10.00">setInteractionBehavior()</text>
<text text-anchor="start" x="32" y="-554.25" font-family="Helvetica,sans-Serif" font-size="10.00">+</text>
<text text-anchor="start" x="42" y="-554.25" font-family="Helvetica,sans-Serif" font-size="10.00">addCoherentScatter()</text>
<text text-anchor="start" x="32" y="-539.25" font-family="Helvetica,sans-Serif" font-size="10.00">+</text>
<text text-anchor="start" x="42" y="-539.25" font-family="Helvetica,sans-Serif" font-size="10.00">addIncoherentScatter()</text>
<text text-anchor="start" x="32" y="-524.25" font-family="Helvetica,sans-Serif" font-size="10.00">+</text>
<text text-anchor="start" x="42" y="-524.25" font-family="Helvetica,sans-Serif" font-size="10.00">getTotalScatterCount()</text>
<text text-anchor="start" x="32" y="-509.25" font-family="Helvetica,sans-Serif" font-size="10.00">+</text>
<text text-anchor="start" x="42" y="-509.25" font-family="Helvetica,sans-Serif" font-size="10.00">getCoherentScatterCount()</text>
<text text-anchor="start" x="32" y="-494.25" font-family="Helvetica,sans-Serif" font-size="10.00">+</text>
<text text-anchor="start" x="42" y="-494.25" font-family="Helvetica,sans-Serif" font-size="10.00">getIncoherentScatterCount()</text>
<polygon fill="#666666" stroke="#666666" points="28,-640.75 28,-640.75 168,-640.75 168,-640.75 28,-640.75"/>
<polygon fill="#666666" stroke="#666666" points="28,-625.75 28,-625.75 40,-625.75 40,-625.75 28,-625.75"/>
<polygon fill="#666666" stroke="#666666" points="40,-625.75 40,-625.75 168,-625.75 168,-625.75 40,-625.75"/>
<polygon fill="none" stroke="#666666" points="28,-488.75 28,-657.75 168,-657.75 168,-488.75 28,-488.75"/>
</a>
</g>
</g>
<!-- Node3&#45;&gt;Node2 -->
<g id="edge2_Node000002_Node000003" class="edge">
<title>Node3&#45;&gt;Node2</title>
<g id="a_edge2_Node000002_Node000003"><a xlink:title=" ">
<path fill="none" stroke="#63b8ff" d="M98,-488.84C98,-459.92 98,-428.14 98,-401.65"/>
<polygon fill="none" stroke="#63b8ff" points="98,-401.61 94,-395.61 98,-389.61 102,-395.61 98,-401.61"/>
</a>
</g>
<text text-anchor="middle" x="130.62" y="-461.25" font-family="Helvetica,sans-Serif" font-size="10.00" fill="grey"> +initial_photon</text>
</g>
<!-- Node4 -->
<g id="Node000004" class="node">
<title>Node4</title>
<g id="a_Node000004"><a xlink:href="class_particle.html" target="_top" xlink:title="Class which represents a particle.">
<polygon fill="white" stroke="none" points="80,-994 0,-994 0,-705 80,-705 80,-994"/>
<text text-anchor="start" x="23.5" y="-980.5" font-family="Helvetica,sans-Serif" font-size="10.00">Particle</text>
<text text-anchor="start" x="5.5" y="-965.5" font-family="Helvetica,sans-Serif" font-size="10.00">&#45;</text>
<text text-anchor="start" x="14" y="-965.5" font-family="Helvetica,sans-Serif" font-size="10.00">position_</text>
<text text-anchor="start" x="5.5" y="-950.5" font-family="Helvetica,sans-Serif" font-size="10.00">&#45;</text>
<text text-anchor="start" x="14" y="-950.5" font-family="Helvetica,sans-Serif" font-size="10.00">direction_</text>
<text text-anchor="start" x="5.5" y="-935.5" font-family="Helvetica,sans-Serif" font-size="10.00">&#45;</text>
<text text-anchor="start" x="14" y="-935.5" font-family="Helvetica,sans-Serif" font-size="10.00">energy_</text>
<text text-anchor="start" x="5.5" y="-920.5" font-family="Helvetica,sans-Serif" font-size="10.00">&#45;</text>
<text text-anchor="start" x="14" y="-920.5" font-family="Helvetica,sans-Serif" font-size="10.00">terminated_</text>
<text text-anchor="start" x="5.5" y="-905.5" font-family="Helvetica,sans-Serif" font-size="10.00">&#45;</text>
<text text-anchor="start" x="14" y="-905.5" font-family="Helvetica,sans-Serif" font-size="10.00">isPrimary_</text>
<text text-anchor="start" x="4" y="-890.5" font-family="Helvetica,sans-Serif" font-size="10.00">+</text>
<text text-anchor="start" x="14" y="-890.5" font-family="Helvetica,sans-Serif" font-size="10.00">Particle()</text>
<text text-anchor="start" x="4" y="-875.5" font-family="Helvetica,sans-Serif" font-size="10.00">+</text>
<text text-anchor="start" x="14" y="-875.5" font-family="Helvetica,sans-Serif" font-size="10.00">Particle()</text>
<text text-anchor="start" x="4" y="-860.5" font-family="Helvetica,sans-Serif" font-size="10.00">+</text>
<text text-anchor="start" x="14" y="-860.5" font-family="Helvetica,sans-Serif" font-size="10.00">getPosition()</text>
<text text-anchor="start" x="4" y="-845.5" font-family="Helvetica,sans-Serif" font-size="10.00">+</text>
<text text-anchor="start" x="14" y="-845.5" font-family="Helvetica,sans-Serif" font-size="10.00">getDirection()</text>
<text text-anchor="start" x="4" y="-830.5" font-family="Helvetica,sans-Serif" font-size="10.00">+</text>
<text text-anchor="start" x="14" y="-830.5" font-family="Helvetica,sans-Serif" font-size="10.00">getEnergy()</text>
<text text-anchor="start" x="4" y="-815.5" font-family="Helvetica,sans-Serif" font-size="10.00">+</text>
<text text-anchor="start" x="14" y="-815.5" font-family="Helvetica,sans-Serif" font-size="10.00">move()</text>
<text text-anchor="start" x="4" y="-800.5" font-family="Helvetica,sans-Serif" font-size="10.00">+</text>
<text text-anchor="start" x="14" y="-800.5" font-family="Helvetica,sans-Serif" font-size="10.00">setDirection()</text>
<text text-anchor="start" x="4" y="-785.5" font-family="Helvetica,sans-Serif" font-size="10.00">+</text>
<text text-anchor="start" x="14" y="-785.5" font-family="Helvetica,sans-Serif" font-size="10.00">rotate()</text>
<text text-anchor="start" x="4" y="-770.5" font-family="Helvetica,sans-Serif" font-size="10.00">+</text>
<text text-anchor="start" x="14" y="-770.5" font-family="Helvetica,sans-Serif" font-size="10.00">setEnergy()</text>
<text text-anchor="start" x="4" y="-755.5" font-family="Helvetica,sans-Serif" font-size="10.00">+</text>
<text text-anchor="start" x="14" y="-755.5" font-family="Helvetica,sans-Serif" font-size="10.00">isTerminated()</text>
<text text-anchor="start" x="4" y="-740.5" font-family="Helvetica,sans-Serif" font-size="10.00">+</text>
<text text-anchor="start" x="14" y="-740.5" font-family="Helvetica,sans-Serif" font-size="10.00">terminate()</text>
<text text-anchor="start" x="4" y="-725.5" font-family="Helvetica,sans-Serif" font-size="10.00">+</text>
<text text-anchor="start" x="14" y="-725.5" font-family="Helvetica,sans-Serif" font-size="10.00">isPrimary()</text>
<text text-anchor="start" x="4" y="-710.5" font-family="Helvetica,sans-Serif" font-size="10.00">+</text>
<text text-anchor="start" x="14" y="-710.5" font-family="Helvetica,sans-Serif" font-size="10.00">setPrimary()</text>
<polygon fill="#666666" stroke="#666666" points="0,-977 0,-977 80,-977 80,-977 0,-977"/>
<polygon fill="#666666" stroke="#666666" points="0,-902 0,-902 12,-902 12,-902 0,-902"/>
<polygon fill="#666666" stroke="#666666" points="12,-902 12,-902 80,-902 80,-902 12,-902"/>
<polygon fill="none" stroke="#666666" points="0,-705 0,-994 80,-994 80,-705 0,-705"/>
</a>
</g>
</g>
<!-- Node4&#45;&gt;Node3 -->
<g id="edge3_Node000003_Node000004" class="edge">
<title>Node4&#45;&gt;Node3</title>
<g id="a_edge3_Node000003_Node000004"><a xlink:title=" ">
<path fill="none" stroke="#63b8ff" d="M72.62,-694.26C75.28,-681.68 77.9,-669.29 80.39,-657.54"/>
<polygon fill="none" stroke="#63b8ff" points="69.23,-693.36 70.59,-703.87 76.08,-694.81 69.23,-693.36"/>
</a>
</g>
</g>
<!-- Node5 -->
<g id="Node000005" class="node">
<title>Node5</title>
<g id="a_Node000005"><a xlink:href="struct_photon_scattering_history.html" target="_top" xlink:title="Struct which contains the scattering history of a photon.">
<polygon fill="white" stroke="none" points="213.5,-889 98.5,-889 98.5,-810 213.5,-810 213.5,-889"/>
<text text-anchor="start" x="103.12" y="-875.5" font-family="Helvetica,sans-Serif" font-size="10.00">PhotonScatteringHistory</text>
<text text-anchor="start" x="115.5" y="-860.5" font-family="Helvetica,sans-Serif" font-size="10.00">+</text>
<text text-anchor="start" x="138.5" y="-860.5" font-family="Helvetica,sans-Serif" font-size="10.00">coherent</text>
<text text-anchor="start" x="115.5" y="-845.5" font-family="Helvetica,sans-Serif" font-size="10.00">+</text>
<text text-anchor="start" x="138.5" y="-845.5" font-family="Helvetica,sans-Serif" font-size="10.00">incoherent</text>
<text text-anchor="start" x="115.5" y="-830.5" font-family="Helvetica,sans-Serif" font-size="10.00">+</text>
<text text-anchor="start" x="138.5" y="-830.5" font-family="Helvetica,sans-Serif" font-size="10.00">total</text>
<text text-anchor="start" x="154.5" y="-815.5" font-family="Helvetica,sans-Serif" font-size="10.00"> </text>
<polygon fill="#666666" stroke="#666666" points="98.5,-872 98.5,-872 213.5,-872 213.5,-872 98.5,-872"/>
<polygon fill="#666666" stroke="#666666" points="98.5,-827 98.5,-827 136.5,-827 136.5,-827 98.5,-827"/>
<polygon fill="#666666" stroke="#666666" points="136.5,-827 136.5,-827 213.5,-827 213.5,-827 136.5,-827"/>
<polygon fill="none" stroke="#666666" points="98.5,-810 98.5,-889 213.5,-889 213.5,-810 98.5,-810"/>
</a>
</g>
</g>
<!-- Node5&#45;&gt;Node3 -->
<g id="edge4_Node000003_Node000005" class="edge">
<title>Node5&#45;&gt;Node3</title>
<g id="a_edge4_Node000003_Node000005"><a xlink:title=" ">
<path fill="none" stroke="#63b8ff" d="M147.87,-810.08C140.23,-773.95 128.48,-718.37 118.3,-670.24"/>
<polygon fill="none" stroke="#63b8ff" points="118.28,-670.15 113.13,-665.11 115.8,-658.41 120.95,-663.46 118.28,-670.15"/>
</a>
</g>
<text text-anchor="middle" x="164.5" y="-677.5" font-family="Helvetica,sans-Serif" font-size="10.00" fill="grey"> &#45;scattering_history_</text>
</g>
<!-- Node6 -->
<g id="Node000006" class="node">
<title>Node6</title>
<g id="a_Node000006"><a xlink:href="class_surface_quantity_container.html" target="_top" xlink:title="Class which represents a container for surface quantities.">
<polygon fill="white" stroke="none" points="291.5,-441.5 170.5,-441.5 170.5,-242.5 291.5,-242.5 291.5,-441.5"/>
<text text-anchor="start" x="175.5" y="-428" font-family="Helvetica,sans-Serif" font-size="10.00">SurfaceQuantityContainer</text>
<text text-anchor="start" x="178.5" y="-413" font-family="Helvetica,sans-Serif" font-size="10.00">&#45;</text>
<text text-anchor="start" x="189.5" y="-413" font-family="Helvetica,sans-Serif" font-size="10.00">vector_quantities_</text>
<text text-anchor="start" x="178.5" y="-398" font-family="Helvetica,sans-Serif" font-size="10.00">&#45;</text>
<text text-anchor="start" x="189.5" y="-398" font-family="Helvetica,sans-Serif" font-size="10.00">count_quantities_</text>
<text text-anchor="start" x="178.5" y="-383" font-family="Helvetica,sans-Serif" font-size="10.00">&#45;</text>
<text text-anchor="start" x="189.5" y="-383" font-family="Helvetica,sans-Serif" font-size="10.00">area_</text>
<text text-anchor="start" x="177" y="-368" font-family="Helvetica,sans-Serif" font-size="10.00">+</text>
<text text-anchor="start" x="189.5" y="-368" font-family="Helvetica,sans-Serif" font-size="10.00">addVectorQuantity()</text>
<text text-anchor="start" x="177" y="-353" font-family="Helvetica,sans-Serif" font-size="10.00">+</text>
<text text-anchor="start" x="189.5" y="-353" font-family="Helvetica,sans-Serif" font-size="10.00">addCountQuantity()</text>
<text text-anchor="start" x="177" y="-338" font-family="Helvetica,sans-Serif" font-size="10.00">+</text>
<text text-anchor="start" x="189.5" y="-338" font-family="Helvetica,sans-Serif" font-size="10.00">measureAll()</text>
<text text-anchor="start" x="177" y="-323" font-family="Helvetica,sans-Serif" font-size="10.00">+</text>
<text text-anchor="start" x="189.5" y="-323" font-family="Helvetica,sans-Serif" font-size="10.00">operator+()</text>
<text text-anchor="start" x="177" y="-308" font-family="Helvetica,sans-Serif" font-size="10.00">+</text>
<text text-anchor="start" x="189.5" y="-308" font-family="Helvetica,sans-Serif" font-size="10.00">clear()</text>
<text text-anchor="start" x="177" y="-293" font-family="Helvetica,sans-Serif" font-size="10.00">+</text>
<text text-anchor="start" x="189.5" y="-293" font-family="Helvetica,sans-Serif" font-size="10.00">getVectorQuantities()</text>
<text text-anchor="start" x="177" y="-278" font-family="Helvetica,sans-Serif" font-size="10.00">+</text>
<text text-anchor="start" x="189.5" y="-278" font-family="Helvetica,sans-Serif" font-size="10.00">getCountQuantities()</text>
<text text-anchor="start" x="177" y="-263" font-family="Helvetica,sans-Serif" font-size="10.00">+</text>
<text text-anchor="start" x="189.5" y="-263" font-family="Helvetica,sans-Serif" font-size="10.00">setArea()</text>
<text text-anchor="start" x="177" y="-248" font-family="Helvetica,sans-Serif" font-size="10.00">+</text>
<text text-anchor="start" x="189.5" y="-248" font-family="Helvetica,sans-Serif" font-size="10.00">getArea()</text>
<polygon fill="#666666" stroke="#666666" points="170.5,-424.5 170.5,-424.5 291.5,-424.5 291.5,-424.5 170.5,-424.5"/>
<polygon fill="#666666" stroke="#666666" points="170.5,-379.5 170.5,-379.5 187.5,-379.5 187.5,-379.5 170.5,-379.5"/>
<polygon fill="#666666" stroke="#666666" points="187.5,-379.5 187.5,-379.5 291.5,-379.5 291.5,-379.5 187.5,-379.5"/>
<polygon fill="none" stroke="#666666" points="170.5,-242.5 170.5,-441.5 291.5,-441.5 291.5,-242.5 170.5,-242.5"/>
</a>
</g>
</g>
<!-- Node6&#45;&gt;Node1 -->
<g id="edge5_Node000001_Node000006" class="edge">
<title>Node6&#45;&gt;Node1</title>
<g id="a_edge5_Node000001_Node000006"><a xlink:title=" ">
<path fill="none" stroke="#63b8ff" d="M212.04,-242.68C208.94,-228.96 205.57,-215.08 202,-202 201.46,-200.04 200.91,-198.06 200.35,-196.07"/>
<polygon fill="none" stroke="#63b8ff" points="200.36,-196.12 194.83,-191.49 196.98,-184.61 202.51,-189.23 200.36,-196.12"/>
</a>
</g>
<text text-anchor="middle" x="253.12" y="-209.38" font-family="Helvetica,sans-Serif" font-size="10.00" fill="grey"> #surface_quantities_</text>
</g>
</g>
</svg>
