<?xml version="1.0" encoding="UTF-8" standalone="no"?>
<!DOCTYPE svg PUBLIC "-//W3C//DTD SVG 1.1//EN"
 "http://www.w3.org/Graphics/SVG/1.1/DTD/svg11.dtd">
<!-- Generated by graphviz version 9.0.0 (20230911.1827)
 -->
<!-- Title: DiscSurfaceTally Pages: 1 -->
<svg width="307pt" height="1148pt"
 viewBox="0.00 0.00 307.25 1148.00" xmlns="http://www.w3.org/2000/svg" xmlns:xlink="http://www.w3.org/1999/xlink">
<g id="graph0" class="graph" transform="scale(1 1) rotate(0) translate(4 1144)">
<title>DiscSurfaceTally</title>
<!-- Node1 -->
<g id="Node000001" class="node">
<title>Node1</title>
<g id="a_Node000001"><a xlink:title="Class which represents a disc surface tally.">
<polygon fill="#999999" stroke="none" points="244.5,-109 85.5,-109 85.5,0 244.5,0 244.5,-109"/>
<text text-anchor="start" x="128.25" y="-95.5" font-family="Helvetica,sans-Serif" font-size="10.00">DiscSurfaceTally</text>
<text text-anchor="start" x="91" y="-80.5" font-family="Helvetica,sans-Serif" font-size="10.00">&#45;</text>
<text text-anchor="start" x="99.5" y="-80.5" font-family="Helvetica,sans-Serif" font-size="10.00">center_</text>
<text text-anchor="start" x="91" y="-65.5" font-family="Helvetica,sans-Serif" font-size="10.00">&#45;</text>
<text text-anchor="start" x="99.5" y="-65.5" font-family="Helvetica,sans-Serif" font-size="10.00">radius_</text>
<text text-anchor="start" x="89.5" y="-50.5" font-family="Helvetica,sans-Serif" font-size="10.00">+</text>
<text text-anchor="start" x="99.5" y="-50.5" font-family="Helvetica,sans-Serif" font-size="10.00">DiscSurfaceTally()</text>
<text text-anchor="start" x="91" y="-35.5" font-family="Helvetica,sans-Serif" font-size="10.00">&#45;</text>
<text text-anchor="start" x="99.5" y="-35.5" font-family="Helvetica,sans-Serif" font-size="10.00">setArea()</text>
<text text-anchor="start" x="91" y="-20.5" font-family="Helvetica,sans-Serif" font-size="10.00">&#45;</text>
<text text-anchor="start" x="99.5" y="-20.5" font-family="Helvetica,sans-Serif" font-size="10.00">calculateIntersectionParameter()</text>
<text text-anchor="start" x="91" y="-5.5" font-family="Helvetica,sans-Serif" font-size="10.00">&#45;</text>
<text text-anchor="start" x="99.5" y="-5.5" font-family="Helvetica,sans-Serif" font-size="10.00">isOutsideOfSurface()</text>
<polygon fill="#666666" stroke="#666666" points="85.5,-92 85.5,-92 244.5,-92 244.5,-92 85.5,-92"/>
<polygon fill="#666666" stroke="#666666" points="85.5,-62 85.5,-62 97.5,-62 97.5,-62 85.5,-62"/>
<polygon fill="#666666" stroke="#666666" points="97.5,-62 97.5,-62 244.5,-62 244.5,-62 97.5,-62"/>
<polygon fill="none" stroke="#666666" points="85.5,0 85.5,-109 244.5,-109 244.5,0 85.5,0"/>
</a>
</g>
</g>
<!-- Node2 -->
<g id="Node000002" class="node">
<title>Node2</title>
<g id="a_Node000002"><a xlink:href="class_surface_tally.html" target="_top" xlink:title="Virtual class which represents a surface tally.">
<polygon fill="white" stroke="none" points="244.5,-330 85.5,-330 85.5,-146 244.5,-146 244.5,-330"/>
<text text-anchor="start" x="138" y="-316.5" font-family="Helvetica,sans-Serif" font-size="10.00">SurfaceTally</text>
<text text-anchor="start" x="89.88" y="-301.5" font-family="Helvetica,sans-Serif" font-size="10.00">#</text>
<text text-anchor="start" x="99.5" y="-301.5" font-family="Helvetica,sans-Serif" font-size="10.00">norm_</text>
<text text-anchor="start" x="89.5" y="-286.5" font-family="Helvetica,sans-Serif" font-size="10.00">+</text>
<text text-anchor="start" x="99.5" y="-286.5" font-family="Helvetica,sans-Serif" font-size="10.00">~SurfaceTally()</text>
<text text-anchor="start" x="89.5" y="-271.5" font-family="Helvetica,sans-Serif" font-size="10.00">+</text>
<text text-anchor="start" x="99.5" y="-271.5" font-family="Helvetica,sans-Serif" font-size="10.00">processMeasurements()</text>
<text text-anchor="start" x="89.5" y="-256.5" font-family="Helvetica,sans-Serif" font-size="10.00">+</text>
<text text-anchor="start" x="99.5" y="-256.5" font-family="Helvetica,sans-Serif" font-size="10.00">getSurfaceQuantityContainer()</text>
<text text-anchor="start" x="89.88" y="-241.5" font-family="Helvetica,sans-Serif" font-size="10.00">#</text>
<text text-anchor="start" x="99.5" y="-241.5" font-family="Helvetica,sans-Serif" font-size="10.00">willPassThrough()</text>
<text text-anchor="start" x="89.88" y="-226.5" font-family="Helvetica,sans-Serif" font-size="10.00">#</text>
<text text-anchor="start" x="99.5" y="-226.5" font-family="Helvetica,sans-Serif" font-size="10.00">calculateEntranceCosine()</text>
<text text-anchor="start" x="89.88" y="-211.5" font-family="Helvetica,sans-Serif" font-size="10.00">#</text>
<text text-anchor="start" x="99.5" y="-211.5" font-family="Helvetica,sans-Serif" font-size="10.00">calculateIntersectionParameter()</text>
<text text-anchor="start" x="89.88" y="-196.5" font-family="Helvetica,sans-Serif" font-size="10.00">#</text>
<text text-anchor="start" x="99.5" y="-196.5" font-family="Helvetica,sans-Serif" font-size="10.00">calculateIntersectionPoint()</text>
<text text-anchor="start" x="89.88" y="-181.5" font-family="Helvetica,sans-Serif" font-size="10.00">#</text>
<text text-anchor="start" x="99.5" y="-181.5" font-family="Helvetica,sans-Serif" font-size="10.00">isOutOfRange()</text>
<text text-anchor="start" x="89.88" y="-166.5" font-family="Helvetica,sans-Serif" font-size="10.00">#</text>
<text text-anchor="start" x="99.5" y="-166.5" font-family="Helvetica,sans-Serif" font-size="10.00">isOutsideOfSurface()</text>
<text text-anchor="start" x="89.88" y="-151.5" font-family="Helvetica,sans-Serif" font-size="10.00">#</text>
<text text-anchor="start" x="99.5" y="-151.5" font-family="Helvetica,sans-Serif" font-size="10.00">isPhotonParallelToPlane()</text>
<polygon fill="#666666" stroke="#666666" points="85.5,-313 85.5,-313 244.5,-313 244.5,-313 85.5,-313"/>
<polygon fill="#666666" stroke="#666666" points="85.5,-298 85.5,-298 97.5,-298 97.5,-298 85.5,-298"/>
<polygon fill="#666666" stroke="#666666" points="97.5,-298 97.5,-298 244.5,-298 244.5,-298 97.5,-298"/>
<polygon fill="none" stroke="#666666" points="85.5,-146 85.5,-330 244.5,-330 244.5,-146 85.5,-146"/>
</a>
</g>
</g>
<!-- Node2&#45;&gt;Node1 -->
<g id="edge1_Node000001_Node000002" class="edge">
<title>Node2&#45;&gt;Node1</title>
<g id="a_edge1_Node000001_Node000002"><a xlink:title=" ">
<path fill="none" stroke="#63b8ff" d="M165,-134.91C165,-126 165,-117.24 165,-108.97"/>
<polygon fill="none" stroke="#63b8ff" points="161.5,-134.74 165,-144.74 168.5,-134.74 161.5,-134.74"/>
</a>
</g>
</g>
<!-- Node3 -->
<g id="Node000003" class="node">
<title>Node3</title>
<g id="a_Node000003"><a xlink:href="struct_temp_surface_tally_data.html" target="_top" xlink:title="Struct which represents the temporary data for a surface tally.">
<polygon fill="white" stroke="none" points="152.5,-535 43.5,-535 43.5,-441 152.5,-441 152.5,-535"/>
<text text-anchor="start" x="48.5" y="-521.5" font-family="Helvetica,sans-Serif" font-size="10.00">TempSurfaceTallyData</text>
<text text-anchor="start" x="52.5" y="-506.5" font-family="Helvetica,sans-Serif" font-size="10.00">+</text>
<text text-anchor="start" x="67.5" y="-506.5" font-family="Helvetica,sans-Serif" font-size="10.00">free_path</text>
<text text-anchor="start" x="52.5" y="-491.5" font-family="Helvetica,sans-Serif" font-size="10.00">+</text>
<text text-anchor="start" x="67.5" y="-491.5" font-family="Helvetica,sans-Serif" font-size="10.00">isInteract</text>
<text text-anchor="start" x="52.5" y="-476.5" font-family="Helvetica,sans-Serif" font-size="10.00">+</text>
<text text-anchor="start" x="67.5" y="-476.5" font-family="Helvetica,sans-Serif" font-size="10.00">entrance_cosine</text>
<text text-anchor="start" x="52.5" y="-461.5" font-family="Helvetica,sans-Serif" font-size="10.00">+</text>
<text text-anchor="start" x="67.5" y="-461.5" font-family="Helvetica,sans-Serif" font-size="10.00">already_counted</text>
<text text-anchor="start" x="96.5" y="-446.5" font-family="Helvetica,sans-Serif" font-size="10.00"> </text>
<polygon fill="#666666" stroke="#666666" points="43.5,-518 43.5,-518 152.5,-518 152.5,-518 43.5,-518"/>
<polygon fill="#666666" stroke="#666666" points="43.5,-458 43.5,-458 65.5,-458 65.5,-458 43.5,-458"/>
<polygon fill="#666666" stroke="#666666" points="65.5,-458 65.5,-458 152.5,-458 152.5,-458 65.5,-458"/>
<polygon fill="none" stroke="#666666" points="43.5,-441 43.5,-535 152.5,-535 152.5,-441 43.5,-441"/>
</a>
</g>
</g>
<!-- Node3&#45;&gt;Node2 -->
<g id="edge2_Node000002_Node000003" class="edge">
<title>Node3&#45;&gt;Node2</title>
<g id="a_edge2_Node000002_Node000003"><a xlink:title=" ">
<path fill="none" stroke="#63b8ff" d="M97,-441.13C97.51,-413.64 100.15,-378.27 108.75,-348 109.31,-346.02 109.91,-344.03 110.55,-342.04"/>
<polygon fill="none" stroke="#63b8ff" points="110.57,-341.97 108.79,-334.98 114.55,-330.65 116.34,-337.64 110.57,-341.97"/>
</a>
</g>
<text text-anchor="start" x="109" y="-361" font-family="Helvetica,sans-Serif" font-size="10.00" fill="grey"> #temp_surface_tally</text>
<text text-anchor="middle" x="153.62" y="-349.75" font-family="Helvetica,sans-Serif" font-size="10.00" fill="grey">_data_</text>
</g>
<!-- Node4 -->
<g id="Node000004" class="node">
<title>Node4</title>
<g id="a_Node000004"><a xlink:href="class_photon.html" target="_top" xlink:title="Class which represents a photon. Inherits from Particle.">
<polygon fill="white" stroke="none" points="168,-803.75 28,-803.75 28,-634.75 168,-634.75 168,-803.75"/>
<text text-anchor="start" x="82.62" y="-790.25" font-family="Helvetica,sans-Serif" font-size="10.00">Photon</text>
<text text-anchor="start" x="33.5" y="-775.25" font-family="Helvetica,sans-Serif" font-size="10.00">&#45;</text>
<text text-anchor="start" x="42" y="-775.25" font-family="Helvetica,sans-Serif" font-size="10.00">interaction_behavior_</text>
<text text-anchor="start" x="32" y="-760.25" font-family="Helvetica,sans-Serif" font-size="10.00">+</text>
<text text-anchor="start" x="42" y="-760.25" font-family="Helvetica,sans-Serif" font-size="10.00">Photon()</text>
<text text-anchor="start" x="32" y="-745.25" font-family="Helvetica,sans-Serif" font-size="10.00">+</text>
<text text-anchor="start" x="42" y="-745.25" font-family="Helvetica,sans-Serif" font-size="10.00">Photon()</text>
<text text-anchor="start" x="32" y="-730.25" font-family="Helvetica,sans-Serif" font-size="10.00">+</text>
<text text-anchor="start" x="42" y="-730.25" font-family="Helvetica,sans-Serif" font-size="10.00">interact()</text>
<text text-anchor="start" x="32" y="-715.25" font-family="Helvetica,sans-Serif" font-size="10.00">+</text>
<text text-anchor="start" x="42" y="-715.25" font-family="Helvetica,sans-Serif" font-size="10.00">setInteractionBehavior()</text>
<text text-anchor="start" x="32" y="-700.25" font-family="Helvetica,sans-Serif" font-size="10.00">+</text>
<text text-anchor="start" x="42" y="-700.25" font-family="Helvetica,sans-Serif" font-size="10.00">addCoherentScatter()</text>
<text text-anchor="start" x="32" y="-685.25" font-family="Helvetica,sans-Serif" font-size="10.00">+</text>
<text text-anchor="start" x="42" y="-685.25" font-family="Helvetica,sans-Serif" font-size="10.00">addIncoherentScatter()</text>
<text text-anchor="start" x="32" y="-670.25" font-family="Helvetica,sans-Serif" font-size="10.00">+</text>
<text text-anchor="start" x="42" y="-670.25" font-family="Helvetica,sans-Serif" font-size="10.00">getTotalScatterCount()</text>
<text text-anchor="start" x="32" y="-655.25" font-family="Helvetica,sans-Serif" font-size="10.00">+</text>
<text text-anchor="start" x="42" y="-655.25" font-family="Helvetica,sans-Serif" font-size="10.00">getCoherentScatterCount()</text>
<text text-anchor="start" x="32" y="-640.25" font-family="Helvetica,sans-Serif" font-size="10.00">+</text>
<text text-anchor="start" x="42" y="-640.25" font-family="Helvetica,sans-Serif" font-size="10.00">getIncoherentScatterCount()</text>
<polygon fill="#666666" stroke="#666666" points="28,-786.75 28,-786.75 168,-786.75 168,-786.75 28,-786.75"/>
<polygon fill="#666666" stroke="#666666" points="28,-771.75 28,-771.75 40,-771.75 40,-771.75 28,-771.75"/>
<polygon fill="#666666" stroke="#666666" points="40,-771.75 40,-771.75 168,-771.75 168,-771.75 40,-771.75"/>
<polygon fill="none" stroke="#666666" points="28,-634.75 28,-803.75 168,-803.75 168,-634.75 28,-634.75"/>
</a>
</g>
</g>
<!-- Node4&#45;&gt;Node3 -->
<g id="edge3_Node000003_Node000004" class="edge">
<title>Node4&#45;&gt;Node3</title>
<g id="a_edge3_Node000003_Node000004"><a xlink:title=" ">
<path fill="none" stroke="#63b8ff" d="M98,-634.84C98,-605.92 98,-574.14 98,-547.65"/>
<polygon fill="none" stroke="#63b8ff" points="98,-547.61 94,-541.61 98,-535.61 102,-541.61 98,-547.61"/>
</a>
</g>
<text text-anchor="middle" x="130.62" y="-607.25" font-family="Helvetica,sans-Serif" font-size="10.00" fill="grey"> +initial_photon</text>
</g>
<!-- Node5 -->
<g id="Node000005" class="node">
<title>Node5</title>
<g id="a_Node000005"><a xlink:href="class_particle.html" target="_top" xlink:title="Class which represents a particle.">
<polygon fill="white" stroke="none" points="80,-1140 0,-1140 0,-851 80,-851 80,-1140"/>
<text text-anchor="start" x="23.5" y="-1126.5" font-family="Helvetica,sans-Serif" font-size="10.00">Particle</text>
<text text-anchor="start" x="5.5" y="-1111.5" font-family="Helvetica,sans-Serif" font-size="10.00">&#45;</text>
<text text-anchor="start" x="14" y="-1111.5" font-family="Helvetica,sans-Serif" font-size="10.00">position_</text>
<text text-anchor="start" x="5.5" y="-1096.5" font-family="Helvetica,sans-Serif" font-size="10.00">&#45;</text>
<text text-anchor="start" x="14" y="-1096.5" font-family="Helvetica,sans-Serif" font-size="10.00">direction_</text>
<text text-anchor="start" x="5.5" y="-1081.5" font-family="Helvetica,sans-Serif" font-size="10.00">&#45;</text>
<text text-anchor="start" x="14" y="-1081.5" font-family="Helvetica,sans-Serif" font-size="10.00">energy_</text>
<text text-anchor="start" x="5.5" y="-1066.5" font-family="Helvetica,sans-Serif" font-size="10.00">&#45;</text>
<text text-anchor="start" x="14" y="-1066.5" font-family="Helvetica,sans-Serif" font-size="10.00">terminated_</text>
<text text-anchor="start" x="5.5" y="-1051.5" font-family="Helvetica,sans-Serif" font-size="10.00">&#45;</text>
<text text-anchor="start" x="14" y="-1051.5" font-family="Helvetica,sans-Serif" font-size="10.00">isPrimary_</text>
<text text-anchor="start" x="4" y="-1036.5" font-family="Helvetica,sans-Serif" font-size="10.00">+</text>
<text text-anchor="start" x="14" y="-1036.5" font-family="Helvetica,sans-Serif" font-size="10.00">Particle()</text>
<text text-anchor="start" x="4" y="-1021.5" font-family="Helvetica,sans-Serif" font-size="10.00">+</text>
<text text-anchor="start" x="14" y="-1021.5" font-family="Helvetica,sans-Serif" font-size="10.00">Particle()</text>
<text text-anchor="start" x="4" y="-1006.5" font-family="Helvetica,sans-Serif" font-size="10.00">+</text>
<text text-anchor="start" x="14" y="-1006.5" font-family="Helvetica,sans-Serif" font-size="10.00">getPosition()</text>
<text text-anchor="start" x="4" y="-991.5" font-family="Helvetica,sans-Serif" font-size="10.00">+</text>
<text text-anchor="start" x="14" y="-991.5" font-family="Helvetica,sans-Serif" font-size="10.00">getDirection()</text>
<text text-anchor="start" x="4" y="-976.5" font-family="Helvetica,sans-Serif" font-size="10.00">+</text>
<text text-anchor="start" x="14" y="-976.5" font-family="Helvetica,sans-Serif" font-size="10.00">getEnergy()</text>
<text text-anchor="start" x="4" y="-961.5" font-family="Helvetica,sans-Serif" font-size="10.00">+</text>
<text text-anchor="start" x="14" y="-961.5" font-family="Helvetica,sans-Serif" font-size="10.00">move()</text>
<text text-anchor="start" x="4" y="-946.5" font-family="Helvetica,sans-Serif" font-size="10.00">+</text>
<text text-anchor="start" x="14" y="-946.5" font-family="Helvetica,sans-Serif" font-size="10.00">setDirection()</text>
<text text-anchor="start" x="4" y="-931.5" font-family="Helvetica,sans-Serif" font-size="10.00">+</text>
<text text-anchor="start" x="14" y="-931.5" font-family="Helvetica,sans-Serif" font-size="10.00">rotate()</text>
<text text-anchor="start" x="4" y="-916.5" font-family="Helvetica,sans-Serif" font-size="10.00">+</text>
<text text-anchor="start" x="14" y="-916.5" font-family="Helvetica,sans-Serif" font-size="10.00">setEnergy()</text>
<text text-anchor="start" x="4" y="-901.5" font-family="Helvetica,sans-Serif" font-size="10.00">+</text>
<text text-anchor="start" x="14" y="-901.5" font-family="Helvetica,sans-Serif" font-size="10.00">isTerminated()</text>
<text text-anchor="start" x="4" y="-886.5" font-family="Helvetica,sans-Serif" font-size="10.00">+</text>
<text text-anchor="start" x="14" y="-886.5" font-family="Helvetica,sans-Serif" font-size="10.00">terminate()</text>
<text text-anchor="start" x="4" y="-871.5" font-family="Helvetica,sans-Serif" font-size="10.00">+</text>
<text text-anchor="start" x="14" y="-871.5" font-family="Helvetica,sans-Serif" font-size="10.00">isPrimary()</text>
<text text-anchor="start" x="4" y="-856.5" font-family="Helvetica,sans-Serif" font-size="10.00">+</text>
<text text-anchor="start" x="14" y="-856.5" font-family="Helvetica,sans-Serif" font-size="10.00">setPrimary()</text>
<polygon fill="#666666" stroke="#666666" points="0,-1123 0,-1123 80,-1123 80,-1123 0,-1123"/>
<polygon fill="#666666" stroke="#666666" points="0,-1048 0,-1048 12,-1048 12,-1048 0,-1048"/>
<polygon fill="#666666" stroke="#666666" points="12,-1048 12,-1048 80,-1048 80,-1048 12,-1048"/>
<polygon fill="none" stroke="#666666" points="0,-851 0,-1140 80,-1140 80,-851 0,-851"/>
</a>
</g>
</g>
<!-- Node5&#45;&gt;Node4 -->
<g id="edge4_Node000004_Node000005" class="edge">
<title>Node5&#45;&gt;Node4</title>
<g id="a_edge4_Node000004_Node000005"><a xlink:title=" ">
<path fill="none" stroke="#63b8ff" d="M72.62,-840.26C75.28,-827.68 77.9,-815.29 80.39,-803.54"/>
<polygon fill="none" stroke="#63b8ff" points="69.23,-839.36 70.59,-849.87 76.08,-840.81 69.23,-839.36"/>
</a>
</g>
</g>
<!-- Node6 -->
<g id="Node000006" class="node">
<title>Node6</title>
<g id="a_Node000006"><a xlink:href="struct_photon_scattering_history.html" target="_top" xlink:title="Struct which contains the scattering history of a photon.">
<polygon fill="white" stroke="none" points="213.5,-1035 98.5,-1035 98.5,-956 213.5,-956 213.5,-1035"/>
<text text-anchor="start" x="103.12" y="-1021.5" font-family="Helvetica,sans-Serif" font-size="10.00">PhotonScatteringHistory</text>
<text text-anchor="start" x="115.5" y="-1006.5" font-family="Helvetica,sans-Serif" font-size="10.00">+</text>
<text text-anchor="start" x="138.5" y="-1006.5" font-family="Helvetica,sans-Serif" font-size="10.00">coherent</text>
<text text-anchor="start" x="115.5" y="-991.5" font-family="Helvetica,sans-Serif" font-size="10.00">+</text>
<text text-anchor="start" x="138.5" y="-991.5" font-family="Helvetica,sans-Serif" font-size="10.00">incoherent</text>
<text text-anchor="start" x="115.5" y="-976.5" font-family="Helvetica,sans-Serif" font-size="10.00">+</text>
<text text-anchor="start" x="138.5" y="-976.5" font-family="Helvetica,sans-Serif" font-size="10.00">total</text>
<text text-anchor="start" x="154.5" y="-961.5" font-family="Helvetica,sans-Serif" font-size="10.00"> </text>
<polygon fill="#666666" stroke="#666666" points="98.5,-1018 98.5,-1018 213.5,-1018 213.5,-1018 98.5,-1018"/>
<polygon fill="#666666" stroke="#666666" points="98.5,-973 98.5,-973 136.5,-973 136.5,-973 98.5,-973"/>
<polygon fill="#666666" stroke="#666666" points="136.5,-973 136.5,-973 213.5,-973 213.5,-973 136.5,-973"/>
<polygon fill="none" stroke="#666666" points="98.5,-956 98.5,-1035 213.5,-1035 213.5,-956 98.5,-956"/>
</a>
</g>
</g>
<!-- Node6&#45;&gt;Node4 -->
<g id="edge5_Node000004_Node000006" class="edge">
<title>Node6&#45;&gt;Node4</title>
<g id="a_edge5_Node000004_Node000006"><a xlink:title=" ">
<path fill="none" stroke="#63b8ff" d="M147.87,-956.08C140.23,-919.95 128.48,-864.37 118.3,-816.24"/>
<polygon fill="none" stroke="#63b8ff" points="118.28,-816.15 113.13,-811.11 115.8,-804.41 120.95,-809.46 118.28,-816.15"/>
</a>
</g>
<text text-anchor="middle" x="164.5" y="-823.5" font-family="Helvetica,sans-Serif" font-size="10.00" fill="grey"> &#45;scattering_history_</text>
</g>
<!-- Node7 -->
<g id="Node000007" class="node">
<title>Node7</title>
<g id="a_Node000007"><a xlink:href="class_surface_quantity_container.html" target="_top" xlink:title="Class which represents a container for surface quantities.">
<polygon fill="white" stroke="none" points="291.5,-587.5 170.5,-587.5 170.5,-388.5 291.5,-388.5 291.5,-587.5"/>
<text text-anchor="start" x="175.5" y="-574" font-family="Helvetica,sans-Serif" font-size="10.00">SurfaceQuantityContainer</text>
<text text-anchor="start" x="178.5" y="-559" font-family="Helvetica,sans-Serif" font-size="10.00">&#45;</text>
<text text-anchor="start" x="189.5" y="-559" font-family="Helvetica,sans-Serif" font-size="10.00">vector_quantities_</text>
<text text-anchor="start" x="178.5" y="-544" font-family="Helvetica,sans-Serif" font-size="10.00">&#45;</text>
<text text-anchor="start" x="189.5" y="-544" font-family="Helvetica,sans-Serif" font-size="10.00">count_quantities_</text>
<text text-anchor="start" x="178.5" y="-529" font-family="Helvetica,sans-Serif" font-size="10.00">&#45;</text>
<text text-anchor="start" x="189.5" y="-529" font-family="Helvetica,sans-Serif" font-size="10.00">area_</text>
<text text-anchor="start" x="177" y="-514" font-family="Helvetica,sans-Serif" font-size="10.00">+</text>
<text text-anchor="start" x="189.5" y="-514" font-family="Helvetica,sans-Serif" font-size="10.00">addVectorQuantity()</text>
<text text-anchor="start" x="177" y="-499" font-family="Helvetica,sans-Serif" font-size="10.00">+</text>
<text text-anchor="start" x="189.5" y="-499" font-family="Helvetica,sans-Serif" font-size="10.00">addCountQuantity()</text>
<text text-anchor="start" x="177" y="-484" font-family="Helvetica,sans-Serif" font-size="10.00">+</text>
<text text-anchor="start" x="189.5" y="-484" font-family="Helvetica,sans-Serif" font-size="10.00">measureAll()</text>
<text text-anchor="start" x="177" y="-469" font-family="Helvetica,sans-Serif" font-size="10.00">+</text>
<text text-anchor="start" x="189.5" y="-469" font-family="Helvetica,sans-Serif" font-size="10.00">operator+()</text>
<text text-anchor="start" x="177" y="-454" font-family="Helvetica,sans-Serif" font-size="10.00">+</text>
<text text-anchor="start" x="189.5" y="-454" font-family="Helvetica,sans-Serif" font-size="10.00">clear()</text>
<text text-anchor="start" x="177" y="-439" font-family="Helvetica,sans-Serif" font-size="10.00">+</text>
<text text-anchor="start" x="189.5" y="-439" font-family="Helvetica,sans-Serif" font-size="10.00">getVectorQuantities()</text>
<text text-anchor="start" x="177" y="-424" font-family="Helvetica,sans-Serif" font-size="10.00">+</text>
<text text-anchor="start" x="189.5" y="-424" font-family="Helvetica,sans-Serif" font-size="10.00">getCountQuantities()</text>
<text text-anchor="start" x="177" y="-409" font-family="Helvetica,sans-Serif" font-size="10.00">+</text>
<text text-anchor="start" x="189.5" y="-409" font-family="Helvetica,sans-Serif" font-size="10.00">setArea()</text>
<text text-anchor="start" x="177" y="-394" font-family="Helvetica,sans-Serif" font-size="10.00">+</text>
<text text-anchor="start" x="189.5" y="-394" font-family="Helvetica,sans-Serif" font-size="10.00">getArea()</text>
<polygon fill="#666666" stroke="#666666" points="170.5,-570.5 170.5,-570.5 291.5,-570.5 291.5,-570.5 170.5,-570.5"/>
<polygon fill="#666666" stroke="#666666" points="170.5,-525.5 170.5,-525.5 187.5,-525.5 187.5,-525.5 170.5,-525.5"/>
<polygon fill="#666666" stroke="#666666" points="187.5,-525.5 187.5,-525.5 291.5,-525.5 291.5,-525.5 187.5,-525.5"/>
<polygon fill="none" stroke="#666666" points="170.5,-388.5 170.5,-587.5 291.5,-587.5 291.5,-388.5 170.5,-388.5"/>
</a>
</g>
</g>
<!-- Node7&#45;&gt;Node2 -->
<g id="edge6_Node000002_Node000007" class="edge">
<title>Node7&#45;&gt;Node2</title>
<g id="a_edge6_Node000002_Node000007"><a xlink:title=" ">
<path fill="none" stroke="#63b8ff" d="M212.04,-388.68C208.94,-374.96 205.57,-361.08 202,-348 201.46,-346.04 200.91,-344.06 200.35,-342.07"/>
<polygon fill="none" stroke="#63b8ff" points="200.36,-342.12 194.83,-337.49 196.98,-330.61 202.51,-335.23 200.36,-342.12"/>
</a>
</g>
<text text-anchor="middle" x="253.12" y="-355.38" font-family="Helvetica,sans-Serif" font-size="10.00" fill="grey"> #surface_quantities_</text>
</g>
</g>
</svg>
