<?xml version="1.0" encoding="UTF-8" standalone="no"?>
<!DOCTYPE svg PUBLIC "-//W3C//DTD SVG 1.1//EN"
 "http://www.w3.org/Graphics/SVG/1.1/DTD/svg11.dtd">
<!-- Generated by graphviz version 9.0.0 (20230911.1827)
 -->
<!-- Title: DatabaseException Pages: 1 -->
<svg width="115pt" height="157pt"
 viewBox="0.00 0.00 115.00 157.00" xmlns="http://www.w3.org/2000/svg" xmlns:xlink="http://www.w3.org/1999/xlink">

<svg id="main" version="1.1" xmlns="http://www.w3.org/2000/svg" xmlns:xlink="http://www.w3.org/1999/xlink" xml:space="preserve" onload="init(evt)">
<style type="text/css"><![CDATA[
.node, .edge {opacity: 0.7;}
.node.selected, .edge.selected {opacity: 1;}
.edge:hover path { stroke: red; }
.edge:hover polygon { stroke: red; fill: red; }
]]></style>
<script type="application/ecmascript" xlink:href="svg.min.js"/>
<svg id="graph" class="graph">
<g id="graph0" class="graph" transform="scale(1 1) rotate(0) translate(4 153)">
<title>DatabaseException</title>
<!-- Node1 -->
<g id="Node000001" class="node">
<title>Node1</title>
<g id="a_Node000001"><a xlink:title="Exception class for database errors.">
<polygon fill="#999999" stroke="none" points="107,-64 0,-64 0,0 107,0 107,-64"/>
<text text-anchor="start" x="11.88" y="-50.5" font-family="Helvetica,sans-Serif" font-size="10.00">DatabaseException</text>
<text text-anchor="start" x="5.5" y="-35.5" font-family="Helvetica,sans-Serif" font-size="10.00">&#45;</text>
<text text-anchor="start" x="14" y="-35.5" font-family="Helvetica,sans-Serif" font-size="10.00">msg_</text>
<text text-anchor="start" x="4" y="-20.5" font-family="Helvetica,sans-Serif" font-size="10.00">+</text>
<text text-anchor="start" x="14" y="-20.5" font-family="Helvetica,sans-Serif" font-size="10.00">DatabaseException()</text>
<text text-anchor="start" x="4" y="-5.5" font-family="Helvetica,sans-Serif" font-size="10.00">+</text>
<text text-anchor="start" x="14" y="-5.5" font-family="Helvetica,sans-Serif" font-size="10.00">what()</text>
<polygon fill="#666666" stroke="#666666" points="0,-47 0,-47 107,-47 107,-47 0,-47"/>
<polygon fill="#666666" stroke="#666666" points="0,-32 0,-32 12,-32 12,-32 0,-32"/>
<polygon fill="#666666" stroke="#666666" points="12,-32 12,-32 107,-32 107,-32 12,-32"/>
<polygon fill="none" stroke="#666666" points="0,0 0,-64 107,-64 107,0 0,0"/>
</a>
</g>
</g>
<!-- Node2 -->
<g id="Node000002" class="node">
<title>Node2</title>
<g id="a_Node000002"><a xlink:title=" ">
<polygon fill="white" stroke="none" points="88,-149 19,-149 19,-100 88,-100 88,-149"/>
<text text-anchor="start" x="23.88" y="-135.5" font-family="Helvetica,sans-Serif" font-size="10.00">std::exception</text>
<text text-anchor="start" x="52" y="-120.5" font-family="Helvetica,sans-Serif" font-size="10.00"> </text>
<text text-anchor="start" x="52" y="-105.5" font-family="Helvetica,sans-Serif" font-size="10.00"> </text>
<polygon fill="#bfbfbf" stroke="#bfbfbf" points="19,-132 19,-132 88,-132 88,-132 19,-132"/>
<polygon fill="#bfbfbf" stroke="#bfbfbf" points="19,-117 19,-117 88,-117 88,-117 19,-117"/>
<polygon fill="none" stroke="#bfbfbf" points="19,-100 19,-149 88,-149 88,-100 19,-100"/>
</a>
</g>
</g>
<!-- Node2&#45;&gt;Node1 -->
<g id="edge1_Node000001_Node000002" class="edge">
<title>Node2&#45;&gt;Node1</title>
<g id="a_edge1_Node000001_Node000002"><a xlink:title=" ">
<path fill="none" stroke="#63b8ff" d="M53.5,-88.93C53.5,-80.64 53.5,-71.84 53.5,-63.74"/>
<polygon fill="none" stroke="#63b8ff" points="50,-88.68 53.5,-98.68 57,-88.68 50,-88.68"/>
</a>
</g>
</g>
</g>
</svg>
</svg>

<style type='text/css'>
<![CDATA[
[data-mouse-over-selected='false'] { opacity: 0.7; }
[data-mouse-over-selected='true']  { opacity: 1.0; }
]]>
</style>
<script type="application/ecmascript"><![CDATA[
document.addEventListener('DOMContentLoaded', (event) => {
  highlightEdges();
  highlightAdjacentNodes();
});
]]></script>
</svg>
