<?xml version="1.0" encoding="UTF-8" standalone="no"?>
<!DOCTYPE svg PUBLIC "-//W3C//DTD SVG 1.1//EN"
 "http://www.w3.org/Graphics/SVG/1.1/DTD/svg11.dtd">
<!-- Generated by graphviz version 9.0.0 (20230911.1827)
 -->
<!-- Title: BeamDirectionality Pages: 1 -->
<svg width="116pt" height="172pt"
 viewBox="0.00 0.00 116.00 172.00" xmlns="http://www.w3.org/2000/svg" xmlns:xlink="http://www.w3.org/1999/xlink">

<svg id="main" version="1.1" xmlns="http://www.w3.org/2000/svg" xmlns:xlink="http://www.w3.org/1999/xlink" xml:space="preserve" onload="init(evt)">
<style type="text/css"><![CDATA[
.node, .edge {opacity: 0.7;}
.node.selected, .edge.selected {opacity: 1;}
.edge:hover path { stroke: red; }
.edge:hover polygon { stroke: red; fill: red; }
]]></style>
<script type="application/ecmascript" xlink:href="svg.min.js"/>
<svg id="graph" class="graph">
<g id="graph0" class="graph" transform="scale(1 1) rotate(0) translate(4 168)">
<title>BeamDirectionality</title>
<!-- Node1 -->
<g id="Node000001" class="node">
<title>Node1</title>
<g id="a_Node000001"><a xlink:title="Class which represents a beam directionality.">
<polygon fill="#999999" stroke="none" points="108,-64 0,-64 0,0 108,0 108,-64"/>
<text text-anchor="start" x="13.5" y="-50.5" font-family="Helvetica,sans-Serif" font-size="10.00">BeamDirectionality</text>
<text text-anchor="start" x="5.5" y="-35.5" font-family="Helvetica,sans-Serif" font-size="10.00">&#45;</text>
<text text-anchor="start" x="14" y="-35.5" font-family="Helvetica,sans-Serif" font-size="10.00">pass_through_point_</text>
<text text-anchor="start" x="4" y="-20.5" font-family="Helvetica,sans-Serif" font-size="10.00">+</text>
<text text-anchor="start" x="14" y="-20.5" font-family="Helvetica,sans-Serif" font-size="10.00">BeamDirectionality()</text>
<text text-anchor="start" x="4" y="-5.5" font-family="Helvetica,sans-Serif" font-size="10.00">+</text>
<text text-anchor="start" x="14" y="-5.5" font-family="Helvetica,sans-Serif" font-size="10.00">sampleDirection()</text>
<polygon fill="#666666" stroke="#666666" points="0,-47 0,-47 108,-47 108,-47 0,-47"/>
<polygon fill="#666666" stroke="#666666" points="0,-32 0,-32 12,-32 12,-32 0,-32"/>
<polygon fill="#666666" stroke="#666666" points="12,-32 12,-32 108,-32 108,-32 12,-32"/>
<polygon fill="none" stroke="#666666" points="0,0 0,-64 108,-64 108,0 0,0"/>
</a>
</g>
</g>
<!-- Node2 -->
<g id="Node000002" class="node">
<title>Node2</title>
<g id="a_Node000002"><a xlink:href="class_directionality.html" target="_top" xlink:title="Virtual class which represents a directionality for a photon source.">
<polygon fill="white" stroke="none" points="100.5,-164 7.5,-164 7.5,-100 100.5,-100 100.5,-164"/>
<text text-anchor="start" x="26.25" y="-150.5" font-family="Helvetica,sans-Serif" font-size="10.00">Directionality</text>
<text text-anchor="start" x="52.5" y="-135.5" font-family="Helvetica,sans-Serif" font-size="10.00"> </text>
<text text-anchor="start" x="11.5" y="-120.5" font-family="Helvetica,sans-Serif" font-size="10.00">+</text>
<text text-anchor="start" x="21.5" y="-120.5" font-family="Helvetica,sans-Serif" font-size="10.00">sampleDirection()</text>
<text text-anchor="start" x="11.5" y="-105.5" font-family="Helvetica,sans-Serif" font-size="10.00">+</text>
<text text-anchor="start" x="21.5" y="-105.5" font-family="Helvetica,sans-Serif" font-size="10.00">~Directionality()</text>
<polygon fill="#666666" stroke="#666666" points="7.5,-147 7.5,-147 100.5,-147 100.5,-147 7.5,-147"/>
<polygon fill="#666666" stroke="#666666" points="7.5,-132 7.5,-132 100.5,-132 100.5,-132 7.5,-132"/>
<polygon fill="none" stroke="#666666" points="7.5,-100 7.5,-164 100.5,-164 100.5,-100 7.5,-100"/>
</a>
</g>
</g>
<!-- Node2&#45;&gt;Node1 -->
<g id="edge1_Node000001_Node000002" class="edge">
<title>Node2&#45;&gt;Node1</title>
<g id="a_edge1_Node000001_Node000002"><a xlink:title=" ">
<path fill="none" stroke="#63b8ff" d="M54,-88.77C54,-80.44 54,-71.84 54,-63.97"/>
<polygon fill="none" stroke="#63b8ff" points="50.5,-88.75 54,-98.75 57.5,-88.75 50.5,-88.75"/>
</a>
</g>
</g>
</g>
</svg>
</svg>

<style type='text/css'>
<![CDATA[
[data-mouse-over-selected='false'] { opacity: 0.7; }
[data-mouse-over-selected='true']  { opacity: 1.0; }
]]>
</style>
<script type="application/ecmascript"><![CDATA[
document.addEventListener('DOMContentLoaded', (event) => {
  highlightEdges();
  highlightAdjacentNodes();
});
]]></script>
</svg>
