<?xml version="1.0" encoding="UTF-8" standalone="no"?>
<!DOCTYPE svg PUBLIC "-//W3C//DTD SVG 1.1//EN"
 "http://www.w3.org/Graphics/SVG/1.1/DTD/svg11.dtd">
<!-- Generated by graphviz version 9.0.0 (20230911.1827)
 -->
<!-- Title: CoherentScattering Pages: 1 -->
<svg width="154pt" height="314pt"
 viewBox="0.00 0.00 154.00 314.25" xmlns="http://www.w3.org/2000/svg" xmlns:xlink="http://www.w3.org/1999/xlink">
<g id="graph0" class="graph" transform="scale(1 1) rotate(0) translate(4 310.25)">
<title>CoherentScattering</title>
<!-- Node1 -->
<g id="Node000001" class="node">
<title>Node1</title>
<g id="a_Node000001"><a xlink:title="Class which represents the coherent scattering interaction.">
<polygon fill="#999999" stroke="none" points="119.5,-49 26.5,-49 26.5,0 119.5,0 119.5,-49"/>
<text text-anchor="start" x="31.38" y="-35.5" font-family="Helvetica,sans-Serif" font-size="10.00">CoherentScattering</text>
<text text-anchor="start" x="71.5" y="-20.5" font-family="Helvetica,sans-Serif" font-size="10.00"> </text>
<text text-anchor="start" x="39.5" y="-5.5" font-family="Helvetica,sans-Serif" font-size="10.00">+</text>
<text text-anchor="start" x="58.5" y="-5.5" font-family="Helvetica,sans-Serif" font-size="10.00">interact()</text>
<polygon fill="#666666" stroke="#666666" points="26.5,-32 26.5,-32 119.5,-32 119.5,-32 26.5,-32"/>
<polygon fill="#666666" stroke="#666666" points="26.5,-17 26.5,-17 119.5,-17 119.5,-17 26.5,-17"/>
<polygon fill="none" stroke="#666666" points="26.5,0 26.5,-49 119.5,-49 119.5,0 26.5,0"/>
</a>
</g>
</g>
<!-- Node2 -->
<g id="Node000002" class="node">
<title>Node2</title>
<g id="a_Node000002"><a xlink:href="class_particle_interaction_behavior.html" target="_top" xlink:title="Virtual class which represents the behavior of a particle when it interacts with a material.">
<polygon fill="white" stroke="none" points="146,-150 0,-150 0,-86 146,-86 146,-150"/>
<text text-anchor="start" x="14.5" y="-136.5" font-family="Helvetica,sans-Serif" font-size="10.00">ParticleInteractionBehavior</text>
<text text-anchor="start" x="71.5" y="-121.5" font-family="Helvetica,sans-Serif" font-size="10.00"> </text>
<text text-anchor="start" x="4" y="-106.5" font-family="Helvetica,sans-Serif" font-size="10.00">+</text>
<text text-anchor="start" x="14" y="-106.5" font-family="Helvetica,sans-Serif" font-size="10.00">~ParticleInteractionBehavior()</text>
<text text-anchor="start" x="4" y="-91.5" font-family="Helvetica,sans-Serif" font-size="10.00">+</text>
<text text-anchor="start" x="14" y="-91.5" font-family="Helvetica,sans-Serif" font-size="10.00">interact()</text>
<polygon fill="#666666" stroke="#666666" points="0,-133 0,-133 146,-133 146,-133 0,-133"/>
<polygon fill="#666666" stroke="#666666" points="0,-118 0,-118 146,-118 146,-118 0,-118"/>
<polygon fill="none" stroke="#666666" points="0,-86 0,-150 146,-150 146,-86 0,-86"/>
</a>
</g>
</g>
<!-- Node2&#45;&gt;Node1 -->
<g id="edge1_Node000001_Node000002" class="edge">
<title>Node2&#45;&gt;Node1</title>
<g id="a_edge1_Node000001_Node000002"><a xlink:title=" ">
<path fill="none" stroke="#63b8ff" d="M73,-74.61C73,-65.77 73,-56.77 73,-48.92"/>
<polygon fill="none" stroke="#63b8ff" points="69.5,-74.51 73,-84.51 76.5,-74.51 69.5,-74.51"/>
</a>
</g>
</g>
<!-- Node3 -->
<g id="Node000003" class="node">
<title>Node3</title>
<g id="a_Node000003"><a xlink:href="class_probability_dist_1_1_uniform.html" target="_top" xlink:title="Class which represents a uniform distribution.">
<polygon fill="white" stroke="none" points="128.5,-306.25 17.5,-306.25 17.5,-197.25 128.5,-197.25 128.5,-306.25"/>
<text text-anchor="start" x="22.38" y="-292.75" font-family="Helvetica,sans-Serif" font-size="10.00">ProbabilityDist::Uniform</text>
<text text-anchor="start" x="34.5" y="-277.75" font-family="Helvetica,sans-Serif" font-size="10.00">&#45;</text>
<text text-anchor="start" x="54.5" y="-277.75" font-family="Helvetica,sans-Serif" font-size="10.00">dist_</text>
<text text-anchor="start" x="34.5" y="-262.75" font-family="Helvetica,sans-Serif" font-size="10.00">&#45;</text>
<text text-anchor="start" x="54.5" y="-262.75" font-family="Helvetica,sans-Serif" font-size="10.00">generator_</text>
<text text-anchor="start" x="33" y="-247.75" font-family="Helvetica,sans-Serif" font-size="10.00">+</text>
<text text-anchor="start" x="54.5" y="-247.75" font-family="Helvetica,sans-Serif" font-size="10.00">Uniform()</text>
<text text-anchor="start" x="33" y="-232.75" font-family="Helvetica,sans-Serif" font-size="10.00">+</text>
<text text-anchor="start" x="54.5" y="-232.75" font-family="Helvetica,sans-Serif" font-size="10.00">Uniform()</text>
<text text-anchor="start" x="33" y="-217.75" font-family="Helvetica,sans-Serif" font-size="10.00">+</text>
<text text-anchor="start" x="54.5" y="-217.75" font-family="Helvetica,sans-Serif" font-size="10.00">sample()</text>
<text text-anchor="start" x="33" y="-202.75" font-family="Helvetica,sans-Serif" font-size="10.00">+</text>
<text text-anchor="start" x="54.5" y="-202.75" font-family="Helvetica,sans-Serif" font-size="10.00">setRange()</text>
<polygon fill="#666666" stroke="#666666" points="17.5,-289.25 17.5,-289.25 128.5,-289.25 128.5,-289.25 17.5,-289.25"/>
<polygon fill="#666666" stroke="#666666" points="17.5,-259.25 17.5,-259.25 52.5,-259.25 52.5,-259.25 17.5,-259.25"/>
<polygon fill="#666666" stroke="#666666" points="52.5,-259.25 52.5,-259.25 128.5,-259.25 128.5,-259.25 52.5,-259.25"/>
<polygon fill="none" stroke="#666666" points="17.5,-197.25 17.5,-306.25 128.5,-306.25 128.5,-197.25 17.5,-197.25"/>
</a>
</g>
</g>
<!-- Node3&#45;&gt;Node2 -->
<g id="edge2_Node000002_Node000003" class="edge">
<title>Node3&#45;&gt;Node2</title>
<g id="a_edge2_Node000002_Node000003"><a xlink:title=" ">
<path fill="none" stroke="#63b8ff" d="M73,-197.54C73,-185.97 73,-173.85 73,-162.69"/>
<polygon fill="none" stroke="#63b8ff" points="73,-162.56 69,-156.56 73,-150.56 77,-156.56 73,-162.56"/>
</a>
</g>
<text text-anchor="middle" x="106" y="-169.75" font-family="Helvetica,sans-Serif" font-size="10.00" fill="grey"> #uniform_dist_</text>
</g>
</g>
</svg>
