<?xml version="1.0" encoding="UTF-8" standalone="no"?>
<!DOCTYPE svg PUBLIC "-//W3C//DTD SVG 1.1//EN"
 "http://www.w3.org/Graphics/SVG/1.1/DTD/svg11.dtd">
<!-- Generated by graphviz version 9.0.0 (20230911.1827)
 -->
<!-- Title: PolyenergeticSpectrum Pages: 1 -->
<!--zoomable 456 -->

<svg id="main" version="1.1" xmlns="http://www.w3.org/2000/svg" xmlns:xlink="http://www.w3.org/1999/xlink" xml:space="preserve" onload="init(evt)">
<style type="text/css"><![CDATA[
.node, .edge {opacity: 0.7;}
.node.selected, .edge.selected {opacity: 1;}
.edge:hover path { stroke: red; }
.edge:hover polygon { stroke: red; fill: red; }
]]></style>

<defs>
  <circle id="rim" cx="0" cy="0" r="7"/>
  <circle id="rim2" cx="0" cy="0" r="3.5"/>
  <g id="zoomPlus">
    <use xlink:href="#rim" fill="#404040"><set attributeName="fill" to="#808080" begin="zoomplus.mouseover" end="zoomplus.mouseout"/></use>
    <path d="M-4,0h8M0,-4v8" fill="none" stroke="white" stroke-width="1.5" pointer-events="none"/>
  </g>
  <g id="zoomMin">
    <use xlink:href="#rim" fill="#404040"><set attributeName="fill" to="#808080" begin="zoomminus.mouseover" end="zoomminus.mouseout"/></use>
    <path d="M-4,0h8" fill="none" stroke="white" stroke-width="1.5" pointer-events="none"/>
  </g>
  <g id="arrowUp" transform="translate(30 24)">
    <use xlink:href="#rim"/>
    <path pointer-events="none" fill="none" stroke="white" stroke-width="1.5" d="M0,-3.0v7 M-2.5,-0.5L0,-3.0L2.5,-0.5"/>
  </g>
  <g id="arrowRight" transform="rotate(90) translate(36 -43)">
    <use xlink:href="#rim"/>
    <path pointer-events="none" fill="none" stroke="white" stroke-width="1.5" d="M0,-3.0v7 M-2.5,-0.5L0,-3.0L2.5,-0.5"/>
  </g>
  <g id="arrowDown" transform="rotate(180) translate(-30 -48)">
    <use xlink:href="#rim"/>
    <path pointer-events="none" fill="none" stroke="white" stroke-width="1.5" d="M0,-3.0v7 M-2.5,-0.5L0,-3.0L2.5,-0.5"/>
  </g>
  <g id="arrowLeft" transform="rotate(270) translate(-36 17)">
    <use xlink:href="#rim"/>
    <path pointer-events="none" fill="none" stroke="white" stroke-width="1.5" d="M0,-3.0v7 M-2.5,-0.5L0,-3.0L2.5,-0.5"/>
  </g>
  <g id="resetDef">
    <use xlink:href="#rim2" fill="#404040"><set attributeName="fill" to="#808080" begin="reset.mouseover" end="reset.mouseout"/></use>
  </g>
</defs>
<script type="application/ecmascript">
var viewWidth = 246;
var viewHeight = 456;
var sectionId = 'dynsection-0';
</script>
<script type="application/ecmascript" xlink:href="svg.min.js"/>
<svg id="graph" class="graph">
<g id="viewport">
<title>PolyenergeticSpectrum</title>
<!-- Node1 -->
<g id="Node000001" class="node">
<title>Node1</title>
<g id="a_Node000001"><a xlink:title="Class which represents a polyenergetic energy spectrum.">
<polygon fill="#999999" stroke="none" points="151,-79 27,-79 27,0 151,0 151,-79"/>
<text text-anchor="start" x="38.75" y="-65.5" font-family="Helvetica,sans-Serif" font-size="10.00">PolyenergeticSpectrum</text>
<text text-anchor="start" x="32.5" y="-50.5" font-family="Helvetica,sans-Serif" font-size="10.00">&#45;</text>
<text text-anchor="start" x="41" y="-50.5" font-family="Helvetica,sans-Serif" font-size="10.00">probabilities_matrix_</text>
<text text-anchor="start" x="31" y="-35.5" font-family="Helvetica,sans-Serif" font-size="10.00">+</text>
<text text-anchor="start" x="41" y="-35.5" font-family="Helvetica,sans-Serif" font-size="10.00">PolyenergeticSpectrum()</text>
<text text-anchor="start" x="31" y="-20.5" font-family="Helvetica,sans-Serif" font-size="10.00">+</text>
<text text-anchor="start" x="41" y="-20.5" font-family="Helvetica,sans-Serif" font-size="10.00">sampleEnergy()</text>
<text text-anchor="start" x="31" y="-5.5" font-family="Helvetica,sans-Serif" font-size="10.00">+</text>
<text text-anchor="start" x="41" y="-5.5" font-family="Helvetica,sans-Serif" font-size="10.00">getExpectationValue()</text>
<polygon fill="#666666" stroke="#666666" points="27,-62 27,-62 151,-62 151,-62 27,-62"/>
<polygon fill="#666666" stroke="#666666" points="27,-47 27,-47 39,-47 39,-47 27,-47"/>
<polygon fill="#666666" stroke="#666666" points="39,-47 39,-47 151,-47 151,-47 39,-47"/>
<polygon fill="none" stroke="#666666" points="27,0 27,-79 151,-79 151,0 27,0"/>
</a>
</g>
</g>
<!-- Node2 -->
<g id="Node000002" class="node">
<title>Node2</title>
<g id="a_Node000002"><a xlink:href="class_energy_spectrum.html" target="_top" xlink:title="Virtual class which represents an energy spectrum for a photon source.">
<polygon fill="white" stroke="none" points="100,-240.75 0,-240.75 0,-176.75 100,-176.75 100,-240.75"/>
<text text-anchor="start" x="14.38" y="-227.25" font-family="Helvetica,sans-Serif" font-size="10.00">EnergySpectrum</text>
<text text-anchor="start" x="48.5" y="-212.25" font-family="Helvetica,sans-Serif" font-size="10.00"> </text>
<text text-anchor="start" x="4" y="-197.25" font-family="Helvetica,sans-Serif" font-size="10.00">+</text>
<text text-anchor="start" x="14" y="-197.25" font-family="Helvetica,sans-Serif" font-size="10.00">sampleEnergy()</text>
<text text-anchor="start" x="4" y="-182.25" font-family="Helvetica,sans-Serif" font-size="10.00">+</text>
<text text-anchor="start" x="14" y="-182.25" font-family="Helvetica,sans-Serif" font-size="10.00">~EnergySpectrum()</text>
<polygon fill="#666666" stroke="#666666" points="0,-223.75 0,-223.75 100,-223.75 100,-223.75 0,-223.75"/>
<polygon fill="#666666" stroke="#666666" points="0,-208.75 0,-208.75 100,-208.75 100,-208.75 0,-208.75"/>
<polygon fill="none" stroke="#666666" points="0,-176.75 0,-240.75 100,-240.75 100,-176.75 0,-176.75"/>
</a>
</g>
</g>
<!-- Node2&#45;&gt;Node1 -->
<g id="edge1_Node000001_Node000002" class="edge">
<title>Node2&#45;&gt;Node1</title>
<g id="a_edge1_Node000001_Node000002"><a xlink:title=" ">
<path fill="none" stroke="#63b8ff" d="M59.7,-166.14C65.93,-139.43 73.96,-104.99 80.04,-78.92"/>
<polygon fill="none" stroke="#63b8ff" points="56.36,-165.07 57.5,-175.6 63.18,-166.66 56.36,-165.07"/>
</a>
</g>
</g>
<!-- Node3 -->
<g id="Node000003" class="node">
<title>Node3</title>
<g id="a_Node000003"><a xlink:href="class_probability_dist_1_1_discrete_inversion.html" target="_top" xlink:title="Class which uses inversion sampling to sample from a discrete distribution.">
<polygon fill="white" stroke="none" points="230,-291.25 118,-291.25 118,-126.25 230,-126.25 230,-291.25"/>
<text text-anchor="start" x="122.62" y="-277.75" font-family="Helvetica,sans-Serif" font-size="10.00">ProbabilityDist::Discrete</text>
<text text-anchor="start" x="154.12" y="-266.5" font-family="Helvetica,sans-Serif" font-size="10.00">Inversion</text>
<text text-anchor="start" x="123.5" y="-251.75" font-family="Helvetica,sans-Serif" font-size="10.00">&#45;</text>
<text text-anchor="start" x="132" y="-251.75" font-family="Helvetica,sans-Serif" font-size="10.00">probabilities_matrix_</text>
<text text-anchor="start" x="123.5" y="-236.75" font-family="Helvetica,sans-Serif" font-size="10.00">&#45;</text>
<text text-anchor="start" x="132" y="-236.75" font-family="Helvetica,sans-Serif" font-size="10.00">cdf_matrix_</text>
<text text-anchor="start" x="123.5" y="-221.75" font-family="Helvetica,sans-Serif" font-size="10.00">&#45;</text>
<text text-anchor="start" x="132" y="-221.75" font-family="Helvetica,sans-Serif" font-size="10.00">sampling_algorithm_</text>
<text text-anchor="start" x="122" y="-206.75" font-family="Helvetica,sans-Serif" font-size="10.00">+</text>
<text text-anchor="start" x="132" y="-206.75" font-family="Helvetica,sans-Serif" font-size="10.00">DiscreteInversion()</text>
<text text-anchor="start" x="122" y="-191.75" font-family="Helvetica,sans-Serif" font-size="10.00">+</text>
<text text-anchor="start" x="132" y="-191.75" font-family="Helvetica,sans-Serif" font-size="10.00">sample()</text>
<text text-anchor="start" x="122" y="-176.75" font-family="Helvetica,sans-Serif" font-size="10.00">+</text>
<text text-anchor="start" x="132" y="-176.75" font-family="Helvetica,sans-Serif" font-size="10.00">getExpectationValue()</text>
<text text-anchor="start" x="123.5" y="-161.75" font-family="Helvetica,sans-Serif" font-size="10.00">&#45;</text>
<text text-anchor="start" x="132" y="-161.75" font-family="Helvetica,sans-Serif" font-size="10.00">normalize()</text>
<text text-anchor="start" x="123.5" y="-146.75" font-family="Helvetica,sans-Serif" font-size="10.00">&#45;</text>
<text text-anchor="start" x="132" y="-146.75" font-family="Helvetica,sans-Serif" font-size="10.00">generateCDF()</text>
<text text-anchor="start" x="123.5" y="-131.75" font-family="Helvetica,sans-Serif" font-size="10.00">&#45;</text>
<text text-anchor="start" x="132" y="-131.75" font-family="Helvetica,sans-Serif" font-size="10.00">cumsum()</text>
<polygon fill="#666666" stroke="#666666" points="118,-263.25 118,-263.25 230,-263.25 230,-263.25 118,-263.25"/>
<polygon fill="#666666" stroke="#666666" points="118,-218.25 118,-218.25 130,-218.25 130,-218.25 118,-218.25"/>
<polygon fill="#666666" stroke="#666666" points="130,-218.25 130,-218.25 230,-218.25 230,-218.25 130,-218.25"/>
<polygon fill="none" stroke="#666666" points="118,-126.25 118,-291.25 230,-291.25 230,-126.25 118,-126.25"/>
</a>
</g>
</g>
<!-- Node3&#45;&gt;Node1 -->
<g id="edge2_Node000001_Node000003" class="edge">
<title>Node3&#45;&gt;Node1</title>
<g id="a_edge2_Node000001_Node000003"><a xlink:title=" ">
<path fill="none" stroke="#63b8ff" d="M132.74,-126.57C126.47,-114.22 120.15,-101.79 114.35,-90.38"/>
<polygon fill="none" stroke="#63b8ff" points="114.36,-90.39 108.07,-86.85 108.92,-79.69 115.2,-83.23 114.36,-90.39"/>
</a>
</g>
<text text-anchor="middle" x="151" y="-98.75" font-family="Helvetica,sans-Serif" font-size="10.00" fill="grey"> &#45;energy_dist_</text>
</g>
<!-- Node4 -->
<g id="Node000004" class="node">
<title>Node4</title>
<g id="a_Node000004"><a xlink:href="class_probability_dist_1_1_uniform.html" target="_top" xlink:title="Class which represents a uniform distribution.">
<polygon fill="white" stroke="none" points="229.5,-447.5 118.5,-447.5 118.5,-338.5 229.5,-338.5 229.5,-447.5"/>
<text text-anchor="start" x="123.38" y="-434" font-family="Helvetica,sans-Serif" font-size="10.00">ProbabilityDist::Uniform</text>
<text text-anchor="start" x="135.5" y="-419" font-family="Helvetica,sans-Serif" font-size="10.00">&#45;</text>
<text text-anchor="start" x="155.5" y="-419" font-family="Helvetica,sans-Serif" font-size="10.00">dist_</text>
<text text-anchor="start" x="135.5" y="-404" font-family="Helvetica,sans-Serif" font-size="10.00">&#45;</text>
<text text-anchor="start" x="155.5" y="-404" font-family="Helvetica,sans-Serif" font-size="10.00">generator_</text>
<text text-anchor="start" x="134" y="-389" font-family="Helvetica,sans-Serif" font-size="10.00">+</text>
<text text-anchor="start" x="155.5" y="-389" font-family="Helvetica,sans-Serif" font-size="10.00">Uniform()</text>
<text text-anchor="start" x="134" y="-374" font-family="Helvetica,sans-Serif" font-size="10.00">+</text>
<text text-anchor="start" x="155.5" y="-374" font-family="Helvetica,sans-Serif" font-size="10.00">Uniform()</text>
<text text-anchor="start" x="134" y="-359" font-family="Helvetica,sans-Serif" font-size="10.00">+</text>
<text text-anchor="start" x="155.5" y="-359" font-family="Helvetica,sans-Serif" font-size="10.00">sample()</text>
<text text-anchor="start" x="134" y="-344" font-family="Helvetica,sans-Serif" font-size="10.00">+</text>
<text text-anchor="start" x="155.5" y="-344" font-family="Helvetica,sans-Serif" font-size="10.00">setRange()</text>
<polygon fill="#666666" stroke="#666666" points="118.5,-430.5 118.5,-430.5 229.5,-430.5 229.5,-430.5 118.5,-430.5"/>
<polygon fill="#666666" stroke="#666666" points="118.5,-400.5 118.5,-400.5 153.5,-400.5 153.5,-400.5 118.5,-400.5"/>
<polygon fill="#666666" stroke="#666666" points="153.5,-400.5 153.5,-400.5 229.5,-400.5 229.5,-400.5 153.5,-400.5"/>
<polygon fill="none" stroke="#666666" points="118.5,-338.5 118.5,-447.5 229.5,-447.5 229.5,-338.5 118.5,-338.5"/>
</a>
</g>
</g>
<!-- Node4&#45;&gt;Node3 -->
<g id="edge3_Node000003_Node000004" class="edge">
<title>Node4&#45;&gt;Node3</title>
<g id="a_edge3_Node000003_Node000004"><a xlink:title=" ">
<path fill="none" stroke="#63b8ff" d="M174,-338.8C174,-327.84 174,-315.99 174,-304.07"/>
<polygon fill="none" stroke="#63b8ff" points="174,-304.05 170,-298.05 174,-292.05 178,-298.05 174,-304.05"/>
</a>
</g>
<text text-anchor="middle" x="205.88" y="-311" font-family="Helvetica,sans-Serif" font-size="10.00" fill="grey"> &#45;uniform_dist_</text>
</g>
</g>
</svg>

<g id="navigator" transform="translate(0 0)" fill="#404254">
  <rect fill="#f2f5e9" fill-opacity="0.5" stroke="#606060" stroke-width=".5" x="0" y="0" width="60" height="60"/>
  <use id="zoomplus" xlink:href="#zoomPlus" x="17" y="9" onmousedown="handleZoom(evt,'in')"/>
  <use id="zoomminus" xlink:href="#zoomMin" x="42" y="9" onmousedown="handleZoom(evt,'out')"/>
  <use id="reset" xlink:href="#resetDef" x="30" y="36" onmousedown="handleReset()"/>
   <use id="arrowup" xlink:href="#arrowUp" x="0" y="0" onmousedown="handlePan(0,-1)"/>
  <use id="arrowright" xlink:href="#arrowRight" x="0" y="0" onmousedown="handlePan(1,0)"/>
  <use id="arrowdown" xlink:href="#arrowDown" x="0" y="0" onmousedown="handlePan(0,1)"/>
  <use id="arrowleft" xlink:href="#arrowLeft" x="0" y="0" onmousedown="handlePan(-1,0)"/>
</g>
<svg viewBox="0 0 15 15" width="100%" height="30px" preserveAspectRatio="xMaxYMin meet">
 <g id="arrow_out" transform="scale(0.3 0.3)">
  <a xlink:href="class_polyenergetic_spectrum__coll__graph_org.svg" target="_base">
   <rect id="button" ry="5" rx="5" y="6" x="6" height="38" width="38"
        fill="#f2f5e9" fill-opacity="0.5" stroke="#606060" stroke-width="1.0"/>
   <path id="arrow"
     d="M 11.500037,31.436501 C 11.940474,20.09759 22.043105,11.32322 32.158766,21.979434 L 37.068811,17.246167 C 37.068811,17.246167 37.088388,32 37.088388,32 L 22.160133,31.978069 C 22.160133,31.978069 26.997745,27.140456 26.997745,27.140456 C 18.528582,18.264221 13.291696,25.230495 11.500037,31.436501 z"
     style="fill:#404040;"/>
  </a>
 </g>
</svg>

<style type='text/css'>
<![CDATA[
[data-mouse-over-selected='false'] { opacity: 0.7; }
[data-mouse-over-selected='true']  { opacity: 1.0; }
]]>
</style>
<script type="application/ecmascript"><![CDATA[
document.addEventListener('DOMContentLoaded', (event) => {
  highlightEdges();
  highlightAdjacentNodes();
});
]]></script>
</svg>
