<?xml version="1.0" encoding="UTF-8" standalone="no"?>
<!DOCTYPE svg PUBLIC "-//W3C//DTD SVG 1.1//EN"
 "http://www.w3.org/Graphics/SVG/1.1/DTD/svg11.dtd">
<!-- Generated by graphviz version 9.0.0 (20230911.1827)
 -->
<!-- Title: Interpolator::Spline Pages: 1 -->
<svg width="120pt" height="277pt"
 viewBox="0.00 0.00 120.00 277.00" xmlns="http://www.w3.org/2000/svg" xmlns:xlink="http://www.w3.org/1999/xlink">
<g id="graph0" class="graph" transform="scale(1 1) rotate(0) translate(4 273)">
<title>Interpolator::Spline</title>
<!-- Node1 -->
<g id="Node000001" class="node">
<title>Node1</title>
<g id="a_Node000001"><a xlink:title="Class which performs 3rd order spline interpolation.">
<polygon fill="#999999" stroke="none" points="101,-169 11,-169 11,0 101,0 101,-169"/>
<text text-anchor="start" x="15.88" y="-155.5" font-family="Helvetica,sans-Serif" font-size="10.00">Interpolator::Spline</text>
<text text-anchor="start" x="18.5" y="-140.5" font-family="Helvetica,sans-Serif" font-size="10.00">&#45;</text>
<text text-anchor="start" x="29" y="-140.5" font-family="Helvetica,sans-Serif" font-size="10.00">x_vec_</text>
<text text-anchor="start" x="18.5" y="-125.5" font-family="Helvetica,sans-Serif" font-size="10.00">&#45;</text>
<text text-anchor="start" x="29" y="-125.5" font-family="Helvetica,sans-Serif" font-size="10.00">y_vec_</text>
<text text-anchor="start" x="18.5" y="-110.5" font-family="Helvetica,sans-Serif" font-size="10.00">&#45;</text>
<text text-anchor="start" x="29" y="-110.5" font-family="Helvetica,sans-Serif" font-size="10.00">x_min_</text>
<text text-anchor="start" x="18.5" y="-95.5" font-family="Helvetica,sans-Serif" font-size="10.00">&#45;</text>
<text text-anchor="start" x="29" y="-95.5" font-family="Helvetica,sans-Serif" font-size="10.00">x_max_</text>
<text text-anchor="start" x="18.5" y="-80.5" font-family="Helvetica,sans-Serif" font-size="10.00">&#45;</text>
<text text-anchor="start" x="29" y="-80.5" font-family="Helvetica,sans-Serif" font-size="10.00">spline_</text>
<text text-anchor="start" x="17" y="-65.5" font-family="Helvetica,sans-Serif" font-size="10.00">+</text>
<text text-anchor="start" x="29" y="-65.5" font-family="Helvetica,sans-Serif" font-size="10.00">Spline()</text>
<text text-anchor="start" x="17" y="-50.5" font-family="Helvetica,sans-Serif" font-size="10.00">+</text>
<text text-anchor="start" x="29" y="-50.5" font-family="Helvetica,sans-Serif" font-size="10.00">Spline()</text>
<text text-anchor="start" x="17" y="-35.5" font-family="Helvetica,sans-Serif" font-size="10.00">+</text>
<text text-anchor="start" x="29" y="-35.5" font-family="Helvetica,sans-Serif" font-size="10.00">operator()()</text>
<text text-anchor="start" x="18.5" y="-20.5" font-family="Helvetica,sans-Serif" font-size="10.00">&#45;</text>
<text text-anchor="start" x="29" y="-20.5" font-family="Helvetica,sans-Serif" font-size="10.00">scaledValue()</text>
<text text-anchor="start" x="18.5" y="-5.5" font-family="Helvetica,sans-Serif" font-size="10.00">&#45;</text>
<text text-anchor="start" x="29" y="-5.5" font-family="Helvetica,sans-Serif" font-size="10.00">scaledValues()</text>
<polygon fill="#666666" stroke="#666666" points="11,-152 11,-152 101,-152 101,-152 11,-152"/>
<polygon fill="#666666" stroke="#666666" points="11,-77 11,-77 27,-77 27,-77 11,-77"/>
<polygon fill="#666666" stroke="#666666" points="27,-77 27,-77 101,-77 101,-77 27,-77"/>
<polygon fill="none" stroke="#666666" points="11,0 11,-169 101,-169 101,0 11,0"/>
</a>
</g>
</g>
<!-- Node2 -->
<g id="Node000002" class="node">
<title>Node2</title>
<g id="a_Node000002"><a xlink:href="class_interpolator_1_1_interpolator.html" target="_top" xlink:title="Abstract base class for interpolators.">
<polygon fill="white" stroke="none" points="112,-269 0,-269 0,-205 112,-205 112,-269"/>
<text text-anchor="start" x="5" y="-255.5" font-family="Helvetica,sans-Serif" font-size="10.00">Interpolator::Interpolator</text>
<text text-anchor="start" x="54.5" y="-240.5" font-family="Helvetica,sans-Serif" font-size="10.00"> </text>
<text text-anchor="start" x="12.5" y="-225.5" font-family="Helvetica,sans-Serif" font-size="10.00">+</text>
<text text-anchor="start" x="31" y="-225.5" font-family="Helvetica,sans-Serif" font-size="10.00">~Interpolator()</text>
<text text-anchor="start" x="12.5" y="-210.5" font-family="Helvetica,sans-Serif" font-size="10.00">+</text>
<text text-anchor="start" x="31" y="-210.5" font-family="Helvetica,sans-Serif" font-size="10.00">operator()()</text>
<polygon fill="#666666" stroke="#666666" points="0,-252 0,-252 112,-252 112,-252 0,-252"/>
<polygon fill="#666666" stroke="#666666" points="0,-237 0,-237 112,-237 112,-237 0,-237"/>
<polygon fill="none" stroke="#666666" points="0,-205 0,-269 112,-269 112,-205 0,-205"/>
</a>
</g>
</g>
<!-- Node2&#45;&gt;Node1 -->
<g id="edge1_Node000001_Node000002" class="edge">
<title>Node2&#45;&gt;Node1</title>
<g id="a_edge1_Node000001_Node000002"><a xlink:title=" ">
<path fill="none" stroke="#63b8ff" d="M56,-193.77C56,-185.91 56,-177.44 56,-168.84"/>
<polygon fill="none" stroke="#63b8ff" points="52.5,-193.67 56,-203.67 59.5,-193.67 52.5,-193.67"/>
</a>
</g>
</g>
</g>
</svg>
