<?xml version="1.0" encoding="UTF-8" standalone="no"?>
<!DOCTYPE svg PUBLIC "-//W3C//DTD SVG 1.1//EN"
 "http://www.w3.org/Graphics/SVG/1.1/DTD/svg11.dtd">
<!-- Generated by graphviz version 9.0.0 (20230911.1827)
 -->
<!-- Title: ProbabilityDist::ContinuousInversion Pages: 1 -->
<!--zoomable 516 -->

<svg id="main" version="1.1" xmlns="http://www.w3.org/2000/svg" xmlns:xlink="http://www.w3.org/1999/xlink" xml:space="preserve" onload="init(evt)">
<style type="text/css"><![CDATA[
.node, .edge {opacity: 0.7;}
.node.selected, .edge.selected {opacity: 1;}
.edge:hover path { stroke: red; }
.edge:hover polygon { stroke: red; fill: red; }
]]></style>

<defs>
  <circle id="rim" cx="0" cy="0" r="7"/>
  <circle id="rim2" cx="0" cy="0" r="3.5"/>
  <g id="zoomPlus">
    <use xlink:href="#rim" fill="#404040"><set attributeName="fill" to="#808080" begin="zoomplus.mouseover" end="zoomplus.mouseout"/></use>
    <path d="M-4,0h8M0,-4v8" fill="none" stroke="white" stroke-width="1.5" pointer-events="none"/>
  </g>
  <g id="zoomMin">
    <use xlink:href="#rim" fill="#404040"><set attributeName="fill" to="#808080" begin="zoomminus.mouseover" end="zoomminus.mouseout"/></use>
    <path d="M-4,0h8" fill="none" stroke="white" stroke-width="1.5" pointer-events="none"/>
  </g>
  <g id="arrowUp" transform="translate(30 24)">
    <use xlink:href="#rim"/>
    <path pointer-events="none" fill="none" stroke="white" stroke-width="1.5" d="M0,-3.0v7 M-2.5,-0.5L0,-3.0L2.5,-0.5"/>
  </g>
  <g id="arrowRight" transform="rotate(90) translate(36 -43)">
    <use xlink:href="#rim"/>
    <path pointer-events="none" fill="none" stroke="white" stroke-width="1.5" d="M0,-3.0v7 M-2.5,-0.5L0,-3.0L2.5,-0.5"/>
  </g>
  <g id="arrowDown" transform="rotate(180) translate(-30 -48)">
    <use xlink:href="#rim"/>
    <path pointer-events="none" fill="none" stroke="white" stroke-width="1.5" d="M0,-3.0v7 M-2.5,-0.5L0,-3.0L2.5,-0.5"/>
  </g>
  <g id="arrowLeft" transform="rotate(270) translate(-36 17)">
    <use xlink:href="#rim"/>
    <path pointer-events="none" fill="none" stroke="white" stroke-width="1.5" d="M0,-3.0v7 M-2.5,-0.5L0,-3.0L2.5,-0.5"/>
  </g>
  <g id="resetDef">
    <use xlink:href="#rim2" fill="#404040"><set attributeName="fill" to="#808080" begin="reset.mouseover" end="reset.mouseout"/></use>
  </g>
</defs>
<script type="application/ecmascript">
var viewWidth = 173;
var viewHeight = 516;
var sectionId = 'dynsection-0';
</script>
<script type="application/ecmascript" xlink:href="svg.min.js"/>
<svg id="graph" class="graph">
<g id="viewport">
<title>ProbabilityDist::ContinuousInversion</title>
<!-- Node1 -->
<g id="Node000001" class="node">
<title>Node1</title>
<g id="a_Node000001"><a xlink:title="Class which uses PENELOPE&#39;s RITA inversion sampling algorithm to sample from a continuous distributio...">
<polygon fill="#999999" stroke="none" points="165,-352 0,-352 0,0 165,0 165,-352"/>
<text text-anchor="start" x="24.75" y="-338.5" font-family="Helvetica,sans-Serif" font-size="10.00">ProbabilityDist::Continuous</text>
<text text-anchor="start" x="62.62" y="-327.25" font-family="Helvetica,sans-Serif" font-size="10.00">Inversion</text>
<text text-anchor="start" x="5.5" y="-312.5" font-family="Helvetica,sans-Serif" font-size="10.00">&#45;</text>
<text text-anchor="start" x="14" y="-312.5" font-family="Helvetica,sans-Serif" font-size="10.00">PDF_</text>
<text text-anchor="start" x="5.5" y="-297.5" font-family="Helvetica,sans-Serif" font-size="10.00">&#45;</text>
<text text-anchor="start" x="14" y="-297.5" font-family="Helvetica,sans-Serif" font-size="10.00">normalized_PDF_</text>
<text text-anchor="start" x="5.5" y="-282.5" font-family="Helvetica,sans-Serif" font-size="10.00">&#45;</text>
<text text-anchor="start" x="14" y="-282.5" font-family="Helvetica,sans-Serif" font-size="10.00">CDF_</text>
<text text-anchor="start" x="5.5" y="-267.5" font-family="Helvetica,sans-Serif" font-size="10.00">&#45;</text>
<text text-anchor="start" x="14" y="-267.5" font-family="Helvetica,sans-Serif" font-size="10.00">energies_</text>
<text text-anchor="start" x="5.5" y="-252.5" font-family="Helvetica,sans-Serif" font-size="10.00">&#45;</text>
<text text-anchor="start" x="14" y="-252.5" font-family="Helvetica,sans-Serif" font-size="10.00">interp_parameters_</text>
<text text-anchor="start" x="5.5" y="-237.5" font-family="Helvetica,sans-Serif" font-size="10.00">&#45;</text>
<text text-anchor="start" x="14" y="-237.5" font-family="Helvetica,sans-Serif" font-size="10.00">x_min_</text>
<text text-anchor="start" x="5.5" y="-222.5" font-family="Helvetica,sans-Serif" font-size="10.00">&#45;</text>
<text text-anchor="start" x="14" y="-222.5" font-family="Helvetica,sans-Serif" font-size="10.00">x_max_</text>
<text text-anchor="start" x="5.5" y="-207.5" font-family="Helvetica,sans-Serif" font-size="10.00">&#45;</text>
<text text-anchor="start" x="14" y="-207.5" font-family="Helvetica,sans-Serif" font-size="10.00">err_thresh_</text>
<text text-anchor="start" x="4" y="-192.5" font-family="Helvetica,sans-Serif" font-size="10.00">+</text>
<text text-anchor="start" x="14" y="-192.5" font-family="Helvetica,sans-Serif" font-size="10.00">ContinuousInversion()</text>
<text text-anchor="start" x="4" y="-177.5" font-family="Helvetica,sans-Serif" font-size="10.00">+</text>
<text text-anchor="start" x="14" y="-177.5" font-family="Helvetica,sans-Serif" font-size="10.00">ContinuousInversion()</text>
<text text-anchor="start" x="4" y="-162.5" font-family="Helvetica,sans-Serif" font-size="10.00">+</text>
<text text-anchor="start" x="14" y="-162.5" font-family="Helvetica,sans-Serif" font-size="10.00">sample()</text>
<text text-anchor="start" x="5.5" y="-147.5" font-family="Helvetica,sans-Serif" font-size="10.00">&#45;</text>
<text text-anchor="start" x="14" y="-147.5" font-family="Helvetica,sans-Serif" font-size="10.00">normalizePDF()</text>
<text text-anchor="start" x="5.5" y="-132.5" font-family="Helvetica,sans-Serif" font-size="10.00">&#45;</text>
<text text-anchor="start" x="14" y="-132.5" font-family="Helvetica,sans-Serif" font-size="10.00">getXFromY()</text>
<text text-anchor="start" x="5.5" y="-117.5" font-family="Helvetica,sans-Serif" font-size="10.00">&#45;</text>
<text text-anchor="start" x="14" y="-117.5" font-family="Helvetica,sans-Serif" font-size="10.00">initializeCDFAndInterpolation</text>
<text text-anchor="start" x="14" y="-106.25" font-family="Helvetica,sans-Serif" font-size="10.00">Parameters()</text>
<text text-anchor="start" x="5.5" y="-91.5" font-family="Helvetica,sans-Serif" font-size="10.00">&#45;</text>
<text text-anchor="start" x="14" y="-91.5" font-family="Helvetica,sans-Serif" font-size="10.00">calculateInterpolationParameters</text>
<text text-anchor="start" x="14" y="-80.25" font-family="Helvetica,sans-Serif" font-size="10.00">PerEnergy()</text>
<text text-anchor="start" x="5.5" y="-65.5" font-family="Helvetica,sans-Serif" font-size="10.00">&#45;</text>
<text text-anchor="start" x="14" y="-65.5" font-family="Helvetica,sans-Serif" font-size="10.00">getMinimizedErrorCDFPerEnergy()</text>
<text text-anchor="start" x="5.5" y="-50.5" font-family="Helvetica,sans-Serif" font-size="10.00">&#45;</text>
<text text-anchor="start" x="14" y="-50.5" font-family="Helvetica,sans-Serif" font-size="10.00">generateCDFPerEnergy()</text>
<text text-anchor="start" x="5.5" y="-35.5" font-family="Helvetica,sans-Serif" font-size="10.00">&#45;</text>
<text text-anchor="start" x="14" y="-35.5" font-family="Helvetica,sans-Serif" font-size="10.00">getInterpErrorOverInterval()</text>
<text text-anchor="start" x="5.5" y="-20.5" font-family="Helvetica,sans-Serif" font-size="10.00">&#45;</text>
<text text-anchor="start" x="14" y="-20.5" font-family="Helvetica,sans-Serif" font-size="10.00">getPDFFromCDFOverInterval()</text>
<text text-anchor="start" x="5.5" y="-5.5" font-family="Helvetica,sans-Serif" font-size="10.00">&#45;</text>
<text text-anchor="start" x="14" y="-5.5" font-family="Helvetica,sans-Serif" font-size="10.00">getEta()</text>
<polygon fill="#666666" stroke="#666666" points="0,-324 0,-324 165,-324 165,-324 0,-324"/>
<polygon fill="#666666" stroke="#666666" points="0,-204 0,-204 12,-204 12,-204 0,-204"/>
<polygon fill="#666666" stroke="#666666" points="12,-204 12,-204 165,-204 165,-204 12,-204"/>
<polygon fill="none" stroke="#666666" points="0,0 0,-352 165,-352 165,0 0,0"/>
</a>
</g>
</g>
<!-- Node2 -->
<g id="Node000002" class="node">
<title>Node2</title>
<g id="a_Node000002"><a xlink:href="class_probability_dist_1_1_uniform.html" target="_top" xlink:title="Class which represents a uniform distribution.">
<polygon fill="white" stroke="none" points="138,-508.25 27,-508.25 27,-399.25 138,-399.25 138,-508.25"/>
<text text-anchor="start" x="31.88" y="-494.75" font-family="Helvetica,sans-Serif" font-size="10.00">ProbabilityDist::Uniform</text>
<text text-anchor="start" x="44" y="-479.75" font-family="Helvetica,sans-Serif" font-size="10.00">&#45;</text>
<text text-anchor="start" x="64" y="-479.75" font-family="Helvetica,sans-Serif" font-size="10.00">dist_</text>
<text text-anchor="start" x="44" y="-464.75" font-family="Helvetica,sans-Serif" font-size="10.00">&#45;</text>
<text text-anchor="start" x="64" y="-464.75" font-family="Helvetica,sans-Serif" font-size="10.00">generator_</text>
<text text-anchor="start" x="42.5" y="-449.75" font-family="Helvetica,sans-Serif" font-size="10.00">+</text>
<text text-anchor="start" x="64" y="-449.75" font-family="Helvetica,sans-Serif" font-size="10.00">Uniform()</text>
<text text-anchor="start" x="42.5" y="-434.75" font-family="Helvetica,sans-Serif" font-size="10.00">+</text>
<text text-anchor="start" x="64" y="-434.75" font-family="Helvetica,sans-Serif" font-size="10.00">Uniform()</text>
<text text-anchor="start" x="42.5" y="-419.75" font-family="Helvetica,sans-Serif" font-size="10.00">+</text>
<text text-anchor="start" x="64" y="-419.75" font-family="Helvetica,sans-Serif" font-size="10.00">sample()</text>
<text text-anchor="start" x="42.5" y="-404.75" font-family="Helvetica,sans-Serif" font-size="10.00">+</text>
<text text-anchor="start" x="64" y="-404.75" font-family="Helvetica,sans-Serif" font-size="10.00">setRange()</text>
<polygon fill="#666666" stroke="#666666" points="27,-491.25 27,-491.25 138,-491.25 138,-491.25 27,-491.25"/>
<polygon fill="#666666" stroke="#666666" points="27,-461.25 27,-461.25 62,-461.25 62,-461.25 27,-461.25"/>
<polygon fill="#666666" stroke="#666666" points="62,-461.25 62,-461.25 138,-461.25 138,-461.25 62,-461.25"/>
<polygon fill="none" stroke="#666666" points="27,-399.25 27,-508.25 138,-508.25 138,-399.25 27,-399.25"/>
</a>
</g>
</g>
<!-- Node2&#45;&gt;Node1 -->
<g id="edge1_Node000001_Node000002" class="edge">
<title>Node2&#45;&gt;Node1</title>
<g id="a_edge1_Node000001_Node000002"><a xlink:title=" ">
<path fill="none" stroke="#63b8ff" d="M82.5,-399.26C82.5,-388.68 82.5,-377.02 82.5,-364.76"/>
<polygon fill="none" stroke="#63b8ff" points="82.5,-364.68 78.5,-358.68 82.5,-352.68 86.5,-358.68 82.5,-364.68"/>
</a>
</g>
<text text-anchor="middle" x="114.38" y="-371.75" font-family="Helvetica,sans-Serif" font-size="10.00" fill="grey"> &#45;uniform_dist_</text>
</g>
</g>
</svg>

<g id="navigator" transform="translate(0 0)" fill="#404254">
  <rect fill="#f2f5e9" fill-opacity="0.5" stroke="#606060" stroke-width=".5" x="0" y="0" width="60" height="60"/>
  <use id="zoomplus" xlink:href="#zoomPlus" x="17" y="9" onmousedown="handleZoom(evt,'in')"/>
  <use id="zoomminus" xlink:href="#zoomMin" x="42" y="9" onmousedown="handleZoom(evt,'out')"/>
  <use id="reset" xlink:href="#resetDef" x="30" y="36" onmousedown="handleReset()"/>
   <use id="arrowup" xlink:href="#arrowUp" x="0" y="0" onmousedown="handlePan(0,-1)"/>
  <use id="arrowright" xlink:href="#arrowRight" x="0" y="0" onmousedown="handlePan(1,0)"/>
  <use id="arrowdown" xlink:href="#arrowDown" x="0" y="0" onmousedown="handlePan(0,1)"/>
  <use id="arrowleft" xlink:href="#arrowLeft" x="0" y="0" onmousedown="handlePan(-1,0)"/>
</g>
<svg viewBox="0 0 15 15" width="100%" height="30px" preserveAspectRatio="xMaxYMin meet">
 <g id="arrow_out" transform="scale(0.3 0.3)">
  <a xlink:href="class_probability_dist_1_1_continuous_inversion__coll__graph_org.svg" target="_base">
   <rect id="button" ry="5" rx="5" y="6" x="6" height="38" width="38"
        fill="#f2f5e9" fill-opacity="0.5" stroke="#606060" stroke-width="1.0"/>
   <path id="arrow"
     d="M 11.500037,31.436501 C 11.940474,20.09759 22.043105,11.32322 32.158766,21.979434 L 37.068811,17.246167 C 37.068811,17.246167 37.088388,32 37.088388,32 L 22.160133,31.978069 C 22.160133,31.978069 26.997745,27.140456 26.997745,27.140456 C 18.528582,18.264221 13.291696,25.230495 11.500037,31.436501 z"
     style="fill:#404040;"/>
  </a>
 </g>
</svg>

<style type='text/css'>
<![CDATA[
[data-mouse-over-selected='false'] { opacity: 0.7; }
[data-mouse-over-selected='true']  { opacity: 1.0; }
]]>
</style>
<script type="application/ecmascript"><![CDATA[
document.addEventListener('DOMContentLoaded', (event) => {
  highlightEdges();
  highlightAdjacentNodes();
});
]]></script>
</svg>
