<?xml version="1.0" encoding="UTF-8" standalone="no"?>
<!DOCTYPE svg PUBLIC "-//W3C//DTD SVG 1.1//EN"
 "http://www.w3.org/Graphics/SVG/1.1/DTD/svg11.dtd">
<!-- Generated by graphviz version 9.0.0 (20230911.1827)
 -->
<!-- Title: Interpolator::LogLogSpline Pages: 1 -->
<svg width="131pt" height="392pt"
 viewBox="0.00 0.00 131.00 392.00" xmlns="http://www.w3.org/2000/svg" xmlns:xlink="http://www.w3.org/1999/xlink">
<g id="graph0" class="graph" transform="scale(1 1) rotate(0) translate(4 388)">
<title>Interpolator::LogLogSpline</title>
<!-- Node1 -->
<g id="Node000001" class="node">
<title>Node1</title>
<g id="a_Node000001"><a xlink:title="Class which performs 3rd order spline interpolation on a log&#45;log scale.">
<polygon fill="#999999" stroke="none" points="123,-79 0,-79 0,0 123,0 123,-79"/>
<text text-anchor="start" x="4.88" y="-65.5" font-family="Helvetica,sans-Serif" font-size="10.00">Interpolator::LogLogSpline</text>
<text text-anchor="start" x="60" y="-50.5" font-family="Helvetica,sans-Serif" font-size="10.00"> </text>
<text text-anchor="start" x="13.5" y="-35.5" font-family="Helvetica,sans-Serif" font-size="10.00">+</text>
<text text-anchor="start" x="33" y="-35.5" font-family="Helvetica,sans-Serif" font-size="10.00">LogLogSpline()</text>
<text text-anchor="start" x="13.5" y="-20.5" font-family="Helvetica,sans-Serif" font-size="10.00">+</text>
<text text-anchor="start" x="33" y="-20.5" font-family="Helvetica,sans-Serif" font-size="10.00">LogLogSpline()</text>
<text text-anchor="start" x="13.5" y="-5.5" font-family="Helvetica,sans-Serif" font-size="10.00">+</text>
<text text-anchor="start" x="33" y="-5.5" font-family="Helvetica,sans-Serif" font-size="10.00">operator()()</text>
<polygon fill="#666666" stroke="#666666" points="0,-62 0,-62 123,-62 123,-62 0,-62"/>
<polygon fill="#666666" stroke="#666666" points="0,-47 0,-47 123,-47 123,-47 0,-47"/>
<polygon fill="none" stroke="#666666" points="0,0 0,-79 123,-79 123,0 0,0"/>
</a>
</g>
</g>
<!-- Node2 -->
<g id="Node000002" class="node">
<title>Node2</title>
<g id="a_Node000002"><a xlink:href="class_interpolator_1_1_spline.html" target="_top" xlink:title="Class which performs 3rd order spline interpolation.">
<polygon fill="white" stroke="none" points="106.5,-284 16.5,-284 16.5,-115 106.5,-115 106.5,-284"/>
<text text-anchor="start" x="21.38" y="-270.5" font-family="Helvetica,sans-Serif" font-size="10.00">Interpolator::Spline</text>
<text text-anchor="start" x="24" y="-255.5" font-family="Helvetica,sans-Serif" font-size="10.00">&#45;</text>
<text text-anchor="start" x="34.5" y="-255.5" font-family="Helvetica,sans-Serif" font-size="10.00">x_vec_</text>
<text text-anchor="start" x="24" y="-240.5" font-family="Helvetica,sans-Serif" font-size="10.00">&#45;</text>
<text text-anchor="start" x="34.5" y="-240.5" font-family="Helvetica,sans-Serif" font-size="10.00">y_vec_</text>
<text text-anchor="start" x="24" y="-225.5" font-family="Helvetica,sans-Serif" font-size="10.00">&#45;</text>
<text text-anchor="start" x="34.5" y="-225.5" font-family="Helvetica,sans-Serif" font-size="10.00">x_min_</text>
<text text-anchor="start" x="24" y="-210.5" font-family="Helvetica,sans-Serif" font-size="10.00">&#45;</text>
<text text-anchor="start" x="34.5" y="-210.5" font-family="Helvetica,sans-Serif" font-size="10.00">x_max_</text>
<text text-anchor="start" x="24" y="-195.5" font-family="Helvetica,sans-Serif" font-size="10.00">&#45;</text>
<text text-anchor="start" x="34.5" y="-195.5" font-family="Helvetica,sans-Serif" font-size="10.00">spline_</text>
<text text-anchor="start" x="22.5" y="-180.5" font-family="Helvetica,sans-Serif" font-size="10.00">+</text>
<text text-anchor="start" x="34.5" y="-180.5" font-family="Helvetica,sans-Serif" font-size="10.00">Spline()</text>
<text text-anchor="start" x="22.5" y="-165.5" font-family="Helvetica,sans-Serif" font-size="10.00">+</text>
<text text-anchor="start" x="34.5" y="-165.5" font-family="Helvetica,sans-Serif" font-size="10.00">Spline()</text>
<text text-anchor="start" x="22.5" y="-150.5" font-family="Helvetica,sans-Serif" font-size="10.00">+</text>
<text text-anchor="start" x="34.5" y="-150.5" font-family="Helvetica,sans-Serif" font-size="10.00">operator()()</text>
<text text-anchor="start" x="24" y="-135.5" font-family="Helvetica,sans-Serif" font-size="10.00">&#45;</text>
<text text-anchor="start" x="34.5" y="-135.5" font-family="Helvetica,sans-Serif" font-size="10.00">scaledValue()</text>
<text text-anchor="start" x="24" y="-120.5" font-family="Helvetica,sans-Serif" font-size="10.00">&#45;</text>
<text text-anchor="start" x="34.5" y="-120.5" font-family="Helvetica,sans-Serif" font-size="10.00">scaledValues()</text>
<polygon fill="#666666" stroke="#666666" points="16.5,-267 16.5,-267 106.5,-267 106.5,-267 16.5,-267"/>
<polygon fill="#666666" stroke="#666666" points="16.5,-192 16.5,-192 32.5,-192 32.5,-192 16.5,-192"/>
<polygon fill="#666666" stroke="#666666" points="32.5,-192 32.5,-192 106.5,-192 106.5,-192 32.5,-192"/>
<polygon fill="none" stroke="#666666" points="16.5,-115 16.5,-284 106.5,-284 106.5,-115 16.5,-115"/>
</a>
</g>
</g>
<!-- Node2&#45;&gt;Node1 -->
<g id="edge1_Node000001_Node000002" class="edge">
<title>Node2&#45;&gt;Node1</title>
<g id="a_edge1_Node000001_Node000002"><a xlink:title=" ">
<path fill="none" stroke="#63b8ff" d="M61.5,-104.02C61.5,-95.17 61.5,-86.6 61.5,-78.76"/>
<polygon fill="none" stroke="#63b8ff" points="58,-103.82 61.5,-113.82 65,-103.82 58,-103.82"/>
</a>
</g>
</g>
<!-- Node3 -->
<g id="Node000003" class="node">
<title>Node3</title>
<g id="a_Node000003"><a xlink:href="class_interpolator_1_1_interpolator.html" target="_top" xlink:title="Abstract base class for interpolators.">
<polygon fill="white" stroke="none" points="117.5,-384 5.5,-384 5.5,-320 117.5,-320 117.5,-384"/>
<text text-anchor="start" x="10.5" y="-370.5" font-family="Helvetica,sans-Serif" font-size="10.00">Interpolator::Interpolator</text>
<text text-anchor="start" x="60" y="-355.5" font-family="Helvetica,sans-Serif" font-size="10.00"> </text>
<text text-anchor="start" x="18" y="-340.5" font-family="Helvetica,sans-Serif" font-size="10.00">+</text>
<text text-anchor="start" x="36.5" y="-340.5" font-family="Helvetica,sans-Serif" font-size="10.00">~Interpolator()</text>
<text text-anchor="start" x="18" y="-325.5" font-family="Helvetica,sans-Serif" font-size="10.00">+</text>
<text text-anchor="start" x="36.5" y="-325.5" font-family="Helvetica,sans-Serif" font-size="10.00">operator()()</text>
<polygon fill="#666666" stroke="#666666" points="5.5,-367 5.5,-367 117.5,-367 117.5,-367 5.5,-367"/>
<polygon fill="#666666" stroke="#666666" points="5.5,-352 5.5,-352 117.5,-352 117.5,-352 5.5,-352"/>
<polygon fill="none" stroke="#666666" points="5.5,-320 5.5,-384 117.5,-384 117.5,-320 5.5,-320"/>
</a>
</g>
</g>
<!-- Node3&#45;&gt;Node2 -->
<g id="edge2_Node000002_Node000003" class="edge">
<title>Node3&#45;&gt;Node2</title>
<g id="a_edge2_Node000002_Node000003"><a xlink:title=" ">
<path fill="none" stroke="#63b8ff" d="M61.5,-308.77C61.5,-300.91 61.5,-292.44 61.5,-283.84"/>
<polygon fill="none" stroke="#63b8ff" points="58,-308.67 61.5,-318.67 65,-308.67 58,-308.67"/>
</a>
</g>
</g>
</g>
</svg>
