<?xml version="1.0" encoding="UTF-8" standalone="no"?>
<!DOCTYPE svg PUBLIC "-//W3C//DTD SVG 1.1//EN"
 "http://www.w3.org/Graphics/SVG/1.1/DTD/svg11.dtd">
<!-- Generated by graphviz version 9.0.0 (20230911.1827)
 -->
<!-- Title: DiscIsotropicDirectionality Pages: 1 -->
<svg width="230pt" height="329pt"
 viewBox="0.00 0.00 230.00 329.25" xmlns="http://www.w3.org/2000/svg" xmlns:xlink="http://www.w3.org/1999/xlink">
<g id="graph0" class="graph" transform="scale(1 1) rotate(0) translate(4 325.25)">
<title>DiscIsotropicDirectionality</title>
<!-- Node1 -->
<g id="Node000001" class="node">
<title>Node1</title>
<g id="a_Node000001"><a xlink:title="Class which represents a disc isotropic directionality.">
<polygon fill="#999999" stroke="none" points="180,-165 33,-165 33,0 180,0 180,-165"/>
<text text-anchor="start" x="50.25" y="-151.5" font-family="Helvetica,sans-Serif" font-size="10.00">DiscIsotropicDirectionality</text>
<text text-anchor="start" x="38.5" y="-136.5" font-family="Helvetica,sans-Serif" font-size="10.00">&#45;</text>
<text text-anchor="start" x="47" y="-136.5" font-family="Helvetica,sans-Serif" font-size="10.00">center_</text>
<text text-anchor="start" x="38.5" y="-121.5" font-family="Helvetica,sans-Serif" font-size="10.00">&#45;</text>
<text text-anchor="start" x="47" y="-121.5" font-family="Helvetica,sans-Serif" font-size="10.00">normal_</text>
<text text-anchor="start" x="38.5" y="-106.5" font-family="Helvetica,sans-Serif" font-size="10.00">&#45;</text>
<text text-anchor="start" x="47" y="-106.5" font-family="Helvetica,sans-Serif" font-size="10.00">radius_</text>
<text text-anchor="start" x="38.5" y="-91.5" font-family="Helvetica,sans-Serif" font-size="10.00">&#45;</text>
<text text-anchor="start" x="47" y="-91.5" font-family="Helvetica,sans-Serif" font-size="10.00">u_</text>
<text text-anchor="start" x="38.5" y="-76.5" font-family="Helvetica,sans-Serif" font-size="10.00">&#45;</text>
<text text-anchor="start" x="47" y="-76.5" font-family="Helvetica,sans-Serif" font-size="10.00">v_</text>
<text text-anchor="start" x="37" y="-61.5" font-family="Helvetica,sans-Serif" font-size="10.00">+</text>
<text text-anchor="start" x="47" y="-61.5" font-family="Helvetica,sans-Serif" font-size="10.00">DiscIsotropicDirectionality()</text>
<text text-anchor="start" x="37" y="-46.5" font-family="Helvetica,sans-Serif" font-size="10.00">+</text>
<text text-anchor="start" x="47" y="-46.5" font-family="Helvetica,sans-Serif" font-size="10.00">sampleDirection()</text>
<text text-anchor="start" x="38.5" y="-31.5" font-family="Helvetica,sans-Serif" font-size="10.00">&#45;</text>
<text text-anchor="start" x="47" y="-31.5" font-family="Helvetica,sans-Serif" font-size="10.00">setUAndV()</text>
<text text-anchor="start" x="38.5" y="-16.5" font-family="Helvetica,sans-Serif" font-size="10.00">&#45;</text>
<text text-anchor="start" x="47" y="-16.5" font-family="Helvetica,sans-Serif" font-size="10.00">calculateNormalizedPerimeter</text>
<text text-anchor="start" x="47" y="-5.25" font-family="Helvetica,sans-Serif" font-size="10.00">Vector()</text>
<polygon fill="#666666" stroke="#666666" points="33,-148 33,-148 180,-148 180,-148 33,-148"/>
<polygon fill="#666666" stroke="#666666" points="33,-73 33,-73 45,-73 45,-73 33,-73"/>
<polygon fill="#666666" stroke="#666666" points="45,-73 45,-73 180,-73 180,-73 45,-73"/>
<polygon fill="none" stroke="#666666" points="33,0 33,-165 180,-165 180,0 33,0"/>
</a>
</g>
</g>
<!-- Node2 -->
<g id="Node000002" class="node">
<title>Node2</title>
<g id="a_Node000002"><a xlink:href="class_directionality.html" target="_top" xlink:title="Virtual class which represents a directionality for a photon source.">
<polygon fill="white" stroke="none" points="93,-298.75 0,-298.75 0,-234.75 93,-234.75 93,-298.75"/>
<text text-anchor="start" x="18.75" y="-285.25" font-family="Helvetica,sans-Serif" font-size="10.00">Directionality</text>
<text text-anchor="start" x="45" y="-270.25" font-family="Helvetica,sans-Serif" font-size="10.00"> </text>
<text text-anchor="start" x="4" y="-255.25" font-family="Helvetica,sans-Serif" font-size="10.00">+</text>
<text text-anchor="start" x="14" y="-255.25" font-family="Helvetica,sans-Serif" font-size="10.00">sampleDirection()</text>
<text text-anchor="start" x="4" y="-240.25" font-family="Helvetica,sans-Serif" font-size="10.00">+</text>
<text text-anchor="start" x="14" y="-240.25" font-family="Helvetica,sans-Serif" font-size="10.00">~Directionality()</text>
<polygon fill="#666666" stroke="#666666" points="0,-281.75 0,-281.75 93,-281.75 93,-281.75 0,-281.75"/>
<polygon fill="#666666" stroke="#666666" points="0,-266.75 0,-266.75 93,-266.75 93,-266.75 0,-266.75"/>
<polygon fill="none" stroke="#666666" points="0,-234.75 0,-298.75 93,-298.75 93,-234.75 0,-234.75"/>
</a>
</g>
</g>
<!-- Node2&#45;&gt;Node1 -->
<g id="edge1_Node000001_Node000002" class="edge">
<title>Node2&#45;&gt;Node1</title>
<g id="a_edge1_Node000001_Node000002"><a xlink:title=" ">
<path fill="none" stroke="#63b8ff" d="M60.21,-224.09C66.01,-206.49 72.97,-185.36 79.71,-164.88"/>
<polygon fill="none" stroke="#63b8ff" points="56.95,-222.8 57.15,-233.4 63.6,-224.99 56.95,-222.8"/>
</a>
</g>
</g>
<!-- Node3 -->
<g id="Node000003" class="node">
<title>Node3</title>
<g id="a_Node000003"><a xlink:href="class_probability_dist_1_1_uniform.html" target="_top" xlink:title="Class which represents a uniform distribution.">
<polygon fill="white" stroke="none" points="222,-321.25 111,-321.25 111,-212.25 222,-212.25 222,-321.25"/>
<text text-anchor="start" x="115.88" y="-307.75" font-family="Helvetica,sans-Serif" font-size="10.00">ProbabilityDist::Uniform</text>
<text text-anchor="start" x="128" y="-292.75" font-family="Helvetica,sans-Serif" font-size="10.00">&#45;</text>
<text text-anchor="start" x="148" y="-292.75" font-family="Helvetica,sans-Serif" font-size="10.00">dist_</text>
<text text-anchor="start" x="128" y="-277.75" font-family="Helvetica,sans-Serif" font-size="10.00">&#45;</text>
<text text-anchor="start" x="148" y="-277.75" font-family="Helvetica,sans-Serif" font-size="10.00">generator_</text>
<text text-anchor="start" x="126.5" y="-262.75" font-family="Helvetica,sans-Serif" font-size="10.00">+</text>
<text text-anchor="start" x="148" y="-262.75" font-family="Helvetica,sans-Serif" font-size="10.00">Uniform()</text>
<text text-anchor="start" x="126.5" y="-247.75" font-family="Helvetica,sans-Serif" font-size="10.00">+</text>
<text text-anchor="start" x="148" y="-247.75" font-family="Helvetica,sans-Serif" font-size="10.00">Uniform()</text>
<text text-anchor="start" x="126.5" y="-232.75" font-family="Helvetica,sans-Serif" font-size="10.00">+</text>
<text text-anchor="start" x="148" y="-232.75" font-family="Helvetica,sans-Serif" font-size="10.00">sample()</text>
<text text-anchor="start" x="126.5" y="-217.75" font-family="Helvetica,sans-Serif" font-size="10.00">+</text>
<text text-anchor="start" x="148" y="-217.75" font-family="Helvetica,sans-Serif" font-size="10.00">setRange()</text>
<polygon fill="#666666" stroke="#666666" points="111,-304.25 111,-304.25 222,-304.25 222,-304.25 111,-304.25"/>
<polygon fill="#666666" stroke="#666666" points="111,-274.25 111,-274.25 146,-274.25 146,-274.25 111,-274.25"/>
<polygon fill="#666666" stroke="#666666" points="146,-274.25 146,-274.25 222,-274.25 222,-274.25 146,-274.25"/>
<polygon fill="none" stroke="#666666" points="111,-212.25 111,-321.25 222,-321.25 222,-212.25 111,-212.25"/>
</a>
</g>
</g>
<!-- Node3&#45;&gt;Node1 -->
<g id="edge2_Node000001_Node000003" class="edge">
<title>Node3&#45;&gt;Node1</title>
<g id="a_edge2_Node000001_Node000003"><a xlink:title=" ">
<path fill="none" stroke="#63b8ff" d="M148.98,-212.55C145.3,-201.36 141.31,-189.24 137.3,-177.06"/>
<polygon fill="none" stroke="#63b8ff" points="137.33,-177.15 131.66,-172.71 133.58,-165.76 139.26,-170.2 137.33,-177.15"/>
</a>
</g>
<text text-anchor="middle" x="173.38" y="-184.75" font-family="Helvetica,sans-Serif" font-size="10.00" fill="grey"> &#45;uniform_dist_</text>
</g>
</g>
</svg>
