<?xml version="1.0" encoding="UTF-8" standalone="no"?>
<!DOCTYPE svg PUBLIC "-//W3C//DTD SVG 1.1//EN"
 "http://www.w3.org/Graphics/SVG/1.1/DTD/svg11.dtd">
<!-- Generated by graphviz version 9.0.0 (20230911.1827)
 -->
<!-- Title: include/MIDSX/Core/constants.h Pages: 1 -->
<!--zoomable 825 -->

<svg id="main" version="1.1" xmlns="http://www.w3.org/2000/svg" xmlns:xlink="http://www.w3.org/1999/xlink" xml:space="preserve" onload="init(evt)">
<style type="text/css"><![CDATA[
.node, .edge {opacity: 0.7;}
.node.selected, .edge.selected {opacity: 1;}
.edge:hover path { stroke: red; }
.edge:hover polygon { stroke: red; fill: red; }
]]></style>

<defs>
  <circle id="rim" cx="0" cy="0" r="7"/>
  <circle id="rim2" cx="0" cy="0" r="3.5"/>
  <g id="zoomPlus">
    <use xlink:href="#rim" fill="#404040"><set attributeName="fill" to="#808080" begin="zoomplus.mouseover" end="zoomplus.mouseout"/></use>
    <path d="M-4,0h8M0,-4v8" fill="none" stroke="white" stroke-width="1.5" pointer-events="none"/>
  </g>
  <g id="zoomMin">
    <use xlink:href="#rim" fill="#404040"><set attributeName="fill" to="#808080" begin="zoomminus.mouseover" end="zoomminus.mouseout"/></use>
    <path d="M-4,0h8" fill="none" stroke="white" stroke-width="1.5" pointer-events="none"/>
  </g>
  <g id="arrowUp" transform="translate(30 24)">
    <use xlink:href="#rim"/>
    <path pointer-events="none" fill="none" stroke="white" stroke-width="1.5" d="M0,-3.0v7 M-2.5,-0.5L0,-3.0L2.5,-0.5"/>
  </g>
  <g id="arrowRight" transform="rotate(90) translate(36 -43)">
    <use xlink:href="#rim"/>
    <path pointer-events="none" fill="none" stroke="white" stroke-width="1.5" d="M0,-3.0v7 M-2.5,-0.5L0,-3.0L2.5,-0.5"/>
  </g>
  <g id="arrowDown" transform="rotate(180) translate(-30 -48)">
    <use xlink:href="#rim"/>
    <path pointer-events="none" fill="none" stroke="white" stroke-width="1.5" d="M0,-3.0v7 M-2.5,-0.5L0,-3.0L2.5,-0.5"/>
  </g>
  <g id="arrowLeft" transform="rotate(270) translate(-36 17)">
    <use xlink:href="#rim"/>
    <path pointer-events="none" fill="none" stroke="white" stroke-width="1.5" d="M0,-3.0v7 M-2.5,-0.5L0,-3.0L2.5,-0.5"/>
  </g>
  <g id="resetDef">
    <use xlink:href="#rim2" fill="#404040"><set attributeName="fill" to="#808080" begin="reset.mouseover" end="reset.mouseout"/></use>
  </g>
</defs>
<script type="application/ecmascript">
var viewWidth = 1116;
var viewHeight = 825;
var sectionId = 'dynsection-1';
</script>
<script type="application/ecmascript" xlink:href="svg.min.js"/>
<svg id="graph" class="graph">
<g id="viewport">
<title>include/MIDSX/Core/constants.h</title>
<!-- Node1 -->
<g id="Node000001" class="node">
<title>Node1</title>
<g id="a_Node000001"><a xlink:title="Contains constants used throughout the code.">
<polygon fill="#999999" stroke="#666666" points="874.25,-817.25 769.75,-817.25 769.75,-786.75 874.25,-786.75 874.25,-817.25"/>
<text text-anchor="start" x="777.75" y="-803.75" font-family="Helvetica,sans-Serif" font-size="10.00">include/MIDSX/Core</text>
<text text-anchor="middle" x="822" y="-792.5" font-family="Helvetica,sans-Serif" font-size="10.00">/constants.h</text>
</a>
</g>
</g>
<!-- Node2 -->
<g id="Node000002" class="node">
<title>Node2</title>
<g id="a_Node000002"><a xlink:href="_core_8h_source.html" target="_top" xlink:title=" ">
<polygon fill="white" stroke="#666666" points="600,-19.25 488,-19.25 488,0 600,0 600,-19.25"/>
<text text-anchor="middle" x="544" y="-5.75" font-family="Helvetica,sans-Serif" font-size="10.00">include/MIDSX/Core.h</text>
</a>
</g>
</g>
<!-- Node1&#45;&gt;Node2 -->
<g id="edge1_Node000001_Node000002" class="edge">
<title>Node1&#45;&gt;Node2</title>
<g id="a_edge1_Node000001_Node000002"><a xlink:title=" ">
<path fill="none" stroke="#63b8ff" d="M757.95,-797.53C564.6,-786.23 0,-746.65 0,-670 0,-670 0,-670 0,-136 0,-94.02 13.38,-77.47 49,-55.25 85.52,-32.48 365.73,-18.1 487.64,-12.86"/>
<polygon fill="#63b8ff" stroke="#63b8ff" points="757.63,-801.02 767.82,-798.11 758.04,-794.03 757.63,-801.02"/>
</a>
</g>
</g>
<!-- Node3 -->
<g id="Node000003" class="node">
<title>Node3</title>
<g id="a_Node000003"><a xlink:href="material__data_8h_source.html" target="_top" xlink:title=" ">
<polygon fill="white" stroke="#666666" points="1080.25,-750.75 975.75,-750.75 975.75,-720.25 1080.25,-720.25 1080.25,-750.75"/>
<text text-anchor="start" x="983.75" y="-737.25" font-family="Helvetica,sans-Serif" font-size="10.00">include/MIDSX/Core</text>
<text text-anchor="middle" x="1028" y="-726" font-family="Helvetica,sans-Serif" font-size="10.00">/material_data.h</text>
</a>
</g>
</g>
<!-- Node1&#45;&gt;Node3 -->
<g id="edge2_Node000001_Node000003" class="edge">
<title>Node1&#45;&gt;Node3</title>
<g id="a_edge2_Node000001_Node000003"><a xlink:title=" ">
<path fill="none" stroke="#63b8ff" d="M879.99,-782.84C911.98,-772.83 951.18,-760.55 981.2,-751.15"/>
<polygon fill="#63b8ff" stroke="#63b8ff" points="878.94,-779.5 870.45,-785.83 881.04,-786.18 878.94,-779.5"/>
</a>
</g>
</g>
<!-- Node10 -->
<g id="Node000010" class="node">
<title>Node10</title>
<g id="a_Node000010"><a xlink:href="source_8h_source.html" target="_top" xlink:title=" ">
<polygon fill="white" stroke="#666666" points="946.25,-418.25 841.75,-418.25 841.75,-387.75 946.25,-387.75 946.25,-418.25"/>
<text text-anchor="start" x="849.75" y="-404.75" font-family="Helvetica,sans-Serif" font-size="10.00">include/MIDSX/Core</text>
<text text-anchor="middle" x="894" y="-393.5" font-family="Helvetica,sans-Serif" font-size="10.00">/source.h</text>
</a>
</g>
</g>
<!-- Node1&#45;&gt;Node10 -->
<g id="edge53_Node000001_Node000010" class="edge">
<title>Node1&#45;&gt;Node10</title>
<g id="a_edge53_Node000001_Node000010"><a xlink:title=" ">
<path fill="none" stroke="#63b8ff" d="M861.74,-780.93C898.67,-759.13 948,-720.55 948,-670 948,-670 948,-670 948,-535 948,-489.74 920.1,-441.86 904.41,-418.52"/>
<polygon fill="#63b8ff" stroke="#63b8ff" points="860.46,-777.63 853.5,-785.62 863.92,-783.71 860.46,-777.63"/>
</a>
</g>
</g>
<!-- Node19 -->
<g id="Node000019" class="node">
<title>Node19</title>
<g id="a_Node000019"><a xlink:href="photon__interactions_8h_source.html" target="_top" xlink:title=" ">
<polygon fill="white" stroke="#666666" points="709.62,-551.25 598.38,-551.25 598.38,-520.75 709.62,-520.75 709.62,-551.25"/>
<text text-anchor="start" x="606.38" y="-537.75" font-family="Helvetica,sans-Serif" font-size="10.00">include/MIDSX/Core</text>
<text text-anchor="middle" x="654" y="-526.5" font-family="Helvetica,sans-Serif" font-size="10.00">/photon_interactions.h</text>
</a>
</g>
</g>
<!-- Node1&#45;&gt;Node19 -->
<g id="edge52_Node000001_Node000019" class="edge">
<title>Node1&#45;&gt;Node19</title>
<g id="a_edge52_Node000001_Node000019"><a xlink:title=" ">
<path fill="none" stroke="#63b8ff" d="M806.74,-777.03C772.59,-723.35 690.8,-594.83 663.24,-551.52"/>
<polygon fill="#63b8ff" stroke="#63b8ff" points="803.59,-778.6 811.92,-785.15 809.5,-774.84 803.59,-778.6"/>
</a>
</g>
</g>
<!-- Node3&#45;&gt;Node2 -->
<g id="edge3_Node000003_Node000002" class="edge">
<title>Node3&#45;&gt;Node2</title>
<g id="a_edge3_Node000003_Node000002"><a xlink:title=" ">
<path fill="none" stroke="#63b8ff" d="M1061.64,-713.18C1071.79,-705.24 1082.06,-695.4 1089,-684.25 1108.47,-652.94 1108,-640.37 1108,-603.5 1108,-603.5 1108,-603.5 1108,-136 1108,-85.79 1074.34,-76.82 1029,-55.25 954.46,-19.79 711.49,-12.46 600.38,-10.98"/>
<polygon fill="#63b8ff" stroke="#63b8ff" points="1059.66,-710.29 1053.68,-719.04 1063.81,-715.94 1059.66,-710.29"/>
</a>
</g>
</g>
<!-- Node4 -->
<g id="Node000004" class="node">
<title>Node4</title>
<g id="a_Node000004"><a xlink:href="material_8h_source.html" target="_top" xlink:title=" ">
<polygon fill="white" stroke="#666666" points="1080.25,-684.25 975.75,-684.25 975.75,-653.75 1080.25,-653.75 1080.25,-684.25"/>
<text text-anchor="start" x="983.75" y="-670.75" font-family="Helvetica,sans-Serif" font-size="10.00">include/MIDSX/Core</text>
<text text-anchor="middle" x="1028" y="-659.5" font-family="Helvetica,sans-Serif" font-size="10.00">/material.h</text>
</a>
</g>
</g>
<!-- Node3&#45;&gt;Node4 -->
<g id="edge4_Node000003_Node000004" class="edge">
<title>Node3&#45;&gt;Node4</title>
<g id="a_edge4_Node000003_Node000004"><a xlink:title=" ">
<path fill="none" stroke="#63b8ff" d="M1028,-708.56C1028,-700.39 1028,-691.66 1028,-684.58"/>
<polygon fill="#63b8ff" stroke="#63b8ff" points="1024.5,-708.35 1028,-718.35 1031.5,-708.35 1024.5,-708.35"/>
</a>
</g>
</g>
<!-- Node4&#45;&gt;Node2 -->
<g id="edge5_Node000004_Node000002" class="edge">
<title>Node4&#45;&gt;Node2</title>
<g id="a_edge5_Node000004_Node000002"><a xlink:title=" ">
<path fill="none" stroke="#63b8ff" d="M1040.86,-643.57C1053.21,-617.81 1070,-575.66 1070,-537 1070,-537 1070,-537 1070,-136 1070,-83.57 1031.71,-76.99 984,-55.25 916.92,-24.69 702.96,-14.87 600.17,-11.87"/>
<polygon fill="#63b8ff" stroke="#63b8ff" points="1037.89,-641.69 1036.57,-652.2 1044.16,-644.8 1037.89,-641.69"/>
</a>
</g>
</g>
<!-- Node5 -->
<g id="Node000005" class="node">
<title>Node5</title>
<g id="a_Node000005"><a xlink:href="interaction__data_8h.html" target="_top" xlink:title=" ">
<polygon fill="white" stroke="#666666" points="828.25,-617.75 723.75,-617.75 723.75,-587.25 828.25,-587.25 828.25,-617.75"/>
<text text-anchor="start" x="731.75" y="-604.25" font-family="Helvetica,sans-Serif" font-size="10.00">include/MIDSX/Core</text>
<text text-anchor="middle" x="776" y="-593" font-family="Helvetica,sans-Serif" font-size="10.00">/interaction_data.h</text>
</a>
</g>
</g>
<!-- Node4&#45;&gt;Node5 -->
<g id="edge6_Node000004_Node000005" class="edge">
<title>Node4&#45;&gt;Node5</title>
<g id="a_edge6_Node000004_Node000005"><a xlink:title=" ">
<path fill="none" stroke="#63b8ff" d="M964.53,-651.75C922.5,-641 868.03,-627.05 828.45,-616.93"/>
<polygon fill="#63b8ff" stroke="#63b8ff" points="963.46,-655.09 974.01,-654.18 965.19,-648.31 963.46,-655.09"/>
</a>
</g>
</g>
<!-- Node5&#45;&gt;Node2 -->
<g id="edge7_Node000005_Node000002" class="edge">
<title>Node5&#45;&gt;Node2</title>
<g id="a_edge7_Node000005_Node000002"><a xlink:title=" ">
<path fill="none" stroke="#63b8ff" d="M712.18,-596.88C532.94,-583.05 38,-538.7 38,-470.5 38,-470.5 38,-470.5 38,-136 38,-93.31 53.57,-77.5 90,-55.25 155.39,-15.31 381.31,-10.25 487.72,-10.16"/>
<polygon fill="#63b8ff" stroke="#63b8ff" points="711.77,-600.36 722.01,-597.63 712.3,-593.38 711.77,-600.36"/>
</a>
</g>
</g>
<!-- Node6 -->
<g id="Node000006" class="node">
<title>Node6</title>
<g id="a_Node000006"><a xlink:href="computational__domain_8h_source.html" target="_top" xlink:title=" ">
<polygon fill="white" stroke="#666666" points="966,-218.75 842,-218.75 842,-188.25 966,-188.25 966,-218.75"/>
<text text-anchor="start" x="850" y="-205.25" font-family="Helvetica,sans-Serif" font-size="10.00">include/MIDSX/Core</text>
<text text-anchor="middle" x="904" y="-194" font-family="Helvetica,sans-Serif" font-size="10.00">/computational_domain.h</text>
</a>
</g>
</g>
<!-- Node5&#45;&gt;Node6 -->
<g id="edge8_Node000005_Node000006" class="edge">
<title>Node5&#45;&gt;Node6</title>
<g id="a_edge8_Node000005_Node000006"><a xlink:title=" ">
<path fill="none" stroke="#63b8ff" d="M787.78,-576.59C798.94,-550.69 814,-508.66 814,-470.5 814,-470.5 814,-470.5 814,-402 814,-327.39 867.84,-250.05 892.23,-218.83"/>
<polygon fill="#63b8ff" stroke="#63b8ff" points="784.65,-575.03 783.76,-585.59 791.04,-577.89 784.65,-575.03"/>
</a>
</g>
</g>
<!-- Node7 -->
<g id="Node000007" class="node">
<title>Node7</title>
<g id="a_Node000007"><a xlink:href="physics__engine_8h_source.html" target="_top" xlink:title=" ">
<polygon fill="white" stroke="#666666" points="714.25,-152.25 609.75,-152.25 609.75,-121.75 714.25,-121.75 714.25,-152.25"/>
<text text-anchor="start" x="617.75" y="-138.75" font-family="Helvetica,sans-Serif" font-size="10.00">include/MIDSX/Core</text>
<text text-anchor="middle" x="662" y="-127.5" font-family="Helvetica,sans-Serif" font-size="10.00">/physics_engine.h</text>
</a>
</g>
</g>
<!-- Node5&#45;&gt;Node7 -->
<g id="edge48_Node000005_Node000007" class="edge">
<title>Node5&#45;&gt;Node7</title>
<g id="a_edge48_Node000005_Node000007"><a xlink:title=" ">
<path fill="none" stroke="#63b8ff" d="M776,-575.68C776,-549.26 776,-507.02 776,-470.5 776,-470.5 776,-470.5 776,-269 776,-215.79 721.81,-173.68 688.15,-152.66"/>
<polygon fill="#63b8ff" stroke="#63b8ff" points="772.5,-575.45 776,-585.45 779.5,-575.45 772.5,-575.45"/>
</a>
</g>
</g>
<!-- Node9 -->
<g id="Node000009" class="node">
<title>Node9</title>
<g id="a_Node000009"><a xlink:href="photon_8h_source.html" target="_top" xlink:title=" ">
<polygon fill="white" stroke="#666666" points="672.25,-484.75 567.75,-484.75 567.75,-454.25 672.25,-454.25 672.25,-484.75"/>
<text text-anchor="start" x="575.75" y="-471.25" font-family="Helvetica,sans-Serif" font-size="10.00">include/MIDSX/Core</text>
<text text-anchor="middle" x="620" y="-460" font-family="Helvetica,sans-Serif" font-size="10.00">/photon.h</text>
</a>
</g>
</g>
<!-- Node5&#45;&gt;Node9 -->
<g id="edge14_Node000005_Node000009" class="edge">
<title>Node5&#45;&gt;Node9</title>
<g id="a_edge14_Node000005_Node000009"><a xlink:title=" ">
<path fill="none" stroke="#63b8ff" d="M763.04,-577.06C752.87,-559.66 737.38,-536.64 719,-520.75 701.5,-505.62 678.66,-493.64 659.32,-485.17"/>
<polygon fill="#63b8ff" stroke="#63b8ff" points="759.97,-578.74 767.92,-585.73 766.07,-575.3 759.97,-578.74"/>
</a>
</g>
</g>
<!-- Node5&#45;&gt;Node19 -->
<g id="edge44_Node000005_Node000019" class="edge">
<title>Node5&#45;&gt;Node19</title>
<g id="a_edge44_Node000005_Node000019"><a xlink:title=" ">
<path fill="none" stroke="#63b8ff" d="M738.25,-581.54C719.93,-571.86 698.32,-560.43 681.57,-551.58"/>
<polygon fill="#63b8ff" stroke="#63b8ff" points="736.5,-584.58 746.98,-586.16 739.77,-578.39 736.5,-584.58"/>
</a>
</g>
</g>
<!-- Node20 -->
<g id="Node000020" class="node">
<title>Node20</title>
<g id="a_Node000020"><a xlink:href="voxel__grid_8h_source.html" target="_top" xlink:title=" ">
<polygon fill="white" stroke="#666666" points="1004.25,-285.25 899.75,-285.25 899.75,-254.75 1004.25,-254.75 1004.25,-285.25"/>
<text text-anchor="start" x="907.75" y="-271.75" font-family="Helvetica,sans-Serif" font-size="10.00">include/MIDSX/Core</text>
<text text-anchor="middle" x="952" y="-260.5" font-family="Helvetica,sans-Serif" font-size="10.00">/voxel_grid.h</text>
</a>
</g>
</g>
<!-- Node5&#45;&gt;Node20 -->
<g id="edge49_Node000005_Node000020" class="edge">
<title>Node5&#45;&gt;Node20</title>
<g id="a_edge49_Node000005_Node000020"><a xlink:title=" ">
<path fill="none" stroke="#63b8ff" d="M808.79,-580.42C851.97,-550.46 925.84,-491.02 955,-418.25 973.26,-372.68 962.44,-312.64 955.89,-285.46"/>
<polygon fill="#63b8ff" stroke="#63b8ff" points="806.84,-577.51 800.54,-586.03 810.78,-583.3 806.84,-577.51"/>
</a>
</g>
</g>
<!-- Node6&#45;&gt;Node2 -->
<g id="edge9_Node000006_Node000002" class="edge">
<title>Node6&#45;&gt;Node2</title>
<g id="a_edge9_Node000006_Node000002"><a xlink:title=" ">
<path fill="none" stroke="#63b8ff" d="M907.91,-176.82C911.35,-143.71 911.57,-86.68 879,-55.25 840.31,-17.92 685.36,-11.17 600.41,-10.34"/>
<polygon fill="#63b8ff" stroke="#63b8ff" points="904.49,-175.99 906.74,-186.34 911.43,-176.84 904.49,-175.99"/>
</a>
</g>
</g>
<!-- Node6&#45;&gt;Node7 -->
<g id="edge10_Node000006_Node000007" class="edge">
<title>Node6&#45;&gt;Node7</title>
<g id="a_edge10_Node000006_Node000007"><a xlink:title=" ">
<path fill="none" stroke="#63b8ff" d="M838.1,-184.94C799.24,-174.58 750.75,-161.65 714.49,-151.99"/>
<polygon fill="#63b8ff" stroke="#63b8ff" points="836.76,-188.2 847.32,-187.39 838.56,-181.44 836.76,-188.2"/>
</a>
</g>
</g>
<!-- Node7&#45;&gt;Node2 -->
<g id="edge11_Node000007_Node000002" class="edge">
<title>Node7&#45;&gt;Node2</title>
<g id="a_edge11_Node000007_Node000002"><a xlink:title=" ">
<path fill="none" stroke="#63b8ff" d="M644.43,-112.32C631.68,-95.71 613.66,-73.34 596,-55.25 583.04,-41.97 566.56,-28.3 555.67,-19.65"/>
<polygon fill="#63b8ff" stroke="#63b8ff" points="641.53,-114.29 650.36,-120.15 647.11,-110.06 641.53,-114.29"/>
</a>
</g>
</g>
<!-- Node8 -->
<g id="Node000008" class="node">
<title>Node8</title>
<g id="a_Node000008"><a xlink:href="run__simulation_8h.html" target="_top" xlink:title="Contains the runSimulation function.">
<polygon fill="white" stroke="#666666" points="870.25,-85.75 765.75,-85.75 765.75,-55.25 870.25,-55.25 870.25,-85.75"/>
<text text-anchor="start" x="773.75" y="-72.25" font-family="Helvetica,sans-Serif" font-size="10.00">include/MIDSX/Core</text>
<text text-anchor="middle" x="818" y="-61" font-family="Helvetica,sans-Serif" font-size="10.00">/run_simulation.h</text>
</a>
</g>
</g>
<!-- Node7&#45;&gt;Node8 -->
<g id="edge12_Node000007_Node000008" class="edge">
<title>Node7&#45;&gt;Node8</title>
<g id="a_edge12_Node000007_Node000008"><a xlink:title=" ">
<path fill="none" stroke="#63b8ff" d="M707.96,-117C731.76,-107.16 760.38,-95.32 782.47,-86.19"/>
<polygon fill="#63b8ff" stroke="#63b8ff" points="706.7,-113.73 698.8,-120.79 709.38,-120.2 706.7,-113.73"/>
</a>
</g>
</g>
<!-- Node8&#45;&gt;Node2 -->
<g id="edge13_Node000008_Node000002" class="edge">
<title>Node8&#45;&gt;Node2</title>
<g id="a_edge13_Node000008_Node000002"><a xlink:title=" ">
<path fill="none" stroke="#63b8ff" d="M754.47,-55.78C753.64,-55.6 752.82,-55.43 752,-55.25 694.59,-42.89 628.26,-28.67 586.23,-19.67"/>
<polygon fill="#63b8ff" stroke="#63b8ff" points="753.41,-59.13 763.93,-57.82 754.89,-52.29 753.41,-59.13"/>
</a>
</g>
</g>
<!-- Node9&#45;&gt;Node2 -->
<g id="edge15_Node000009_Node000002" class="edge">
<title>Node9&#45;&gt;Node2</title>
<g id="a_edge15_Node000009_Node000002"><a xlink:title=" ">
<path fill="none" stroke="#63b8ff" d="M555.81,-465.33C419.61,-456.85 114,-427.77 114,-337.5 114,-337.5 114,-337.5 114,-136 114,-84.53 150.65,-77.63 197,-55.25 247.05,-31.09 402.86,-18.67 487.65,-13.55"/>
<polygon fill="#63b8ff" stroke="#63b8ff" points="555.58,-468.82 565.77,-465.93 556,-461.84 555.58,-468.82"/>
</a>
</g>
</g>
<!-- Node9&#45;&gt;Node7 -->
<g id="edge16_Node000009_Node000007" class="edge">
<title>Node9&#45;&gt;Node7</title>
<g id="a_edge16_Node000009_Node000007"><a xlink:title=" ">
<path fill="none" stroke="#63b8ff" d="M632.86,-444.07C645.21,-418.31 662,-376.16 662,-337.5 662,-337.5 662,-337.5 662,-269 662,-226.7 662,-176.71 662,-152.54"/>
<polygon fill="#63b8ff" stroke="#63b8ff" points="629.89,-442.19 628.57,-452.7 636.16,-445.3 629.89,-442.19"/>
</a>
</g>
</g>
<!-- Node9&#45;&gt;Node10 -->
<g id="edge17_Node000009_Node000010" class="edge">
<title>Node9&#45;&gt;Node10</title>
<g id="a_edge17_Node000009_Node000010"><a xlink:title=" ">
<path fill="none" stroke="#63b8ff" d="M683.7,-453.5C731.69,-442.21 796.7,-426.91 841.67,-416.32"/>
<polygon fill="#63b8ff" stroke="#63b8ff" points="682.91,-450.09 673.98,-455.79 684.51,-456.91 682.91,-450.09"/>
</a>
</g>
</g>
<!-- Node11 -->
<g id="Node000011" class="node">
<title>Node11</title>
<g id="a_Node000011"><a xlink:href="surface__quantity_8h_source.html" target="_top" xlink:title=" ">
<polygon fill="white" stroke="#666666" points="313.25,-351.75 208.75,-351.75 208.75,-321.25 313.25,-321.25 313.25,-351.75"/>
<text text-anchor="start" x="216.75" y="-338.25" font-family="Helvetica,sans-Serif" font-size="10.00">include/MIDSX/Core</text>
<text text-anchor="middle" x="261" y="-327" font-family="Helvetica,sans-Serif" font-size="10.00">/surface_quantity.h</text>
</a>
</g>
</g>
<!-- Node9&#45;&gt;Node11 -->
<g id="edge20_Node000009_Node000011" class="edge">
<title>Node9&#45;&gt;Node11</title>
<g id="a_edge20_Node000009_Node000011"><a xlink:title=" ">
<path fill="none" stroke="#63b8ff" d="M556.4,-461.46C507.78,-454.55 439.83,-441.55 384,-418.25 343.22,-401.23 301.38,-370.34 278.54,-352.09"/>
<polygon fill="#63b8ff" stroke="#63b8ff" points="555.83,-464.92 566.21,-462.8 556.78,-457.98 555.83,-464.92"/>
</a>
</g>
</g>
<!-- Node15 -->
<g id="Node000015" class="node">
<title>Node15</title>
<g id="a_Node000015"><a xlink:href="tally__data_8h_source.html" target="_top" xlink:title=" ">
<polygon fill="white" stroke="#666666" points="497.25,-418.25 392.75,-418.25 392.75,-387.75 497.25,-387.75 497.25,-418.25"/>
<text text-anchor="start" x="400.75" y="-404.75" font-family="Helvetica,sans-Serif" font-size="10.00">include/MIDSX/Core</text>
<text text-anchor="middle" x="445" y="-393.5" font-family="Helvetica,sans-Serif" font-size="10.00">/tally_data.h</text>
</a>
</g>
</g>
<!-- Node9&#45;&gt;Node15 -->
<g id="edge29_Node000009_Node000015" class="edge">
<title>Node9&#45;&gt;Node15</title>
<g id="a_edge29_Node000009_Node000015"><a xlink:title=" ">
<path fill="none" stroke="#63b8ff" d="M569.53,-449.9C542.61,-439.98 509.97,-427.95 484.86,-418.69"/>
<polygon fill="#63b8ff" stroke="#63b8ff" points="568.28,-453.17 578.87,-453.34 570.7,-446.6 568.28,-453.17"/>
</a>
</g>
</g>
<!-- Node10&#45;&gt;Node2 -->
<g id="edge18_Node000010_Node000002" class="edge">
<title>Node10&#45;&gt;Node2</title>
<g id="a_edge18_Node000010_Node000002"><a xlink:title=" ">
<path fill="none" stroke="#63b8ff" d="M939.01,-382.14C979.28,-360.97 1032,-323.27 1032,-271 1032,-271 1032,-271 1032,-136 1032,-79.56 985.95,-77.31 934,-55.25 875.19,-30.28 693.32,-17.95 600.19,-13.14"/>
<polygon fill="#63b8ff" stroke="#63b8ff" points="937.52,-378.98 930.17,-386.61 940.68,-385.22 937.52,-378.98"/>
</a>
</g>
</g>
<!-- Node10&#45;&gt;Node8 -->
<g id="edge19_Node000010_Node000008" class="edge">
<title>Node10&#45;&gt;Node8</title>
<g id="a_edge19_Node000010_Node000008"><a xlink:title=" ">
<path fill="none" stroke="#63b8ff" d="M883.71,-376.99C869.85,-342.16 845.45,-276.77 833,-218.75 822.7,-170.76 819.42,-112.41 818.42,-85.88"/>
<polygon fill="#63b8ff" stroke="#63b8ff" points="880.43,-378.21 887.42,-386.17 886.92,-375.59 880.43,-378.21"/>
</a>
</g>
</g>
<!-- Node11&#45;&gt;Node2 -->
<g id="edge21_Node000011_Node000002" class="edge">
<title>Node11&#45;&gt;Node2</title>
<g id="a_edge21_Node000011_Node000002"><a xlink:title=" ">
<path fill="none" stroke="#63b8ff" d="M208.84,-315.77C194.74,-308.16 180.71,-298.13 171,-285.25 148.8,-255.82 152,-241.37 152,-204.5 152,-204.5 152,-204.5 152,-136 152,-66.33 379.44,-30.06 487.84,-16.72"/>
<polygon fill="#63b8ff" stroke="#63b8ff" points="207.2,-318.86 217.71,-320.2 210.33,-312.6 207.2,-318.86"/>
</a>
</g>
</g>
<!-- Node12 -->
<g id="Node000012" class="node">
<title>Node12</title>
<g id="a_Node000012"><a xlink:href="surface__quantity__container_8h_source.html" target="_top" xlink:title=" ">
<polygon fill="white" stroke="#666666" points="322.38,-285.25 179.62,-285.25 179.62,-254.75 322.38,-254.75 322.38,-285.25"/>
<text text-anchor="start" x="187.62" y="-271.75" font-family="Helvetica,sans-Serif" font-size="10.00">include/MIDSX/Core</text>
<text text-anchor="middle" x="251" y="-260.5" font-family="Helvetica,sans-Serif" font-size="10.00">/surface_quantity_container.h</text>
</a>
</g>
</g>
<!-- Node11&#45;&gt;Node12 -->
<g id="edge22_Node000011_Node000012" class="edge">
<title>Node11&#45;&gt;Node12</title>
<g id="a_edge22_Node000011_Node000012"><a xlink:title=" ">
<path fill="none" stroke="#63b8ff" d="M256.98,-309.56C255.71,-301.39 254.36,-292.66 253.26,-285.58"/>
<polygon fill="#63b8ff" stroke="#63b8ff" points="253.51,-310.02 258.5,-319.37 260.43,-308.95 253.51,-310.02"/>
</a>
</g>
</g>
<!-- Node12&#45;&gt;Node2 -->
<g id="edge23_Node000012_Node000002" class="edge">
<title>Node12&#45;&gt;Node2</title>
<g id="a_edge23_Node000012_Node000002"><a xlink:title=" ">
<path fill="none" stroke="#63b8ff" d="M258.7,-243.87C269.19,-212.64 290.37,-158.94 322,-121.75 370.86,-64.29 456.66,-33.46 506.06,-19.7"/>
<polygon fill="#63b8ff" stroke="#63b8ff" points="255.42,-242.62 255.67,-253.21 262.08,-244.78 255.42,-242.62"/>
</a>
</g>
</g>
<!-- Node13 -->
<g id="Node000013" class="node">
<title>Node13</title>
<g id="a_Node000013"><a xlink:href="surface__tally_8h_source.html" target="_top" xlink:title=" ">
<polygon fill="white" stroke="#666666" points="435.25,-218.75 330.75,-218.75 330.75,-188.25 435.25,-188.25 435.25,-218.75"/>
<text text-anchor="start" x="338.75" y="-205.25" font-family="Helvetica,sans-Serif" font-size="10.00">include/MIDSX/Core</text>
<text text-anchor="middle" x="383" y="-194" font-family="Helvetica,sans-Serif" font-size="10.00">/surface_tally.h</text>
</a>
</g>
</g>
<!-- Node12&#45;&gt;Node13 -->
<g id="edge24_Node000012_Node000013" class="edge">
<title>Node12&#45;&gt;Node13</title>
<g id="a_edge24_Node000012_Node000013"><a xlink:title=" ">
<path fill="none" stroke="#63b8ff" d="M291.29,-249.31C311.23,-239.57 334.88,-228.01 353.17,-219.08"/>
<polygon fill="#63b8ff" stroke="#63b8ff" points="289.76,-246.16 282.31,-253.7 292.83,-252.45 289.76,-246.16"/>
</a>
</g>
</g>
<!-- Node13&#45;&gt;Node2 -->
<g id="edge25_Node000013_Node000002" class="edge">
<title>Node13&#45;&gt;Node2</title>
<g id="a_edge25_Node000013_Node000002"><a xlink:title=" ">
<path fill="none" stroke="#63b8ff" d="M413.61,-180.98C424.44,-172.64 436.32,-162.61 446,-152.25 488.05,-107.24 525.88,-42.96 539.06,-19.57"/>
<polygon fill="#63b8ff" stroke="#63b8ff" points="411.56,-178.14 405.66,-186.93 415.76,-183.74 411.56,-178.14"/>
</a>
</g>
</g>
<!-- Node13&#45;&gt;Node7 -->
<g id="edge28_Node000013_Node000007" class="edge">
<title>Node13&#45;&gt;Node7</title>
<g id="a_edge28_Node000013_Node000007"><a xlink:title=" ">
<path fill="none" stroke="#63b8ff" d="M446.62,-187.79C495.81,-176.42 563.08,-160.87 609.28,-150.19"/>
<polygon fill="#63b8ff" stroke="#63b8ff" points="445.91,-184.36 436.95,-190.03 447.48,-191.18 445.91,-184.36"/>
</a>
</g>
</g>
<!-- Node14 -->
<g id="Node000014" class="node">
<title>Node14</title>
<g id="a_Node000014"><a xlink:href="derived__quantities_8h_source.html" target="_top" xlink:title=" ">
<polygon fill="white" stroke="#666666" points="436.62,-152.25 331.38,-152.25 331.38,-121.75 436.62,-121.75 436.62,-152.25"/>
<text text-anchor="start" x="339.38" y="-138.75" font-family="Helvetica,sans-Serif" font-size="10.00">include/MIDSX/Core</text>
<text text-anchor="middle" x="384" y="-127.5" font-family="Helvetica,sans-Serif" font-size="10.00">/derived_quantities.h</text>
</a>
</g>
</g>
<!-- Node13&#45;&gt;Node14 -->
<g id="edge26_Node000013_Node000014" class="edge">
<title>Node13&#45;&gt;Node14</title>
<g id="a_edge26_Node000013_Node000014"><a xlink:title=" ">
<path fill="none" stroke="#63b8ff" d="M383.4,-176.56C383.53,-168.39 383.66,-159.66 383.77,-152.58"/>
<polygon fill="#63b8ff" stroke="#63b8ff" points="379.91,-176.3 383.25,-186.35 386.91,-176.41 379.91,-176.3"/>
</a>
</g>
</g>
<!-- Node14&#45;&gt;Node2 -->
<g id="edge27_Node000014_Node000002" class="edge">
<title>Node14&#45;&gt;Node2</title>
<g id="a_edge27_Node000014_Node000002"><a xlink:title=" ">
<path fill="none" stroke="#63b8ff" d="M399.85,-112.26C412.41,-94.8 431.25,-71.39 452,-55.25 472.31,-39.44 499.13,-27.23 518.57,-19.6"/>
<polygon fill="#63b8ff" stroke="#63b8ff" points="397.28,-109.82 394.41,-120.02 403.01,-113.84 397.28,-109.82"/>
</a>
</g>
</g>
<!-- Node15&#45;&gt;Node2 -->
<g id="edge30_Node000015_Node000002" class="edge">
<title>Node15&#45;&gt;Node2</title>
<g id="a_edge30_Node000015_Node000002"><a xlink:title=" ">
<path fill="none" stroke="#63b8ff" d="M508.93,-391.59C540.04,-384.23 576.72,-371.94 605,-351.75 688.84,-291.89 708.01,-254.17 723,-152.25 724.97,-138.84 729.38,-133.71 723,-121.75 698.07,-74.97 669.18,-82.96 624,-55.25 602.72,-42.2 577.45,-28.37 561.09,-19.63"/>
<polygon fill="#63b8ff" stroke="#63b8ff" points="508.22,-388.16 499.22,-393.76 509.74,-394.99 508.22,-388.16"/>
</a>
</g>
</g>
<!-- Node15&#45;&gt;Node11 -->
<g id="edge32_Node000015_Node000011" class="edge">
<title>Node15&#45;&gt;Node11</title>
<g id="a_edge32_Node000015_Node000011"><a xlink:title=" ">
<path fill="none" stroke="#63b8ff" d="M392.68,-383.66C364.24,-373.69 329.54,-361.53 302.91,-352.19"/>
<polygon fill="#63b8ff" stroke="#63b8ff" points="391.22,-386.86 401.82,-386.86 393.54,-380.25 391.22,-386.86"/>
</a>
</g>
</g>
<!-- Node15&#45;&gt;Node13 -->
<g id="edge33_Node000015_Node000013" class="edge">
<title>Node15&#45;&gt;Node13</title>
<g id="a_edge33_Node000015_Node000013"><a xlink:title=" ">
<path fill="none" stroke="#63b8ff" d="M436.89,-376.63C434.36,-368.67 431.55,-359.85 429,-351.75 413.69,-303.22 395.77,-245.62 387.54,-219.14"/>
<polygon fill="#63b8ff" stroke="#63b8ff" points="433.52,-377.59 439.9,-386.05 440.19,-375.46 433.52,-377.59"/>
</a>
</g>
</g>
<!-- Node15&#45;&gt;Node14 -->
<g id="edge31_Node000015_Node000014" class="edge">
<title>Node15&#45;&gt;Node14</title>
<g id="a_edge31_Node000015_Node000014"><a xlink:title=" ">
<path fill="none" stroke="#63b8ff" d="M422.9,-379.13C393.18,-346.63 341.79,-283.75 322,-218.75 318.05,-205.78 316.17,-200.49 322,-188.25 329.21,-173.12 343.46,-161.06 356.48,-152.56"/>
<polygon fill="#63b8ff" stroke="#63b8ff" points="420.25,-381.43 429.63,-386.37 425.38,-376.66 420.25,-381.43"/>
</a>
</g>
</g>
<!-- Node16 -->
<g id="Node000016" class="node">
<title>Node16</title>
<g id="a_Node000016"><a xlink:href="volume__quantity_8h_source.html" target="_top" xlink:title=" ">
<polygon fill="white" stroke="#666666" points="596.25,-351.75 491.75,-351.75 491.75,-321.25 596.25,-321.25 596.25,-351.75"/>
<text text-anchor="start" x="499.75" y="-338.25" font-family="Helvetica,sans-Serif" font-size="10.00">include/MIDSX/Core</text>
<text text-anchor="middle" x="544" y="-327" font-family="Helvetica,sans-Serif" font-size="10.00">/volume_quantity.h</text>
</a>
</g>
</g>
<!-- Node15&#45;&gt;Node16 -->
<g id="edge34_Node000015_Node000016" class="edge">
<title>Node15&#45;&gt;Node16</title>
<g id="a_edge34_Node000015_Node000016"><a xlink:title=" ">
<path fill="none" stroke="#63b8ff" d="M477.09,-381.09C491.64,-371.62 508.48,-360.64 521.62,-352.08"/>
<polygon fill="#63b8ff" stroke="#63b8ff" points="475.2,-378.15 468.73,-386.54 479.02,-384.01 475.2,-378.15"/>
</a>
</g>
</g>
<!-- Node17 -->
<g id="Node000017" class="node">
<title>Node17</title>
<g id="a_Node000017"><a xlink:href="volume__quantity__container_8h_source.html" target="_top" xlink:title=" ">
<polygon fill="white" stroke="#666666" points="596,-285.25 454,-285.25 454,-254.75 596,-254.75 596,-285.25"/>
<text text-anchor="start" x="462" y="-271.75" font-family="Helvetica,sans-Serif" font-size="10.00">include/MIDSX/Core</text>
<text text-anchor="middle" x="525" y="-260.5" font-family="Helvetica,sans-Serif" font-size="10.00">/volume_quantity_container.h</text>
</a>
</g>
</g>
<!-- Node15&#45;&gt;Node17 -->
<g id="edge42_Node000015_Node000017" class="edge">
<title>Node15&#45;&gt;Node17</title>
<g id="a_edge42_Node000015_Node000017"><a xlink:title=" ">
<path fill="none" stroke="#63b8ff" d="M454.8,-377C461.69,-360.59 471.69,-338.97 483,-321.25 491.2,-308.41 502.32,-295.24 511.06,-285.61"/>
<polygon fill="#63b8ff" stroke="#63b8ff" points="451.66,-375.43 451.11,-386.01 458.14,-378.08 451.66,-375.43"/>
</a>
</g>
</g>
<!-- Node18 -->
<g id="Node000018" class="node">
<title>Node18</title>
<g id="a_Node000018"><a xlink:href="volume__tally_8h_source.html" target="_top" xlink:title=" ">
<polygon fill="white" stroke="#666666" points="558.25,-218.75 453.75,-218.75 453.75,-188.25 558.25,-188.25 558.25,-218.75"/>
<text text-anchor="start" x="461.75" y="-205.25" font-family="Helvetica,sans-Serif" font-size="10.00">include/MIDSX/Core</text>
<text text-anchor="middle" x="506" y="-194" font-family="Helvetica,sans-Serif" font-size="10.00">/volume_tally.h</text>
</a>
</g>
</g>
<!-- Node15&#45;&gt;Node18 -->
<g id="edge43_Node000015_Node000018" class="edge">
<title>Node15&#45;&gt;Node18</title>
<g id="a_edge43_Node000015_Node000018"><a xlink:title=" ">
<path fill="none" stroke="#63b8ff" d="M438.67,-376.35C432.5,-345.79 426.51,-293.94 445,-254.75 452.08,-239.74 466.1,-227.69 478.91,-219.16"/>
<polygon fill="#63b8ff" stroke="#63b8ff" points="435.19,-376.82 440.75,-385.84 442.02,-375.32 435.19,-376.82"/>
</a>
</g>
</g>
<!-- Node16&#45;&gt;Node2 -->
<g id="edge35_Node000016_Node000002" class="edge">
<title>Node16&#45;&gt;Node2</title>
<g id="a_edge35_Node000016_Node000002"><a xlink:title=" ">
<path fill="none" stroke="#63b8ff" d="M580.19,-314.27C590.09,-306.5 599.58,-296.75 605,-285.25 616.19,-261.54 616.51,-193.09 568,-55.25 563.39,-42.14 555.33,-28.21 549.83,-19.47"/>
<polygon fill="#63b8ff" stroke="#63b8ff" points="578.38,-311.27 572.32,-319.96 582.47,-316.94 578.38,-311.27"/>
</a>
</g>
</g>
<!-- Node16&#45;&gt;Node17 -->
<g id="edge36_Node000016_Node000017" class="edge">
<title>Node16&#45;&gt;Node17</title>
<g id="a_edge36_Node000016_Node000017"><a xlink:title=" ">
<path fill="none" stroke="#63b8ff" d="M536.44,-309.84C534.01,-301.59 531.41,-292.74 529.29,-285.58"/>
<polygon fill="#63b8ff" stroke="#63b8ff" points="533.08,-310.81 539.26,-319.41 539.79,-308.83 533.08,-310.81"/>
</a>
</g>
</g>
<!-- Node17&#45;&gt;Node2 -->
<g id="edge37_Node000017_Node000002" class="edge">
<title>Node17&#45;&gt;Node2</title>
<g id="a_edge37_Node000017_Node000002"><a xlink:title=" ">
<path fill="none" stroke="#63b8ff" d="M549.69,-246.28C556.66,-238.33 563.34,-228.85 567,-218.75 573.88,-199.78 551.53,-57.2 545.47,-19.66"/>
<polygon fill="#63b8ff" stroke="#63b8ff" points="547.22,-243.8 542.88,-253.46 552.3,-248.61 547.22,-243.8"/>
</a>
</g>
</g>
<!-- Node17&#45;&gt;Node18 -->
<g id="edge38_Node000017_Node000018" class="edge">
<title>Node17&#45;&gt;Node18</title>
<g id="a_edge38_Node000017_Node000018"><a xlink:title=" ">
<path fill="none" stroke="#63b8ff" d="M517.44,-243.34C515.01,-235.09 512.41,-226.24 510.29,-219.08"/>
<polygon fill="#63b8ff" stroke="#63b8ff" points="514.08,-244.31 520.26,-252.91 520.79,-242.33 514.08,-244.31"/>
</a>
</g>
</g>
<!-- Node18&#45;&gt;Node2 -->
<g id="edge39_Node000018_Node000002" class="edge">
<title>Node18&#45;&gt;Node2</title>
<g id="a_edge39_Node000018_Node000002"><a xlink:title=" ">
<path fill="none" stroke="#63b8ff" d="M509.06,-176.81C512.84,-147.25 520.01,-97.37 530,-55.25 532.96,-42.77 537.6,-28.69 540.72,-19.75"/>
<polygon fill="#63b8ff" stroke="#63b8ff" points="505.6,-176.29 507.84,-186.65 512.54,-177.16 505.6,-176.29"/>
</a>
</g>
</g>
<!-- Node18&#45;&gt;Node7 -->
<g id="edge41_Node000018_Node000007" class="edge">
<title>Node18&#45;&gt;Node7</title>
<g id="a_edge41_Node000018_Node000007"><a xlink:title=" ">
<path fill="none" stroke="#63b8ff" d="M551.96,-183.5C575.76,-173.66 604.38,-161.82 626.47,-152.69"/>
<polygon fill="#63b8ff" stroke="#63b8ff" points="550.7,-180.23 542.8,-187.29 553.38,-186.7 550.7,-180.23"/>
</a>
</g>
</g>
<!-- Node18&#45;&gt;Node14 -->
<g id="edge40_Node000018_Node000014" class="edge">
<title>Node18&#45;&gt;Node14</title>
<g id="a_edge40_Node000018_Node000014"><a xlink:title=" ">
<path fill="none" stroke="#63b8ff" d="M468.25,-182.54C449.93,-172.86 428.32,-161.43 411.57,-152.58"/>
<polygon fill="#63b8ff" stroke="#63b8ff" points="466.5,-185.58 476.98,-187.16 469.77,-179.39 466.5,-185.58"/>
</a>
</g>
</g>
<!-- Node19&#45;&gt;Node2 -->
<g id="edge45_Node000019_Node000002" class="edge">
<title>Node19&#45;&gt;Node2</title>
<g id="a_edge45_Node000019_Node000002"><a xlink:title=" ">
<path fill="none" stroke="#63b8ff" d="M586.57,-533.81C434.1,-529.3 76,-507.66 76,-404 76,-404 76,-404 76,-136 76,-91.55 96.52,-77.5 135,-55.25 193.67,-21.33 390.07,-13.18 487.79,-11.23"/>
<polygon fill="#63b8ff" stroke="#63b8ff" points="586.45,-537.31 596.54,-534.09 586.64,-530.31 586.45,-537.31"/>
</a>
</g>
</g>
<!-- Node19&#45;&gt;Node7 -->
<g id="edge47_Node000019_Node000007" class="edge">
<title>Node19&#45;&gt;Node7</title>
<g id="a_edge47_Node000019_Node000007"><a xlink:title=" ">
<path fill="none" stroke="#63b8ff" d="M668.71,-510.7C673.13,-502.65 677.68,-493.51 681,-484.75 694.06,-450.27 700,-440.87 700,-404 700,-404 700,-404 700,-269 700,-225.19 680.16,-176.29 669.15,-152.53"/>
<polygon fill="#63b8ff" stroke="#63b8ff" points="665.77,-508.8 663.84,-519.22 671.85,-512.27 665.77,-508.8"/>
</a>
</g>
</g>
<!-- Node19&#45;&gt;Node9 -->
<g id="edge46_Node000019_Node000009" class="edge">
<title>Node19&#45;&gt;Node9</title>
<g id="a_edge46_Node000019_Node000009"><a xlink:title=" ">
<path fill="none" stroke="#63b8ff" d="M640.92,-510.19C636.45,-501.71 631.59,-492.49 627.68,-485.08"/>
<polygon fill="#63b8ff" stroke="#63b8ff" points="637.82,-511.81 645.58,-519.03 644.01,-508.55 637.82,-511.81"/>
</a>
</g>
</g>
<!-- Node20&#45;&gt;Node2 -->
<g id="edge50_Node000020_Node000002" class="edge">
<title>Node20&#45;&gt;Node2</title>
<g id="a_edge50_Node000020_Node000002"><a xlink:title=" ">
<path fill="none" stroke="#63b8ff" d="M965.73,-244.56C969.51,-236.58 973.09,-227.51 975,-218.75 977.89,-205.51 978.33,-201.39 975,-188.25 958.49,-123.09 958.51,-93.16 903,-55.25 855.02,-22.49 688.91,-13.77 600.45,-11.46"/>
<polygon fill="#63b8ff" stroke="#63b8ff" points="962.7,-242.78 961.28,-253.28 968.94,-245.96 962.7,-242.78"/>
</a>
</g>
</g>
<!-- Node20&#45;&gt;Node6 -->
<g id="edge51_Node000020_Node000006" class="edge">
<title>Node20&#45;&gt;Node6</title>
<g id="a_edge51_Node000020_Node000006"><a xlink:title=" ">
<path fill="none" stroke="#63b8ff" d="M934.38,-245.32C927.83,-236.53 920.61,-226.82 914.85,-219.08"/>
<polygon fill="#63b8ff" stroke="#63b8ff" points="931.43,-247.22 940.2,-253.15 937.04,-243.04 931.43,-247.22"/>
</a>
</g>
</g>
</g>
</svg>

<g id="navigator" transform="translate(0 0)" fill="#404254">
  <rect fill="#f2f5e9" fill-opacity="0.5" stroke="#606060" stroke-width=".5" x="0" y="0" width="60" height="60"/>
  <use id="zoomplus" xlink:href="#zoomPlus" x="17" y="9" onmousedown="handleZoom(evt,'in')"/>
  <use id="zoomminus" xlink:href="#zoomMin" x="42" y="9" onmousedown="handleZoom(evt,'out')"/>
  <use id="reset" xlink:href="#resetDef" x="30" y="36" onmousedown="handleReset()"/>
   <use id="arrowup" xlink:href="#arrowUp" x="0" y="0" onmousedown="handlePan(0,-1)"/>
  <use id="arrowright" xlink:href="#arrowRight" x="0" y="0" onmousedown="handlePan(1,0)"/>
  <use id="arrowdown" xlink:href="#arrowDown" x="0" y="0" onmousedown="handlePan(0,1)"/>
  <use id="arrowleft" xlink:href="#arrowLeft" x="0" y="0" onmousedown="handlePan(-1,0)"/>
</g>
<svg viewBox="0 0 15 15" width="100%" height="30px" preserveAspectRatio="xMaxYMin meet">
 <g id="arrow_out" transform="scale(0.3 0.3)">
  <a xlink:href="constants_8h__dep__incl_org.svg" target="_base">
   <rect id="button" ry="5" rx="5" y="6" x="6" height="38" width="38"
        fill="#f2f5e9" fill-opacity="0.5" stroke="#606060" stroke-width="1.0"/>
   <path id="arrow"
     d="M 11.500037,31.436501 C 11.940474,20.09759 22.043105,11.32322 32.158766,21.979434 L 37.068811,17.246167 C 37.068811,17.246167 37.088388,32 37.088388,32 L 22.160133,31.978069 C 22.160133,31.978069 26.997745,27.140456 26.997745,27.140456 C 18.528582,18.264221 13.291696,25.230495 11.500037,31.436501 z"
     style="fill:#404040;"/>
  </a>
 </g>
</svg>

<style type='text/css'>
<![CDATA[
[data-mouse-over-selected='false'] { opacity: 0.7; }
[data-mouse-over-selected='true']  { opacity: 1.0; }
]]>
</style>
<script type="application/ecmascript"><![CDATA[
document.addEventListener('DOMContentLoaded', (event) => {
  highlightEdges();
  highlightAdjacentNodes();
});
]]></script>
</svg>
