<?xml version="1.0" encoding="UTF-8" standalone="no"?>
<!DOCTYPE svg PUBLIC "-//W3C//DTD SVG 1.1//EN"
 "http://www.w3.org/Graphics/SVG/1.1/DTD/svg11.dtd">
<!-- Generated by graphviz version 9.0.0 (20230911.1827)
 -->
<!-- Title: Graphical Class Hierarchy Pages: 1 -->
<svg width="253pt" height="64pt"
 viewBox="0.00 0.00 253.00 64.25" xmlns="http://www.w3.org/2000/svg" xmlns:xlink="http://www.w3.org/1999/xlink">
<g id="graph0" class="graph" transform="scale(1 1) rotate(0) translate(4 60.25)">
<title>Graphical Class Hierarchy</title>
<!-- Node0 -->
<g id="Node000000" class="node">
<title>Node0</title>
<g id="a_Node000000"><a xlink:href="class_energy_spectrum.html" target="_top" xlink:title="Virtual class which represents an energy spectrum for a photon source.">
<polygon fill="white" stroke="#666666" points="87.25,-37.25 0,-37.25 0,-18 87.25,-18 87.25,-37.25"/>
<text text-anchor="middle" x="43.62" y="-23.75" font-family="Helvetica,sans-Serif" font-size="10.00">EnergySpectrum</text>
</a>
</g>
</g>
<!-- Node1 -->
<g id="Node000001" class="node">
<title>Node1</title>
<g id="a_Node000001"><a xlink:href="class_monoenergetic_spectrum.html" target="_top" xlink:title="Class which represents a monoenergetic energy spectrum.">
<polygon fill="white" stroke="#666666" points="245,-56.25 123.25,-56.25 123.25,-37 245,-37 245,-56.25"/>
<text text-anchor="middle" x="184.12" y="-42.75" font-family="Helvetica,sans-Serif" font-size="10.00">MonoenergeticSpectrum</text>
</a>
</g>
</g>
<!-- Node0&#45;&gt;Node1 -->
<g id="edge5_Node000000_Node000001" class="edge">
<title>Node0&#45;&gt;Node1</title>
<g id="a_edge5_Node000000_Node000001"><a xlink:title=" ">
<path fill="none" stroke="#63b8ff" d="M98.92,-35.07C106.76,-36.15 114.86,-37.26 122.8,-38.35"/>
<polygon fill="#63b8ff" stroke="#63b8ff" points="99.57,-31.63 89.19,-33.74 98.62,-38.56 99.57,-31.63"/>
</a>
</g>
</g>
<!-- Node2 -->
<g id="Node000002" class="node">
<title>Node2</title>
<g id="a_Node000002"><a xlink:href="class_polyenergetic_spectrum.html" target="_top" xlink:title="Class which represents a polyenergetic energy spectrum.">
<polygon fill="white" stroke="#666666" points="242.38,-19.25 125.88,-19.25 125.88,0 242.38,0 242.38,-19.25"/>
<text text-anchor="middle" x="184.12" y="-5.75" font-family="Helvetica,sans-Serif" font-size="10.00">PolyenergeticSpectrum</text>
</a>
</g>
</g>
<!-- Node0&#45;&gt;Node2 -->
<g id="edge6_Node000000_Node000002" class="edge">
<title>Node0&#45;&gt;Node2</title>
<g id="a_edge6_Node000000_Node000002"><a xlink:title=" ">
<path fill="none" stroke="#63b8ff" d="M98.94,-20.57C107.68,-19.43 116.76,-18.25 125.58,-17.1"/>
<polygon fill="#63b8ff" stroke="#63b8ff" points="98.65,-17.07 89.19,-21.83 99.56,-24.02 98.65,-17.07"/>
</a>
</g>
</g>
</g>
</svg>
