<?xml version="1.0" encoding="UTF-8" standalone="no"?>
<!DOCTYPE svg PUBLIC "-//W3C//DTD SVG 1.1//EN"
 "http://www.w3.org/Graphics/SVG/1.1/DTD/svg11.dtd">
<!-- Generated by graphviz version 9.0.0 (20230911.1827)
 -->
<!-- Title: Graphical Class Hierarchy Pages: 1 -->
<svg width="283pt" height="101pt"
 viewBox="0.00 0.00 283.00 101.25" xmlns="http://www.w3.org/2000/svg" xmlns:xlink="http://www.w3.org/1999/xlink">
<g id="graph0" class="graph" transform="scale(1 1) rotate(0) translate(4 97.25)">
<title>Graphical Class Hierarchy</title>
<!-- Node0 -->
<g id="Node000000" class="node">
<title>Node0</title>
<g id="a_Node000000"><a xlink:href="class_particle_interaction_behavior.html" target="_top" xlink:title="Virtual class which represents the behavior of a particle when it interacts with a material.">
<polygon fill="white" stroke="#666666" points="133,-56.25 0,-56.25 0,-37 133,-37 133,-56.25"/>
<text text-anchor="middle" x="66.5" y="-42.75" font-family="Helvetica,sans-Serif" font-size="10.00">ParticleInteractionBehavior</text>
</a>
</g>
</g>
<!-- Node1 -->
<g id="Node000001" class="node">
<title>Node1</title>
<g id="a_Node000001"><a xlink:href="class_coherent_scattering.html" target="_top" xlink:title="Class which represents the coherent scattering interaction.">
<polygon fill="white" stroke="#666666" points="271.62,-93.25 172.38,-93.25 172.38,-74 271.62,-74 271.62,-93.25"/>
<text text-anchor="middle" x="222" y="-79.75" font-family="Helvetica,sans-Serif" font-size="10.00">CoherentScattering</text>
</a>
</g>
</g>
<!-- Node0&#45;&gt;Node1 -->
<g id="edge12_Node000000_Node000001" class="edge">
<title>Node0&#45;&gt;Node1</title>
<g id="a_edge12_Node000000_Node000001"><a xlink:title=" ">
<path fill="none" stroke="#63b8ff" d="M120.44,-59.39C139.62,-64.01 161.01,-69.16 179.11,-73.53"/>
<polygon fill="#63b8ff" stroke="#63b8ff" points="121.46,-56.03 110.92,-57.09 119.82,-62.84 121.46,-56.03"/>
</a>
</g>
</g>
<!-- Node2 -->
<g id="Node000002" class="node">
<title>Node2</title>
<g id="a_Node000002"><a xlink:href="class_incoherent_scattering.html" target="_top" xlink:title="Class which represents the incoherent scattering interaction.">
<polygon fill="white" stroke="#666666" points="275,-56.25 169,-56.25 169,-37 275,-37 275,-56.25"/>
<text text-anchor="middle" x="222" y="-42.75" font-family="Helvetica,sans-Serif" font-size="10.00">IncoherentScattering</text>
</a>
</g>
</g>
<!-- Node0&#45;&gt;Node2 -->
<g id="edge13_Node000000_Node000002" class="edge">
<title>Node0&#45;&gt;Node2</title>
<g id="a_edge13_Node000000_Node000002"><a xlink:title=" ">
<path fill="none" stroke="#63b8ff" d="M144.96,-46.62C153.09,-46.62 161.22,-46.62 168.96,-46.62"/>
<polygon fill="#63b8ff" stroke="#63b8ff" points="145,-43.13 135,-46.63 145,-50.13 145,-43.13"/>
</a>
</g>
</g>
<!-- Node3 -->
<g id="Node000003" class="node">
<title>Node3</title>
<g id="a_Node000003"><a xlink:href="class_photoelectric_effect.html" target="_top" xlink:title="Class which represents the photoelectric effect interaction.">
<polygon fill="white" stroke="#666666" points="270.88,-19.25 173.12,-19.25 173.12,0 270.88,0 270.88,-19.25"/>
<text text-anchor="middle" x="222" y="-5.75" font-family="Helvetica,sans-Serif" font-size="10.00">PhotoelectricEffect</text>
</a>
</g>
</g>
<!-- Node0&#45;&gt;Node3 -->
<g id="edge14_Node000000_Node000003" class="edge">
<title>Node0&#45;&gt;Node3</title>
<g id="a_edge14_Node000000_Node000003"><a xlink:title=" ">
<path fill="none" stroke="#63b8ff" d="M120.44,-33.86C139.62,-29.24 161.01,-24.09 179.11,-19.72"/>
<polygon fill="#63b8ff" stroke="#63b8ff" points="119.82,-30.41 110.92,-36.16 121.46,-37.22 119.82,-30.41"/>
</a>
</g>
</g>
</g>
</svg>
