<?xml version="1.0" encoding="UTF-8" standalone="no"?>
<!DOCTYPE svg PUBLIC "-//W3C//DTD SVG 1.1//EN"
 "http://www.w3.org/Graphics/SVG/1.1/DTD/svg11.dtd">
<!-- Generated by graphviz version 9.0.0 (20230911.1827)
 -->
<!-- Title: Graphical Class Hierarchy Pages: 1 -->
<svg width="424pt" height="64pt"
 viewBox="0.00 0.00 423.50 64.25" xmlns="http://www.w3.org/2000/svg" xmlns:xlink="http://www.w3.org/1999/xlink">
<g id="graph0" class="graph" transform="scale(1 1) rotate(0) translate(4 60.25)">
<title>Graphical Class Hierarchy</title>
<!-- Node0 -->
<g id="Node000000" class="node">
<title>Node0</title>
<g id="a_Node000000"><a xlink:href="class_interpolator_1_1_interpolator.html" target="_top" xlink:title="Abstract base class for interpolators.">
<polygon fill="white" stroke="#666666" points="118,-37.25 0,-37.25 0,-18 118,-18 118,-37.25"/>
<text text-anchor="middle" x="59" y="-23.75" font-family="Helvetica,sans-Serif" font-size="10.00">Interpolator::Interpolator</text>
</a>
</g>
</g>
<!-- Node1 -->
<g id="Node000001" class="node">
<title>Node1</title>
<g id="a_Node000001"><a xlink:href="class_interpolator_1_1_linear.html" target="_top" xlink:title="Class which performs linear interpolation.">
<polygon fill="white" stroke="#666666" points="250.25,-56.25 154,-56.25 154,-37 250.25,-37 250.25,-56.25"/>
<text text-anchor="middle" x="202.12" y="-42.75" font-family="Helvetica,sans-Serif" font-size="10.00">Interpolator::Linear</text>
</a>
</g>
</g>
<!-- Node0&#45;&gt;Node1 -->
<g id="edge7_Node000000_Node000001" class="edge">
<title>Node0&#45;&gt;Node1</title>
<g id="a_edge7_Node000000_Node000001"><a xlink:title=" ">
<path fill="none" stroke="#63b8ff" d="M129.42,-36.97C137.67,-38.08 145.95,-39.2 153.8,-40.25"/>
<polygon fill="#63b8ff" stroke="#63b8ff" points="130.09,-33.53 119.72,-35.66 129.16,-40.47 130.09,-33.53"/>
</a>
</g>
</g>
<!-- Node3 -->
<g id="Node000003" class="node">
<title>Node3</title>
<g id="a_Node000003"><a xlink:href="class_interpolator_1_1_spline.html" target="_top" xlink:title="Class which performs 3rd order spline interpolation.">
<polygon fill="white" stroke="#666666" points="250.25,-19.25 154,-19.25 154,0 250.25,0 250.25,-19.25"/>
<text text-anchor="middle" x="202.12" y="-5.75" font-family="Helvetica,sans-Serif" font-size="10.00">Interpolator::Spline</text>
</a>
</g>
</g>
<!-- Node0&#45;&gt;Node3 -->
<g id="edge9_Node000000_Node000003" class="edge">
<title>Node0&#45;&gt;Node3</title>
<g id="a_edge9_Node000000_Node000003"><a xlink:title=" ">
<path fill="none" stroke="#63b8ff" d="M129.42,-18.77C137.67,-17.72 145.95,-16.66 153.8,-15.66"/>
<polygon fill="#63b8ff" stroke="#63b8ff" points="129.19,-15.27 119.72,-20.01 130.08,-22.21 129.19,-15.27"/>
</a>
</g>
</g>
<!-- Node2 -->
<g id="Node000002" class="node">
<title>Node2</title>
<g id="a_Node000002"><a xlink:href="class_interpolator_1_1_log_log_linear.html" target="_top" xlink:title="Class which performs linear interpolation on a log&#45;log scale.">
<polygon fill="white" stroke="#666666" points="415.5,-56.25 286.25,-56.25 286.25,-37 415.5,-37 415.5,-56.25"/>
<text text-anchor="middle" x="350.88" y="-42.75" font-family="Helvetica,sans-Serif" font-size="10.00">Interpolator::LogLogLinear</text>
</a>
</g>
</g>
<!-- Node1&#45;&gt;Node2 -->
<g id="edge8_Node000001_Node000002" class="edge">
<title>Node1&#45;&gt;Node2</title>
<g id="a_edge8_Node000001_Node000002"><a xlink:title=" ">
<path fill="none" stroke="#63b8ff" d="M261.76,-46.62C269.69,-46.62 277.86,-46.62 285.87,-46.62"/>
<polygon fill="#63b8ff" stroke="#63b8ff" points="261.88,-43.13 251.88,-46.63 261.88,-50.13 261.88,-43.13"/>
</a>
</g>
</g>
<!-- Node4 -->
<g id="Node000004" class="node">
<title>Node4</title>
<g id="a_Node000004"><a xlink:href="class_interpolator_1_1_log_log_spline.html" target="_top" xlink:title="Class which performs 3rd order spline interpolation on a log&#45;log scale.">
<polygon fill="white" stroke="#666666" points="415.5,-19.25 286.25,-19.25 286.25,0 415.5,0 415.5,-19.25"/>
<text text-anchor="middle" x="350.88" y="-5.75" font-family="Helvetica,sans-Serif" font-size="10.00">Interpolator::LogLogSpline</text>
</a>
</g>
</g>
<!-- Node3&#45;&gt;Node4 -->
<g id="edge10_Node000003_Node000004" class="edge">
<title>Node3&#45;&gt;Node4</title>
<g id="a_edge10_Node000003_Node000004"><a xlink:title=" ">
<path fill="none" stroke="#63b8ff" d="M261.76,-9.62C269.69,-9.62 277.86,-9.62 285.87,-9.62"/>
<polygon fill="#63b8ff" stroke="#63b8ff" points="261.88,-6.13 251.88,-9.63 261.88,-13.13 261.88,-6.13"/>
</a>
</g>
</g>
</g>
</svg>
