<?xml version="1.0" encoding="UTF-8" standalone="no"?>
<!DOCTYPE svg PUBLIC "-//W3C//DTD SVG 1.1//EN"
 "http://www.w3.org/Graphics/SVG/1.1/DTD/svg11.dtd">
<!-- Generated by graphviz version 9.0.0 (20230911.1827)
 -->
<!-- Title: Graphical Class Hierarchy Pages: 1 -->
<svg width="236pt" height="64pt"
 viewBox="0.00 0.00 235.75 64.25" xmlns="http://www.w3.org/2000/svg" xmlns:xlink="http://www.w3.org/1999/xlink">
<g id="graph0" class="graph" transform="scale(1 1) rotate(0) translate(4 60.25)">
<title>Graphical Class Hierarchy</title>
<!-- Node0 -->
<g id="Node000000" class="node">
<title>Node0</title>
<g id="a_Node000000"><a xlink:href="class_surface_tally.html" target="_top" xlink:title="Virtual class which represents a surface tally.">
<polygon fill="white" stroke="#666666" points="70,-37.25 0,-37.25 0,-18 70,-18 70,-37.25"/>
<text text-anchor="middle" x="35" y="-23.75" font-family="Helvetica,sans-Serif" font-size="10.00">SurfaceTally</text>
</a>
</g>
</g>
<!-- Node1 -->
<g id="Node000001" class="node">
<title>Node1</title>
<g id="a_Node000001"><a xlink:href="class_disc_surface_tally.html" target="_top" xlink:title="Class which represents a disc surface tally.">
<polygon fill="white" stroke="#666666" points="211.62,-56.25 122.12,-56.25 122.12,-37 211.62,-37 211.62,-56.25"/>
<text text-anchor="middle" x="166.88" y="-42.75" font-family="Helvetica,sans-Serif" font-size="10.00">DiscSurfaceTally</text>
</a>
</g>
</g>
<!-- Node0&#45;&gt;Node1 -->
<g id="edge17_Node000000_Node000001" class="edge">
<title>Node0&#45;&gt;Node1</title>
<g id="a_edge17_Node000000_Node000001"><a xlink:title=" ">
<path fill="none" stroke="#63b8ff" d="M81.61,-34.3C94.69,-36.21 108.93,-38.29 121.92,-40.19"/>
<polygon fill="#63b8ff" stroke="#63b8ff" points="82.36,-30.87 71.96,-32.89 81.35,-37.8 82.36,-30.87"/>
</a>
</g>
</g>
<!-- Node2 -->
<g id="Node000002" class="node">
<title>Node2</title>
<g id="a_Node000002"><a xlink:href="class_rectangular_surface_tally.html" target="_top" xlink:title="Class which represents a rectangular surface tally.">
<polygon fill="white" stroke="#666666" points="227.75,-19.25 106,-19.25 106,0 227.75,0 227.75,-19.25"/>
<text text-anchor="middle" x="166.88" y="-5.75" font-family="Helvetica,sans-Serif" font-size="10.00">RectangularSurfaceTally</text>
</a>
</g>
</g>
<!-- Node0&#45;&gt;Node2 -->
<g id="edge18_Node000000_Node000002" class="edge">
<title>Node0&#45;&gt;Node2</title>
<g id="a_edge18_Node000000_Node000002"><a xlink:title=" ">
<path fill="none" stroke="#63b8ff" d="M81.8,-21.28C89.51,-20.21 97.62,-19.08 105.63,-17.97"/>
<polygon fill="#63b8ff" stroke="#63b8ff" points="81.39,-17.8 71.96,-22.64 82.35,-24.73 81.39,-17.8"/>
</a>
</g>
</g>
</g>
</svg>
