<?xml version="1.0" encoding="UTF-8" standalone="no"?>
<!DOCTYPE svg PUBLIC "-//W3C//DTD SVG 1.1//EN"
 "http://www.w3.org/Graphics/SVG/1.1/DTD/svg11.dtd">
<!-- Generated by graphviz version 9.0.0 (20230911.1827)
 -->
<!-- Title: Graphical Class Hierarchy Pages: 1 -->
<svg width="276pt" height="138pt"
 viewBox="0.00 0.00 276.25 138.25" xmlns="http://www.w3.org/2000/svg" xmlns:xlink="http://www.w3.org/1999/xlink">
<g id="graph0" class="graph" transform="scale(1 1) rotate(0) translate(4 134.25)">
<title>Graphical Class Hierarchy</title>
<!-- Node0 -->
<g id="Node000000" class="node">
<title>Node0</title>
<g id="a_Node000000"><a xlink:href="class_directionality.html" target="_top" xlink:title="Virtual class which represents a directionality for a photon source.">
<polygon fill="white" stroke="#666666" points="71.5,-74.25 0,-74.25 0,-55 71.5,-55 71.5,-74.25"/>
<text text-anchor="middle" x="35.75" y="-60.75" font-family="Helvetica,sans-Serif" font-size="10.00">Directionality</text>
</a>
</g>
</g>
<!-- Node1 -->
<g id="Node000001" class="node">
<title>Node1</title>
<g id="a_Node000001"><a xlink:href="class_beam_directionality.html" target="_top" xlink:title="Class which represents a beam directionality.">
<polygon fill="white" stroke="#666666" points="236.38,-130.25 139.38,-130.25 139.38,-111 236.38,-111 236.38,-130.25"/>
<text text-anchor="middle" x="187.88" y="-116.75" font-family="Helvetica,sans-Serif" font-size="10.00">BeamDirectionality</text>
</a>
</g>
</g>
<!-- Node0&#45;&gt;Node1 -->
<g id="edge1_Node000000_Node000001" class="edge">
<title>Node0&#45;&gt;Node1</title>
<g id="a_edge1_Node000000_Node000001"><a xlink:title=" ">
<path fill="none" stroke="#63b8ff" d="M62.19,-80.45C75.32,-88.06 91.84,-96.77 107.5,-102.62 117.56,-106.39 128.64,-109.5 139.25,-112.02"/>
<polygon fill="#63b8ff" stroke="#63b8ff" points="64.15,-77.55 53.77,-75.44 60.57,-83.56 64.15,-77.55"/>
</a>
</g>
</g>
<!-- Node2 -->
<g id="Node000002" class="node">
<title>Node2</title>
<g id="a_Node000002"><a xlink:href="class_disc_isotropic_directionality.html" target="_top" xlink:title="Class which represents a disc isotropic directionality.">
<polygon fill="white" stroke="#666666" points="252.12,-93.25 123.62,-93.25 123.62,-74 252.12,-74 252.12,-93.25"/>
<text text-anchor="middle" x="187.88" y="-79.75" font-family="Helvetica,sans-Serif" font-size="10.00">DiscIsotropicDirectionality</text>
</a>
</g>
</g>
<!-- Node0&#45;&gt;Node2 -->
<g id="edge2_Node000000_Node000002" class="edge">
<title>Node0&#45;&gt;Node2</title>
<g id="a_edge2_Node000000_Node000002"><a xlink:title=" ">
<path fill="none" stroke="#63b8ff" d="M83.2,-70.5C95.9,-72.11 109.88,-73.88 123.36,-75.59"/>
<polygon fill="#63b8ff" stroke="#63b8ff" points="83.81,-67.05 73.45,-69.27 82.93,-74 83.81,-67.05"/>
</a>
</g>
</g>
<!-- Node3 -->
<g id="Node000003" class="node">
<title>Node3</title>
<g id="a_Node000003"><a xlink:href="class_isotropic_directionality.html" target="_top" xlink:title="Class which represents an isotropic directionality.">
<polygon fill="white" stroke="#666666" points="242.38,-56.25 133.38,-56.25 133.38,-37 242.38,-37 242.38,-56.25"/>
<text text-anchor="middle" x="187.88" y="-42.75" font-family="Helvetica,sans-Serif" font-size="10.00">IsotropicDirectionality</text>
</a>
</g>
</g>
<!-- Node0&#45;&gt;Node3 -->
<g id="edge3_Node000000_Node000003" class="edge">
<title>Node0&#45;&gt;Node3</title>
<g id="a_edge3_Node000000_Node000003"><a xlink:title=" ">
<path fill="none" stroke="#63b8ff" d="M83.07,-59.07C98.89,-57.17 116.72,-55.04 133.09,-53.07"/>
<polygon fill="#63b8ff" stroke="#63b8ff" points="82.96,-55.56 73.45,-60.22 83.8,-62.51 82.96,-55.56"/>
</a>
</g>
</g>
<!-- Node4 -->
<g id="Node000004" class="node">
<title>Node4</title>
<g id="a_Node000004"><a xlink:href="class_rectangular_isotropic_directionality.html" target="_top" xlink:title="Class which represents a rectangular isotropic directionality.">
<polygon fill="white" stroke="#666666" points="268.25,-19.25 107.5,-19.25 107.5,0 268.25,0 268.25,-19.25"/>
<text text-anchor="middle" x="187.88" y="-5.75" font-family="Helvetica,sans-Serif" font-size="10.00">RectangularIsotropicDirectionality</text>
</a>
</g>
</g>
<!-- Node0&#45;&gt;Node4 -->
<g id="edge4_Node000000_Node000004" class="edge">
<title>Node0&#45;&gt;Node4</title>
<g id="a_edge4_Node000000_Node000004"><a xlink:title=" ">
<path fill="none" stroke="#63b8ff" d="M62.76,-48.95C75.82,-41.62 92.1,-33.29 107.5,-27.62 115.85,-24.55 124.9,-21.9 133.8,-19.65"/>
<polygon fill="#63b8ff" stroke="#63b8ff" points="61.29,-45.76 54.37,-53.78 64.78,-51.82 61.29,-45.76"/>
</a>
</g>
</g>
</g>
</svg>
