<?xml version="1.0" encoding="UTF-8" standalone="no"?>
<!DOCTYPE svg PUBLIC "-//W3C//DTD SVG 1.1//EN"
 "http://www.w3.org/Graphics/SVG/1.1/DTD/svg11.dtd">
<!-- Generated by graphviz version 9.0.0 (20230911.1827)
 -->
<!-- Title: include/MIDSX/Core/interaction_data.h Pages: 1 -->
<!--zoomable 326 -->

<svg id="main" version="1.1" xmlns="http://www.w3.org/2000/svg" xmlns:xlink="http://www.w3.org/1999/xlink" xml:space="preserve" onload="init(evt)">
<style type="text/css"><![CDATA[
.node, .edge {opacity: 0.7;}
.node.selected, .edge.selected {opacity: 1;}
.edge:hover path { stroke: red; }
.edge:hover polygon { stroke: red; fill: red; }
]]></style>

<defs>
  <circle id="rim" cx="0" cy="0" r="7"/>
  <circle id="rim2" cx="0" cy="0" r="3.5"/>
  <g id="zoomPlus">
    <use xlink:href="#rim" fill="#404040"><set attributeName="fill" to="#808080" begin="zoomplus.mouseover" end="zoomplus.mouseout"/></use>
    <path d="M-4,0h8M0,-4v8" fill="none" stroke="white" stroke-width="1.5" pointer-events="none"/>
  </g>
  <g id="zoomMin">
    <use xlink:href="#rim" fill="#404040"><set attributeName="fill" to="#808080" begin="zoomminus.mouseover" end="zoomminus.mouseout"/></use>
    <path d="M-4,0h8" fill="none" stroke="white" stroke-width="1.5" pointer-events="none"/>
  </g>
  <g id="arrowUp" transform="translate(30 24)">
    <use xlink:href="#rim"/>
    <path pointer-events="none" fill="none" stroke="white" stroke-width="1.5" d="M0,-3.0v7 M-2.5,-0.5L0,-3.0L2.5,-0.5"/>
  </g>
  <g id="arrowRight" transform="rotate(90) translate(36 -43)">
    <use xlink:href="#rim"/>
    <path pointer-events="none" fill="none" stroke="white" stroke-width="1.5" d="M0,-3.0v7 M-2.5,-0.5L0,-3.0L2.5,-0.5"/>
  </g>
  <g id="arrowDown" transform="rotate(180) translate(-30 -48)">
    <use xlink:href="#rim"/>
    <path pointer-events="none" fill="none" stroke="white" stroke-width="1.5" d="M0,-3.0v7 M-2.5,-0.5L0,-3.0L2.5,-0.5"/>
  </g>
  <g id="arrowLeft" transform="rotate(270) translate(-36 17)">
    <use xlink:href="#rim"/>
    <path pointer-events="none" fill="none" stroke="white" stroke-width="1.5" d="M0,-3.0v7 M-2.5,-0.5L0,-3.0L2.5,-0.5"/>
  </g>
  <g id="resetDef">
    <use xlink:href="#rim2" fill="#404040"><set attributeName="fill" to="#808080" begin="reset.mouseover" end="reset.mouseout"/></use>
  </g>
</defs>
<script type="application/ecmascript">
var viewWidth = 1143;
var viewHeight = 326;
var sectionId = 'dynsection-0';
</script>
<script type="application/ecmascript" xlink:href="svg.min.js"/>
<svg id="graph" class="graph">
<g id="viewport">
<title>include/MIDSX/Core/interaction_data.h</title>
<!-- Node1 -->
<g id="Node000001" class="node">
<title>Node1</title>
<g id="a_Node000001"><a xlink:title=" ">
<polygon fill="#999999" stroke="#666666" points="1026.88,-318 922.38,-318 922.38,-287.5 1026.88,-287.5 1026.88,-318"/>
<text text-anchor="start" x="930.38" y="-304.5" font-family="Helvetica,sans-Serif" font-size="10.00">include/MIDSX/Core</text>
<text text-anchor="middle" x="974.62" y="-293.25" font-family="Helvetica,sans-Serif" font-size="10.00">/interaction_data.h</text>
</a>
</g>
</g>
<!-- Node2 -->
<g id="Node000002" class="node">
<title>Node2</title>
<g id="a_Node000002"><a xlink:href="data__access__object_8h_source.html" target="_top" xlink:title=" ">
<polygon fill="white" stroke="#666666" points="1067.88,-85.75 957.38,-85.75 957.38,-66.5 1067.88,-66.5 1067.88,-85.75"/>
<text text-anchor="middle" x="1012.62" y="-72.25" font-family="Helvetica,sans-Serif" font-size="10.00">data_access_object.h</text>
</a>
</g>
</g>
<!-- Node1&#45;&gt;Node2 -->
<g id="edge1_Node000001_Node000002" class="edge">
<title>Node1&#45;&gt;Node2</title>
<g id="a_edge1_Node000001_Node000002"><a xlink:title=" ">
<path fill="none" stroke="#63b8ff" d="M1000.54,-287.11C1013.02,-278.51 1026.74,-266.4 1033.62,-251.5 1057.65,-199.48 1035.09,-129.87 1021.39,-96.52"/>
<polygon fill="#63b8ff" stroke="#63b8ff" points="1024.61,-95.17 1017.44,-87.37 1018.19,-97.94 1024.61,-95.17"/>
</a>
</g>
</g>
<!-- Node6 -->
<g id="Node000006" class="node">
<title>Node6</title>
<g id="a_Node000006"><a xlink:title=" ">
<polygon fill="#e0e0e0" stroke="#999999" points="351.38,-24.88 297.88,-24.88 297.88,-5.63 351.38,-5.63 351.38,-24.88"/>
<text text-anchor="middle" x="324.62" y="-11.38" font-family="Helvetica,sans-Serif" font-size="10.00">iostream</text>
</a>
</g>
</g>
<!-- Node1&#45;&gt;Node6 -->
<g id="edge51_Node000001_Node000006" class="edge">
<title>Node1&#45;&gt;Node6</title>
<g id="a_edge51_Node000001_Node000006"><a xlink:title=" ">
<path fill="none" stroke="#63b8ff" d="M922.06,-300.69C728.91,-296.11 69.62,-274.13 69.62,-187.62 69.62,-187.62 69.62,-187.62 69.62,-130.38 69.62,-100.76 66.55,-86.25 88.62,-66.5 155.93,-6.28 201.76,-55.24 288.62,-30.5 290.2,-30.05 291.8,-29.56 293.41,-29.03"/>
<polygon fill="#63b8ff" stroke="#63b8ff" points="294.28,-32.44 302.5,-25.77 291.91,-25.86 294.28,-32.44"/>
</a>
</g>
</g>
<!-- Node9 -->
<g id="Node000009" class="node">
<title>Node9</title>
<g id="a_Node000009"><a xlink:href="interpolators_8h_source.html" target="_top" xlink:title=" ">
<polygon fill="white" stroke="#666666" points="326,-141 249.25,-141 249.25,-121.75 326,-121.75 326,-141"/>
<text text-anchor="middle" x="287.62" y="-127.5" font-family="Helvetica,sans-Serif" font-size="10.00">interpolators.h</text>
</a>
</g>
</g>
<!-- Node1&#45;&gt;Node9 -->
<g id="edge8_Node000001_Node000009" class="edge">
<title>Node1&#45;&gt;Node9</title>
<g id="a_edge8_Node000001_Node000009"><a xlink:title=" ">
<path fill="none" stroke="#63b8ff" d="M921.88,-299.36C783.78,-292.16 415.62,-266.69 319.62,-196.25 305.25,-185.7 296.93,-166.86 292.4,-152.36"/>
<polygon fill="#63b8ff" stroke="#63b8ff" points="295.84,-151.67 289.83,-142.95 289.08,-153.52 295.84,-151.67"/>
</a>
</g>
</g>
<!-- Node12 -->
<g id="Node000012" class="node">
<title>Node12</title>
<g id="a_Node000012"><a xlink:href="material_8h_source.html" target="_top" xlink:title=" ">
<polygon fill="white" stroke="#666666" points="863.62,-251.5 805.62,-251.5 805.62,-232.25 863.62,-232.25 863.62,-251.5"/>
<text text-anchor="middle" x="834.62" y="-238" font-family="Helvetica,sans-Serif" font-size="10.00">material.h</text>
</a>
</g>
</g>
<!-- Node1&#45;&gt;Node12 -->
<g id="edge11_Node000001_Node000012" class="edge">
<title>Node1&#45;&gt;Node12</title>
<g id="a_edge11_Node000001_Node000012"><a xlink:title=" ">
<path fill="none" stroke="#63b8ff" d="M939.66,-287.05C917.21,-277.6 888.29,-265.44 866.48,-256.27"/>
<polygon fill="#63b8ff" stroke="#63b8ff" points="868.07,-253.14 857.49,-252.49 865.35,-259.59 868.07,-253.14"/>
</a>
</g>
</g>
<!-- Node15 -->
<g id="Node000015" class="node">
<title>Node15</title>
<g id="a_Node000015"><a xlink:title=" ">
<polygon fill="#e0e0e0" stroke="#999999" points="938.88,-85.75 888.38,-85.75 888.38,-66.5 938.88,-66.5 938.88,-85.75"/>
<text text-anchor="middle" x="913.62" y="-72.25" font-family="Helvetica,sans-Serif" font-size="10.00">memory</text>
</a>
</g>
</g>
<!-- Node1&#45;&gt;Node15 -->
<g id="edge52_Node000001_Node000015" class="edge">
<title>Node1&#45;&gt;Node15</title>
<g id="a_edge52_Node000001_Node000015"><a xlink:title=" ">
<path fill="none" stroke="#63b8ff" d="M982.83,-287.13C995.01,-263.41 1014.98,-215.33 1000.62,-177 987.49,-141.92 955.84,-111.05 934.56,-93.23"/>
<polygon fill="#63b8ff" stroke="#63b8ff" points="937.04,-90.73 927.07,-87.16 932.64,-96.17 937.04,-90.73"/>
</a>
</g>
</g>
<!-- Node28 -->
<g id="Node000028" class="node">
<title>Node28</title>
<g id="a_Node000028"><a xlink:title=" ">
<polygon fill="#e0e0e0" stroke="#999999" points="992,-196.25 957.25,-196.25 957.25,-177 992,-177 992,-196.25"/>
<text text-anchor="middle" x="974.62" y="-182.75" font-family="Helvetica,sans-Serif" font-size="10.00">map</text>
</a>
</g>
</g>
<!-- Node1&#45;&gt;Node28 -->
<g id="edge53_Node000001_Node000028" class="edge">
<title>Node1&#45;&gt;Node28</title>
<g id="a_edge53_Node000001_Node000028"><a xlink:title=" ">
<path fill="none" stroke="#63b8ff" d="M974.62,-287.3C974.62,-267.25 974.62,-230.9 974.62,-208.07"/>
<polygon fill="#63b8ff" stroke="#63b8ff" points="978.13,-208.21 974.63,-198.21 971.13,-208.21 978.13,-208.21"/>
</a>
</g>
</g>
<!-- Node30 -->
<g id="Node000030" class="node">
<title>Node30</title>
<g id="a_Node000030"><a xlink:title=" ">
<polygon fill="#e0e0e0" stroke="#999999" points="1135.12,-251.5 1086.12,-251.5 1086.12,-232.25 1135.12,-232.25 1135.12,-251.5"/>
<text text-anchor="middle" x="1110.62" y="-238" font-family="Helvetica,sans-Serif" font-size="10.00">config.h</text>
</a>
</g>
</g>
<!-- Node1&#45;&gt;Node30 -->
<g id="edge50_Node000001_Node000030" class="edge">
<title>Node1&#45;&gt;Node30</title>
<g id="a_edge50_Node000001_Node000030"><a xlink:title=" ">
<path fill="none" stroke="#63b8ff" d="M1008.59,-287.05C1030.3,-277.65 1058.24,-265.55 1079.39,-256.39"/>
<polygon fill="#63b8ff" stroke="#63b8ff" points="1080.59,-259.69 1088.38,-252.51 1077.81,-253.27 1080.59,-259.69"/>
</a>
</g>
</g>
<!-- Node3 -->
<g id="Node000003" class="node">
<title>Node3</title>
<g id="a_Node000003"><a xlink:title=" ">
<polygon fill="#e0e0e0" stroke="#999999" points="1001.62,-24.88 949.62,-24.88 949.62,-5.63 1001.62,-5.63 1001.62,-24.88"/>
<text text-anchor="middle" x="975.62" y="-11.38" font-family="Helvetica,sans-Serif" font-size="10.00">sqlite3.h</text>
</a>
</g>
</g>
<!-- Node2&#45;&gt;Node3 -->
<g id="edge2_Node000002_Node000003" class="edge">
<title>Node2&#45;&gt;Node3</title>
<g id="a_edge2_Node000002_Node000003"><a xlink:title=" ">
<path fill="none" stroke="#63b8ff" d="M1007.01,-66.18C1001.79,-57.88 993.86,-45.27 987.28,-34.8"/>
<polygon fill="#63b8ff" stroke="#63b8ff" points="990.39,-33.16 982.1,-26.56 984.46,-36.89 990.39,-33.16"/>
</a>
</g>
</g>
<!-- Node4 -->
<g id="Node000004" class="node">
<title>Node4</title>
<g id="a_Node000004"><a xlink:title=" ">
<polygon fill="#e0e0e0" stroke="#999999" points="689.62,-24.88 649.62,-24.88 649.62,-5.63 689.62,-5.63 689.62,-24.88"/>
<text text-anchor="middle" x="669.62" y="-11.38" font-family="Helvetica,sans-Serif" font-size="10.00">string</text>
</a>
</g>
</g>
<!-- Node2&#45;&gt;Node4 -->
<g id="edge3_Node000002_Node000004" class="edge">
<title>Node2&#45;&gt;Node4</title>
<g id="a_edge3_Node000002_Node000004"><a xlink:title=" ">
<path fill="none" stroke="#63b8ff" d="M959.78,-66.05C887.53,-53.65 760.15,-31.79 701.2,-21.67"/>
<polygon fill="#63b8ff" stroke="#63b8ff" points="701.97,-18.25 691.52,-20.01 700.78,-25.15 701.97,-18.25"/>
</a>
</g>
</g>
<!-- Node5 -->
<g id="Node000005" class="node">
<title>Node5</title>
<g id="a_Node000005"><a xlink:title=" ">
<polygon fill="#e0e0e0" stroke="#999999" points="882.12,-24.88 839.12,-24.88 839.12,-5.63 882.12,-5.63 882.12,-24.88"/>
<text text-anchor="middle" x="860.62" y="-11.38" font-family="Helvetica,sans-Serif" font-size="10.00">vector</text>
</a>
</g>
</g>
<!-- Node2&#45;&gt;Node5 -->
<g id="edge4_Node000002_Node000005" class="edge">
<title>Node2&#45;&gt;Node5</title>
<g id="a_edge4_Node000002_Node000005"><a xlink:title=" ">
<path fill="none" stroke="#63b8ff" d="M989.21,-66.05C963.36,-56.04 921.61,-39.87 892.72,-28.68"/>
<polygon fill="#63b8ff" stroke="#63b8ff" points="894.34,-25.56 883.75,-25.21 891.82,-32.08 894.34,-25.56"/>
</a>
</g>
</g>
<!-- Node2&#45;&gt;Node6 -->
<g id="edge5_Node000002_Node000006" class="edge">
<title>Node2&#45;&gt;Node6</title>
<g id="a_edge5_Node000002_Node000006"><a xlink:title=" ">
<path fill="none" stroke="#63b8ff" d="M956.99,-67.48C953.82,-67.13 950.68,-66.8 947.62,-66.5 687.46,-41.29 615.76,-87.31 360.62,-30.5 358.73,-30.08 356.81,-29.57 354.88,-29"/>
<polygon fill="#63b8ff" stroke="#63b8ff" points="356.1,-25.72 345.51,-25.74 353.8,-32.33 356.1,-25.72"/>
</a>
</g>
</g>
<!-- Node7 -->
<g id="Node000007" class="node">
<title>Node7</title>
<g id="a_Node000007"><a xlink:title=" ">
<polygon fill="#e0e0e0" stroke="#999999" points="631.88,-24.88 593.38,-24.88 593.38,-5.63 631.88,-5.63 631.88,-24.88"/>
<text text-anchor="middle" x="612.62" y="-11.38" font-family="Helvetica,sans-Serif" font-size="10.00">utility</text>
</a>
</g>
</g>
<!-- Node2&#45;&gt;Node7 -->
<g id="edge6_Node000002_Node000007" class="edge">
<title>Node2&#45;&gt;Node7</title>
<g id="a_edge6_Node000002_Node000007"><a xlink:title=" ">
<path fill="none" stroke="#63b8ff" d="M956.96,-67.68C953.8,-67.28 950.67,-66.88 947.62,-66.5 811.31,-49.46 772.12,-70.28 640.62,-30.5 639.82,-30.26 639.02,-29.99 638.21,-29.71"/>
<polygon fill="#63b8ff" stroke="#63b8ff" points="639.87,-26.61 629.3,-25.86 637.09,-33.04 639.87,-26.61"/>
</a>
</g>
</g>
<!-- Node8 -->
<g id="Node000008" class="node">
<title>Node8</title>
<g id="a_Node000008"><a xlink:title=" ">
<polygon fill="#e0e0e0" stroke="#999999" points="1077.25,-24.88 1020,-24.88 1020,-5.63 1077.25,-5.63 1077.25,-24.88"/>
<text text-anchor="middle" x="1048.62" y="-11.38" font-family="Helvetica,sans-Serif" font-size="10.00">exception</text>
</a>
</g>
</g>
<!-- Node2&#45;&gt;Node8 -->
<g id="edge7_Node000002_Node000008" class="edge">
<title>Node2&#45;&gt;Node8</title>
<g id="a_edge7_Node000002_Node000008"><a xlink:title=" ">
<path fill="none" stroke="#63b8ff" d="M1018.09,-66.18C1023.17,-57.88 1030.88,-45.27 1037.28,-34.8"/>
<polygon fill="#63b8ff" stroke="#63b8ff" points="1040.09,-36.92 1042.32,-26.57 1034.11,-33.27 1040.09,-36.92"/>
</a>
</g>
</g>
<!-- Node10 -->
<g id="Node000010" class="node">
<title>Node10</title>
<g id="a_Node000010"><a xlink:title=" ">
<polygon fill="#e0e0e0" stroke="#999999" points="63.25,-24.88 0,-24.88 0,-5.63 63.25,-5.63 63.25,-24.88"/>
<text text-anchor="middle" x="31.62" y="-11.38" font-family="Helvetica,sans-Serif" font-size="10.00">Eigen/Core</text>
</a>
</g>
</g>
<!-- Node9&#45;&gt;Node10 -->
<g id="edge9_Node000009_Node000010" class="edge">
<title>Node9&#45;&gt;Node10</title>
<g id="a_edge9_Node000009_Node000010"><a xlink:title=" ">
<path fill="none" stroke="#63b8ff" d="M248.92,-129.09C206.65,-126.08 138.36,-116.4 88.62,-85.75 68.33,-73.25 51.96,-50.92 42.06,-34.94"/>
<polygon fill="#63b8ff" stroke="#63b8ff" points="45.12,-33.25 37.03,-26.4 39.09,-36.8 45.12,-33.25"/>
</a>
</g>
</g>
<!-- Node11 -->
<g id="Node000011" class="node">
<title>Node11</title>
<g id="a_Node000011"><a xlink:title=" ">
<polygon fill="#e0e0e0" stroke="#999999" points="229.38,-85.75 97.88,-85.75 97.88,-66.5 229.38,-66.5 229.38,-85.75"/>
<text text-anchor="middle" x="163.62" y="-72.25" font-family="Helvetica,sans-Serif" font-size="10.00">unsupported/Eigen/Splines</text>
</a>
</g>
</g>
<!-- Node9&#45;&gt;Node11 -->
<g id="edge10_Node000009_Node000011" class="edge">
<title>Node9&#45;&gt;Node11</title>
<g id="a_edge10_Node000009_Node000011"><a xlink:title=" ">
<path fill="none" stroke="#63b8ff" d="M266.59,-121.34C246.99,-112.93 217.52,-100.27 195.12,-90.65"/>
<polygon fill="#63b8ff" stroke="#63b8ff" points="196.72,-87.53 186.15,-86.8 193.96,-93.96 196.72,-87.53"/>
</a>
</g>
</g>
<!-- Node12&#45;&gt;Node2 -->
<g id="edge13_Node000012_Node000002" class="edge">
<title>Node12&#45;&gt;Node2</title>
<g id="a_edge13_Node000012_Node000002"><a xlink:title=" ">
<path fill="none" stroke="#63b8ff" d="M844.45,-231.84C873.21,-205.38 957.52,-127.82 994.68,-93.63"/>
<polygon fill="#63b8ff" stroke="#63b8ff" points="996.95,-96.31 1001.94,-86.96 992.21,-91.15 996.95,-96.31"/>
</a>
</g>
</g>
<!-- Node12&#45;&gt;Node4 -->
<g id="edge45_Node000012_Node000004" class="edge">
<title>Node12&#45;&gt;Node4</title>
<g id="a_edge45_Node000012_Node000004"><a xlink:title=" ">
<path fill="none" stroke="#63b8ff" d="M805.38,-237.85C720.62,-228.49 477.46,-197.16 424.62,-141 401.35,-116.26 385.52,-92.28 407.62,-66.5 441.73,-26.73 590.65,-46.23 640.62,-30.5 641.43,-30.25 642.24,-29.98 643.05,-29.69"/>
<polygon fill="#63b8ff" stroke="#63b8ff" points="644.19,-33 652.03,-25.88 641.45,-26.56 644.19,-33"/>
</a>
</g>
</g>
<!-- Node12&#45;&gt;Node5 -->
<g id="edge46_Node000012_Node000005" class="edge">
<title>Node12&#45;&gt;Node5</title>
<g id="a_edge46_Node000012_Node000005"><a xlink:title=" ">
<path fill="none" stroke="#63b8ff" d="M850.64,-231.82C902.6,-202.29 1063.89,-109.29 1076.62,-85.75 1080.7,-78.22 1081.95,-73.2 1076.62,-66.5 1070.89,-59.27 952.6,-34.69 893.56,-22.8"/>
<polygon fill="#63b8ff" stroke="#63b8ff" points="894.57,-19.43 884.07,-20.89 893.19,-26.29 894.57,-19.43"/>
</a>
</g>
</g>
<!-- Node12&#45;&gt;Node9 -->
<g id="edge12_Node000012_Node000009" class="edge">
<title>Node12&#45;&gt;Node9</title>
<g id="a_edge12_Node000012_Node000009"><a xlink:title=" ">
<path fill="none" stroke="#63b8ff" d="M805.37,-240.81C713.33,-240.2 430.96,-235.14 349.62,-196.25 328.55,-186.17 310.75,-165.74 299.71,-150.68"/>
<polygon fill="#63b8ff" stroke="#63b8ff" points="302.63,-148.76 294.05,-142.55 296.89,-152.76 302.63,-148.76"/>
</a>
</g>
</g>
<!-- Node13 -->
<g id="Node000013" class="node">
<title>Node13</title>
<g id="a_Node000013"><a xlink:href="material__properties_8h_source.html" target="_top" xlink:title=" ">
<polygon fill="white" stroke="#666666" points="830.62,-141 724.62,-141 724.62,-121.75 830.62,-121.75 830.62,-141"/>
<text text-anchor="middle" x="777.62" y="-127.5" font-family="Helvetica,sans-Serif" font-size="10.00">material_properties.h</text>
</a>
</g>
</g>
<!-- Node12&#45;&gt;Node13 -->
<g id="edge14_Node000012_Node000013" class="edge">
<title>Node12&#45;&gt;Node13</title>
<g id="a_edge14_Node000012_Node000013"><a xlink:title=" ">
<path fill="none" stroke="#63b8ff" d="M829.96,-232C820.73,-214.43 799.97,-174.91 787.55,-151.27"/>
<polygon fill="#63b8ff" stroke="#63b8ff" points="790.81,-149.94 783.06,-142.72 784.61,-153.2 790.81,-149.94"/>
</a>
</g>
</g>
<!-- Node12&#45;&gt;Node15 -->
<g id="edge47_Node000012_Node000015" class="edge">
<title>Node12&#45;&gt;Node15</title>
<g id="a_edge47_Node000012_Node000015"><a xlink:title=" ">
<path fill="none" stroke="#63b8ff" d="M838.87,-232.07C851.25,-206.42 887.49,-131.3 904.55,-95.94"/>
<polygon fill="#63b8ff" stroke="#63b8ff" points="907.51,-97.86 908.7,-87.34 901.2,-94.82 907.51,-97.86"/>
</a>
</g>
</g>
<!-- Node16 -->
<g id="Node000016" class="node">
<title>Node16</title>
<g id="a_Node000016"><a xlink:href="material__data_8h_source.html" target="_top" xlink:title=" ">
<polygon fill="white" stroke="#666666" points="662.62,-196.25 580.62,-196.25 580.62,-177 662.62,-177 662.62,-196.25"/>
<text text-anchor="middle" x="621.62" y="-182.75" font-family="Helvetica,sans-Serif" font-size="10.00">material_data.h</text>
</a>
</g>
</g>
<!-- Node12&#45;&gt;Node16 -->
<g id="edge20_Node000012_Node000016" class="edge">
<title>Node12&#45;&gt;Node16</title>
<g id="a_edge20_Node000012_Node000016"><a xlink:title=" ">
<path fill="none" stroke="#63b8ff" d="M805.45,-233.58C770.28,-224.79 710.7,-209.89 668.92,-199.45"/>
<polygon fill="#63b8ff" stroke="#63b8ff" points="669.93,-196.09 659.38,-197.06 668.24,-202.89 669.93,-196.09"/>
</a>
</g>
</g>
<!-- Node12&#45;&gt;Node28 -->
<g id="edge48_Node000012_Node000028" class="edge">
<title>Node12&#45;&gt;Node28</title>
<g id="a_edge48_Node000012_Node000028"><a xlink:title=" ">
<path fill="none" stroke="#63b8ff" d="M858.37,-231.84C882.7,-222.59 920.52,-208.2 946.37,-198.37"/>
<polygon fill="#63b8ff" stroke="#63b8ff" points="947.46,-201.7 955.57,-194.87 944.97,-195.16 947.46,-201.7"/>
</a>
</g>
</g>
<!-- Node29 -->
<g id="Node000029" class="node">
<title>Node29</title>
<g id="a_Node000029"><a xlink:title=" ">
<polygon fill="#e0e0e0" stroke="#999999" points="787.25,-196.25 736,-196.25 736,-177 787.25,-177 787.25,-196.25"/>
<text text-anchor="middle" x="761.62" y="-182.75" font-family="Helvetica,sans-Serif" font-size="10.00">sstream</text>
</a>
</g>
</g>
<!-- Node12&#45;&gt;Node29 -->
<g id="edge49_Node000012_Node000029" class="edge">
<title>Node12&#45;&gt;Node29</title>
<g id="a_edge49_Node000012_Node000029"><a xlink:title=" ">
<path fill="none" stroke="#63b8ff" d="M822.24,-231.84C811.48,-223.99 795.65,-212.45 782.87,-203.12"/>
<polygon fill="#63b8ff" stroke="#63b8ff" points="785.19,-200.48 775.05,-197.42 781.06,-206.14 785.19,-200.48"/>
</a>
</g>
</g>
<!-- Node13&#45;&gt;Node2 -->
<g id="edge15_Node000013_Node000002" class="edge">
<title>Node13&#45;&gt;Node2</title>
<g id="a_edge15_Node000013_Node000002"><a xlink:title=" ">
<path fill="none" stroke="#63b8ff" d="M817.76,-121.28C857.47,-112.28 918.4,-98.48 961.55,-88.7"/>
<polygon fill="#63b8ff" stroke="#63b8ff" points="962.2,-92.14 971.18,-86.52 960.66,-85.31 962.2,-92.14"/>
</a>
</g>
</g>
<!-- Node13&#45;&gt;Node4 -->
<g id="edge16_Node000013_Node000004" class="edge">
<title>Node13&#45;&gt;Node4</title>
<g id="a_edge16_Node000013_Node000004"><a xlink:title=" ">
<path fill="none" stroke="#63b8ff" d="M786.38,-121.51C798.06,-108.6 815.9,-84.21 803.62,-66.5 780.72,-33.45 733.23,-22.11 701.39,-18.23"/>
<polygon fill="#63b8ff" stroke="#63b8ff" points="701.84,-14.76 691.54,-17.23 701.14,-21.72 701.84,-14.76"/>
</a>
</g>
</g>
<!-- Node13&#45;&gt;Node5 -->
<g id="edge17_Node000013_Node000005" class="edge">
<title>Node13&#45;&gt;Node5</title>
<g id="a_edge17_Node000013_Node000005"><a xlink:title=" ">
<path fill="none" stroke="#63b8ff" d="M794.57,-121.3C807.73,-113.47 825.53,-101.03 836.62,-85.75 847.4,-70.9 853.65,-50.81 857.05,-36.05"/>
<polygon fill="#63b8ff" stroke="#63b8ff" points="860.4,-37.12 858.97,-26.62 853.54,-35.72 860.4,-37.12"/>
</a>
</g>
</g>
<!-- Node14 -->
<g id="Node000014" class="node">
<title>Node14</title>
<g id="a_Node000014"><a xlink:title=" ">
<polygon fill="#e0e0e0" stroke="#999999" points="795,-85.75 712.25,-85.75 712.25,-66.5 795,-66.5 795,-85.75"/>
<text text-anchor="middle" x="753.62" y="-72.25" font-family="Helvetica,sans-Serif" font-size="10.00">unordered_map</text>
</a>
</g>
</g>
<!-- Node13&#45;&gt;Node14 -->
<g id="edge18_Node000013_Node000014" class="edge">
<title>Node13&#45;&gt;Node14</title>
<g id="a_edge18_Node000013_Node000014"><a xlink:title=" ">
<path fill="none" stroke="#63b8ff" d="M773.66,-121.58C770.59,-114.76 766.21,-105.06 762.34,-96.45"/>
<polygon fill="#63b8ff" stroke="#63b8ff" points="765.6,-95.17 758.3,-87.49 759.21,-98.04 765.6,-95.17"/>
</a>
</g>
</g>
<!-- Node13&#45;&gt;Node15 -->
<g id="edge19_Node000013_Node000015" class="edge">
<title>Node13&#45;&gt;Node15</title>
<g id="a_edge19_Node000013_Node000015"><a xlink:title=" ">
<path fill="none" stroke="#63b8ff" d="M800.7,-121.34C822.38,-112.85 855.11,-100.04 879.75,-90.39"/>
<polygon fill="#63b8ff" stroke="#63b8ff" points="881,-93.66 889.03,-86.75 878.44,-87.14 881,-93.66"/>
</a>
</g>
</g>
<!-- Node16&#45;&gt;Node2 -->
<g id="edge21_Node000016_Node000002" class="edge">
<title>Node16&#45;&gt;Node2</title>
<g id="a_edge21_Node000016_Node000002"><a xlink:title=" ">
<path fill="none" stroke="#63b8ff" d="M662.81,-181.16C712.24,-175.12 797.28,-162.54 867.62,-141 910.31,-127.93 957.14,-105.76 985.71,-91.29"/>
<polygon fill="#63b8ff" stroke="#63b8ff" points="987.07,-94.52 994.37,-86.84 983.88,-88.29 987.07,-94.52"/>
</a>
</g>
</g>
<!-- Node16&#45;&gt;Node4 -->
<g id="edge42_Node000016_Node000004" class="edge">
<title>Node16&#45;&gt;Node4</title>
<g id="a_edge42_Node000016_Node000004"><a xlink:title=" ">
<path fill="none" stroke="#63b8ff" d="M580.39,-177.98C508.3,-162.89 371.53,-125.5 421.62,-66.5 453.55,-28.9 593.65,-45.54 640.62,-30.5 641.43,-30.24 642.23,-29.97 643.04,-29.68"/>
<polygon fill="#63b8ff" stroke="#63b8ff" points="644.19,-32.99 652.02,-25.85 641.45,-26.55 644.19,-32.99"/>
</a>
</g>
</g>
<!-- Node16&#45;&gt;Node9 -->
<g id="edge28_Node000016_Node000009" class="edge">
<title>Node16&#45;&gt;Node9</title>
<g id="a_edge28_Node000016_Node000009"><a xlink:title=" ">
<path fill="none" stroke="#63b8ff" d="M580.34,-179.04C519,-169.26 403.98,-150.93 337.85,-140.38"/>
<polygon fill="#63b8ff" stroke="#63b8ff" points="338.41,-136.93 327.99,-138.81 337.31,-143.84 338.41,-136.93"/>
</a>
</g>
</g>
<!-- Node16&#45;&gt;Node13 -->
<g id="edge22_Node000016_Node000013" class="edge">
<title>Node16&#45;&gt;Node13</title>
<g id="a_edge22_Node000016_Node000013"><a xlink:title=" ">
<path fill="none" stroke="#63b8ff" d="M648.09,-176.59C673.41,-167.95 711.86,-154.82 740.29,-145.12"/>
<polygon fill="#63b8ff" stroke="#63b8ff" points="741.27,-148.48 749.6,-141.94 739,-141.86 741.27,-148.48"/>
</a>
</g>
</g>
<!-- Node16&#45;&gt;Node15 -->
<g id="edge43_Node000016_Node000015" class="edge">
<title>Node16&#45;&gt;Node15</title>
<g id="a_edge43_Node000016_Node000015"><a xlink:title=" ">
<path fill="none" stroke="#63b8ff" d="M663,-183.38C708.4,-179.53 782.42,-169.13 839.62,-141 862.83,-129.59 884.63,-109.13 898.47,-94.44"/>
<polygon fill="#63b8ff" stroke="#63b8ff" points="900.84,-97.04 904.99,-87.29 895.67,-92.33 900.84,-97.04"/>
</a>
</g>
</g>
<!-- Node17 -->
<g id="Node000017" class="node">
<title>Node17</title>
<g id="a_Node000017"><a xlink:href="material__helpers_8h_source.html" target="_top" xlink:title=" ">
<polygon fill="white" stroke="#666666" points="706,-141 611.25,-141 611.25,-121.75 706,-121.75 706,-141"/>
<text text-anchor="middle" x="658.62" y="-127.5" font-family="Helvetica,sans-Serif" font-size="10.00">material_helpers.h</text>
</a>
</g>
</g>
<!-- Node16&#45;&gt;Node17 -->
<g id="edge23_Node000016_Node000017" class="edge">
<title>Node16&#45;&gt;Node17</title>
<g id="a_edge23_Node000016_Node000017"><a xlink:title=" ">
<path fill="none" stroke="#63b8ff" d="M627.73,-176.83C632.69,-169.71 639.83,-159.43 646,-150.55"/>
<polygon fill="#63b8ff" stroke="#63b8ff" points="648.69,-152.81 651.52,-142.6 642.94,-148.82 648.69,-152.81"/>
</a>
</g>
</g>
<!-- Node18 -->
<g id="Node000018" class="node">
<title>Node18</title>
<g id="a_Node000018"><a xlink:title=" ">
<polygon fill="#e0e0e0" stroke="#999999" points="619,-85.75 548.25,-85.75 548.25,-66.5 619,-66.5 619,-85.75"/>
<text text-anchor="middle" x="583.62" y="-72.25" font-family="Helvetica,sans-Serif" font-size="10.00">Eigen/Dense</text>
</a>
</g>
</g>
<!-- Node16&#45;&gt;Node18 -->
<g id="edge44_Node000016_Node000018" class="edge">
<title>Node16&#45;&gt;Node18</title>
<g id="a_edge44_Node000016_Node000018"><a xlink:title=" ">
<path fill="none" stroke="#63b8ff" d="M617.39,-176.52C613.32,-167.58 607.13,-153.52 602.62,-141 597.33,-126.32 592.34,-109.37 588.81,-96.63"/>
<polygon fill="#63b8ff" stroke="#63b8ff" points="592.29,-96.1 586.29,-87.37 585.53,-97.93 592.29,-96.1"/>
</a>
</g>
</g>
<!-- Node19 -->
<g id="Node000019" class="node">
<title>Node19</title>
<g id="a_Node000019"><a xlink:href="probability__dist_8h_source.html" target="_top" xlink:title=" ">
<polygon fill="white" stroke="#666666" points="335.62,-85.75 247.62,-85.75 247.62,-66.5 335.62,-66.5 335.62,-85.75"/>
<text text-anchor="middle" x="291.62" y="-72.25" font-family="Helvetica,sans-Serif" font-size="10.00">probability_dist.h</text>
</a>
</g>
</g>
<!-- Node16&#45;&gt;Node19 -->
<g id="edge29_Node000016_Node000019" class="edge">
<title>Node16&#45;&gt;Node19</title>
<g id="a_edge29_Node000016_Node000019"><a xlink:title=" ">
<path fill="none" stroke="#63b8ff" d="M580.35,-178.97C540.16,-171.85 477.71,-159.09 425.62,-141 386.68,-127.47 344.09,-105.91 317.61,-91.64"/>
<polygon fill="#63b8ff" stroke="#63b8ff" points="319.42,-88.64 308.96,-86.92 316.06,-94.78 319.42,-88.64"/>
</a>
</g>
</g>
<!-- Node25 -->
<g id="Node000025" class="node">
<title>Node25</title>
<g id="a_Node000025"><a xlink:href="constants_8h.html" target="_top" xlink:title="Contains constants used throughout the code.">
<polygon fill="white" stroke="#666666" points="543.75,-141 477.5,-141 477.5,-121.75 543.75,-121.75 543.75,-141"/>
<text text-anchor="middle" x="510.62" y="-127.5" font-family="Helvetica,sans-Serif" font-size="10.00">constants.h</text>
</a>
</g>
</g>
<!-- Node16&#45;&gt;Node25 -->
<g id="edge39_Node000016_Node000025" class="edge">
<title>Node16&#45;&gt;Node25</title>
<g id="a_edge39_Node000016_Node000025"><a xlink:title=" ">
<path fill="none" stroke="#63b8ff" d="M602.8,-176.59C585.57,-168.33 559.82,-155.98 539.92,-146.43"/>
<polygon fill="#63b8ff" stroke="#63b8ff" points="541.44,-143.28 530.91,-142.11 538.41,-149.59 541.44,-143.28"/>
</a>
</g>
</g>
<!-- Node17&#45;&gt;Node4 -->
<g id="edge24_Node000017_Node000004" class="edge">
<title>Node17&#45;&gt;Node4</title>
<g id="a_edge24_Node000017_Node000004"><a xlink:title=" ">
<path fill="none" stroke="#63b8ff" d="M659.49,-121.42C661.24,-103.25 665.25,-61.67 667.67,-36.57"/>
<polygon fill="#63b8ff" stroke="#63b8ff" points="671.15,-36.96 668.62,-26.67 664.18,-36.29 671.15,-36.96"/>
</a>
</g>
</g>
<!-- Node17&#45;&gt;Node5 -->
<g id="edge25_Node000017_Node000005" class="edge">
<title>Node17&#45;&gt;Node5</title>
<g id="a_edge25_Node000017_Node000005"><a xlink:title=" ">
<path fill="none" stroke="#63b8ff" d="M662.53,-121.57C669.06,-107.81 683.51,-81.27 703.62,-66.5 740.97,-39.07 793.88,-26.24 827.73,-20.51"/>
<polygon fill="#63b8ff" stroke="#63b8ff" points="828.01,-24.01 837.35,-19 826.93,-17.09 828.01,-24.01"/>
</a>
</g>
</g>
<!-- Node17&#45;&gt;Node14 -->
<g id="edge26_Node000017_Node000014" class="edge">
<title>Node17&#45;&gt;Node14</title>
<g id="a_edge26_Node000017_Node000014"><a xlink:title=" ">
<path fill="none" stroke="#63b8ff" d="M674.74,-121.34C689.21,-113.23 710.7,-101.18 727.61,-91.71"/>
<polygon fill="#63b8ff" stroke="#63b8ff" points="729.1,-94.89 736.11,-86.94 725.68,-88.78 729.1,-94.89"/>
</a>
</g>
</g>
<!-- Node17&#45;&gt;Node18 -->
<g id="edge27_Node000017_Node000018" class="edge">
<title>Node17&#45;&gt;Node18</title>
<g id="a_edge27_Node000017_Node000018"><a xlink:title=" ">
<path fill="none" stroke="#63b8ff" d="M645.9,-121.34C634.91,-113.54 618.78,-102.09 605.69,-92.79"/>
<polygon fill="#63b8ff" stroke="#63b8ff" points="607.82,-90.01 597.64,-87.08 603.77,-95.72 607.82,-90.01"/>
</a>
</g>
</g>
<!-- Node19&#45;&gt;Node4 -->
<g id="edge33_Node000019_Node000004" class="edge">
<title>Node19&#45;&gt;Node4</title>
<g id="a_edge33_Node000019_Node000004"><a xlink:title=" ">
<path fill="none" stroke="#63b8ff" d="M335.94,-68.42C340.56,-67.76 345.19,-67.1 349.62,-66.5 478.75,-48.91 515.74,-67.75 640.62,-30.5 641.59,-30.21 642.56,-29.9 643.53,-29.55"/>
<polygon fill="#63b8ff" stroke="#63b8ff" points="644.52,-32.94 652.36,-25.82 641.79,-26.49 644.52,-32.94"/>
</a>
</g>
</g>
<!-- Node19&#45;&gt;Node5 -->
<g id="edge32_Node000019_Node000005" class="edge">
<title>Node19&#45;&gt;Node5</title>
<g id="a_edge32_Node000019_Node000005"><a xlink:title=" ">
<path fill="none" stroke="#63b8ff" d="M335.8,-70.55C445.84,-59.17 730.29,-29.74 827.49,-19.68"/>
<polygon fill="#63b8ff" stroke="#63b8ff" points="827.56,-23.19 837.15,-18.68 826.84,-16.23 827.56,-23.19"/>
</a>
</g>
</g>
<!-- Node19&#45;&gt;Node7 -->
<g id="edge31_Node000019_Node000007" class="edge">
<title>Node19&#45;&gt;Node7</title>
<g id="a_edge31_Node000019_Node000007"><a xlink:title=" ">
<path fill="none" stroke="#63b8ff" d="M335.9,-68.47C417.06,-56.27 581.67,-31.45 584.62,-30.5 585.27,-30.29 585.93,-30.07 586.58,-29.84"/>
<polygon fill="#63b8ff" stroke="#63b8ff" points="587.85,-33.1 595.62,-25.91 585.06,-26.68 587.85,-33.1"/>
</a>
</g>
</g>
<!-- Node19&#45;&gt;Node10 -->
<g id="edge37_Node000019_Node000010" class="edge">
<title>Node19&#45;&gt;Node10</title>
<g id="a_edge37_Node000019_Node000010"><a xlink:title=" ">
<path fill="none" stroke="#63b8ff" d="M247.17,-67.86C202.63,-60.17 132.31,-46.87 72.62,-30.5 70.64,-29.96 68.61,-29.36 66.57,-28.74"/>
<polygon fill="#63b8ff" stroke="#63b8ff" points="67.77,-25.45 57.18,-25.7 65.61,-32.11 67.77,-25.45"/>
</a>
</g>
</g>
<!-- Node20 -->
<g id="Node000020" class="node">
<title>Node20</title>
<g id="a_Node000020"><a xlink:title=" ">
<polygon fill="#e0e0e0" stroke="#999999" points="129.75,-24.88 81.5,-24.88 81.5,-5.63 129.75,-5.63 129.75,-24.88"/>
<text text-anchor="middle" x="105.62" y="-11.38" font-family="Helvetica,sans-Serif" font-size="10.00">random</text>
</a>
</g>
</g>
<!-- Node19&#45;&gt;Node20 -->
<g id="edge30_Node000019_Node000020" class="edge">
<title>Node19&#45;&gt;Node20</title>
<g id="a_edge30_Node000019_Node000020"><a xlink:title=" ">
<path fill="none" stroke="#63b8ff" d="M255.98,-66.07C224.71,-57.81 178.19,-44.75 138.62,-30.5 137.67,-30.16 136.71,-29.8 135.74,-29.44"/>
<polygon fill="#63b8ff" stroke="#63b8ff" points="137.35,-26.31 126.76,-25.81 134.73,-32.8 137.35,-26.31"/>
</a>
</g>
</g>
<!-- Node21 -->
<g id="Node000021" class="node">
<title>Node21</title>
<g id="a_Node000021"><a xlink:title=" ">
<polygon fill="#e0e0e0" stroke="#999999" points="203.5,-24.88 147.75,-24.88 147.75,-5.63 203.5,-5.63 203.5,-24.88"/>
<text text-anchor="middle" x="175.62" y="-11.38" font-family="Helvetica,sans-Serif" font-size="10.00">algorithm</text>
</a>
</g>
</g>
<!-- Node19&#45;&gt;Node21 -->
<g id="edge34_Node000019_Node000021" class="edge">
<title>Node19&#45;&gt;Node21</title>
<g id="a_edge34_Node000019_Node000021"><a xlink:title=" ">
<path fill="none" stroke="#63b8ff" d="M273.75,-66.05C254.97,-56.52 225.16,-41.39 203.32,-30.31"/>
<polygon fill="#63b8ff" stroke="#63b8ff" points="205.18,-27.32 194.68,-25.92 202.01,-33.57 205.18,-27.32"/>
</a>
</g>
</g>
<!-- Node22 -->
<g id="Node000022" class="node">
<title>Node22</title>
<g id="a_Node000022"><a xlink:title=" ">
<polygon fill="#e0e0e0" stroke="#999999" points="279.62,-24.88 221.62,-24.88 221.62,-5.63 279.62,-5.63 279.62,-24.88"/>
<text text-anchor="middle" x="250.62" y="-11.38" font-family="Helvetica,sans-Serif" font-size="10.00">functional</text>
</a>
</g>
</g>
<!-- Node19&#45;&gt;Node22 -->
<g id="edge35_Node000019_Node000022" class="edge">
<title>Node19&#45;&gt;Node22</title>
<g id="a_edge35_Node000019_Node000022"><a xlink:title=" ">
<path fill="none" stroke="#63b8ff" d="M285.4,-66.18C279.56,-57.8 270.65,-45.01 263.31,-34.47"/>
<polygon fill="#63b8ff" stroke="#63b8ff" points="266.36,-32.72 257.78,-26.52 260.62,-36.72 266.36,-32.72"/>
</a>
</g>
</g>
<!-- Node23 -->
<g id="Node000023" class="node">
<title>Node23</title>
<g id="a_Node000023"><a xlink:title=" ">
<polygon fill="#e0e0e0" stroke="#999999" points="427.62,-24.88 369.62,-24.88 369.62,-5.63 427.62,-5.63 427.62,-24.88"/>
<text text-anchor="middle" x="398.62" y="-11.38" font-family="Helvetica,sans-Serif" font-size="10.00">stdexcept</text>
</a>
</g>
</g>
<!-- Node19&#45;&gt;Node23 -->
<g id="edge36_Node000019_Node000023" class="edge">
<title>Node19&#45;&gt;Node23</title>
<g id="a_edge36_Node000019_Node000023"><a xlink:title=" ">
<path fill="none" stroke="#63b8ff" d="M307.88,-66.18C325,-56.76 352.24,-41.77 372.41,-30.68"/>
<polygon fill="#63b8ff" stroke="#63b8ff" points="373.82,-33.89 380.9,-26.01 370.45,-27.76 373.82,-33.89"/>
</a>
</g>
</g>
<!-- Node24 -->
<g id="Node000024" class="node">
<title>Node24</title>
<g id="a_Node000024"><a xlink:title=" ">
<polygon fill="#e0e0e0" stroke="#999999" points="575.62,-30.5 445.62,-30.5 445.62,0 575.62,0 575.62,-30.5"/>
<text text-anchor="start" x="453.62" y="-17" font-family="Helvetica,sans-Serif" font-size="10.00">unsupported/Eigen/CXX11</text>
<text text-anchor="middle" x="510.62" y="-5.75" font-family="Helvetica,sans-Serif" font-size="10.00">/Tensor</text>
</a>
</g>
</g>
<!-- Node19&#45;&gt;Node24 -->
<g id="edge38_Node000019_Node000024" class="edge">
<title>Node19&#45;&gt;Node24</title>
<g id="a_edge38_Node000019_Node000024"><a xlink:title=" ">
<path fill="none" stroke="#63b8ff" d="M325.36,-66.05C357.1,-57.52 405.49,-44.51 444.86,-33.93"/>
<polygon fill="#63b8ff" stroke="#63b8ff" points="445.75,-37.31 454.5,-31.34 443.94,-30.55 445.75,-37.31"/>
</a>
</g>
</g>
<!-- Node26 -->
<g id="Node000026" class="node">
<title>Node26</title>
<g id="a_Node000026"><a xlink:title=" ">
<polygon fill="#e0e0e0" stroke="#999999" points="530.25,-85.75 491,-85.75 491,-66.5 530.25,-66.5 530.25,-85.75"/>
<text text-anchor="middle" x="510.62" y="-72.25" font-family="Helvetica,sans-Serif" font-size="10.00">limits</text>
</a>
</g>
</g>
<!-- Node25&#45;&gt;Node26 -->
<g id="edge40_Node000025_Node000026" class="edge">
<title>Node25&#45;&gt;Node26</title>
<g id="a_edge40_Node000025_Node000026"><a xlink:title=" ">
<path fill="none" stroke="#63b8ff" d="M510.62,-121.58C510.62,-115.07 510.62,-105.92 510.62,-97.62"/>
<polygon fill="#63b8ff" stroke="#63b8ff" points="514.13,-97.62 510.63,-87.62 507.13,-97.62 514.13,-97.62"/>
</a>
</g>
</g>
<!-- Node27 -->
<g id="Node000027" class="node">
<title>Node27</title>
<g id="a_Node000027"><a xlink:title=" ">
<polygon fill="#e0e0e0" stroke="#999999" points="473.12,-85.75 430.12,-85.75 430.12,-66.5 473.12,-66.5 473.12,-85.75"/>
<text text-anchor="middle" x="451.62" y="-72.25" font-family="Helvetica,sans-Serif" font-size="10.00">cmath</text>
</a>
</g>
</g>
<!-- Node25&#45;&gt;Node27 -->
<g id="edge41_Node000025_Node000027" class="edge">
<title>Node25&#45;&gt;Node27</title>
<g id="a_edge41_Node000025_Node000027"><a xlink:title=" ">
<path fill="none" stroke="#63b8ff" d="M500.62,-121.34C492.26,-113.8 480.13,-102.85 470.02,-93.73"/>
<polygon fill="#63b8ff" stroke="#63b8ff" points="472.38,-91.14 462.61,-87.04 467.69,-96.34 472.38,-91.14"/>
</a>
</g>
</g>
</g>
</svg>

<g id="navigator" transform="translate(0 0)" fill="#404254">
  <rect fill="#f2f5e9" fill-opacity="0.5" stroke="#606060" stroke-width=".5" x="0" y="0" width="60" height="60"/>
  <use id="zoomplus" xlink:href="#zoomPlus" x="17" y="9" onmousedown="handleZoom(evt,'in')"/>
  <use id="zoomminus" xlink:href="#zoomMin" x="42" y="9" onmousedown="handleZoom(evt,'out')"/>
  <use id="reset" xlink:href="#resetDef" x="30" y="36" onmousedown="handleReset()"/>
   <use id="arrowup" xlink:href="#arrowUp" x="0" y="0" onmousedown="handlePan(0,-1)"/>
  <use id="arrowright" xlink:href="#arrowRight" x="0" y="0" onmousedown="handlePan(1,0)"/>
  <use id="arrowdown" xlink:href="#arrowDown" x="0" y="0" onmousedown="handlePan(0,1)"/>
  <use id="arrowleft" xlink:href="#arrowLeft" x="0" y="0" onmousedown="handlePan(-1,0)"/>
</g>
<svg viewBox="0 0 15 15" width="100%" height="30px" preserveAspectRatio="xMaxYMin meet">
 <g id="arrow_out" transform="scale(0.3 0.3)">
  <a xlink:href="interaction__data_8h__incl_org.svg" target="_base">
   <rect id="button" ry="5" rx="5" y="6" x="6" height="38" width="38"
        fill="#f2f5e9" fill-opacity="0.5" stroke="#606060" stroke-width="1.0"/>
   <path id="arrow"
     d="M 11.500037,31.436501 C 11.940474,20.09759 22.043105,11.32322 32.158766,21.979434 L 37.068811,17.246167 C 37.068811,17.246167 37.088388,32 37.088388,32 L 22.160133,31.978069 C 22.160133,31.978069 26.997745,27.140456 26.997745,27.140456 C 18.528582,18.264221 13.291696,25.230495 11.500037,31.436501 z"
     style="fill:#404040;"/>
  </a>
 </g>
</svg>

<style type='text/css'>
<![CDATA[
[data-mouse-over-selected='false'] { opacity: 0.7; }
[data-mouse-over-selected='true']  { opacity: 1.0; }
]]>
</style>
<script type="application/ecmascript"><![CDATA[
document.addEventListener('DOMContentLoaded', (event) => {
  highlightEdges();
  highlightAdjacentNodes();
});
]]></script>
</svg>
