<?xml version="1.0" encoding="UTF-8" standalone="no"?>
<!DOCTYPE svg PUBLIC "-//W3C//DTD SVG 1.1//EN"
 "http://www.w3.org/Graphics/SVG/1.1/DTD/svg11.dtd">
<!-- Generated by graphviz version 9.0.0 (20230911.1827)
 -->
<!-- Title: include/MIDSX/Core/interaction_data.h Pages: 1 -->
<svg width="1009pt" height="626pt"
 viewBox="0.00 0.00 1009.25 625.75" xmlns="http://www.w3.org/2000/svg" xmlns:xlink="http://www.w3.org/1999/xlink">
<g id="graph0" class="graph" transform="scale(1 1) rotate(0) translate(4 621.75)">
<title>include/MIDSX/Core/interaction_data.h</title>
<!-- Node1 -->
<g id="Node000001" class="node">
<title>Node1</title>
<g id="a_Node000001"><a xlink:title=" ">
<polygon fill="#999999" stroke="#666666" points="841.25,-617.75 736.75,-617.75 736.75,-587.25 841.25,-587.25 841.25,-617.75"/>
<text text-anchor="start" x="744.75" y="-604.25" font-family="Helvetica,sans-Serif" font-size="10.00">include/MIDSX/Core</text>
<text text-anchor="middle" x="789" y="-593" font-family="Helvetica,sans-Serif" font-size="10.00">/interaction_data.h</text>
</a>
</g>
</g>
<!-- Node2 -->
<g id="Node000002" class="node">
<title>Node2</title>
<g id="a_Node000002"><a xlink:href="_core_8h_source.html" target="_top" xlink:title=" ">
<polygon fill="white" stroke="#666666" points="524,-19.25 412,-19.25 412,0 524,0 524,-19.25"/>
<text text-anchor="middle" x="468" y="-5.75" font-family="Helvetica,sans-Serif" font-size="10.00">include/MIDSX/Core.h</text>
</a>
</g>
</g>
<!-- Node1&#45;&gt;Node2 -->
<g id="edge1_Node000001_Node000002" class="edge">
<title>Node1&#45;&gt;Node2</title>
<g id="a_edge1_Node000001_Node000002"><a xlink:title=" ">
<path fill="none" stroke="#63b8ff" d="M724.98,-597.6C537.03,-585.32 0,-543.82 0,-470.5 0,-470.5 0,-470.5 0,-136 0,-85.79 33.91,-77.33 79,-55.25 136.24,-27.23 318.31,-16.31 411.64,-12.48"/>
<polygon fill="#63b8ff" stroke="#63b8ff" points="724.6,-601.09 734.8,-598.24 725.05,-594.1 724.6,-601.09"/>
</a>
</g>
</g>
<!-- Node3 -->
<g id="Node000003" class="node">
<title>Node3</title>
<g id="a_Node000003"><a xlink:href="computational__domain_8h_source.html" target="_top" xlink:title=" ">
<polygon fill="white" stroke="#666666" points="983,-218.75 859,-218.75 859,-188.25 983,-188.25 983,-218.75"/>
<text text-anchor="start" x="867" y="-205.25" font-family="Helvetica,sans-Serif" font-size="10.00">include/MIDSX/Core</text>
<text text-anchor="middle" x="921" y="-194" font-family="Helvetica,sans-Serif" font-size="10.00">/computational_domain.h</text>
</a>
</g>
</g>
<!-- Node1&#45;&gt;Node3 -->
<g id="edge2_Node000001_Node000003" class="edge">
<title>Node1&#45;&gt;Node3</title>
<g id="a_edge2_Node000001_Node000003"><a xlink:title=" ">
<path fill="none" stroke="#63b8ff" d="M819.35,-579.63C828.69,-571.61 838.28,-561.87 845,-551.25 865.02,-519.61 869,-507.94 869,-470.5 869,-470.5 869,-470.5 869,-335.5 869,-298.63 873.44,-288.62 888,-254.75 893.52,-241.9 902.31,-228.74 909.42,-219.11"/>
<polygon fill="#63b8ff" stroke="#63b8ff" points="817.3,-576.78 811.75,-585.81 821.71,-582.22 817.3,-576.78"/>
</a>
</g>
</g>
<!-- Node4 -->
<g id="Node000004" class="node">
<title>Node4</title>
<g id="a_Node000004"><a xlink:href="physics__engine_8h_source.html" target="_top" xlink:title=" ">
<polygon fill="white" stroke="#666666" points="742.25,-152.25 637.75,-152.25 637.75,-121.75 742.25,-121.75 742.25,-152.25"/>
<text text-anchor="start" x="645.75" y="-138.75" font-family="Helvetica,sans-Serif" font-size="10.00">include/MIDSX/Core</text>
<text text-anchor="middle" x="690" y="-127.5" font-family="Helvetica,sans-Serif" font-size="10.00">/physics_engine.h</text>
</a>
</g>
</g>
<!-- Node1&#45;&gt;Node4 -->
<g id="edge42_Node000001_Node000004" class="edge">
<title>Node1&#45;&gt;Node4</title>
<g id="a_edge42_Node000001_Node000004"><a xlink:title=" ">
<path fill="none" stroke="#63b8ff" d="M801.86,-577.07C814.21,-551.31 831,-509.16 831,-470.5 831,-470.5 831,-470.5 831,-269 831,-211.7 767.72,-172.38 725.95,-152.67"/>
<polygon fill="#63b8ff" stroke="#63b8ff" points="798.89,-575.19 797.57,-585.7 805.16,-578.3 798.89,-575.19"/>
</a>
</g>
</g>
<!-- Node6 -->
<g id="Node000006" class="node">
<title>Node6</title>
<g id="a_Node000006"><a xlink:href="photon_8h_source.html" target="_top" xlink:title=" ">
<polygon fill="white" stroke="#666666" points="715.25,-484.75 610.75,-484.75 610.75,-454.25 715.25,-454.25 715.25,-484.75"/>
<text text-anchor="start" x="618.75" y="-471.25" font-family="Helvetica,sans-Serif" font-size="10.00">include/MIDSX/Core</text>
<text text-anchor="middle" x="663" y="-460" font-family="Helvetica,sans-Serif" font-size="10.00">/photon.h</text>
</a>
</g>
</g>
<!-- Node1&#45;&gt;Node6 -->
<g id="edge8_Node000001_Node000006" class="edge">
<title>Node1&#45;&gt;Node6</title>
<g id="a_edge8_Node000001_Node000006"><a xlink:title=" ">
<path fill="none" stroke="#63b8ff" d="M726.28,-583.26C709.8,-575.74 693.45,-565.37 682,-551.25 666.49,-532.12 663.22,-502.52 662.76,-484.97"/>
<polygon fill="#63b8ff" stroke="#63b8ff" points="724.54,-586.33 735.12,-586.99 727.26,-579.88 724.54,-586.33"/>
</a>
</g>
</g>
<!-- Node16 -->
<g id="Node000016" class="node">
<title>Node16</title>
<g id="a_Node000016"><a xlink:href="photon__interactions_8h_source.html" target="_top" xlink:title=" ">
<polygon fill="white" stroke="#666666" points="802.62,-551.25 691.38,-551.25 691.38,-520.75 802.62,-520.75 802.62,-551.25"/>
<text text-anchor="start" x="699.38" y="-537.75" font-family="Helvetica,sans-Serif" font-size="10.00">include/MIDSX/Core</text>
<text text-anchor="middle" x="747" y="-526.5" font-family="Helvetica,sans-Serif" font-size="10.00">/photon_interactions.h</text>
</a>
</g>
</g>
<!-- Node1&#45;&gt;Node16 -->
<g id="edge38_Node000001_Node000016" class="edge">
<title>Node1&#45;&gt;Node16</title>
<g id="a_edge38_Node000001_Node000016"><a xlink:title=" ">
<path fill="none" stroke="#63b8ff" d="M773.21,-577.26C767.59,-568.62 761.43,-559.16 756.49,-551.58"/>
<polygon fill="#63b8ff" stroke="#63b8ff" points="770.25,-579.13 778.64,-585.6 776.12,-575.31 770.25,-579.13"/>
</a>
</g>
</g>
<!-- Node17 -->
<g id="Node000017" class="node">
<title>Node17</title>
<g id="a_Node000017"><a xlink:href="voxel__grid_8h_source.html" target="_top" xlink:title=" ">
<polygon fill="white" stroke="#666666" points="1001.25,-285.25 896.75,-285.25 896.75,-254.75 1001.25,-254.75 1001.25,-285.25"/>
<text text-anchor="start" x="904.75" y="-271.75" font-family="Helvetica,sans-Serif" font-size="10.00">include/MIDSX/Core</text>
<text text-anchor="middle" x="949" y="-260.5" font-family="Helvetica,sans-Serif" font-size="10.00">/voxel_grid.h</text>
</a>
</g>
</g>
<!-- Node1&#45;&gt;Node17 -->
<g id="edge43_Node000001_Node000017" class="edge">
<title>Node1&#45;&gt;Node17</title>
<g id="a_edge43_Node000001_Node000017"><a xlink:title=" ">
<path fill="none" stroke="#63b8ff" d="M838.02,-581.94C853.67,-574.05 870.22,-563.8 883,-551.25 912.3,-522.45 928,-511.59 928,-470.5 928,-470.5 928,-470.5 928,-402 928,-359.16 939.09,-309.42 945.15,-285.42"/>
<polygon fill="#63b8ff" stroke="#63b8ff" points="836.79,-578.65 829.28,-586.12 839.81,-584.96 836.79,-578.65"/>
</a>
</g>
</g>
<!-- Node3&#45;&gt;Node2 -->
<g id="edge3_Node000003_Node000002" class="edge">
<title>Node3&#45;&gt;Node2</title>
<g id="a_edge3_Node000003_Node000002"><a xlink:title=" ">
<path fill="none" stroke="#63b8ff" d="M912.01,-177.77C898.27,-143.89 868.66,-83.99 822,-55.25 773.41,-25.32 611.39,-15.36 524.39,-12.12"/>
<polygon fill="#63b8ff" stroke="#63b8ff" points="908.62,-178.71 915.51,-186.77 915.14,-176.18 908.62,-178.71"/>
</a>
</g>
</g>
<!-- Node3&#45;&gt;Node4 -->
<g id="edge4_Node000003_Node000004" class="edge">
<title>Node3&#45;&gt;Node4</title>
<g id="a_edge4_Node000003_Node000004"><a xlink:title=" ">
<path fill="none" stroke="#63b8ff" d="M857.38,-184.74C821.25,-174.65 776.58,-162.18 742.48,-152.65"/>
<polygon fill="#63b8ff" stroke="#63b8ff" points="856.26,-188.06 866.84,-187.38 858.15,-181.32 856.26,-188.06"/>
</a>
</g>
</g>
<!-- Node4&#45;&gt;Node2 -->
<g id="edge5_Node000004_Node000002" class="edge">
<title>Node4&#45;&gt;Node2</title>
<g id="a_edge5_Node000004_Node000002"><a xlink:title=" ">
<path fill="none" stroke="#63b8ff" d="M688.92,-110.11C686.78,-92.26 681.02,-69.29 666,-55.25 645.73,-36.3 575.46,-23.78 524.38,-16.94"/>
<polygon fill="#63b8ff" stroke="#63b8ff" points="685.43,-110.32 689.77,-119.98 692.4,-109.72 685.43,-110.32"/>
</a>
</g>
</g>
<!-- Node5 -->
<g id="Node000005" class="node">
<title>Node5</title>
<g id="a_Node000005"><a xlink:href="run__simulation_8h.html" target="_top" xlink:title="Contains the runSimulation function.">
<polygon fill="white" stroke="#666666" points="657.25,-85.75 552.75,-85.75 552.75,-55.25 657.25,-55.25 657.25,-85.75"/>
<text text-anchor="start" x="560.75" y="-72.25" font-family="Helvetica,sans-Serif" font-size="10.00">include/MIDSX/Core</text>
<text text-anchor="middle" x="605" y="-61" font-family="Helvetica,sans-Serif" font-size="10.00">/run_simulation.h</text>
</a>
</g>
</g>
<!-- Node4&#45;&gt;Node5 -->
<g id="edge6_Node000004_Node000005" class="edge">
<title>Node4&#45;&gt;Node5</title>
<g id="a_edge6_Node000004_Node000005"><a xlink:title=" ">
<path fill="none" stroke="#63b8ff" d="M661.72,-114.54C649.4,-105.19 635.28,-94.48 624.21,-86.08"/>
<polygon fill="#63b8ff" stroke="#63b8ff" points="659.42,-117.19 669.51,-120.45 663.66,-111.62 659.42,-117.19"/>
</a>
</g>
</g>
<!-- Node5&#45;&gt;Node2 -->
<g id="edge7_Node000005_Node000002" class="edge">
<title>Node5&#45;&gt;Node2</title>
<g id="a_edge7_Node000005_Node000002"><a xlink:title=" ">
<path fill="none" stroke="#63b8ff" d="M560.47,-50.36C536.46,-40.05 507.96,-27.8 489.01,-19.65"/>
<polygon fill="#63b8ff" stroke="#63b8ff" points="558.82,-53.46 569.39,-54.2 561.59,-47.03 558.82,-53.46"/>
</a>
</g>
</g>
<!-- Node6&#45;&gt;Node2 -->
<g id="edge9_Node000006_Node000002" class="edge">
<title>Node6&#45;&gt;Node2</title>
<g id="a_edge9_Node000006_Node000002"><a xlink:title=" ">
<path fill="none" stroke="#63b8ff" d="M679.58,-444.47C695.45,-419.08 717,-377.28 717,-337.5 717,-337.5 717,-337.5 717,-269 717,-201.83 775.61,-184.24 751,-121.75 736.19,-84.15 724.27,-74.97 689,-55.25 637.92,-26.69 571.13,-16.27 524.4,-12.54"/>
<polygon fill="#63b8ff" stroke="#63b8ff" points="676.74,-442.42 674.24,-452.71 682.61,-446.23 676.74,-442.42"/>
</a>
</g>
</g>
<!-- Node6&#45;&gt;Node4 -->
<g id="edge10_Node000006_Node000004" class="edge">
<title>Node6&#45;&gt;Node4</title>
<g id="a_edge10_Node000006_Node000004"><a xlink:title=" ">
<path fill="none" stroke="#63b8ff" d="M665.51,-442.71C667.85,-416.31 671,-374.09 671,-337.5 671,-337.5 671,-337.5 671,-269 671,-226.26 681.03,-176.47 686.52,-152.44"/>
<polygon fill="#63b8ff" stroke="#63b8ff" points="662.04,-442.19 664.61,-452.47 669.01,-442.84 662.04,-442.19"/>
</a>
</g>
</g>
<!-- Node7 -->
<g id="Node000007" class="node">
<title>Node7</title>
<g id="a_Node000007"><a xlink:href="source_8h_source.html" target="_top" xlink:title=" ">
<polygon fill="white" stroke="#666666" points="619.25,-152.25 514.75,-152.25 514.75,-121.75 619.25,-121.75 619.25,-152.25"/>
<text text-anchor="start" x="522.75" y="-138.75" font-family="Helvetica,sans-Serif" font-size="10.00">include/MIDSX/Core</text>
<text text-anchor="middle" x="567" y="-127.5" font-family="Helvetica,sans-Serif" font-size="10.00">/source.h</text>
</a>
</g>
</g>
<!-- Node6&#45;&gt;Node7 -->
<g id="edge11_Node000006_Node000007" class="edge">
<title>Node6&#45;&gt;Node7</title>
<g id="a_edge11_Node000006_Node000007"><a xlink:title=" ">
<path fill="none" stroke="#63b8ff" d="M649.53,-444.15C636.59,-418.44 619,-376.34 619,-337.5 619,-337.5 619,-337.5 619,-269 619,-223.98 592.14,-176 577.03,-152.57"/>
<polygon fill="#63b8ff" stroke="#63b8ff" points="646.3,-445.51 654.02,-452.76 652.5,-442.28 646.3,-445.51"/>
</a>
</g>
</g>
<!-- Node8 -->
<g id="Node000008" class="node">
<title>Node8</title>
<g id="a_Node000008"><a xlink:href="surface__quantity_8h_source.html" target="_top" xlink:title=" ">
<polygon fill="white" stroke="#666666" points="199.25,-351.75 94.75,-351.75 94.75,-321.25 199.25,-321.25 199.25,-351.75"/>
<text text-anchor="start" x="102.75" y="-338.25" font-family="Helvetica,sans-Serif" font-size="10.00">include/MIDSX/Core</text>
<text text-anchor="middle" x="147" y="-327" font-family="Helvetica,sans-Serif" font-size="10.00">/surface_quantity.h</text>
</a>
</g>
</g>
<!-- Node6&#45;&gt;Node8 -->
<g id="edge14_Node000006_Node000008" class="edge">
<title>Node6&#45;&gt;Node8</title>
<g id="a_edge14_Node000006_Node000008"><a xlink:title=" ">
<path fill="none" stroke="#63b8ff" d="M599.07,-469.06C519.52,-467.81 380.69,-459.16 270,-418.25 228.07,-402.75 185.99,-370.71 163.56,-351.98"/>
<polygon fill="#63b8ff" stroke="#63b8ff" points="598.81,-472.56 608.85,-469.18 598.89,-465.56 598.81,-472.56"/>
</a>
</g>
</g>
<!-- Node12 -->
<g id="Node000012" class="node">
<title>Node12</title>
<g id="a_Node000012"><a xlink:href="tally__data_8h_source.html" target="_top" xlink:title=" ">
<polygon fill="white" stroke="#666666" points="383.25,-418.25 278.75,-418.25 278.75,-387.75 383.25,-387.75 383.25,-418.25"/>
<text text-anchor="start" x="286.75" y="-404.75" font-family="Helvetica,sans-Serif" font-size="10.00">include/MIDSX/Core</text>
<text text-anchor="middle" x="331" y="-393.5" font-family="Helvetica,sans-Serif" font-size="10.00">/tally_data.h</text>
</a>
</g>
</g>
<!-- Node6&#45;&gt;Node12 -->
<g id="edge23_Node000006_Node000012" class="edge">
<title>Node6&#45;&gt;Node12</title>
<g id="a_edge23_Node000006_Node000012"><a xlink:title=" ">
<path fill="none" stroke="#63b8ff" d="M599.47,-456.16C536.83,-443.99 442.2,-425.6 383.63,-414.23"/>
<polygon fill="#63b8ff" stroke="#63b8ff" points="598.42,-459.52 608.91,-457.99 599.76,-452.65 598.42,-459.52"/>
</a>
</g>
</g>
<!-- Node7&#45;&gt;Node2 -->
<g id="edge12_Node000007_Node000002" class="edge">
<title>Node7&#45;&gt;Node2</title>
<g id="a_edge12_Node000007_Node000002"><a xlink:title=" ">
<path fill="none" stroke="#63b8ff" d="M548.72,-112.85C526.55,-84.78 490.28,-38.83 475.06,-19.57"/>
<polygon fill="#63b8ff" stroke="#63b8ff" points="545.76,-114.75 554.71,-120.43 551.26,-110.41 545.76,-114.75"/>
</a>
</g>
</g>
<!-- Node7&#45;&gt;Node5 -->
<g id="edge13_Node000007_Node000005" class="edge">
<title>Node7&#45;&gt;Node5</title>
<g id="a_edge13_Node000007_Node000005"><a xlink:title=" ">
<path fill="none" stroke="#63b8ff" d="M581.45,-111.48C586.49,-102.91 592,-93.57 596.41,-86.08"/>
<polygon fill="#63b8ff" stroke="#63b8ff" points="578.45,-109.67 576.39,-120.06 584.48,-113.22 578.45,-109.67"/>
</a>
</g>
</g>
<!-- Node8&#45;&gt;Node2 -->
<g id="edge15_Node000008_Node000002" class="edge">
<title>Node8&#45;&gt;Node2</title>
<g id="a_edge15_Node000008_Node000002"><a xlink:title=" ">
<path fill="none" stroke="#63b8ff" d="M94.84,-315.77C80.74,-308.16 66.71,-298.13 57,-285.25 34.8,-255.82 38,-241.37 38,-204.5 38,-204.5 38,-204.5 38,-136 38,-59.02 295.23,-26.12 411.79,-15.16"/>
<polygon fill="#63b8ff" stroke="#63b8ff" points="93.2,-318.86 103.71,-320.2 96.33,-312.6 93.2,-318.86"/>
</a>
</g>
</g>
<!-- Node9 -->
<g id="Node000009" class="node">
<title>Node9</title>
<g id="a_Node000009"><a xlink:href="surface__quantity__container_8h_source.html" target="_top" xlink:title=" ">
<polygon fill="white" stroke="#666666" points="208.38,-285.25 65.62,-285.25 65.62,-254.75 208.38,-254.75 208.38,-285.25"/>
<text text-anchor="start" x="73.62" y="-271.75" font-family="Helvetica,sans-Serif" font-size="10.00">include/MIDSX/Core</text>
<text text-anchor="middle" x="137" y="-260.5" font-family="Helvetica,sans-Serif" font-size="10.00">/surface_quantity_container.h</text>
</a>
</g>
</g>
<!-- Node8&#45;&gt;Node9 -->
<g id="edge16_Node000008_Node000009" class="edge">
<title>Node8&#45;&gt;Node9</title>
<g id="a_edge16_Node000008_Node000009"><a xlink:title=" ">
<path fill="none" stroke="#63b8ff" d="M142.98,-309.56C141.71,-301.39 140.36,-292.66 139.26,-285.58"/>
<polygon fill="#63b8ff" stroke="#63b8ff" points="139.51,-310.02 144.5,-319.37 146.43,-308.95 139.51,-310.02"/>
</a>
</g>
</g>
<!-- Node9&#45;&gt;Node2 -->
<g id="edge17_Node000009_Node000002" class="edge">
<title>Node9&#45;&gt;Node2</title>
<g id="a_edge17_Node000009_Node000002"><a xlink:title=" ">
<path fill="none" stroke="#63b8ff" d="M119.87,-244.77C110.63,-228.59 102.51,-206.93 110,-188.25 140.4,-112.38 165.26,-94.41 237,-55.25 291.5,-25.5 362.71,-15.35 411.59,-12.01"/>
<polygon fill="#63b8ff" stroke="#63b8ff" points="116.89,-246.6 125.15,-253.24 122.83,-242.9 116.89,-246.6"/>
</a>
</g>
</g>
<!-- Node10 -->
<g id="Node000010" class="node">
<title>Node10</title>
<g id="a_Node000010"><a xlink:href="surface__tally_8h_source.html" target="_top" xlink:title=" ">
<polygon fill="white" stroke="#666666" points="223.25,-218.75 118.75,-218.75 118.75,-188.25 223.25,-188.25 223.25,-218.75"/>
<text text-anchor="start" x="126.75" y="-205.25" font-family="Helvetica,sans-Serif" font-size="10.00">include/MIDSX/Core</text>
<text text-anchor="middle" x="171" y="-194" font-family="Helvetica,sans-Serif" font-size="10.00">/surface_tally.h</text>
</a>
</g>
</g>
<!-- Node9&#45;&gt;Node10 -->
<g id="edge18_Node000009_Node000010" class="edge">
<title>Node9&#45;&gt;Node10</title>
<g id="a_edge18_Node000009_Node000010"><a xlink:title=" ">
<path fill="none" stroke="#63b8ff" d="M150.08,-244.19C154.55,-235.71 159.41,-226.49 163.32,-219.08"/>
<polygon fill="#63b8ff" stroke="#63b8ff" points="146.99,-242.55 145.42,-253.03 153.18,-245.81 146.99,-242.55"/>
</a>
</g>
</g>
<!-- Node10&#45;&gt;Node2 -->
<g id="edge19_Node000010_Node000002" class="edge">
<title>Node10&#45;&gt;Node2</title>
<g id="a_edge19_Node000010_Node000002"><a xlink:title=" ">
<path fill="none" stroke="#63b8ff" d="M175.56,-177.08C179.65,-159.99 187.07,-137.75 200,-121.75 252.64,-56.62 349.93,-29.22 411.69,-18.01"/>
<polygon fill="#63b8ff" stroke="#63b8ff" points="172.22,-175.96 173.55,-186.47 179.06,-177.43 172.22,-175.96"/>
</a>
</g>
</g>
<!-- Node10&#45;&gt;Node4 -->
<g id="edge22_Node000010_Node000004" class="edge">
<title>Node10&#45;&gt;Node4</title>
<g id="a_edge22_Node000010_Node000004"><a xlink:title=" ">
<path fill="none" stroke="#63b8ff" d="M234.69,-192.92C246.42,-191.28 258.57,-189.65 270,-188.25 428.73,-168.85 470.21,-178.21 628,-152.25 631.05,-151.75 634.18,-151.19 637.32,-150.58"/>
<polygon fill="#63b8ff" stroke="#63b8ff" points="234.51,-189.41 225.11,-194.29 235.5,-196.34 234.51,-189.41"/>
</a>
</g>
</g>
<!-- Node11 -->
<g id="Node000011" class="node">
<title>Node11</title>
<g id="a_Node000011"><a xlink:href="derived__quantities_8h_source.html" target="_top" xlink:title=" ">
<polygon fill="white" stroke="#666666" points="314.62,-152.25 209.38,-152.25 209.38,-121.75 314.62,-121.75 314.62,-152.25"/>
<text text-anchor="start" x="217.38" y="-138.75" font-family="Helvetica,sans-Serif" font-size="10.00">include/MIDSX/Core</text>
<text text-anchor="middle" x="262" y="-127.5" font-family="Helvetica,sans-Serif" font-size="10.00">/derived_quantities.h</text>
</a>
</g>
</g>
<!-- Node10&#45;&gt;Node11 -->
<g id="edge20_Node000010_Node000011" class="edge">
<title>Node10&#45;&gt;Node11</title>
<g id="a_edge20_Node000010_Node000011"><a xlink:title=" ">
<path fill="none" stroke="#63b8ff" d="M200.89,-181.32C214.16,-171.91 229.46,-161.06 241.43,-152.58"/>
<polygon fill="#63b8ff" stroke="#63b8ff" points="199.02,-178.35 192.88,-186.99 203.07,-184.06 199.02,-178.35"/>
</a>
</g>
</g>
<!-- Node11&#45;&gt;Node2 -->
<g id="edge21_Node000011_Node000002" class="edge">
<title>Node11&#45;&gt;Node2</title>
<g id="a_edge21_Node000011_Node000002"><a xlink:title=" ">
<path fill="none" stroke="#63b8ff" d="M281.89,-113.19C298.38,-95.42 323.24,-71.17 349,-55.25 375.37,-38.95 408.64,-27.1 433.29,-19.73"/>
<polygon fill="#63b8ff" stroke="#63b8ff" points="279.64,-110.46 275.51,-120.21 284.82,-115.16 279.64,-110.46"/>
</a>
</g>
</g>
<!-- Node12&#45;&gt;Node2 -->
<g id="edge24_Node000012_Node000002" class="edge">
<title>Node12&#45;&gt;Node2</title>
<g id="a_edge24_Node000012_Node000002"><a xlink:title=" ">
<path fill="none" stroke="#63b8ff" d="M335.12,-376.11C340.48,-346.05 351.31,-295.39 369,-254.75 376.58,-237.34 383.58,-235.77 392,-218.75 428.5,-144.96 457.08,-49.1 465.48,-19.63"/>
<polygon fill="#63b8ff" stroke="#63b8ff" points="331.7,-375.35 333.47,-385.79 338.6,-376.52 331.7,-375.35"/>
</a>
</g>
</g>
<!-- Node12&#45;&gt;Node8 -->
<g id="edge26_Node000012_Node000008" class="edge">
<title>Node12&#45;&gt;Node8</title>
<g id="a_edge26_Node000012_Node000008"><a xlink:title=" ">
<path fill="none" stroke="#63b8ff" d="M278.68,-383.66C250.24,-373.69 215.54,-361.53 188.91,-352.19"/>
<polygon fill="#63b8ff" stroke="#63b8ff" points="277.22,-386.86 287.82,-386.86 279.54,-380.25 277.22,-386.86"/>
</a>
</g>
</g>
<!-- Node12&#45;&gt;Node10 -->
<g id="edge27_Node000012_Node000010" class="edge">
<title>Node12&#45;&gt;Node10</title>
<g id="a_edge27_Node000012_Node000010"><a xlink:title=" ">
<path fill="none" stroke="#63b8ff" d="M293.9,-381.25C281.94,-373.22 269.36,-363.18 260,-351.75 230.13,-315.26 242.81,-294.21 217,-254.75 208.32,-241.49 196.13,-228.34 186.47,-218.82"/>
<polygon fill="#63b8ff" stroke="#63b8ff" points="291.71,-384 302.02,-386.44 295.48,-378.1 291.71,-384"/>
</a>
</g>
</g>
<!-- Node12&#45;&gt;Node11 -->
<g id="edge25_Node000012_Node000011" class="edge">
<title>Node12&#45;&gt;Node11</title>
<g id="a_edge25_Node000012_Node000011"><a xlink:title=" ">
<path fill="none" stroke="#63b8ff" d="M320.69,-377C306.8,-342.17 282.37,-276.79 270,-218.75 265.15,-196.02 263.23,-169.04 262.48,-152.74"/>
<polygon fill="#63b8ff" stroke="#63b8ff" points="317.41,-378.22 324.4,-386.18 323.9,-375.59 317.41,-378.22"/>
</a>
</g>
</g>
<!-- Node13 -->
<g id="Node000013" class="node">
<title>Node13</title>
<g id="a_Node000013"><a xlink:href="volume__quantity_8h_source.html" target="_top" xlink:title=" ">
<polygon fill="white" stroke="#666666" points="520.25,-351.75 415.75,-351.75 415.75,-321.25 520.25,-321.25 520.25,-351.75"/>
<text text-anchor="start" x="423.75" y="-338.25" font-family="Helvetica,sans-Serif" font-size="10.00">include/MIDSX/Core</text>
<text text-anchor="middle" x="468" y="-327" font-family="Helvetica,sans-Serif" font-size="10.00">/volume_quantity.h</text>
</a>
</g>
</g>
<!-- Node12&#45;&gt;Node13 -->
<g id="edge28_Node000012_Node000013" class="edge">
<title>Node12&#45;&gt;Node13</title>
<g id="a_edge28_Node000012_Node000013"><a xlink:title=" ">
<path fill="none" stroke="#63b8ff" d="M372.25,-382.58C393.06,-372.78 417.88,-361.1 437.04,-352.08"/>
<polygon fill="#63b8ff" stroke="#63b8ff" points="371.01,-379.29 363.46,-386.72 374,-385.63 371.01,-379.29"/>
</a>
</g>
</g>
<!-- Node14 -->
<g id="Node000014" class="node">
<title>Node14</title>
<g id="a_Node000014"><a xlink:href="volume__quantity__container_8h_source.html" target="_top" xlink:title=" ">
<polygon fill="white" stroke="#666666" points="520,-285.25 378,-285.25 378,-254.75 520,-254.75 520,-285.25"/>
<text text-anchor="start" x="386" y="-271.75" font-family="Helvetica,sans-Serif" font-size="10.00">include/MIDSX/Core</text>
<text text-anchor="middle" x="449" y="-260.5" font-family="Helvetica,sans-Serif" font-size="10.00">/volume_quantity_container.h</text>
</a>
</g>
</g>
<!-- Node12&#45;&gt;Node14 -->
<g id="edge36_Node000012_Node000014" class="edge">
<title>Node12&#45;&gt;Node14</title>
<g id="a_edge36_Node000012_Node000014"><a xlink:title=" ">
<path fill="none" stroke="#63b8ff" d="M351.67,-379.05C375.94,-352.11 415.45,-308.25 435.86,-285.58"/>
<polygon fill="#63b8ff" stroke="#63b8ff" points="349.18,-376.58 345.09,-386.36 354.39,-381.27 349.18,-376.58"/>
</a>
</g>
</g>
<!-- Node15 -->
<g id="Node000015" class="node">
<title>Node15</title>
<g id="a_Node000015"><a xlink:href="volume__tally_8h_source.html" target="_top" xlink:title=" ">
<polygon fill="white" stroke="#666666" points="383.25,-218.75 278.75,-218.75 278.75,-188.25 383.25,-188.25 383.25,-218.75"/>
<text text-anchor="start" x="286.75" y="-205.25" font-family="Helvetica,sans-Serif" font-size="10.00">include/MIDSX/Core</text>
<text text-anchor="middle" x="331" y="-194" font-family="Helvetica,sans-Serif" font-size="10.00">/volume_tally.h</text>
</a>
</g>
</g>
<!-- Node12&#45;&gt;Node15 -->
<g id="edge37_Node000012_Node000015" class="edge">
<title>Node12&#45;&gt;Node15</title>
<g id="a_edge37_Node000012_Node000015"><a xlink:title=" ">
<path fill="none" stroke="#63b8ff" d="M331,-376.02C331,-333.94 331,-252.24 331,-219.04"/>
<polygon fill="#63b8ff" stroke="#63b8ff" points="327.5,-375.96 331,-385.96 334.5,-375.96 327.5,-375.96"/>
</a>
</g>
</g>
<!-- Node13&#45;&gt;Node2 -->
<g id="edge29_Node000013_Node000002" class="edge">
<title>Node13&#45;&gt;Node2</title>
<g id="a_edge29_Node000013_Node000002"><a xlink:title=" ">
<path fill="none" stroke="#63b8ff" d="M504.19,-314.27C514.09,-306.5 523.58,-296.75 529,-285.25 534.78,-272.99 530.66,-268.2 529,-254.75 526.01,-230.41 481.35,-61.02 470.41,-19.7"/>
<polygon fill="#63b8ff" stroke="#63b8ff" points="502.38,-311.27 496.32,-319.96 506.47,-316.94 502.38,-311.27"/>
</a>
</g>
</g>
<!-- Node13&#45;&gt;Node14 -->
<g id="edge30_Node000013_Node000014" class="edge">
<title>Node13&#45;&gt;Node14</title>
<g id="a_edge30_Node000013_Node000014"><a xlink:title=" ">
<path fill="none" stroke="#63b8ff" d="M460.44,-309.84C458.01,-301.59 455.41,-292.74 453.29,-285.58"/>
<polygon fill="#63b8ff" stroke="#63b8ff" points="457.08,-310.81 463.26,-319.41 463.79,-308.83 457.08,-310.81"/>
</a>
</g>
</g>
<!-- Node14&#45;&gt;Node2 -->
<g id="edge31_Node000014_Node000002" class="edge">
<title>Node14&#45;&gt;Node2</title>
<g id="a_edge31_Node000014_Node000002"><a xlink:title=" ">
<path fill="none" stroke="#63b8ff" d="M450.92,-242.92C455.07,-186.45 464.73,-55.12 467.34,-19.61"/>
<polygon fill="#63b8ff" stroke="#63b8ff" points="447.43,-242.63 450.19,-252.86 454.41,-243.14 447.43,-242.63"/>
</a>
</g>
</g>
<!-- Node14&#45;&gt;Node15 -->
<g id="edge32_Node000014_Node000015" class="edge">
<title>Node14&#45;&gt;Node15</title>
<g id="a_edge32_Node000014_Node000015"><a xlink:title=" ">
<path fill="none" stroke="#63b8ff" d="M412.24,-248.91C394.58,-239.25 373.79,-227.89 357.67,-219.08"/>
<polygon fill="#63b8ff" stroke="#63b8ff" points="410.44,-251.91 420.9,-253.64 413.8,-245.77 410.44,-251.91"/>
</a>
</g>
</g>
<!-- Node15&#45;&gt;Node2 -->
<g id="edge33_Node000015_Node000002" class="edge">
<title>Node15&#45;&gt;Node2</title>
<g id="a_edge33_Node000015_Node000002"><a xlink:title=" ">
<path fill="none" stroke="#63b8ff" d="M337.44,-177.1C346.46,-145.6 365.39,-91.62 397,-55.25 410.75,-39.43 431.5,-27.29 447.02,-19.69"/>
<polygon fill="#63b8ff" stroke="#63b8ff" points="334.12,-175.96 334.86,-186.53 340.88,-177.81 334.12,-175.96"/>
</a>
</g>
</g>
<!-- Node15&#45;&gt;Node4 -->
<g id="edge35_Node000015_Node000004" class="edge">
<title>Node15&#45;&gt;Node4</title>
<g id="a_edge35_Node000015_Node000004"><a xlink:title=" ">
<path fill="none" stroke="#63b8ff" d="M394.99,-192.78C455.27,-183.36 548.02,-168.19 628,-152.25 631.03,-151.65 634.14,-151 637.28,-150.34"/>
<polygon fill="#63b8ff" stroke="#63b8ff" points="394.59,-189.3 385.24,-194.29 395.66,-196.22 394.59,-189.3"/>
</a>
</g>
</g>
<!-- Node15&#45;&gt;Node11 -->
<g id="edge34_Node000015_Node000011" class="edge">
<title>Node15&#45;&gt;Node11</title>
<g id="a_edge34_Node000015_Node000011"><a xlink:title=" ">
<path fill="none" stroke="#63b8ff" d="M307.16,-180.21C297.37,-171.07 286.32,-160.73 277.6,-152.58"/>
<polygon fill="#63b8ff" stroke="#63b8ff" points="304.54,-182.56 314.24,-186.83 309.32,-177.44 304.54,-182.56"/>
</a>
</g>
</g>
<!-- Node16&#45;&gt;Node2 -->
<g id="edge39_Node000016_Node000002" class="edge">
<title>Node16&#45;&gt;Node2</title>
<g id="a_edge39_Node000016_Node000002"><a xlink:title=" ">
<path fill="none" stroke="#63b8ff" d="M761.3,-510.3C774.81,-484.62 793,-442.81 793,-404 793,-404 793,-404 793,-269 793,-169.31 808.44,-109.81 725,-55.25 692.74,-34.15 589.72,-21.38 524.33,-15.19"/>
<polygon fill="#63b8ff" stroke="#63b8ff" points="758.31,-508.48 756.59,-518.94 764.45,-511.83 758.31,-508.48"/>
</a>
</g>
</g>
<!-- Node16&#45;&gt;Node4 -->
<g id="edge41_Node000016_Node000004" class="edge">
<title>Node16&#45;&gt;Node4</title>
<g id="a_edge41_Node000016_Node000004"><a xlink:title=" ">
<path fill="none" stroke="#63b8ff" d="M749.51,-509.21C751.85,-482.81 755,-440.59 755,-404 755,-404 755,-404 755,-269 755,-222.54 721.78,-175.56 702.84,-152.55"/>
<polygon fill="#63b8ff" stroke="#63b8ff" points="746.04,-508.69 748.61,-518.97 753.01,-509.34 746.04,-508.69"/>
</a>
</g>
</g>
<!-- Node16&#45;&gt;Node6 -->
<g id="edge40_Node000016_Node000006" class="edge">
<title>Node16&#45;&gt;Node6</title>
<g id="a_edge40_Node000016_Node000006"><a xlink:title=" ">
<path fill="none" stroke="#63b8ff" d="M719.06,-513.54C706.88,-504.19 692.93,-493.48 681.99,-485.08"/>
<polygon fill="#63b8ff" stroke="#63b8ff" points="716.68,-516.13 726.74,-519.44 720.94,-510.58 716.68,-516.13"/>
</a>
</g>
</g>
<!-- Node17&#45;&gt;Node2 -->
<g id="edge44_Node000017_Node000002" class="edge">
<title>Node17&#45;&gt;Node2</title>
<g id="a_edge44_Node000017_Node000002"><a xlink:title=" ">
<path fill="none" stroke="#63b8ff" d="M974.04,-246.63C981.26,-238.63 988.2,-229.03 992,-218.75 996.7,-206.03 997.33,-200.72 992,-188.25 958.41,-109.62 930.38,-91.62 853,-55.25 796.06,-28.49 616.88,-17.01 524.42,-12.77"/>
<polygon fill="#63b8ff" stroke="#63b8ff" points="971.77,-243.95 967.29,-253.56 976.78,-248.84 971.77,-243.95"/>
</a>
</g>
</g>
<!-- Node17&#45;&gt;Node3 -->
<g id="edge45_Node000017_Node000003" class="edge">
<title>Node17&#45;&gt;Node3</title>
<g id="a_edge45_Node000017_Node000003"><a xlink:title=" ">
<path fill="none" stroke="#63b8ff" d="M938.11,-243.91C934.46,-235.5 930.51,-226.41 927.33,-219.08"/>
<polygon fill="#63b8ff" stroke="#63b8ff" points="934.85,-245.2 942.04,-252.98 941.27,-242.41 934.85,-245.2"/>
</a>
</g>
</g>
</g>
</svg>
