<?xml version="1.0" encoding="UTF-8" standalone="no"?>
<!DOCTYPE svg PUBLIC "-//W3C//DTD SVG 1.1//EN"
 "http://www.w3.org/Graphics/SVG/1.1/DTD/svg11.dtd">
<!-- Generated by graphviz version 9.0.0 (20230911.1827)
 -->
<!-- Title: ProbabilityDist::IntervalData Pages: 1 -->
<svg width="137pt" height="132pt"
 viewBox="0.00 0.00 137.00 132.00" xmlns="http://www.w3.org/2000/svg" xmlns:xlink="http://www.w3.org/1999/xlink">
<g id="graph0" class="graph" transform="scale(1 1) rotate(0) translate(4 128)">
<title>ProbabilityDist::IntervalData</title>
<!-- Node1 -->
<g id="Node000001" class="node">
<title>Node1</title>
<g id="a_Node000001"><a xlink:title=" ">
<polygon fill="#999999" stroke="none" points="129,-124 0,-124 0,0 129,0 129,-124"/>
<text text-anchor="start" x="4.88" y="-110.5" font-family="Helvetica,sans-Serif" font-size="10.00">ProbabilityDist::IntervalData</text>
<text text-anchor="start" x="26" y="-95.5" font-family="Helvetica,sans-Serif" font-size="10.00">+</text>
<text text-anchor="start" x="58" y="-95.5" font-family="Helvetica,sans-Serif" font-size="10.00">x_i</text>
<text text-anchor="start" x="26" y="-80.5" font-family="Helvetica,sans-Serif" font-size="10.00">+</text>
<text text-anchor="start" x="58" y="-80.5" font-family="Helvetica,sans-Serif" font-size="10.00">x_i_1</text>
<text text-anchor="start" x="26" y="-65.5" font-family="Helvetica,sans-Serif" font-size="10.00">+</text>
<text text-anchor="start" x="58" y="-65.5" font-family="Helvetica,sans-Serif" font-size="10.00">y_i</text>
<text text-anchor="start" x="26" y="-50.5" font-family="Helvetica,sans-Serif" font-size="10.00">+</text>
<text text-anchor="start" x="58" y="-50.5" font-family="Helvetica,sans-Serif" font-size="10.00">y_i_1</text>
<text text-anchor="start" x="26" y="-35.5" font-family="Helvetica,sans-Serif" font-size="10.00">+</text>
<text text-anchor="start" x="58" y="-35.5" font-family="Helvetica,sans-Serif" font-size="10.00">a_i</text>
<text text-anchor="start" x="26" y="-20.5" font-family="Helvetica,sans-Serif" font-size="10.00">+</text>
<text text-anchor="start" x="58" y="-20.5" font-family="Helvetica,sans-Serif" font-size="10.00">b_i</text>
<text text-anchor="start" x="63" y="-5.5" font-family="Helvetica,sans-Serif" font-size="10.00"> </text>
<polygon fill="#666666" stroke="#666666" points="0,-107 0,-107 129,-107 129,-107 0,-107"/>
<polygon fill="#666666" stroke="#666666" points="0,-17 0,-17 56,-17 56,-17 0,-17"/>
<polygon fill="#666666" stroke="#666666" points="56,-17 56,-17 129,-17 129,-17 56,-17"/>
<polygon fill="none" stroke="#666666" points="0,0 0,-124 129,-124 129,0 0,0"/>
</a>
</g>
</g>
</g>
</svg>
