<?xml version="1.0" encoding="UTF-8" standalone="no"?>
<!DOCTYPE svg PUBLIC "-//W3C//DTD SVG 1.1//EN"
 "http://www.w3.org/Graphics/SVG/1.1/DTD/svg11.dtd">
<!-- Generated by graphviz version 9.0.0 (20230911.1827)
 -->
<!-- Title: TempVolumeTallyData Pages: 1 -->
<svg width="222pt" height="666pt"
 viewBox="0.00 0.00 221.50 665.75" xmlns="http://www.w3.org/2000/svg" xmlns:xlink="http://www.w3.org/1999/xlink">
<g id="graph0" class="graph" transform="scale(1 1) rotate(0) translate(4 661.75)">
<title>TempVolumeTallyData</title>
<!-- Node1 -->
<g id="Node000001" class="node">
<title>Node1</title>
<g id="a_Node000001"><a xlink:title="Struct which represents the temporary data for a volume tally.">
<polygon fill="#999999" stroke="none" points="152,-94 44,-94 44,0 152,0 152,-94"/>
<text text-anchor="start" x="48.88" y="-80.5" font-family="Helvetica,sans-Serif" font-size="10.00">TempVolumeTallyData</text>
<text text-anchor="start" x="51.5" y="-65.5" font-family="Helvetica,sans-Serif" font-size="10.00">+</text>
<text text-anchor="start" x="65" y="-65.5" font-family="Helvetica,sans-Serif" font-size="10.00">energy_deposited</text>
<text text-anchor="start" x="51.5" y="-50.5" font-family="Helvetica,sans-Serif" font-size="10.00">+</text>
<text text-anchor="start" x="65" y="-50.5" font-family="Helvetica,sans-Serif" font-size="10.00">free_path</text>
<text text-anchor="start" x="51.5" y="-35.5" font-family="Helvetica,sans-Serif" font-size="10.00">+</text>
<text text-anchor="start" x="65" y="-35.5" font-family="Helvetica,sans-Serif" font-size="10.00">isInteract</text>
<text text-anchor="start" x="51.5" y="-20.5" font-family="Helvetica,sans-Serif" font-size="10.00">+</text>
<text text-anchor="start" x="65" y="-20.5" font-family="Helvetica,sans-Serif" font-size="10.00">already_counted</text>
<text text-anchor="start" x="96.5" y="-5.5" font-family="Helvetica,sans-Serif" font-size="10.00"> </text>
<polygon fill="#666666" stroke="#666666" points="44,-77 44,-77 152,-77 152,-77 44,-77"/>
<polygon fill="#666666" stroke="#666666" points="44,-17 44,-17 63,-17 63,-17 44,-17"/>
<polygon fill="#666666" stroke="#666666" points="63,-17 63,-17 152,-17 152,-17 63,-17"/>
<polygon fill="none" stroke="#666666" points="44,0 44,-94 152,-94 152,0 44,0"/>
</a>
</g>
</g>
<!-- Node2 -->
<g id="Node000002" class="node">
<title>Node2</title>
<g id="a_Node000002"><a xlink:href="class_photon.html" target="_top" xlink:title="Class which represents a photon. Inherits from Particle.">
<polygon fill="white" stroke="none" points="168,-321.5 28,-321.5 28,-152.5 168,-152.5 168,-321.5"/>
<text text-anchor="start" x="82.62" y="-308" font-family="Helvetica,sans-Serif" font-size="10.00">Photon</text>
<text text-anchor="start" x="33.5" y="-293" font-family="Helvetica,sans-Serif" font-size="10.00">&#45;</text>
<text text-anchor="start" x="42" y="-293" font-family="Helvetica,sans-Serif" font-size="10.00">interaction_behavior_</text>
<text text-anchor="start" x="32" y="-278" font-family="Helvetica,sans-Serif" font-size="10.00">+</text>
<text text-anchor="start" x="42" y="-278" font-family="Helvetica,sans-Serif" font-size="10.00">Photon()</text>
<text text-anchor="start" x="32" y="-263" font-family="Helvetica,sans-Serif" font-size="10.00">+</text>
<text text-anchor="start" x="42" y="-263" font-family="Helvetica,sans-Serif" font-size="10.00">Photon()</text>
<text text-anchor="start" x="32" y="-248" font-family="Helvetica,sans-Serif" font-size="10.00">+</text>
<text text-anchor="start" x="42" y="-248" font-family="Helvetica,sans-Serif" font-size="10.00">interact()</text>
<text text-anchor="start" x="32" y="-233" font-family="Helvetica,sans-Serif" font-size="10.00">+</text>
<text text-anchor="start" x="42" y="-233" font-family="Helvetica,sans-Serif" font-size="10.00">setInteractionBehavior()</text>
<text text-anchor="start" x="32" y="-218" font-family="Helvetica,sans-Serif" font-size="10.00">+</text>
<text text-anchor="start" x="42" y="-218" font-family="Helvetica,sans-Serif" font-size="10.00">addCoherentScatter()</text>
<text text-anchor="start" x="32" y="-203" font-family="Helvetica,sans-Serif" font-size="10.00">+</text>
<text text-anchor="start" x="42" y="-203" font-family="Helvetica,sans-Serif" font-size="10.00">addIncoherentScatter()</text>
<text text-anchor="start" x="32" y="-188" font-family="Helvetica,sans-Serif" font-size="10.00">+</text>
<text text-anchor="start" x="42" y="-188" font-family="Helvetica,sans-Serif" font-size="10.00">getTotalScatterCount()</text>
<text text-anchor="start" x="32" y="-173" font-family="Helvetica,sans-Serif" font-size="10.00">+</text>
<text text-anchor="start" x="42" y="-173" font-family="Helvetica,sans-Serif" font-size="10.00">getCoherentScatterCount()</text>
<text text-anchor="start" x="32" y="-158" font-family="Helvetica,sans-Serif" font-size="10.00">+</text>
<text text-anchor="start" x="42" y="-158" font-family="Helvetica,sans-Serif" font-size="10.00">getIncoherentScatterCount()</text>
<polygon fill="#666666" stroke="#666666" points="28,-304.5 28,-304.5 168,-304.5 168,-304.5 28,-304.5"/>
<polygon fill="#666666" stroke="#666666" points="28,-289.5 28,-289.5 40,-289.5 40,-289.5 28,-289.5"/>
<polygon fill="#666666" stroke="#666666" points="40,-289.5 40,-289.5 168,-289.5 168,-289.5 40,-289.5"/>
<polygon fill="none" stroke="#666666" points="28,-152.5 28,-321.5 168,-321.5 168,-152.5 28,-152.5"/>
</a>
</g>
</g>
<!-- Node2&#45;&gt;Node1 -->
<g id="edge1_Node000001_Node000002" class="edge">
<title>Node2&#45;&gt;Node1</title>
<g id="a_edge1_Node000001_Node000002"><a xlink:title=" ">
<path fill="none" stroke="#63b8ff" d="M98,-152.72C98,-137.23 98,-121.35 98,-106.78"/>
<polygon fill="none" stroke="#63b8ff" points="98,-106.73 94,-100.73 98,-94.73 102,-100.73 98,-106.73"/>
</a>
</g>
<text text-anchor="middle" x="129.5" y="-125" font-family="Helvetica,sans-Serif" font-size="10.00" fill="grey"> +final_photon</text>
<text text-anchor="middle" x="129.5" y="-113.75" font-family="Helvetica,sans-Serif" font-size="10.00" fill="grey">+initial_photon</text>
</g>
<!-- Node3 -->
<g id="Node000003" class="node">
<title>Node3</title>
<g id="a_Node000003"><a xlink:href="class_particle.html" target="_top" xlink:title="Class which represents a particle.">
<polygon fill="white" stroke="none" points="80,-657.75 0,-657.75 0,-368.75 80,-368.75 80,-657.75"/>
<text text-anchor="start" x="23.5" y="-644.25" font-family="Helvetica,sans-Serif" font-size="10.00">Particle</text>
<text text-anchor="start" x="5.5" y="-629.25" font-family="Helvetica,sans-Serif" font-size="10.00">&#45;</text>
<text text-anchor="start" x="14" y="-629.25" font-family="Helvetica,sans-Serif" font-size="10.00">position_</text>
<text text-anchor="start" x="5.5" y="-614.25" font-family="Helvetica,sans-Serif" font-size="10.00">&#45;</text>
<text text-anchor="start" x="14" y="-614.25" font-family="Helvetica,sans-Serif" font-size="10.00">direction_</text>
<text text-anchor="start" x="5.5" y="-599.25" font-family="Helvetica,sans-Serif" font-size="10.00">&#45;</text>
<text text-anchor="start" x="14" y="-599.25" font-family="Helvetica,sans-Serif" font-size="10.00">energy_</text>
<text text-anchor="start" x="5.5" y="-584.25" font-family="Helvetica,sans-Serif" font-size="10.00">&#45;</text>
<text text-anchor="start" x="14" y="-584.25" font-family="Helvetica,sans-Serif" font-size="10.00">terminated_</text>
<text text-anchor="start" x="5.5" y="-569.25" font-family="Helvetica,sans-Serif" font-size="10.00">&#45;</text>
<text text-anchor="start" x="14" y="-569.25" font-family="Helvetica,sans-Serif" font-size="10.00">isPrimary_</text>
<text text-anchor="start" x="4" y="-554.25" font-family="Helvetica,sans-Serif" font-size="10.00">+</text>
<text text-anchor="start" x="14" y="-554.25" font-family="Helvetica,sans-Serif" font-size="10.00">Particle()</text>
<text text-anchor="start" x="4" y="-539.25" font-family="Helvetica,sans-Serif" font-size="10.00">+</text>
<text text-anchor="start" x="14" y="-539.25" font-family="Helvetica,sans-Serif" font-size="10.00">Particle()</text>
<text text-anchor="start" x="4" y="-524.25" font-family="Helvetica,sans-Serif" font-size="10.00">+</text>
<text text-anchor="start" x="14" y="-524.25" font-family="Helvetica,sans-Serif" font-size="10.00">getPosition()</text>
<text text-anchor="start" x="4" y="-509.25" font-family="Helvetica,sans-Serif" font-size="10.00">+</text>
<text text-anchor="start" x="14" y="-509.25" font-family="Helvetica,sans-Serif" font-size="10.00">getDirection()</text>
<text text-anchor="start" x="4" y="-494.25" font-family="Helvetica,sans-Serif" font-size="10.00">+</text>
<text text-anchor="start" x="14" y="-494.25" font-family="Helvetica,sans-Serif" font-size="10.00">getEnergy()</text>
<text text-anchor="start" x="4" y="-479.25" font-family="Helvetica,sans-Serif" font-size="10.00">+</text>
<text text-anchor="start" x="14" y="-479.25" font-family="Helvetica,sans-Serif" font-size="10.00">move()</text>
<text text-anchor="start" x="4" y="-464.25" font-family="Helvetica,sans-Serif" font-size="10.00">+</text>
<text text-anchor="start" x="14" y="-464.25" font-family="Helvetica,sans-Serif" font-size="10.00">setDirection()</text>
<text text-anchor="start" x="4" y="-449.25" font-family="Helvetica,sans-Serif" font-size="10.00">+</text>
<text text-anchor="start" x="14" y="-449.25" font-family="Helvetica,sans-Serif" font-size="10.00">rotate()</text>
<text text-anchor="start" x="4" y="-434.25" font-family="Helvetica,sans-Serif" font-size="10.00">+</text>
<text text-anchor="start" x="14" y="-434.25" font-family="Helvetica,sans-Serif" font-size="10.00">setEnergy()</text>
<text text-anchor="start" x="4" y="-419.25" font-family="Helvetica,sans-Serif" font-size="10.00">+</text>
<text text-anchor="start" x="14" y="-419.25" font-family="Helvetica,sans-Serif" font-size="10.00">isTerminated()</text>
<text text-anchor="start" x="4" y="-404.25" font-family="Helvetica,sans-Serif" font-size="10.00">+</text>
<text text-anchor="start" x="14" y="-404.25" font-family="Helvetica,sans-Serif" font-size="10.00">terminate()</text>
<text text-anchor="start" x="4" y="-389.25" font-family="Helvetica,sans-Serif" font-size="10.00">+</text>
<text text-anchor="start" x="14" y="-389.25" font-family="Helvetica,sans-Serif" font-size="10.00">isPrimary()</text>
<text text-anchor="start" x="4" y="-374.25" font-family="Helvetica,sans-Serif" font-size="10.00">+</text>
<text text-anchor="start" x="14" y="-374.25" font-family="Helvetica,sans-Serif" font-size="10.00">setPrimary()</text>
<polygon fill="#666666" stroke="#666666" points="0,-640.75 0,-640.75 80,-640.75 80,-640.75 0,-640.75"/>
<polygon fill="#666666" stroke="#666666" points="0,-565.75 0,-565.75 12,-565.75 12,-565.75 0,-565.75"/>
<polygon fill="#666666" stroke="#666666" points="12,-565.75 12,-565.75 80,-565.75 80,-565.75 12,-565.75"/>
<polygon fill="none" stroke="#666666" points="0,-368.75 0,-657.75 80,-657.75 80,-368.75 0,-368.75"/>
</a>
</g>
</g>
<!-- Node3&#45;&gt;Node2 -->
<g id="edge2_Node000002_Node000003" class="edge">
<title>Node3&#45;&gt;Node2</title>
<g id="a_edge2_Node000002_Node000003"><a xlink:title=" ">
<path fill="none" stroke="#63b8ff" d="M72.62,-358.01C75.28,-345.43 77.9,-333.04 80.39,-321.29"/>
<polygon fill="none" stroke="#63b8ff" points="69.23,-357.11 70.59,-367.62 76.08,-358.56 69.23,-357.11"/>
</a>
</g>
</g>
<!-- Node4 -->
<g id="Node000004" class="node">
<title>Node4</title>
<g id="a_Node000004"><a xlink:href="struct_photon_scattering_history.html" target="_top" xlink:title="Struct which contains the scattering history of a photon.">
<polygon fill="white" stroke="none" points="213.5,-552.75 98.5,-552.75 98.5,-473.75 213.5,-473.75 213.5,-552.75"/>
<text text-anchor="start" x="103.12" y="-539.25" font-family="Helvetica,sans-Serif" font-size="10.00">PhotonScatteringHistory</text>
<text text-anchor="start" x="115.5" y="-524.25" font-family="Helvetica,sans-Serif" font-size="10.00">+</text>
<text text-anchor="start" x="138.5" y="-524.25" font-family="Helvetica,sans-Serif" font-size="10.00">coherent</text>
<text text-anchor="start" x="115.5" y="-509.25" font-family="Helvetica,sans-Serif" font-size="10.00">+</text>
<text text-anchor="start" x="138.5" y="-509.25" font-family="Helvetica,sans-Serif" font-size="10.00">incoherent</text>
<text text-anchor="start" x="115.5" y="-494.25" font-family="Helvetica,sans-Serif" font-size="10.00">+</text>
<text text-anchor="start" x="138.5" y="-494.25" font-family="Helvetica,sans-Serif" font-size="10.00">total</text>
<text text-anchor="start" x="154.5" y="-479.25" font-family="Helvetica,sans-Serif" font-size="10.00"> </text>
<polygon fill="#666666" stroke="#666666" points="98.5,-535.75 98.5,-535.75 213.5,-535.75 213.5,-535.75 98.5,-535.75"/>
<polygon fill="#666666" stroke="#666666" points="98.5,-490.75 98.5,-490.75 136.5,-490.75 136.5,-490.75 98.5,-490.75"/>
<polygon fill="#666666" stroke="#666666" points="136.5,-490.75 136.5,-490.75 213.5,-490.75 213.5,-490.75 136.5,-490.75"/>
<polygon fill="none" stroke="#666666" points="98.5,-473.75 98.5,-552.75 213.5,-552.75 213.5,-473.75 98.5,-473.75"/>
</a>
</g>
</g>
<!-- Node4&#45;&gt;Node2 -->
<g id="edge3_Node000002_Node000004" class="edge">
<title>Node4&#45;&gt;Node2</title>
<g id="a_edge3_Node000002_Node000004"><a xlink:title=" ">
<path fill="none" stroke="#63b8ff" d="M147.87,-473.83C140.23,-437.7 128.48,-382.12 118.3,-333.99"/>
<polygon fill="none" stroke="#63b8ff" points="118.28,-333.9 113.13,-328.86 115.8,-322.16 120.95,-327.21 118.28,-333.9"/>
</a>
</g>
<text text-anchor="middle" x="165.5" y="-341.25" font-family="Helvetica,sans-Serif" font-size="10.00" fill="grey"> &#45;scattering_history_</text>
</g>
</g>
</svg>
