<?xml version="1.0" encoding="UTF-8" standalone="no"?>
<!DOCTYPE svg PUBLIC "-//W3C//DTD SVG 1.1//EN"
 "http://www.w3.org/Graphics/SVG/1.1/DTD/svg11.dtd">
<!-- Generated by graphviz version 9.0.0 (20230911.1827)
 -->
<!-- Title: TempVoxelData Pages: 1 -->
<svg width="101pt" height="460pt"
 viewBox="0.00 0.00 101.00 459.50" xmlns="http://www.w3.org/2000/svg" xmlns:xlink="http://www.w3.org/1999/xlink">
<g id="graph0" class="graph" transform="scale(1 1) rotate(0) translate(4 455.5)">
<title>TempVoxelData</title>
<!-- Node1 -->
<g id="Node000001" class="node">
<title>Node1</title>
<g id="a_Node000001"><a xlink:title="Struct which represents the temporary data for a voxel.">
<polygon fill="#999999" stroke="none" points="93,-49 0,-49 0,0 93,0 93,-49"/>
<text text-anchor="start" x="12" y="-35.5" font-family="Helvetica,sans-Serif" font-size="10.00">TempVoxelData</text>
<text text-anchor="start" x="4" y="-20.5" font-family="Helvetica,sans-Serif" font-size="10.00">+</text>
<text text-anchor="start" x="14" y="-20.5" font-family="Helvetica,sans-Serif" font-size="10.00">energy_deposited</text>
<text text-anchor="start" x="4" y="-5.5" font-family="Helvetica,sans-Serif" font-size="10.00">+</text>
<text text-anchor="start" x="14" y="-5.5" font-family="Helvetica,sans-Serif" font-size="10.00">TempVoxelData()</text>
<polygon fill="#666666" stroke="#666666" points="0,-32 0,-32 93,-32 93,-32 0,-32"/>
<polygon fill="#666666" stroke="#666666" points="0,-17 0,-17 12,-17 12,-17 0,-17"/>
<polygon fill="#666666" stroke="#666666" points="12,-17 12,-17 93,-17 93,-17 12,-17"/>
<polygon fill="none" stroke="#666666" points="0,0 0,-49 93,-49 93,0 0,0"/>
</a>
</g>
</g>
<!-- Node2 -->
<g id="Node000002" class="node">
<title>Node2</title>
<g id="a_Node000002"><a xlink:href="struct_voxel.html" target="_top" xlink:title="Struct which represents a voxel.">
<polygon fill="white" stroke="none" points="77.5,-145.25 15.5,-145.25 15.5,-96.25 77.5,-96.25 77.5,-145.25"/>
<text text-anchor="start" x="34.5" y="-131.75" font-family="Helvetica,sans-Serif" font-size="10.00">Voxel</text>
<text text-anchor="start" x="19.5" y="-116.75" font-family="Helvetica,sans-Serif" font-size="10.00">+</text>
<text text-anchor="start" x="29.5" y="-116.75" font-family="Helvetica,sans-Serif" font-size="10.00">materialID</text>
<text text-anchor="start" x="45" y="-101.75" font-family="Helvetica,sans-Serif" font-size="10.00"> </text>
<polygon fill="#666666" stroke="#666666" points="15.5,-128.25 15.5,-128.25 77.5,-128.25 77.5,-128.25 15.5,-128.25"/>
<polygon fill="#666666" stroke="#666666" points="15.5,-113.25 15.5,-113.25 27.5,-113.25 27.5,-113.25 15.5,-113.25"/>
<polygon fill="#666666" stroke="#666666" points="27.5,-113.25 27.5,-113.25 77.5,-113.25 77.5,-113.25 27.5,-113.25"/>
<polygon fill="none" stroke="#666666" points="15.5,-96.25 15.5,-145.25 77.5,-145.25 77.5,-96.25 15.5,-96.25"/>
</a>
</g>
</g>
<!-- Node2&#45;&gt;Node1 -->
<g id="edge1_Node000001_Node000002" class="edge">
<title>Node2&#45;&gt;Node1</title>
<g id="a_edge1_Node000001_Node000002"><a xlink:title=" ">
<path fill="none" stroke="#63b8ff" d="M46.5,-96.45C46.5,-86.03 46.5,-73.5 46.5,-61.89"/>
<polygon fill="none" stroke="#63b8ff" points="46.5,-61.76 42.5,-55.76 46.5,-49.76 50.5,-55.76 46.5,-61.76"/>
</a>
</g>
<text text-anchor="middle" x="61.88" y="-68.75" font-family="Helvetica,sans-Serif" font-size="10.00" fill="grey"> +voxel</text>
</g>
<!-- Node3 -->
<g id="Node000003" class="node">
<title>Node3</title>
<g id="a_Node000003"><a xlink:href="class_vector_value.html" target="_top" xlink:title="Class which represents a vector quantity. Used by the Tally classes to store simulation data.">
<polygon fill="white" stroke="none" points="89.5,-451.5 3.5,-451.5 3.5,-192.5 89.5,-192.5 89.5,-451.5"/>
<text text-anchor="start" x="19.88" y="-438" font-family="Helvetica,sans-Serif" font-size="10.00">VectorValue</text>
<text text-anchor="start" x="9" y="-423" font-family="Helvetica,sans-Serif" font-size="10.00">&#45;</text>
<text text-anchor="start" x="17.5" y="-423" font-family="Helvetica,sans-Serif" font-size="10.00">values_</text>
<text text-anchor="start" x="9" y="-408" font-family="Helvetica,sans-Serif" font-size="10.00">&#45;</text>
<text text-anchor="start" x="17.5" y="-408" font-family="Helvetica,sans-Serif" font-size="10.00">sum_</text>
<text text-anchor="start" x="9" y="-393" font-family="Helvetica,sans-Serif" font-size="10.00">&#45;</text>
<text text-anchor="start" x="17.5" y="-393" font-family="Helvetica,sans-Serif" font-size="10.00">summed_</text>
<text text-anchor="start" x="9" y="-378" font-family="Helvetica,sans-Serif" font-size="10.00">&#45;</text>
<text text-anchor="start" x="17.5" y="-378" font-family="Helvetica,sans-Serif" font-size="10.00">var_</text>
<text text-anchor="start" x="9" y="-363" font-family="Helvetica,sans-Serif" font-size="10.00">&#45;</text>
<text text-anchor="start" x="17.5" y="-363" font-family="Helvetica,sans-Serif" font-size="10.00">var_calculated_</text>
<text text-anchor="start" x="7.5" y="-348" font-family="Helvetica,sans-Serif" font-size="10.00">+</text>
<text text-anchor="start" x="17.5" y="-348" font-family="Helvetica,sans-Serif" font-size="10.00">operator+()</text>
<text text-anchor="start" x="7.5" y="-333" font-family="Helvetica,sans-Serif" font-size="10.00">+</text>
<text text-anchor="start" x="17.5" y="-333" font-family="Helvetica,sans-Serif" font-size="10.00">addValue()</text>
<text text-anchor="start" x="7.5" y="-318" font-family="Helvetica,sans-Serif" font-size="10.00">+</text>
<text text-anchor="start" x="17.5" y="-318" font-family="Helvetica,sans-Serif" font-size="10.00">addValues()</text>
<text text-anchor="start" x="7.5" y="-303" font-family="Helvetica,sans-Serif" font-size="10.00">+</text>
<text text-anchor="start" x="17.5" y="-303" font-family="Helvetica,sans-Serif" font-size="10.00">getVector()</text>
<text text-anchor="start" x="7.5" y="-288" font-family="Helvetica,sans-Serif" font-size="10.00">+</text>
<text text-anchor="start" x="17.5" y="-288" font-family="Helvetica,sans-Serif" font-size="10.00">getSum()</text>
<text text-anchor="start" x="7.5" y="-273" font-family="Helvetica,sans-Serif" font-size="10.00">+</text>
<text text-anchor="start" x="17.5" y="-273" font-family="Helvetica,sans-Serif" font-size="10.00">getSumSTD()</text>
<text text-anchor="start" x="7.5" y="-258" font-family="Helvetica,sans-Serif" font-size="10.00">+</text>
<text text-anchor="start" x="17.5" y="-258" font-family="Helvetica,sans-Serif" font-size="10.00">getMean()</text>
<text text-anchor="start" x="7.5" y="-243" font-family="Helvetica,sans-Serif" font-size="10.00">+</text>
<text text-anchor="start" x="17.5" y="-243" font-family="Helvetica,sans-Serif" font-size="10.00">getMeanSTD()</text>
<text text-anchor="start" x="7.5" y="-228" font-family="Helvetica,sans-Serif" font-size="10.00">+</text>
<text text-anchor="start" x="17.5" y="-228" font-family="Helvetica,sans-Serif" font-size="10.00">getCount()</text>
<text text-anchor="start" x="7.5" y="-213" font-family="Helvetica,sans-Serif" font-size="10.00">+</text>
<text text-anchor="start" x="17.5" y="-213" font-family="Helvetica,sans-Serif" font-size="10.00">getCountSTD()</text>
<text text-anchor="start" x="7.5" y="-198" font-family="Helvetica,sans-Serif" font-size="10.00">+</text>
<text text-anchor="start" x="17.5" y="-198" font-family="Helvetica,sans-Serif" font-size="10.00">getVariance()</text>
<polygon fill="#666666" stroke="#666666" points="3.5,-434.5 3.5,-434.5 89.5,-434.5 89.5,-434.5 3.5,-434.5"/>
<polygon fill="#666666" stroke="#666666" points="3.5,-359.5 3.5,-359.5 15.5,-359.5 15.5,-359.5 3.5,-359.5"/>
<polygon fill="#666666" stroke="#666666" points="15.5,-359.5 15.5,-359.5 89.5,-359.5 89.5,-359.5 15.5,-359.5"/>
<polygon fill="none" stroke="#666666" points="3.5,-192.5 3.5,-451.5 89.5,-451.5 89.5,-192.5 3.5,-192.5"/>
</a>
</g>
</g>
<!-- Node3&#45;&gt;Node2 -->
<g id="edge2_Node000002_Node000003" class="edge">
<title>Node3&#45;&gt;Node2</title>
<g id="a_edge2_Node000002_Node000003"><a xlink:title=" ">
<path fill="none" stroke="#63b8ff" d="M46.5,-192.56C46.5,-180.13 46.5,-168.36 46.5,-158.12"/>
<polygon fill="none" stroke="#63b8ff" points="46.5,-158.07 42.5,-152.07 46.5,-146.07 50.5,-152.07 46.5,-158.07"/>
</a>
</g>
<text text-anchor="middle" x="61.12" y="-165" font-family="Helvetica,sans-Serif" font-size="10.00" fill="grey"> +dose</text>
</g>
</g>
</svg>
